<?xml version="1.0" encoding="utf-8"?>
<!-- Generator: Adobe Illustrator 17.0.0, SVG Export Plug-In . SVG Version: 6.00 Build 0)  -->
<!DOCTYPE svg PUBLIC "-//W3C//DTD SVG 1.1//EN" "http://www.w3.org/Graphics/SVG/1.1/DTD/svg11.dtd">
<svg version="1.1" id="Layer_1" xmlns="http://www.w3.org/2000/svg" xmlns:xlink="http://www.w3.org/1999/xlink" x="0px" y="0px"
	 width="535.9px" height="536.5px" viewBox="0 0 535.9 536.5" style="enable-background:new 0 0 535.9 536.5;" xml:space="preserve"
	>
<g id="asano.svg">
	<g>
		<path d="M437.2,365.1c-1.2-0.3-3.3,1.2-4.2,2.4c-1.7,2.4-3.7,3.7-6.5,3.4c-4.5-0.4-9-0.9-13.4-1.4c-0.3,0-0.6-1.2-0.6-1.9
			c0.1-2,0.7-3.9,0.6-5.8c-0.1-2.3-1.6-3.1-4-3c-0.9,0-2.2-0.8-2.8-1.6c-1.2-1.6-1.9-3.6-3-5.3c-0.3-0.5-1-0.7-1.6-1
			c-0.1,0.6-0.2,1.2-0.3,1.7c-0.4,5.2-0.8,10.4-1.7,15.6c-0.5-3-0.9-6-1.4-9c-0.3-2-0.4-4.1-1.1-6c-0.4-1.1-1.8-2.1-3-2.6
			c-3.7-1.6-7.3-3.2-9.1-7.1c-0.3-0.6-1.1-1.5-1.2-1.4c-2.6,1.5-3.9-0.7-5.7-1.7c-3.2-1.9-2.1,1.9-3.4,2.7
			c-3.4-2.9-6.8-5.8-10.4-8.5c-1.3-1-3.6-1.3-4.3-2.6c-2.3-4-7.6-2.8-10-6.5c-0.4-0.6-2.6-0.9-3.3-0.4c-2,1.2-2.8,0.2-4.4-0.9
			c-3.3-2.3-7-3.9-10.5-6c-4.2-2.6-8.2-5.5-12.4-8.1c-1.1-0.7-2.6-0.8-3.9-1.3c-0.7-0.3-1.7-0.8-1.8-1.4c-1.3-5.9-2.6-11.7-3.7-17.6
			c-1.4-7-2.6-14-3.9-20.9c-0.9-0.9-0.1-1.9-0.3-2.6c0,0.7,0.1,1.6-1.1,1.8c-2.8-6-2-9.8,2.4-14.1c7.6-7.3,12.1-16.3,14.1-26.6
			c0.5-2.4,1.1-4.8,1.7-7.3c1.2-5.7,2.8-11.4,3.4-17.3c0.3-2.9-0.8-6.2-2-9.1c-1.1-2.6-3.5-3.5-6.3-2.2c-2.7,1.3-5.4,2.8-8.1,4.1
			c-0.7,0.3-1.8,0.6-2.4,0.3c-0.6-0.4-1.2-1.6-1.1-2.2c0.2-0.8,1.1-1.8,1.9-2c3-0.9,4.2-3.1,3.4-5.9c-1-3.3-1.8-6.6-2.7-10
			c-0.1-0.2-0.1-0.5,0-0.7c3.3-6.4-0.8-11.5-2.8-16.9c-0.6-1.6-0.6-3.2,1.9-3.3c2.3-0.1,4.5-0.4,6.8-0.4c37.1,0,74.2,0,111.3,0
			L271.8,0L117.4,154.4c11.2,0,22.5,0,33.7,0c5.4,0,10.9,0,16.3,0c4.2,0,4.6,0.6,3.1,4.5c-0.3,0.9-0.4,1.9,0.1,3
			c0.3-0.6,0.7-1.3,0.9-1.9c2-4.9,5.1-6.5,10.4-5.5c1.9,0.3,1.8,1.2,1.2,2.6c-0.7,1.9-1.3,3.9-1.9,5.9c0.4,0.1,0.8,0.3,1.2,0.4
			c0.7-1.6,1.7-3.2,2.1-5c0.7-3.3,2.7-4.5,5.9-4.1c1.9,0.2,3.8,0.4,6.3,0.7c-13.7,11.4-18.3,28.2-27.4,42.1
			c-0.5-0.2-0.9-0.3-1.4-0.5c0.4-1.5,0.7-3,1.1-4.4c1.7-6,3.4-12,5-18c0.3-1.1-0.3-2.3-0.5-3.5c-0.9,0.7-2.2,1.1-2.8,2
			c-3.7,5.2-6.6,10.6-4.7,17.3c0.2,0.7-0.4,1.6-0.7,2.4c-0.6-0.4-1.6-0.6-1.8-1.2c-1-2.7-2-5.5-2.7-8.3c-0.7-2.9-1-5.9-1.8-9.2
			c-1.1,4.6-3.9,5.1-7.6,4.4c-0.8-0.2-2.6,1.3-2.9,2.4c-1.9,7.2-4.3,9.4-11.7,7.6c-5.5-1.3-8.1,2.1-11,5c-1,1-0.7,3.9-0.2,5.8
			c1,4.4,2.4,8.6,3.6,13c0.3,1.2,0.4,2.4,0.9,3.6c0.9,2.6,1.9,5.2,2.9,7.7c0.3,0.9,1.2,2.2,0.9,2.7c-2.1,3.5-0.6,6.7,0.1,10.1
			c1,4.5,1.5,9.1,2.2,13.6c0.3,1.9,0.4,3.6,3.3,2.9c0.6-0.2,1.9,1.7,2.7,2.8c0.6,0.8,0.8,1.8,1.2,2.7c0.7-0.6,1.4-1.3,2.1-1.9
			c0.4-0.3,1.2-0.8,1.3-0.7c2.1,1.8,4.1,3.6,6,5.5c0.2,0.2-0.4,1.9-0.9,2.2c-2.3,1.2-4.8,2.1-7.2,3.2c-0.2,0.1-0.5,0.6-0.5,0.8
			c0.8,4.7-1.7,9.4,1.6,14.1c2.7,3.9,3.9,8.7,6,13.1c0.6,1.3,1.9,3,3.1,3.2c6,1,7.5,5.3,8.8,10.2c0.4,1.6,1.5,3.5,2.9,4.1
			c1.2,0.6,3.6,0.1,4.7-0.8c1.5-1.4,2.1-3.6,3.2-5.5c0.7-1.2,1.6-2.2,2.3-3.4c0.4-0.7,0.8-1.9,0.5-2.4c-2.4-4.6-2.2-9.1-0.3-13.8
			c1.1-2.7,1.9-5.4,0.6-8.5c-0.8-1.8-0.4-4.3,0-6.4c1-5.6,2.2-11.1,3.4-16.7c0.4-1.7,1.6-2.7,2.6-0.6c1.1,2.2,2.5,4.8,2.3,7.1
			c-0.5,5.7,0.2,11.1,1.4,16.7c1.3,6.1,1.4,12.7-2.3,18.4c-2.3,3.5-3.1,6.7-0.7,10.3c1.7,2.5,0.2,4-2.2,4.3c-5,0.8-8.7,4.2-11.6,7.5
			c-2.9,3.3-3.1,8.4-1.2,12.6c4.1,8.5,8.3,17,13.2,25.1c2.3,3.8,6.5,6.5,9.9,9.6c1.1,1,2.6,1.5,3.5,2.6c0.8,0.9,0.9,2.4,1.3,3.6
			c-1.5,0.2-3.5,1.1-4.6,0.5c-3.4-2.1-6.1-4.9-10.5-5.7c-2.7-0.5-5.1-3.2-7.4-5.3c-2.2-1.9-10.3-3.7-12.5-1.9
			c-3.3,2.6-6.8,1.7-10,0.7c-7.5-2.4-15.6-0.7-20.7,5c-0.7,0.7-1.4,1.8-2.3,1.9c-2.7,0.5-4.1,2.4-5.6,4.4c-0.8,1.1-2.8,1.6-4.3,1.6
			c-3.4,0.2-6.8-0.4-10.1,0l163,163l168.1-168.1C439.6,366.5,438.7,365.4,437.2,365.1z M144.5,247.2c-0.3-0.2-0.6-0.5-0.8-0.7
			c0.2-0.2,0.4-0.6,0.6-0.6c0.2,0,0.5,0.3,0.8,0.6C144.8,246.8,144.6,247,144.5,247.2z M155.8,239.4c-0.5,0.3-1.9-0.9-3-1.2
			c-0.9-0.2-1.9-0.3-2.8-0.1c-2.3,0.5-4.6,1.5-6.9,1.6c-0.9,0-2.1-2-2.5-3.2c-0.2-0.5,1.2-2,2.2-2.3c2.5-1,5.1-2.1,7.7-2.1
			c2.1,0,3.8-0.2,5.7-0.8c0.9-0.3,2.6,1.7,4.6,3.1C158.7,236.5,157.4,238.2,155.8,239.4z M178.6,318.3c1.8-1.7,3.7-3.3,5.6-4.9
			c0.6-0.3,1.2-0.5,1.8-0.8c0.3,1,0.9,2,0.9,2.9c0,0.9-0.6,2.1-1.2,2.4c-1.8,0.9-3.7,1.5-5.7,2C179.6,320,178.6,318.3,178.6,318.3z
			 M182.1,332.3c-1.1-0.9-1.6-2.4-2.4-3.7c1-0.3,2.1-0.8,3.1-0.8c1.2,0,2.6,0.1,3.5,0.7c1.1,0.7,1.8,2,2.6,3.1
			c-1.2,0.5-2.3,1-3.2,1.4C184.3,332.7,182.8,332.9,182.1,332.3z M197.6,351.6c-1.6,2.7-3.4,5.3-5.3,7.8c-0.2,0.3-2.2-0.2-2.4-0.7
			c-0.8-1.6-1.1-3.4-1.4-4.8c0.1-4.5,5.4-7.4,8.7-5.2C197.8,349.1,198,350.9,197.6,351.6z M211,375.8c-0.6,1.6-1.2,3.2-1.8,4.8
			c-0.6-1.8-1.2-3.6-1.8-5.5c0.6-0.9,1.1-1.8,1.7-2.4c0.3-0.2,1.4-0.1,1.5,0.1c0.3,0.9,0.3,1.8,0.5,2.7
			C211.1,375.6,211,375.7,211,375.8z M214.3,157.1c-0.9,2.2-1.9,4.3-3,6.4c-0.4,0.7-1.1,1.1-1.7,1.6c-0.3-0.8-0.7-1.6-1-2.3
			c0.8-2.5,1.5-4.9,2.5-7.1c0.3-0.6,1.9-0.6,2.9-0.9C214.1,155.6,214.6,156.4,214.3,157.1z M294.6,276.7c-0.1,0-0.3,0-0.4,0
			c-0.1-0.6-0.1-1.2-0.2-1.8c0.2,0,0.4,0,0.6,0C294.6,275.5,294.6,276.1,294.6,276.7z M300.7,274.4c-0.6-0.9-1.5-1.8-1.7-2.9
			c-0.2-0.6,0.6-1.5,0.9-2.3c0.7,1,1.4,2,2.3,3.3C301.6,273.2,301.1,273.8,300.7,274.4z M300.6,264.9c-0.3,0-1-0.7-0.9-1
			c0.2-0.6,0.6-1.1,1.1-1.4c0.1-0.1,0.7,0.5,2,1.5C301.8,264.5,301.2,264.9,300.6,264.9z M401.1,378.2c-0.3-0.4-0.8-0.8-0.8-1.2
			c-0.2-2-0.3-4-0.5-6c0.3-0.1,0.5-0.1,0.8-0.2c0.5,2,1,4.1,1.3,6.1C402,377.3,401.4,377.8,401.1,378.2z"/>
		<path d="M4.3,267.5L3.8,268l0.5,0.5C4.3,268.1,4.3,267.8,4.3,267.5z"/>
	</g>
	<g>
		<path style="fill:none;" d="M0,268.5l0.5,0.5c0-0.3,0-0.7,0-1L0,268.5z"/>
		<path style="fill:none;" d="M433.4,365.6c-1.2-0.3-3.3,1.2-4.2,2.4c-1.7,2.4-3.7,3.7-6.5,3.4c-4.5-0.4-9-0.9-13.4-1.4
			c-0.3,0-0.6-1.2-0.6-1.9c0.1-2,0.7-3.9,0.6-5.8c-0.1-2.3-1.6-3.1-4-3c-0.9,0-2.2-0.8-2.8-1.6c-1.2-1.6-1.9-3.6-3-5.3
			c-0.3-0.5-1-0.7-1.6-1c-0.1,0.6-0.2,1.2-0.3,1.7c-0.4,5.2-0.8,10.4-1.7,15.6c-0.5-3-0.9-6-1.4-9c-0.3-2-0.4-4.1-1.1-6
			c-0.4-1.1-1.8-2.1-3-2.6c-3.7-1.6-7.3-3.2-9.1-7.1c-0.3-0.6-1.1-1.5-1.2-1.4c-2.6,1.5-3.9-0.7-5.7-1.7c-3.2-1.9-2.1,1.9-3.4,2.7
			c-3.4-2.9-6.8-5.8-10.4-8.5c-1.3-1-3.6-1.3-4.3-2.6c-2.3-4-7.6-2.8-10-6.5c-0.4-0.6-2.6-0.9-3.3-0.4c-2,1.2-2.8,0.2-4.4-0.9
			c-3.3-2.3-7-3.9-10.5-6c-4.2-2.6-8.2-5.5-12.4-8.1c-1.1-0.7-2.6-0.8-3.9-1.3c-0.7-0.3-1.7-0.8-1.8-1.4c-1.3-5.9-2.6-11.7-3.7-17.6
			c-1.4-7-2.6-14-3.9-20.9c-0.9-0.9-0.1-1.9-0.3-2.6c0,0.7,0.1,1.6-1.1,1.8c-2.8-6-2-9.8,2.4-14.1c7.6-7.3,12.1-16.3,14.1-26.6
			c0.5-2.4,1.1-4.8,1.7-7.3c1.2-5.7,2.8-11.4,3.4-17.3c0.3-2.9-0.8-6.2-2-9.1c-1.1-2.6-3.5-3.5-6.3-2.2c-2.7,1.3-5.4,2.8-8.1,4.1
			c-0.7,0.3-1.8,0.6-2.4,0.3c-0.6-0.4-1.2-1.6-1.1-2.2c0.2-0.8,1.1-1.8,1.9-2c3-0.9,4.2-3.1,3.4-5.9c-1-3.3-1.8-6.6-2.7-10
			c-0.1-0.2-0.1-0.5,0-0.7c3.3-6.4-0.8-11.5-2.8-16.9c-0.6-1.6-0.6-3.2,1.9-3.3c2.3-0.1,4.5-0.4,6.8-0.4c37.1,0,74.2,0,111.3,0
			L268,0.5L113.6,154.9c11.2,0,22.5,0,33.7,0c5.4,0,10.9,0,16.3,0c4.2,0,4.6,0.6,3.1,4.5c-0.3,0.9-0.4,1.9,0.1,3
			c0.3-0.6,0.7-1.3,0.9-1.9c2-4.9,5.1-6.5,10.4-5.5c1.9,0.3,1.8,1.2,1.2,2.6c-0.7,1.9-1.3,3.9-1.9,5.9c0.4,0.1,0.8,0.3,1.2,0.4
			c0.7-1.6,1.7-3.2,2.1-5c0.7-3.3,2.7-4.5,5.9-4.1c1.9,0.2,3.8,0.4,6.3,0.7c-13.7,11.4-18.3,28.2-27.4,42.1
			c-0.5-0.2-0.9-0.3-1.4-0.5c0.4-1.5,0.7-3,1.1-4.4c1.7-6,3.4-12,5-18c0.3-1.1-0.3-2.3-0.5-3.5c-0.9,0.7-2.2,1.1-2.8,2
			c-3.7,5.2-6.6,10.6-4.7,17.3c0.2,0.7-0.4,1.6-0.7,2.4c-0.6-0.4-1.6-0.6-1.8-1.2c-1-2.7-2-5.5-2.7-8.3c-0.7-2.9-1-5.9-1.8-9.2
			c-1.1,4.6-3.9,5.1-7.6,4.4c-0.8-0.2-2.6,1.3-2.9,2.4c-1.9,7.2-4.3,9.4-11.7,7.6c-5.5-1.3-8.1,2.1-11,5c-1,1-0.7,3.9-0.2,5.8
			c1,4.4,2.4,8.6,3.6,13c0.3,1.2,0.4,2.4,0.9,3.6c0.9,2.6,1.9,5.2,2.9,7.7c0.3,0.9,1.2,2.2,0.9,2.7c-2.1,3.5-0.6,6.7,0.1,10.1
			c1,4.5,1.5,9.1,2.2,13.6c0.3,1.9,0.4,3.6,3.3,2.9c0.6-0.2,1.9,1.7,2.7,2.8c0.6,0.8,0.8,1.8,1.2,2.7c0.7-0.6,1.4-1.3,2.1-1.9
			c0.4-0.3,1.2-0.8,1.3-0.7c2.1,1.8,4.1,3.6,6,5.5c0.2,0.2-0.4,1.9-0.9,2.2c-2.3,1.2-4.8,2.1-7.2,3.2c-0.2,0.1-0.5,0.6-0.5,0.8
			c0.8,4.7-1.7,9.4,1.6,14.1c2.7,3.9,3.9,8.7,6,13.1c0.6,1.3,1.9,3,3.1,3.2c6,1,7.5,5.3,8.8,10.2c0.4,1.6,1.5,3.5,2.9,4.1
			c1.2,0.6,3.6,0.1,4.7-0.8c1.5-1.4,2.1-3.6,3.2-5.5c0.7-1.2,1.6-2.2,2.3-3.4c0.4-0.7,0.8-1.9,0.5-2.4c-2.4-4.6-2.2-9.1-0.3-13.8
			c1.1-2.7,1.9-5.4,0.6-8.5c-0.8-1.8-0.4-4.3,0-6.4c1-5.6,2.2-11.1,3.4-16.7c0.4-1.7,1.6-2.7,2.6-0.6c1.1,2.2,2.5,4.8,2.3,7.1
			c-0.5,5.7,0.2,11.1,1.4,16.7c1.3,6.1,1.4,12.7-2.3,18.4c-2.3,3.5-3.1,6.7-0.7,10.3c1.7,2.5,0.2,4-2.2,4.3c-5,0.8-8.7,4.2-11.6,7.5
			c-2.9,3.3-3.1,8.4-1.2,12.6c4.1,8.5,8.3,17,13.2,25.1c2.3,3.8,6.5,6.5,9.9,9.6c1.1,1,2.6,1.5,3.5,2.6c0.8,0.9,0.9,2.4,1.3,3.6
			c-1.5,0.2-3.5,1.1-4.6,0.5c-3.4-2.1-6.1-4.9-10.5-5.7c-2.7-0.5-5.1-3.2-7.4-5.3c-2.2-1.9-10.3-3.7-12.5-1.9
			c-3.3,2.6-6.8,1.7-10,0.7c-7.5-2.4-15.6-0.7-20.7,5c-0.7,0.7-1.4,1.8-2.3,1.9c-2.7,0.5-4.1,2.4-5.6,4.4c-0.8,1.1-2.8,1.6-4.3,1.6
			c-3.4,0.2-6.8-0.4-10.1,0l163,163l168.1-168.1C435.8,367,434.8,365.9,433.4,365.6z M140.6,247.7c-0.3-0.2-0.6-0.5-0.8-0.7
			c0.2-0.2,0.4-0.6,0.6-0.6c0.2,0,0.5,0.3,0.8,0.6C141,247.3,140.8,247.5,140.6,247.7z M152,239.9c-0.5,0.3-1.9-0.9-3-1.2
			c-0.9-0.2-1.9-0.3-2.8-0.1c-2.3,0.5-4.6,1.5-6.9,1.6c-0.9,0-2.1-2-2.5-3.2c-0.2-0.5,1.2-2,2.2-2.3c2.5-1,5.1-2.1,7.7-2.1
			c2.1,0,3.8-0.2,5.7-0.8c0.9-0.3,2.6,1.7,4.6,3.1C154.9,237.1,153.6,238.7,152,239.9z M174.8,318.8c1.8-1.7,3.7-3.3,5.6-4.9
			c0.6-0.3,1.2-0.5,1.8-0.8c0.3,1,0.9,2,0.9,2.9c0,0.9-0.6,2.1-1.2,2.4c-1.8,0.9-3.7,1.5-5.7,2C175.8,320.5,174.8,318.8,174.8,318.8
			z M178.3,332.8c-1.1-0.9-1.6-2.4-2.4-3.7c1-0.3,2.1-0.8,3.1-0.8c1.2,0,2.6,0.1,3.5,0.7c1.1,0.7,1.8,2,2.6,3.1
			c-1.2,0.5-2.3,1-3.2,1.4C180.4,333.2,179,333.4,178.3,332.8z M193.8,352.1c-1.6,2.7-3.4,5.3-5.3,7.8c-0.2,0.3-2.2-0.2-2.4-0.7
			c-0.8-1.6-1.1-3.4-1.4-4.8c0.1-4.5,5.4-7.4,8.7-5.2C193.9,349.6,194.2,351.4,193.8,352.1z M207.2,376.3c-0.6,1.6-1.2,3.2-1.8,4.8
			c-0.6-1.8-1.2-3.6-1.8-5.5c0.6-0.9,1.1-1.8,1.7-2.4c0.3-0.2,1.4-0.1,1.5,0.1c0.3,0.9,0.3,1.8,0.5,2.7
			C207.3,376.1,207.2,376.2,207.2,376.3z M210.5,157.6c-0.9,2.2-1.9,4.3-3,6.4c-0.4,0.7-1.1,1.1-1.7,1.6c-0.3-0.8-0.7-1.6-1-2.3
			c0.8-2.5,1.5-4.9,2.5-7.1c0.3-0.6,1.9-0.6,2.9-0.9C210.3,156.1,210.7,157,210.5,157.6z M290.8,277.2c-0.1,0-0.3,0-0.4,0
			c-0.1-0.6-0.1-1.2-0.2-1.8c0.2,0,0.4,0,0.6,0C290.8,276,290.8,276.6,290.8,277.2z M296.9,274.9c-0.6-0.9-1.5-1.8-1.7-2.9
			c-0.2-0.6,0.6-1.5,0.9-2.3c0.7,1,1.4,2,2.3,3.3C297.7,273.8,297.3,274.3,296.9,274.9z M296.8,265.5c-0.3,0-1-0.7-0.9-1
			c0.2-0.6,0.6-1.1,1.1-1.4c0.1-0.1,0.7,0.5,2,1.5C298,265,297.4,265.4,296.8,265.5z M397.3,378.7c-0.3-0.4-0.8-0.8-0.8-1.2
			c-0.2-2-0.3-4-0.5-6c0.3-0.1,0.5-0.1,0.8-0.2c0.5,2,1,4.1,1.3,6.1C398.1,377.8,397.5,378.3,397.3,378.7z"/>
		<path style="fill:#650204;" d="M304.2,155.3c-2.5,0.1-2.5,1.7-1.9,3.3c2,5.5,6.1,10.6,2.8,16.9c-0.1,0.2,0,0.5,0,0.7
			c0.9,3.3,1.7,6.7,2.7,10c0.9,2.8-0.3,5-3.4,5.9c-0.8,0.2-1.7,1.2-1.9,2c-0.2,0.6,0.4,1.8,1.1,2.2c0.6,0.3,1.7,0.1,2.4-0.3
			c2.7-1.3,5.4-2.8,8.1-4.1c2.7-1.3,5.2-0.4,6.3,2.2c1.2,2.9,2.3,6.1,2,9.1c-0.6,5.8-2.2,11.5-3.4,17.3c-0.5,2.4-1.2,4.8-1.7,7.3
			c-2,10.3-6.5,19.3-14.1,26.6c-4.4,4.2-5.2,8.1-2.4,14.1c1.3-0.2,1.1-1.1,1.1-1.8c0.2,0.7-0.6,1.8,0.3,2.6c1.3,7,2.5,14,3.9,20.9
			c1.1,5.9,2.4,11.8,3.7,17.6c0.1,0.6,1.1,1.1,1.8,1.4c1.3,0.5,2.8,0.6,3.9,1.3c4.2,2.6,8.2,5.5,12.4,8.1c3.4,2.1,7.2,3.8,10.5,6
			c1.5,1,2.4,2.1,4.4,0.9c0.8-0.5,2.9-0.2,3.3,0.4c2.4,3.7,7.7,2.5,10,6.5c0.7,1.3,3,1.5,4.3,2.6c3.5,2.8,6.9,5.7,10.4,8.5
			c1.3-0.8,0.2-4.6,3.4-2.7c1.8,1,3.1,3.2,5.7,1.7c0.1-0.1,0.9,0.8,1.2,1.4c1.9,3.9,5.5,5.5,9.1,7.1c1.2,0.5,2.5,1.5,3,2.6
			c0.7,1.9,0.8,4,1.1,6c0.5,3,0.9,6,1.4,9c0.9-5.3,1.3-10.4,1.7-15.6c0-0.6,0.2-1.2,0.3-1.7c0.5,0.3,1.3,0.5,1.6,1
			c1.1,1.7,1.8,3.7,3,5.3c0.6,0.8,1.8,1.6,2.8,1.6c2.4-0.1,3.9,0.7,4,3c0.1,1.9-0.4,3.9-0.6,5.8c0,0.6,0.3,1.8,0.6,1.9
			c4.5,0.6,8.9,1,13.4,1.4c2.9,0.3,4.8-1,6.5-3.4c0.9-1.2,3-2.7,4.2-2.4c1.5,0.3,2.4,1.4,2.7,2.8l99.9-99.9L422.3,154.9
			c-37.1,0-74.2,0-111.3,0C308.8,154.9,306.5,155.2,304.2,155.3z"/>
		<path style="fill:#650204;" d="M115.1,373.4c1.5-0.1,3.5-0.6,4.3-1.6c1.6-2,2.9-3.9,5.6-4.4c0.9-0.2,1.6-1.2,2.3-1.9
			c5.1-5.6,13.2-7.3,20.7-5c3.1,1,6.7,1.9,10-0.7c2.2-1.7,10.3,0,12.5,1.9c2.3,2,4.7,4.8,7.4,5.3c4.3,0.8,7.1,3.6,10.5,5.7
			c1,0.6,3-0.3,4.6-0.5c-0.4-1.2-0.5-2.7-1.3-3.6c-0.9-1.1-2.5-1.6-3.5-2.6c-3.4-3.1-7.5-5.8-9.9-9.6c-4.9-8-9.1-16.5-13.2-25.1
			c-2-4.1-1.7-9.3,1.2-12.6c2.9-3.4,6.6-6.7,11.6-7.5c2.3-0.4,3.8-1.8,2.2-4.3c-2.4-3.7-1.6-6.8,0.7-10.3c3.7-5.6,3.5-12.3,2.3-18.4
			c-1.1-5.6-1.9-11-1.4-16.7c0.2-2.3-1.1-4.9-2.3-7.1c-1-2.1-2.3-1.2-2.6,0.6c-1.2,5.5-2.4,11.1-3.4,16.7c-0.4,2.1-0.7,4.6,0,6.4
			c1.3,3.1,0.5,5.8-0.6,8.5c-1.9,4.7-2.1,9.2,0.3,13.8c0.3,0.6-0.1,1.7-0.5,2.4c-0.6,1.2-1.6,2.2-2.3,3.4c-1.1,1.8-1.7,4.1-3.2,5.5
			c-1,0.9-3.4,1.4-4.7,0.8c-1.3-0.6-2.5-2.5-2.9-4.1c-1.3-4.9-2.8-9.3-8.8-10.2c-1.2-0.2-2.4-1.9-3.1-3.2c-2.1-4.3-3.3-9.2-6-13.1
			c-3.3-4.7-0.8-9.5-1.6-14.1c0-0.2,0.2-0.7,0.5-0.8c2.4-1.1,4.9-2,7.2-3.2c0.6-0.3,1.2-1.9,0.9-2.2c-1.9-2-3.9-3.8-6-5.5
			c-0.1-0.1-0.9,0.4-1.3,0.7c-0.7,0.6-1.4,1.2-2.1,1.9c-0.4-0.9-0.6-1.9-1.2-2.7c-0.8-1.1-2-3-2.7-2.8c-2.9,0.7-3-1-3.3-2.9
			c-0.7-4.5-1.2-9.1-2.2-13.6c-0.8-3.4-2.2-6.6-0.1-10.1c0.3-0.5-0.5-1.8-0.9-2.7c-1-2.6-2-5.1-2.9-7.7c-0.4-1.1-0.5-2.4-0.9-3.6
			c-1.2-4.3-2.6-8.6-3.6-13c-0.4-1.9-0.8-4.8,0.2-5.8c2.9-2.9,5.5-6.3,11-5c7.4,1.8,9.7-0.4,11.7-7.6c0.3-1,2.1-2.5,2.9-2.4
			c3.7,0.7,6.5,0.2,7.6-4.4c0.9,3.3,1.2,6.3,1.8,9.2c0.7,2.8,1.7,5.6,2.7,8.3c0.2,0.5,1.2,0.8,1.8,1.2c0.2-0.8,0.9-1.7,0.7-2.4
			c-1.9-6.8,1-12.2,4.7-17.3c0.6-0.9,1.8-1.3,2.8-2c0.2,1.2,0.8,2.5,0.5,3.5c-1.5,6-3.3,12-5,18c-0.4,1.5-0.7,3-1.1,4.4
			c0.5,0.2,0.9,0.3,1.4,0.5c9.1-13.9,13.7-30.7,27.4-42.1c-2.5-0.3-4.4-0.5-6.3-0.7c-3.2-0.4-5.1,0.8-5.9,4.1
			c-0.4,1.7-1.4,3.3-2.1,5c-0.4-0.1-0.8-0.3-1.2-0.4c0.6-2,1.2-4,1.9-5.9c0.5-1.4,0.6-2.3-1.2-2.6c-5.3-1-8.4,0.6-10.4,5.5
			c-0.3,0.7-0.6,1.3-0.9,1.9c-0.5-1.1-0.5-2.1-0.1-3c1.5-3.8,1.1-4.5-3.1-4.5c-5.4,0-10.9,0-16.3,0c-11.2,0-22.5,0-33.7,0L0.5,268
			c0,0.3,0,0.7,0,1l104.4,104.4C108.3,373.1,111.7,373.6,115.1,373.4z"/>
		<path style="fill:#650204;" d="M152.3,231.7c-2,0.6-3.7,0.8-5.7,0.8c-2.6,0-5.2,1.2-7.7,2.1c-0.9,0.4-2.4,1.8-2.2,2.3
			c0.4,1.3,1.7,3.3,2.5,3.2c2.3-0.1,4.6-1.1,6.9-1.6c0.9-0.2,1.9-0.1,2.8,0.1c1.1,0.3,2.6,1.6,3,1.2c1.6-1.2,2.9-2.9,4.9-5
			C154.9,233.4,153.3,231.4,152.3,231.7z"/>
		<path style="fill:#650204;" d="M184.7,354.4c0.4,1.3,0.7,3.1,1.4,4.8c0.2,0.5,2.2,1,2.4,0.7c1.9-2.5,3.7-5.1,5.3-7.8
			c0.4-0.7,0.1-2.5-0.4-2.9C190.1,347,184.8,350,184.7,354.4z"/>
		<path style="fill:#640204;" d="M182.6,329c-0.9-0.6-2.3-0.7-3.5-0.7c-1.1,0-2.1,0.5-3.1,0.8c0.8,1.3,1.3,2.8,2.4,3.7
			c0.7,0.6,2.1,0.5,3.7,0.7c0.8-0.4,2-0.9,3.2-1.4C184.3,331,183.7,329.7,182.6,329z"/>
		<path style="fill:#620204;" d="M207.3,156.2c-1.1,2.2-1.7,4.6-2.5,7.1c0.3,0.8,0.7,1.6,1,2.3c0.6-0.5,1.4-1,1.7-1.6
			c1.1-2.1,2.1-4.2,3-6.4c0.2-0.6-0.2-1.5-0.3-2.3C209.2,155.6,207.6,155.6,207.3,156.2z"/>
		<path style="fill:#630204;" d="M181.8,318.4c0.7-0.3,1.2-1.6,1.2-2.4c0-1-0.6-2-0.9-2.9c-0.6,0.3-1.2,0.5-1.8,0.8
			c-1.9,1.6-3.8,3.2-5.6,4.9c0,0,1,1.7,1.3,1.6C178.1,319.9,180,319.3,181.8,318.4z"/>
		<path style="fill:#630204;" d="M205.3,373.2c-0.7,0.6-1.1,1.5-1.7,2.4c0.6,1.9,1.2,3.7,1.8,5.5c0.6-1.6,1.2-3.2,1.8-4.8
			c0-0.1,0.1-0.2,0.1-0.3c-0.1-0.9-0.2-1.9-0.5-2.7C206.7,373.1,205.6,372.9,205.3,373.2z"/>
		<path style="fill:#5C0204;" d="M295.1,272c0.3,1,1.1,1.9,1.7,2.9c0.4-0.6,0.9-1.1,1.5-1.9c-0.9-1.2-1.6-2.2-2.3-3.3
			C295.7,270.5,295,271.4,295.1,272z"/>
		<path style="fill:#5C0204;" d="M396,371.5c0.1,2,0.2,4,0.5,6c0,0.4,0.5,0.8,0.8,1.2c0.3-0.4,0.9-0.9,0.8-1.3
			c-0.3-2.1-0.9-4.1-1.3-6.1C396.5,371.4,396.3,371.4,396,371.5z"/>
		<path style="fill:#5B0204;" d="M295.9,264.5c-0.1,0.2,0.6,1,0.9,1c0.6-0.1,1.2-0.5,2.2-0.9c-1.3-0.9-1.9-1.5-2-1.5
			C296.5,263.4,296,263.9,295.9,264.5z"/>
		<path style="fill:#600204;" d="M139.8,247c0.3,0.2,0.6,0.5,0.8,0.7c0.2-0.2,0.4-0.4,0.6-0.7c-0.3-0.3-0.6-0.6-0.8-0.6
			C140.2,246.4,140,246.8,139.8,247z"/>
		<path style="fill:#640204;" d="M290.4,277.3c0.1,0,0.3,0,0.4,0c0-0.6,0-1.2,0-1.8c-0.2,0-0.4,0-0.6,0
			C290.2,276.1,290.3,276.7,290.4,277.3z"/>
	</g>
</g>
<g>
</g>
<g>
</g>
<g>
</g>
<g>
</g>
<g>
</g>
<g>
</g>
<g>
</g>
<g>
</g>
<g>
</g>
<g>
</g>
<g>
</g>
<g>
</g>
<g>
</g>
<g>
</g>
<g>
</g>
</svg>
