<svg xmlns="http://www.w3.org/2000/svg" width="536" height="537" viewBox="0 0 535.9 536.5" style="enable-background:new 0 0 535.9 536.5">
 <path d="m437 365c-1.2-.3-3.3 1.2-4.2 2.4-1.7 2.4-3.7 3.7-6.5 3.4-4.5-.4-9-.9-13.4-1.4-.3 0-.6-1.2-.6-1.9.1-2 .7-3.9.6-5.8-.1-2.3-1.6-3.1-4-3-.9 0-2.2-.8-2.8-1.6-1.2-1.6-1.9-3.6-3-5.3-.3-.5-1-.7-1.6-1-.1.6-.2 1.2-.3 1.7-.4 5.2-.8 10.4-1.7 15.6-.5-3-.9-6-1.4-9-.3-2-.4-4.1-1.1-6-.4-1.1-1.8-2.1-3-2.6-3.7-1.6-7.3-3.2-9.1-7.1-.3-.6-1.1-1.5-1.2-1.4-2.6 1.5-3.9-.7-5.7-1.7-3.2-1.9-2.1 1.9-3.4 2.7-3.4-2.9-6.8-5.8-10.4-8.5-1.3-1-3.6-1.3-4.3-2.6-2.3-4-7.6-2.8-10-6.5-.4-.6-2.6-.9-3.3-.4-2 1.2-2.8.2-4.4-.9-3.3-2.3-7-3.9-10.5-6-4.2-2.6-8.2-5.5-12.4-8.1-1.1-.7-2.6-.8-3.9-1.3-.7-.3-1.7-.8-1.8-1.4-1.3-5.9-2.6-11.7-3.7-17.6-1.4-7-2.6-14-3.9-20.9-.9-.9-.1-1.9-.3-2.6 0 .7.1 1.6-1.1 1.8-2.8-6-2-9.8 2.4-14 7.6-7.3 12-16.3 14-26.6.5-2.4 1.1-4.8 1.7-7.3 1.2-5.7 2.8-11.4 3.4-17.3.3-2.9-.8-6.2-2-9.1-1.1-2.6-3.5-3.5-6.3-2.2-2.7 1.3-5.4 2.8-8.1 4.1-.7.3-1.8.6-2.4.3-.6-.4-1.2-1.6-1.1-2.2.2-.8 1.1-1.8 1.9-2 3-.9 4.2-3.1 3.4-5.9-1-3.3-1.8-6.6-2.7-10-.1-.2-.1-.5 0-.7 3.3-6.4-.8-11.5-2.8-16.9-.6-1.6-.6-3.2 1.9-3.3 2.3-.1 4.5-.4 6.8-.4 37 0 74 0 111 0l-154-154-154 154c11.2 0 22.5 0 33.7 0 5.4 0 10.9 0 16.3 0 4.2 0 4.6.6 3.1 4.5-.3.9-.4 1.9.1 3 .3-.6.7-1.3.9-1.9 2-4.9 5.1-6.5 10.4-5.5 1.9.3 1.8 1.2 1.2 2.6-.7 1.9-1.3 3.9-1.9 5.9.4.1.8.3 1.2.4.7-1.6 1.7-3.2 2.1-5 .7-3.3 2.7-4.5 5.9-4.1 1.9.2 3.8.4 6.3.7-13.7 11.4-18.3 28-27.4 42-.5-.2-.9-.3-1.4-.5.4-1.5.7-3 1.1-4.4 1.7-6 3.4-12 5-18 .3-1.1-.3-2.3-.5-3.5-.9.7-2.2 1.1-2.8 2-3.7 5.2-6.6 10.6-4.7 17.3.2.7-.4 1.6-.7 2.4-.6-.4-1.6-.6-1.8-1.2-1-2.7-2-5.5-2.7-8.3-.7-2.9-1-5.9-1.8-9.2-1.1 4.6-3.9 5.1-7.6 4.4-.8-.2-2.6 1.3-2.9 2.4-1.9 7.2-4.3 9.4-11.7 7.6-5.5-1.3-8.1 2.1-11 5-1 1-.7 3.9-.2 5.8 1 4.4 2.4 8.6 3.6 13 .3 1.2.4 2.4.9 3.6.9 2.6 1.9 5.2 2.9 7.7.3.9 1.2 2.2.9 2.7-2.1 3.5-.6 6.7.1 10 1 4.5 1.5 9.1 2.2 13.6.3 1.9.4 3.6 3.3 2.9.6-.2 1.9 1.7 2.7 2.8.6.8.8 1.8 1.2 2.7.7-.6 1.4-1.3 2.1-1.9.4-.3 1.2-.8 1.3-.7 2.1 1.8 4.1 3.6 6 5.5.2.2-.4 1.9-.9 2.2-2.3 1.2-4.8 2.1-7.2 3.2-.2.1-.5.6-.5.8.8 4.7-1.7 9.4 1.6 14 2.7 3.9 3.9 8.7 6 13 .6 1.3 1.9 3 3.1 3.2 6 1 7.5 5.3 8.8 10.2.4 1.6 1.5 3.5 2.9 4.1 1.2.6 3.6.1 4.7-.8 1.5-1.4 2.1-3.6 3.2-5.5.7-1.2 1.6-2.2 2.3-3.4.4-.7.8-1.9.5-2.4-2.4-4.6-2.2-9.1-.3-13.8 1.1-2.7 1.9-5.4.6-8.5-.8-1.8-.4-4.3 0-6.4 1-5.6 2.2-11 3.4-16.7.4-1.7 1.6-2.7 2.6-.6 1.1 2.2 2.5 4.8 2.3 7.1-.5 5.7.2 11 1.4 16.7 1.3 6.1 1.4 12.7-2.3 18.4-2.3 3.5-3.1 6.7-.7 10.3 1.7 2.5.2 4-2.2 4.3-5 .8-8.7 4.2-11.6 7.5-2.9 3.3-3.1 8.4-1.2 12.6 4.1 8.5 8.3 17 13.2 25 2.3 3.8 6.5 6.5 9.9 9.6 1.1 1 2.6 1.5 3.5 2.6.8.9.9 2.4 1.3 3.6-1.5.2-3.5 1.1-4.6.5-3.4-2.1-6.1-4.9-10.5-5.7-2.7-.5-5.1-3.2-7.4-5.3-2.2-1.9-10.3-3.7-12.5-1.9-3.3 2.6-6.8 1.7-10 .7-7.5-2.4-15.6-.7-20.7 5-.7.7-1.4 1.8-2.3 1.9-2.7.5-4.1 2.4-5.6 4.4-.8 1.1-2.8 1.6-4.3 1.6-3.4.2-6.8-.4-10 0l163 163 168-168c-.7-1.1-1.6-2.2-3.1-2.5m-293-118c-.3-.2-.6-.5-.8-.7.2-.2.4-.6.6-.6.2 0 .5.3.8.6-.3.3-.5.5-.6.7m11.3-7.8c-.5.3-1.9-.9-3-1.2-.9-.2-1.9-.3-2.8-.1-2.3.5-4.6 1.5-6.9 1.6-.9 0-2.1-2-2.5-3.2-.2-.5 1.2-2 2.2-2.3 2.5-1 5.1-2.1 7.7-2.1 2.1 0 3.8-.2 5.7-.8.9-.3 2.6 1.7 4.6 3.1-2.1 2.1-3.4 3.8-5 5m22.8 78.9c1.8-1.7 3.7-3.3 5.6-4.9.6-.3 1.2-.5 1.8-.8.3 1 .9 2 .9 2.9 0 .9-.6 2.1-1.2 2.4-1.8.9-3.7 1.5-5.7 2-.4.1-1.4-1.6-1.4-1.6m3.5 14c-1.1-.9-1.6-2.4-2.4-3.7 1-.3 2.1-.8 3.1-.8 1.2 0 2.6.1 3.5.7 1.1.7 1.8 2 2.6 3.1-1.2.5-2.3 1-3.2 1.4-1.4-.3-2.9-.1-3.6-.7m15.5 19.3c-1.6 2.7-3.4 5.3-5.3 7.8-.2.3-2.2-.2-2.4-.7-.8-1.6-1.1-3.4-1.4-4.8.1-4.5 5.4-7.4 8.7-5.2.6.4.8 2.2.4 2.9m13.4 24c-.6 1.6-1.2 3.2-1.8 4.8-.6-1.8-1.2-3.6-1.8-5.5.6-.9 1.1-1.8 1.7-2.4.3-.2 1.4-.1 1.5.1.3.9.3 1.8.5 2.7 0 .1-.1.2-.1.3m3.3-219c-.9 2.2-1.9 4.3-3 6.4-.4.7-1.1 1.1-1.7 1.6-.3-.8-.7-1.6-1-2.3.8-2.5 1.5-4.9 2.5-7.1.3-.6 1.9-.6 2.9-.9.1.8.6 1.6.3 2.3m80 120c-.1 0-.3 0-.4 0-.1-.6-.1-1.2-.2-1.8.2 0 .4 0 .6 0 0 .6 0 1.2 0 1.8m6.1-2.3c-.6-.9-1.5-1.8-1.7-2.9-.2-.6.6-1.5.9-2.3.7 1 1.4 2 2.3 3.3-.6.7-1.1 1.3-1.5 1.9m-.1-9.5c-.3 0-1-.7-.9-1 .2-.6.6-1.1 1.1-1.4.1-.1.7.5 2 1.5-1 .5-1.6.9-2.2.9m101 113c-.3-.4-.8-.8-.8-1.2-.2-2-.3-4-.5-6 .3-.1.5-.1.8-.2.5 2 1 4.1 1.3 6.1.1.4-.5.9-.8 1.3"/>
 <path d="m4.3 268l-.5.5.5.5c0-.4 0-.7 0-1"/>
 <g style="fill:#650204">
  <path d="m304 155c-2.5.1-2.5 1.7-1.9 3.3 2 5.5 6.1 10.6 2.8 16.9-.1.2 0 .5 0 .7.9 3.3 1.7 6.7 2.7 10 .9 2.8-.3 5-3.4 5.9-.8.2-1.7 1.2-1.9 2-.2.6.4 1.8 1.1 2.2.6.3 1.7.1 2.4-.3 2.7-1.3 5.4-2.8 8.1-4.1 2.7-1.3 5.2-.4 6.3 2.2 1.2 2.9 2.3 6.1 2 9.1-.6 5.8-2.2 11.5-3.4 17.3-.5 2.4-1.2 4.8-1.7 7.3-2 10.3-6.5 19.3-14 26.6-4.4 4.2-5.2 8.1-2.4 14 1.3-.2 1.1-1.1 1.1-1.8.2.7-.6 1.8.3 2.6 1.3 7 2.5 14 3.9 20.9 1.1 5.9 2.4 11.8 3.7 17.6.1.6 1.1 1.1 1.8 1.4 1.3.5 2.8.6 3.9 1.3 4.2 2.6 8.2 5.5 12.4 8.1 3.4 2.1 7.2 3.8 10.5 6 1.5 1 2.4 2.1 4.4.9.8-.5 2.9-.2 3.3.4 2.4 3.7 7.7 2.5 10 6.5.7 1.3 3 1.5 4.3 2.6 3.5 2.8 6.9 5.7 10.4 8.5 1.3-.8.2-4.6 3.4-2.7 1.8 1 3.1 3.2 5.7 1.7.1-.1.9.8 1.2 1.4 1.9 3.9 5.5 5.5 9.1 7.1 1.2.5 2.5 1.5 3 2.6.7 1.9.8 4 1.1 6 .5 3 .9 6 1.4 9 .9-5.3 1.3-10.4 1.7-15.6 0-.6.2-1.2.3-1.7.5.3 1.3.5 1.6 1 1.1 1.7 1.8 3.7 3 5.3.6.8 1.8 1.6 2.8 1.6 2.4-.1 3.9.7 4 3 .1 1.9-.4 3.9-.6 5.8 0 .6.3 1.8.6 1.9 4.5.6 8.9 1 13.4 1.4 2.9.3 4.8-1 6.5-3.4.9-1.2 3-2.7 4.2-2.4 1.5.3 2.4 1.4 2.7 2.8l100-100-114-114c-37 0-74 0-111 0-2.2 0-4.5.3-6.8.4"/>
  <path d="m115 373c1.5-.1 3.5-.6 4.3-1.6 1.6-2 2.9-3.9 5.6-4.4.9-.2 1.6-1.2 2.3-1.9 5.1-5.6 13.2-7.3 20.7-5 3.1 1 6.7 1.9 10-.7 2.2-1.7 10.3 0 12.5 1.9 2.3 2 4.7 4.8 7.4 5.3 4.3.8 7.1 3.6 10.5 5.7 1 .6 3-.3 4.6-.5-.4-1.2-.5-2.7-1.3-3.6-.9-1.1-2.5-1.6-3.5-2.6-3.4-3.1-7.5-5.8-9.9-9.6-4.9-8-9.1-16.5-13.2-25-2-4.1-1.7-9.3 1.2-12.6 2.9-3.4 6.6-6.7 11.6-7.5 2.3-.4 3.8-1.8 2.2-4.3-2.4-3.7-1.6-6.8.7-10.3 3.7-5.6 3.5-12.3 2.3-18.4-1.1-5.6-1.9-11-1.4-16.7.2-2.3-1.1-4.9-2.3-7.1-1-2.1-2.3-1.2-2.6.6-1.2 5.5-2.4 11-3.4 16.7-.4 2.1-.7 4.6 0 6.4 1.3 3.1.5 5.8-.6 8.5-1.9 4.7-2.1 9.2.3 13.8.3.6-.1 1.7-.5 2.4-.6 1.2-1.6 2.2-2.3 3.4-1.1 1.8-1.7 4.1-3.2 5.5-1 .9-3.4 1.4-4.7.8-1.3-.6-2.5-2.5-2.9-4.1-1.3-4.9-2.8-9.3-8.8-10.2-1.2-.2-2.4-1.9-3.1-3.2-2.1-4.3-3.3-9.2-6-13-3.3-4.7-.8-9.5-1.6-14 0-.2.2-.7.5-.8 2.4-1.1 4.9-2 7.2-3.2.6-.3 1.2-1.9.9-2.2-1.9-2-3.9-3.8-6-5.5-.1-.1-.9.4-1.3.7-.7.6-1.4 1.2-2.1 1.9-.4-.9-.6-1.9-1.2-2.7-.8-1.1-2-3-2.7-2.8-2.9.7-3-1-3.3-2.9-.7-4.5-1.2-9.1-2.2-13.6-.8-3.4-2.2-6.6-.1-10 .3-.5-.5-1.8-.9-2.7-1-2.6-2-5.1-2.9-7.7-.4-1.1-.5-2.4-.9-3.6-1.2-4.3-2.6-8.6-3.6-13-.4-1.9-.8-4.8.2-5.8 2.9-2.9 5.5-6.3 11-5 7.4 1.8 9.7-.4 11.7-7.6.3-1 2.1-2.5 2.9-2.4 3.7.7 6.5.2 7.6-4.4.9 3.3 1.2 6.3 1.8 9.2.7 2.8 1.7 5.6 2.7 8.3.2.5 1.2.8 1.8 1.2.2-.8.9-1.7.7-2.4-1.9-6.8 1-12.2 4.7-17.3.6-.9 1.8-1.3 2.8-2 .2 1.2.8 2.5.5 3.5-1.5 6-3.3 12-5 18-.4 1.5-.7 3-1.1 4.4.5.2.9.3 1.4.5 9.1-13.9 13.7-30.7 27.4-42-2.5-.3-4.4-.5-6.3-.7-3.2-.4-5.1.8-5.9 4.1-.4 1.7-1.4 3.3-2.1 5-.4-.1-.8-.3-1.2-.4.6-2 1.2-4 1.9-5.9.5-1.4.6-2.3-1.2-2.6-5.3-1-8.4.6-10.4 5.5-.3.7-.6 1.3-.9 1.9-.5-1.1-.5-2.1-.1-3 1.5-3.8 1.1-4.5-3.1-4.5-5.4 0-10.9 0-16.3 0-11.2 0-22.5 0-33.7 0l-113 113c0 .3 0 .7 0 1l104 104c3.4-.3 6.8.2 10.2 0"/>
  <path d="m152 232c-2 .6-3.7.8-5.7.8-2.6 0-5.2 1.2-7.7 2.1-.9.4-2.4 1.8-2.2 2.3.4 1.3 1.7 3.3 2.5 3.2 2.3-.1 4.6-1.1 6.9-1.6.9-.2 1.9-.1 2.8.1 1.1.3 2.6 1.6 3 1.2 1.6-1.2 2.9-2.9 4.9-5-1.9-1.4-3.5-3.4-4.5-3.1"/>
  <path d="m185 354c.4 1.3.7 3.1 1.4 4.8.2.5 2.2 1 2.4.7 1.9-2.5 3.7-5.1 5.3-7.8.4-.7.1-2.5-.4-2.9-3.3-2.2-8.6.8-8.7 5.2"/>
 </g>
 <path d="m183 329c-.9-.6-2.3-.7-3.5-.7-1.1 0-2.1.5-3.1.8.8 1.3 1.3 2.8 2.4 3.7.7.6 2.1.5 3.7.7.8-.4 2-.9 3.2-1.4-1-1.1-1.6-2.4-2.7-3.1" style="fill:#640204"/>
 <path d="m207 156c-1.1 2.2-1.7 4.6-2.5 7.1.3.8.7 1.6 1 2.3.6-.5 1.4-1 1.7-1.6 1.1-2.1 2.1-4.2 3-6.4.2-.6-.2-1.5-.3-2.3-1 .3-2.6.3-2.9.9" style="fill:#620204"/>
 <g style="fill:#630204">
  <path d="m182 318c.7-.3 1.2-1.6 1.2-2.4 0-1-.6-2-.9-2.9-.6.3-1.2.5-1.8.8-1.9 1.6-3.8 3.2-5.6 4.9 0 0 1 1.7 1.3 1.6 2.1-.5 4-1.1 5.8-2"/>
  <path d="m205 373c-.7.6-1.1 1.5-1.7 2.4.6 1.9 1.2 3.7 1.8 5.5.6-1.6 1.2-3.2 1.8-4.8 0-.1.1-.2.1-.3-.1-.9-.2-1.9-.5-2.7-.1-.2-1.2-.4-1.5-.1"/>
 </g>
 <g style="fill:#5c0204">
  <path d="m295 272c.3 1 1.1 1.9 1.7 2.9.4-.6.9-1.1 1.5-1.9-.9-1.2-1.6-2.2-2.3-3.3-.3.8-1 1.7-.9 2.3"/>
  <path d="m396 372c.1 2 .2 4 .5 6 0 .4.5.8.8 1.2.3-.4.9-.9.8-1.3-.3-2.1-.9-4.1-1.3-6.1-.3.1-.5.1-.8.2"/>
 </g>
 <path d="m296 265c-.1.2.6 1 .9 1 .6-.1 1.2-.5 2.2-.9-1.3-.9-1.9-1.5-2-1.5-.5.3-1 .8-1.1 1.4" style="fill:#5b0204"/>
 <path d="m140 247c.3.2.6.5.8.7.2-.2.4-.4.6-.7-.3-.3-.6-.6-.8-.6-.2 0-.4.4-.6.6" style="fill:#600204"/>
 <path d="m290 277c.1 0 .3 0 .4 0 0-.6 0-1.2 0-1.8-.2 0-.4 0-.6 0 0 .6.1 1.2.2 1.8" style="fill:#640204"/>
</svg>
