<?xml version="1.0" encoding="utf-8"?>
<!-- Generator: Adobe Illustrator 17.0.0, SVG Export Plug-In . SVG Version: 6.00 Build 0)  -->
<!DOCTYPE svg PUBLIC "-//W3C//DTD SVG 1.1//EN" "http://www.w3.org/Graphics/SVG/1.1/DTD/svg11.dtd">
<svg version="1.1" id="Layer_1" xmlns="http://www.w3.org/2000/svg" xmlns:xlink="http://www.w3.org/1999/xlink" x="0px" y="0px"
	 width="535px" height="540px" viewBox="0 0 535 540" style="enable-background:new 0 0 535 540;" xml:space="preserve">
<path id="black.svg" d="M163.9,539c-14.6,0-18.8-1-16.6-18c1.1-8.1-1.8-25.4-6.3-32.6c-3.4-5.4-45.4-19.3-51.8-18.5
	c-11.4,1.4-23.1-8.3-34.1-9.1c-7.1-0.5,1.1,21.4,0.8,25c-0.7,8.6,3.5,27.2,5.3,35.3c2.1,9.5,13.1,11.5,14.3,15.3
	c0,0-73.9,8.2-73.7-0.4c0.1-8,0.1-16,0.1-24c4.3-1.3,8.2-0.9,11.8,1.3c0.1,1,16.5,7.7,16.7,7.6c9.3-1.8-2.7-32.9-1.9-38.4
	c1.7-11.6,2.5-26.7-7.9-34C4.5,437.3,1.9,444.4,1.9,423c5.8,1.7,24.4,15.7,25.8,3.5c1.9-15.8-9.6-36.5-9.7-53.6
	C18,358.8,7,356.2,3.3,348.2c-4.6-9.9-1.4-42.4-1.4-56.3c0-22.7-7.5-61.4,7.1-76.8c11-11.6,26-32.9,40.4-39.4
	c7.7-3.5-9.3-11.3-11.4-11.3C24,164.1,1.9,160.5,1.9,146c5.1-0.8,40.6,6.7,43.6,13.1c1.8,3.9,15.7-0.8,19.8,4.7
	c2,2.6,13.9-10.8,16.7-11.8c5.6-2.2,39.7-45.5,38.3-48c-4.2-7.2-53.3-13.7-62.9-15.1C23.5,83.7,25,99.3,0,116.7V0h533.9l1.1,538
	l-216.1,1c-0.7-9.8,6.2-18.9,5.4-30.2c-0.4-6.1,2.6-51.6-1.9-52.6c-11-2.6-19.2,31.9-25.7,32.5c-1.4,0.1-12.5,19.8-13.9,22.4
	c-6.4,11.8-6,0.3-5.8,17.6c0.1,15.9-5.6,10.4-19,10.4c1-13.8-2.3-24.3-19.7-23c-9.1,0.7-22.8-9.6-34.1-9.1
	c-2.1,0.1-30.9-10.3-31-11.7c-0.7-9.5-14.7,2.1-14,13.4C159.8,519.5,163.9,527.4,163.9,539C158.9,539,163.9,535.3,163.9,539z
	 M191.8,120.7c1.6-6.1-41.4-9.8-46.1-7c-5.8,3.4-21.1,26.6-26.5,27.2c-1.3,0.1-17.3,14.4-17.3,16c-0.5,17.8,46.1,21.6,59.2,21.1
	c8.8-0.3,30.4,16.2,39.8,5.5c3.6-4.2,19.2-13.8,19.8-20.2c0.9-10.4,37.3-42.1-1.8-37.3c-4.6,0.6-8.9-1.5-13.3-5
	C205.2,115.1,197.3,120.8,191.8,120.7C192.7,117.2,194.9,120.7,191.8,120.7z M248.8,384c1.6,0-5-54.8-6.6-57.6
	c-6.7-11.9-29.5-5.3-36.1-13c-6.1-7-39.7-12.7-48.8-13.4c-1.8-0.1-21.6-9-21.4-2.7c0.5,11.8,4.9,21.1,4.9,33.2
	c0.1,11.7,3.9,21.5,4,33c0,13,8.3,11,9.9,17.5c1,4.2,36.8,14,42.3,14c11.4,0,21,8.7,32.6,8.8C248.4,404,248.8,412.9,248.8,384
	C248.9,384,248.8,390.5,248.8,384z M232.3,300.2c19.4,4.2,19.8-34,32.4-32.5c1,0.1,21.4-25.9,21.3-30.9
	c-0.3-15.5-37.5-22.8-51.9-20.8c-12.8,1.7-28.7-10-41.8-9.9c-3.2,0-9.8,9.7-10.3,9.6c-6.7-1-47.2,56.4-44.2,58.6
	c12.5,9.4,38.2,9.6,51.7,13.1C202.2,290.8,219.3,300.2,232.3,300.2C236.7,301.2,230.2,300.2,232.3,300.2z M31.9,338.4
	c-6.4,0,18.8,13.9,20.2,14.3c11.2,2.8,21.6,8.8,34.1,9.4c8.2,0.4,18.4,8.5,28.6,9.2c20,1.4,7.4-31.1,7.2-45.2
	c-0.3-20.1-4.5-42.2-25.3-48.9c-10.3-3.3-29.4-8.1-39.8-9.9c-6.6-1.1-33-11.4-37.1-9.2C7.3,264.7,31.9,326.9,31.9,338.4
	C31.9,338.4,31.9,336.6,31.9,338.4z M244.7,423.6c1.2-10.4-74-28.1-83.9-29.3c-22.1-2.6-11.1,8.4-11,25.7
	c0.1,13.1,1.7,46.2,12.4,53.3c2.9,1.9,33.9,11.2,33.9,10.9c0.6,2.5,31.4,13.7,34.8,13.5c6.4-0.3,16.5,8.5,20.2,1
	c4-8.3-2.9-21.9-2.9-30.4C248.2,451.6,245.1,438,244.7,423.6C245.1,420.4,244.8,427.3,244.7,423.6z M124.1,261
	c11.9-9.9,18-22.8,30.2-32c6.8-5.1,14.1-27,21.1-29.3c-2.1-5.8-49.3-17.2-57.1-16.8c-19.5,1.2-30-8-47.8,0.1
	c-17.5,8.1-31,40.7-45,53.1c-1.3,1.1,45.1,12.1,48.8,13C86.8,252.3,111.2,262.8,124.1,261C125.9,259.6,121.6,261.4,124.1,261z
	 M263.4,136.8c-23-3.6-24.4,31.1-43,36.6c-2.7,0.8-11.4,13.5-10.7,16.7c1.3,5.8,15,9.3,20.5,10.8c14.9,4.1,31.7,10.4,48.3,10.2
	c12.3-0.2,23.1,13.1,34.8,3.8c5.4-4.3,12-13.3,15.2-18.9c5.3-9.2,21.1-22.3,23.4-32.8C354.6,150.7,276,136.8,263.4,136.8
	C257.3,135.8,266.3,136.8,263.4,136.8z M46.7,361.1c0-4.2-9.6,5.8-9.7,11.6c-0.1,6.7-1.2,21.8,4.5,26.6c8.5,7.3-0.7,34.7,10.1,43.8
	c10.3,8.6,36.4,10.2,49.7,13.8c3.4,0.9,34.9,15.1,34.7,9.3c-0.6-21.3-3.9-43.1-4.1-66.5c-0.1-11.1-21.3-22.2-31.8-20.1
	c-2.9,0.6-20.6-8.6-27.3-8.7C64.1,370.6,56.3,361.1,46.7,361.1C46.7,361,48.7,361.1,46.7,361.1z M354.2,146.9
	c13.6,1.4,25.5-22.2,31.6-32.7c1.5-2.6,9.5-13.1,11.7-15.1c13.1-11.4-15.7-12.9-19-13.8c-10.6-2.9-73.5-24.7-78.1-10.5
	c-2.7,8.5-38.8,40.8-35.4,48.7c3.1,7.4,30.4,11.4,36.9,12.4C318.6,138.7,338.2,141.3,354.2,146.9
	C359.1,147.4,350.2,145.5,354.2,146.9z M208.2,47c-10.1,0-58.2,38.2-54,50.4c1.1,3.2,62.7,15.2,68.6,14.7c8.4-0.7,19.8,3.2,27.8,4.1
	c3,0.3,19.8-21.2,21.6-23.1c11.2-11.4,29.6-30.7,4.9-32.3C254.4,59.3,232,47.2,208.2,47C206.7,47,213.8,47,208.2,47z M127.8,89
	c8.8,0,57.6-39.1,55.1-49.8c-2.1-8.9-67.4-14.7-76.5-18.7c-12.6-5.6-52.5,33.9-56.1,44.8C48.4,71.1,117,88.9,127.8,89
	C128.5,89,126,89,127.8,89z M310,279.6c1.5,0,0.1-44.5-9.7-19.7c-3.9,9.9-22,18.2-23.3,28.5c-1.4,10.7-18.2,16.1-19.3,29.6
	c-0.7,8.7,0.2,14.3,0.1,23.5c0,6,2.5,61.2,7.8,61.6c2.9,0.2,30.1-37.8,30-38.2c-0.2-3.8,14-26.6,15.7-26.8
	C317.1,337.5,310,284.7,310,279.6C310,279.6,310,286.8,310,279.6z M315,380.2c-2.2,0,4-24.4-2.9-25.6c-3.6-0.7-35.1,40.6-35.3,44.1
	c-0.2,3.2-4.8,9.4-7.5,11.7c-10.2,8.7-7.3,20-7.2,32.1c0,4.4,4.2,60.8,8.4,60.6c6.1-0.4,24.7-33.6,26.2-39.7
	c0.5-1.9,16-21.1,15.4-21C327.9,441.2,315,391,315,380.2C315,380.2,315,385.5,315,380.2z M371,216.5c1.1,0-0.6-36.9-4.1-42
	c-3.2-4.7-20.7,28.8-25.7,31.8c-33.1,19.7-20.3,67.6-19.6,98.7c0.5,17.9,27.4-11.3,30.7-20c3.7-10,12-15.3,16.6-22.4
	C375.9,251.8,371,229.5,371,216.5C370.9,216.5,371,226.7,371,216.5z M370.9,317.5c0,0,0.5-31.7,0.2-34.4
	c-1.3-11.3-17.7,8.9-17.9,8.9c-0.1,3.5-18.7,32.1-23.5,32.3c-17.5,1-9.5,92.5-3.7,93.4c4.3,0.6,26.2-35.5,27.8-39.6
	c2.1-5.4,11.8-12.8,13.8-19.8c1.2-4.3,8.1,0.8,3.5-6C367.1,346.2,370.9,324.9,370.9,317.5C370.9,317.5,370.9,327.8,370.9,317.5z
	 M375.8,304.8c0,1.9,2.8,45.5,8.3,30.4c2.6-7.1,8.7-13.3,13.5-19.5c18-23.4,21.3-37.5,21.4-68.8c0-5.8,5.6-40.4-1.4-39.9
	c-9.7,0.7-12.9,18.1-19.8,23.6C374,249.7,376.4,277.9,375.8,304.8C375.8,316.2,376,295.3,375.8,304.8z M371.1,408.3
	c-2.7,0,5.1-37.3-2.8-37.3c-14.7,0-24.9,47.2-36.2,53c-9.4,4.8-10.9,76.8-2.3,79c10.8,2.7,18.3-33.4,24.3-33.7
	c2.4-0.1,12-18.2,12.8-20.4C371.6,435.9,371.1,423.2,371.1,408.3C371.1,408.3,371.1,419.3,371.1,408.3z M418,148.7
	c0-5.2,2.9-39.2-1.1-40.4c-6.4-2-29.3,43.1-33,44.5c-14.7,5.3-10.1,88.1-4.6,89.1c7.2,1.3,19.7-25.7,22.4-30.9
	c3-5.7,9.2-9.3,11.3-15.4C418.2,180.1,418,166.2,418,148.7C418,141.2,418,160.2,418,148.7z M418,332.9c-2.8,0,4.6-29.2-2.6-29.2
	c-5.5,0.1-24,34.8-25.5,40.6c-1.8,6.6-12.1,10.3-14.3,17.4c-4.1,12.9,4.7,18.3,4.1,29.3c-1.4-1.3-3-2.1-4.9-2.6
	c4.9-2.8,1.1,42.4,7.5,42.7c6.7,0.3,17.4-36.4,22.4-36.6C422.6,393.7,418,340.3,418,332.9C418,332.9,418,340.4,418,332.9z
	 M377,384.3c-0.1-1-2.6-6.3-3-1.1C373.5,389.2,376.6,385.5,377,384.3C376.8,383.1,376.7,385.1,377,384.3z"/>
<g>
</g>
<g>
</g>
<g>
</g>
<g>
</g>
<g>
</g>
<g>
</g>
<g>
</g>
<g>
</g>
<g>
</g>
<g>
</g>
<g>
</g>
<g>
</g>
<g>
</g>
<g>
</g>
<g>
</g>
</svg>
