<svg xmlns="http://www.w3.org/2000/svg" viewBox="0 0 535 540" style="enable-background:new 0 0 535 540">
 <path id="black.svg" d="m164 539c-14.6 0-18.8-1-16.6-18 1.1-8.1-1.8-25.4-6.3-32.6-3.4-5.4-45-19.3-51.8-18.5-11.4 1.4-23-8.3-34-9.1-7.1-.5 1.1 21.4.8 25-.7 8.6 3.5 27 5.3 35 2.1 9.5 13 11.5 14.3 15.3 0 0-73.9 8.2-74-.4.1-8 .1-16 .1-24 4.3-1.3 8.2-.9 11.8 1.3.1 1 16.5 7.7 16.7 7.6 9.3-1.8-2.7-32.9-1.9-38 1.7-11.6 2.5-26.7-7.9-34-16-11.2-18.7-4.1-18.7-25.5 5.8 1.7 24.4 15.7 25.8 3.5 1.9-15.8-9.6-36.5-9.7-53.6 0-14-11-16.7-14.7-24.7-4.6-9.9-1.4-42-1.4-56 0-22.7-7.5-61 7.1-77 11-11.6 26-32.9 40-39 7.7-3.5-9.3-11.3-11.4-11.3-14-.3-36-3.9-36-18.4 5.1-.8 40.6 6.7 43.6 13 1.8 3.9 15.7-.8 19.8 4.7 2 2.6 13.9-10.8 16.7-11.8 5.6-2.2 39.7-45.5 38-48-4.2-7.2-53-13.7-62.9-15-33.9-5.2-32.4 10.4-57 27.8v-117h534l1.1 538-216 1c-.7-9.8 6.2-18.9 5.4-30-.4-6.1 2.6-51.6-1.9-52.6-11-2.6-19 31.9-25.7 32.5-1.4.1-12.5 19.8-13.9 22.4-6.4 11.8-6 .3-5.8 17.6.1 15.9-5.6 10.4-19 10.4 1-13.8-2.3-24.3-19.7-23-9.1.7-22.8-9.6-34-9.1-2.1.1-30.9-10.3-31-11.7-.7-9.5-14.7 2.1-14 13.4.6 10.8 4.7 18.7 4.7 30m27.9-418c1.6-6.1-41-9.8-46-7-5.8 3.4-21 26.6-26.5 27-1.3.1-17.3 14.4-17.3 16-.5 17.8 46 21.6 59 21 8.8-.3 30.4 16.2 39.8 5.5 3.6-4.2 19-13.8 19.8-20 .9-10.4 37-42-1.8-37-4.6.6-8.9-1.5-13.3-5-.4-5.9-8.3-.2-13.8-.3m57 263c1.6 0-5-54.8-6.6-58-6.7-11.9-29.5-5.3-36-13-6.1-7-39.7-12.7-48.8-13.4-1.8-.1-21.6-9-21.4-2.7.5 11.8 4.9 21 4.9 33 .1 11.7 3.9 21.5 4 33 0 13 8.3 11 9.9 17.5 1 4.2 36.8 14 42 14 11.4 0 21 8.7 32.6 8.8 18.8.2 19 9.1 19-19.8m-16.5-84c19.4 4.2 19.8-34 32.4-32.5 1 .1 21.4-25.9 21.3-30.9-.3-15.5-37.5-22.8-51.9-20.8-12.8 1.7-28.7-10-41.8-9.9-3.2 0-9.8 9.7-10.3 9.6-6.7-1-47 56-44 59 12.5 9.4 38 9.6 51.7 13 12.7 3.4 29.8 12.8 42.8 12.8m-200 38c-6.4 0 18.8 13.9 20 14.3 11.2 2.8 21.6 8.8 34 9.4 8.2.4 18.4 8.5 28.6 9.2 20 1.4 7.4-31 7.2-45-.3-20-4.5-42-25.3-48.9-10.3-3.3-29.4-8.1-39.8-9.9-6.6-1.1-33-11.4-37-9.2-12.5 6.6 12 68.8 12 80m213 85c1.2-10.4-74-28-84-29-22-2.6-11 8.4-11 25.7.1 13 1.7 46 12.4 53 2.9 1.9 33.9 11.2 33.9 10.9.6 2.5 31.4 13.7 34.8 13.5 6.4-.3 16.5 8.5 20 1 4-8.3-2.9-21.9-2.9-30.4 0-16.7-3.1-30-3.5-44.7m-121-163c11.9-9.9 18-22.8 30-32 6.8-5.1 14-27 21-29-2.1-5.8-49-17.2-57-16.8-19.5 1.2-30-8-47.8.1-17.5 8.1-31 40.7-45 53-1.3 1.1 45 12 48.8 13 12.5 3.2 36.9 13.7 49.8 11.9m139-124c-23-3.6-24.4 31-43 36.6-2.7.8-11.4 13.5-10.7 16.7 1.3 5.8 15 9.3 20.5 10.8 14.9 4.1 31.7 10.4 48 10.2 12.3-.2 23 13 34.8 3.8 5.4-4.3 12-13.3 15.2-18.9 5.3-9.2 21-22.3 23.4-32.8 2.7-12.5-75.9-26.4-88-26.4m-217 224c0-4.2-9.6 5.8-9.7 11.6-.1 6.7-1.2 21.8 4.5 26.6 8.5 7.3-.7 34.7 10 43.8 10.3 8.6 36.4 10.2 49.7 13.8 3.4.9 34.9 15 34.7 9.3-.6-21.3-3.9-43-4.1-66-.1-11-21.3-22-31.8-20-2.9.6-20.6-8.6-27.3-8.7-8.7-.3-16.5-9.8-26-9.8m308-214c13.6 1.4 25.5-22 31.6-32.7 1.5-2.6 9.5-13 11.7-15 13-11.4-15.7-12.9-19-13.8-10.6-2.9-73-24.7-78-10.5-2.7 8.5-38.8 40.8-35.4 48.7 3.1 7.4 30.4 11.4 36.9 12.4 16.7 2.8 36 5.4 52 11m-146-100c-10 0-58 38-54 50 1.1 3.2 62.7 15.2 69 14.7 8.4-.7 19.8 3.2 27.8 4.1 3 .3 19.8-21 21.6-23 11.2-11.4 29.6-30.7 4.9-32-22.7-1.5-45-13.6-68.9-13.8m-80 42c8.8 0 58-39 55-49.8-2.1-8.9-67-14.7-76-18.7-12.6-5.6-52 33.9-56 44.8-1.9 5.8 67 23.6 78 23.7m182 191c1.5 0 .1-44.5-9.7-19.7-3.9 9.9-22 18.2-23.3 28.5-1.4 10.7-18.2 16-19.3 29.6-.7 8.7.2 14.3.1 23.5 0 6 2.5 61 7.8 62 2.9.2 30-37.8 30-38-.2-3.8 14-26.6 15.7-26.8 5.8-.6-1.3-53-1.3-59m5 101c-2.2 0 4-24.4-2.9-25.6-3.6-.7-35 40.6-35 44-.2 3.2-4.8 9.4-7.5 11.7-10.2 8.7-7.3 20-7.2 32 0 4.4 4.2 60.8 8.4 61 6.1-.4 24.7-33.6 26-39.7.5-1.9 16-21 15.4-21 15.8-1.2 2.9-51 2.9-62m56-164c1.1 0-.6-36.9-4.1-42-3.2-4.7-20.7 28.8-25.7 31.8-33 19.7-20.3 68-19.6 99 .5 17.9 27.4-11.3 30.7-20 3.7-10 12-15.3 16.6-22.4 7-10.8 2.1-33 2.1-46m-.1 101c0 0 .5-31.7.2-34.4-1.3-11.3-17.7 8.9-17.9 8.9-.1 3.5-18.7 32-23.5 32-17.5 1-9.5 93-3.7 93 4.3.6 26-35.5 27.8-39.6 2.1-5.4 11.8-12.8 13.8-19.8 1.2-4.3 8.1.8 3.5-6-4-6.1-.2-27.4-.2-34.8m4.9-12.7c0 1.9 2.8 45.5 8.3 30.4 2.6-7.1 8.7-13.3 13.5-19.5 18-23.4 21.3-37.5 21.4-68.8 0-5.8 5.6-40-1.4-39.9-9.7.7-12.9 18-19.8 23.6-23.8 19-21.4 47-22 74m-4.7 104c-2.7 0 5.1-37-2.8-37-14.7 0-24.9 47-36 53-9.4 4.8-10.9 77-2.3 79 10.8 2.7 18.3-33.4 24.3-33.7 2.4-.1 12-18.2 12.8-20.4 4.7-13 4.2-25.7 4.2-40.6m46.9-260c0-5.2 2.9-39-1.1-40-6.4-2-29 43-33 44.5-14.7 5.3-10 88-4.6 89 7.2 1.3 19.7-25.7 22.4-30.9 3-5.7 9.2-9.3 11.3-15.4 5.2-15.5 5-29.4 5-46.9m0 184c-2.8 0 4.6-29-2.6-29-5.5.1-24 34.8-25.5 40.6-1.8 6.6-12 10.3-14.3 17.4-4.1 12.9 4.7 18.3 4.1 29-1.4-1.3-3-2.1-4.9-2.6 4.9-2.8 1.1 42 7.5 42.7 6.7.3 17.4-36.4 22.4-36.6 17.9-.8 13.3-54 13.3-62m-41 51c-.1-1-2.6-6.3-3-1.1-.5 6 2.6 2.3 3 1.1"/>
</svg>
