<svg xmlns="http://www.w3.org/2000/svg" height="282" viewBox="0 0 251.9 282.1" style="enable-background:new 0 0 251.9 282.1">
 <g style="fill:#0111a5">
  <path d="m75 281c-4.4 8-20-43-16.3-40.6-4.1-2.9-6.7-29.5-6.9-33.9-.4-9.3 16.8 1.2 19.8 1.3 8.3.1 50.8 9.5 56 17.6 5.7 8.5 14.4.5 16.3 17.5 1.4 12.6 5.4 25 4.9 38-24.7 0-49 0-74 0"/>
  <path d="m2.2 90c20 1.8 18.8 52 22.3 68 4.4 18.9-1.8 16.9-18 10.9-11.3-4.1-4.2-67-4.2-79"/>
  <path d="m32 81c0-11.5-24.6-74-12.3-80 4.2-2.2 30.6 8.1 37 9.2 10.4 1.8 29.5 6.5 39.8 9.9 20.9 6.8 25 28.8 25.3 48.9.2 14.2 12.9 46.7-7.2 45-10.2-.7-20.4-8.8-28.6-9.2-12.4-.6-22.8-6.5-34-9.4-1.3-.3-26.4-14.2-20-14.3"/>
  <path d="m245 166c.3 12 3.4 21.3 3.4 35 0 10.8.7 22.4 2.9 32.9 3.6 17.7-11.6 5.8-20 6.2-8.3.4-22-8.2-31-9.7-10.4-1.7-28.5-8.7-37.5-14.7-8.5-5.6-12.3-31.5-12.4-41.8-.1-20-12-39.9 10.9-37 10 1.1 85 18.8 84 29"/>
 </g>
</svg>
