<?xml version="1.0" encoding="utf-8"?>
<!-- Generator: Adobe Illustrator 17.0.0, SVG Export Plug-In . SVG Version: 6.00 Build 0)  -->
<!DOCTYPE svg PUBLIC "-//W3C//DTD SVG 1.1//EN" "http://www.w3.org/Graphics/SVG/1.1/DTD/svg11.dtd">
<svg version="1.1" id="Layer_1" xmlns="http://www.w3.org/2000/svg" xmlns:xlink="http://www.w3.org/1999/xlink" x="0px" y="0px"
	 width="251.9px" height="282.1px" viewBox="0 0 251.9 282.1" style="enable-background:new 0 0 251.9 282.1;" xml:space="preserve"
	>
<g id="blue.svg">
	<path style="fill:#0111A5;" d="M75.2,281.2c-4.4,8-20.2-43.4-16.3-40.6c-4.1-2.9-6.7-29.5-6.9-33.9c-0.4-9.3,16.8,1.2,19.8,1.3
		c8.3,0.1,50.8,9.5,56.2,17.6c5.7,8.5,14.4,0.5,16.3,17.5c1.4,12.6,5.4,25,4.9,38.1C124.5,281.2,99.8,281.2,75.2,281.2
		C76.3,279.2,99.8,281.2,75.2,281.2z"/>
	<path style="fill:#0111A5;" d="M2.2,90.2C22.3,92,21,142.6,24.5,157.9c4.4,18.9-1.8,16.9-18.1,10.9C-4.9,164.7,2.2,102.3,2.2,90.2
		C2.7,90.3,2.2,115.2,2.2,90.2z"/>
	<path style="fill:#0111A5;" d="M32.1,80.6c0-11.5-24.6-73.8-12.3-80.3C24-1.9,50.4,8.4,57,9.5c10.4,1.8,29.5,6.5,39.8,9.9
		c20.9,6.8,25,28.8,25.3,48.9c0.2,14.2,12.9,46.7-7.2,45.2c-10.2-0.7-20.4-8.8-28.6-9.2c-12.4-0.6-22.8-6.5-34.1-9.4
		C50.9,94.6,25.8,80.7,32.1,80.6C32.1,78.8,32.2,80.6,32.1,80.6z"/>
	<path style="fill:#0111A5;" d="M245,165.8c0.3,12.1,3.4,21.3,3.4,35.1c0,10.8,0.7,22.4,2.9,32.9c3.6,17.7-11.6,5.8-20.1,6.2
		c-8.3,0.4-22.1-8.2-31.2-9.7c-10.4-1.7-28.5-8.7-37.5-14.7c-8.5-5.6-12.3-31.5-12.4-41.8c-0.1-20-12-39.9,10.9-37.2
		C171,137.7,246.2,155.4,245,165.8C245.1,169.6,245.4,162.7,245,165.8z"/>
</g>
<g>
</g>
<g>
</g>
<g>
</g>
<g>
</g>
<g>
</g>
<g>
</g>
<g>
</g>
<g>
</g>
<g>
</g>
<g>
</g>
<g>
</g>
<g>
</g>
<g>
</g>
<g>
</g>
<g>
</g>
</svg>
