<?xml version="1.0" encoding="utf-8"?>
<!-- Generator: Adobe Illustrator 17.0.0, SVG Export Plug-In . SVG Version: 6.00 Build 0)  -->
<!DOCTYPE svg PUBLIC "-//W3C//DTD SVG 1.1//EN" "http://www.w3.org/Graphics/SVG/1.1/DTD/svg11.dtd">
<svg version="1.1" id="Layer_1" xmlns="http://www.w3.org/2000/svg" xmlns:xlink="http://www.w3.org/1999/xlink" x="0px" y="0px"
	 width="320.4px" height="323.2px" viewBox="0 0 320.4 323.2" style="enable-background:new 0 0 320.4 323.2;" xml:space="preserve"
	>
<g id="cube-splash.svg">
	<path id="black_1_" d="M98.3,322.7c-8.7,0-11.3-0.6-9.9-10.8c0.6-4.9-1.1-15.2-3.8-19.5c-2-3.2-27.2-11.5-31-11.1
		c-6.8,0.8-13.8-5-20.4-5.4c-4.2-0.3,0.7,12.8,0.5,14.9c-0.4,5.1,2.1,16.3,3.2,21.1c1.2,5.7,7.8,6.9,8.6,9.2c0,0-44.2,4.9-44.1-0.3
		c0.1-4.8,0.1-9.6,0-14.4c2.6-0.8,4.9-0.5,7.1,0.8c0,0.6,9.9,4.6,10,4.6c5.6-1.1-1.6-19.7-1.2-23c1-6.9,1.5-16-4.7-20.3
		c-9.7-6.7-11.2-2.5-11.2-15.3c3.5,1,14.6,9.4,15.4,2.1c1.1-9.4-5.8-21.8-5.8-32.1c0-8.4-6.6-10-8.8-14.8
		c-2.7-5.9-0.9-25.4-0.9-33.7c0-13.6-4.5-36.8,4.3-46c6.6-6.9,15.5-19.7,24.2-23.6c4.6-2.1-5.6-6.8-6.8-6.8
		c-8.4-0.1-21.6-2.3-21.6-10.9c3.1-0.5,24.3,4,26.1,7.8c1.1,2.3,9.4-0.5,11.8,2.8c1.2,1.6,8.4-6.4,10-7.1
		c3.4-1.3,23.7-27.2,22.9-28.7c-2.5-4.3-31.9-8.2-37.7-9.1c-20.2-3.1-19.4,6.3-34.3,16.7V0h319.6l0.6,322.1l-129.3,0.6
		c-0.4-5.8,3.7-11.3,3.3-18.1c-0.2-3.6,1.5-30.9-1.1-31.5c-6.6-1.6-11.5,19.1-15.4,19.5c-0.9,0.1-7.5,11.8-8.3,13.4
		c-3.8,7-3.6,0.2-3.5,10.5c0.1,9.5-3.4,6.2-11.4,6.2c0.6-8.2-1.4-14.6-11.8-13.7c-5.4,0.4-13.6-5.7-20.4-5.4
		c-1.3,0.1-18.5-6.2-18.5-7c-0.4-5.7-8.8,1.2-8.4,8C95.8,311,98.3,315.7,98.3,322.7C95.3,322.7,98.3,320.5,98.3,322.7z M115,72.3
		c1-3.6-24.8-5.9-27.6-4.2c-3.5,2-12.6,16-15.8,16.3c-0.8,0.1-10.4,8.6-10.4,9.6c-0.3,10.7,27.6,12.9,35.5,12.6
		c5.3-0.2,18.2,9.7,23.8,3.3c2.2-2.5,11.5-8.2,11.9-12.1c0.5-6.3,22.3-25.2-1.1-22.3c-2.7,0.3-5.3-0.9-7.9-3
		C123,68.9,118.3,72.3,115,72.3C115.5,70.2,116.8,72.3,115,72.3z M149.1,229.9c0.9,0-3-32.8-3.9-34.5c-4-7.1-17.6-3.2-21.6-7.8
		c-3.6-4.2-23.7-7.6-29.2-8c-1.1-0.1-12.9-5.4-12.8-1.6c0.3,7.1,2.9,12.6,3,19.9c0,7,2.4,12.9,2.4,19.8c0,7.8,5,6.6,5.9,10.5
		c0.6,2.5,22,8.4,25.3,8.4c6.8,0,12.6,5.2,19.5,5.3C148.8,241.8,149.1,247.2,149.1,229.9C149.1,229.9,149.1,233.8,149.1,229.9z
		 M139.2,179.7c11.6,2.5,11.9-20.4,19.4-19.5c0.6,0.1,12.8-15.5,12.8-18.5c-0.2-9.3-22.4-13.7-31.1-12.5c-7.7,1-17.2-6-25-5.9
		c-1.9,0-5.9,5.8-6.2,5.8c-4-0.6-28.2,33.8-26.5,35.1c7.5,5.6,22.9,5.7,30.9,7.9C121.2,174.1,131.4,179.7,139.2,179.7
		C141.8,180.3,137.9,179.7,139.2,179.7z M19.2,202.6c-3.8,0,11.2,8.3,12.1,8.5c6.7,1.7,12.9,5.3,20.4,5.6c4.9,0.2,11,5.1,17.1,5.5
		c12,0.9,4.4-18.6,4.3-27.1c-0.2-12-2.7-25.2-15.2-29.3c-6.1-2-17.6-4.8-23.8-5.9c-3.9-0.7-19.8-6.8-22.2-5.5
		C4.5,158.4,19.2,195.7,19.2,202.6C19.3,202.6,19.2,201.5,19.2,202.6z M146.7,253.6c0.7-6.2-44.3-16.8-50.2-17.5
		c-13.2-1.6-6.6,5-6.6,15.4c0,7.8,1,27.6,7.4,31.9c1.7,1.1,20.3,6.7,20.3,6.5c0.4,1.5,18.8,8.2,20.8,8.1c3.8-0.2,9.9,5.1,12.1,0.6
		c2.4-4.9-1.8-13.1-1.8-18.2C148.7,270.3,146.9,262.2,146.7,253.6C146.9,251.7,146.7,255.8,146.7,253.6z M74.4,156.2
		c7.1-5.9,10.8-13.7,18.1-19.1c4.1-3,8.5-16.2,12.6-17.6c-1.3-3.4-29.5-10.3-34.2-10c-11.7,0.7-18-4.8-28.6,0.1
		c-10.5,4.8-18.6,24.4-27,31.8c-0.8,0.7,27,7.2,29.2,7.8C52.1,151,66.7,157.3,74.4,156.2C75.5,155.4,73,156.5,74.4,156.2z
		 M157.8,81.9c-13.8-2.2-14.6,18.6-25.8,21.9c-1.6,0.5-6.8,8.1-6.4,10c0.8,3.5,9,5.6,12.3,6.5c8.9,2.4,18.9,6.2,28.9,6.1
		c7.4-0.1,13.8,7.8,20.8,2.3c3.2-2.6,7.2-8,9.1-11.3c3.1-5.5,12.6-13.3,14-19.6C212.4,90.2,165.3,81.9,157.8,81.9
		C154.2,81.3,159.6,81.9,157.8,81.9z M28.1,216.1c0-2.5-5.8,3.5-5.8,6.9c0,4-0.7,13,2.7,15.9c5.1,4.4-0.4,20.8,6,26.2
		c6.2,5.1,21.8,6.1,29.7,8.3c2,0.6,20.9,9,20.8,5.6c-0.3-12.8-2.3-25.8-2.5-39.8c-0.1-6.7-12.7-13.3-19.1-12
		c-1.7,0.3-12.3-5.1-16.3-5.2C38.5,221.8,33.8,216.1,28.1,216.1C28.1,216.1,29.3,216.1,28.1,216.1z M212.2,87.9
		c8.2,0.9,15.3-13.3,18.9-19.6c0.9-1.6,5.7-7.9,7-9c7.8-6.8-9.4-7.7-11.4-8.3c-6.4-1.8-44-14.8-46.7-6.3
		c-1.6,5.1-23.2,24.4-21.2,29.2c1.9,4.4,18.2,6.8,22.1,7.4C190.8,83,202.6,84.6,212.2,87.9C215.1,88.3,209.8,87.1,212.2,87.9z
		 M124.8,28.1c-6.1,0-34.8,22.9-32.3,30.1c0.7,1.9,37.6,9.1,41,8.8c5-0.4,11.8,1.9,16.7,2.5c1.8,0.2,11.8-12.7,12.9-13.8
		c6.7-6.8,17.7-18.4,3-19.3C152.5,35.5,139,28.2,124.8,28.1C123.9,28.1,128.1,28.1,124.8,28.1z M76.7,53.3c5.3,0,34.5-23.4,33-29.8
		c-1.2-5.3-40.3-8.8-45.8-11.2c-7.5-3.4-31.4,20.3-33.6,26.8C29.1,42.6,70.2,53.2,76.7,53.3C77.1,53.3,75.6,53.3,76.7,53.3z
		 M185.7,167.4c0.9,0,0.1-26.7-5.8-11.8c-2.3,5.9-13.1,10.9-14,17.1c-0.9,6.4-10.9,9.7-11.5,17.7c-0.4,5.2,0.1,8.5,0.1,14
		c0,3.6,1.5,36.7,4.7,36.8c1.7,0.1,18-22.6,18-22.8c-0.1-2.3,8.4-15.9,9.4-16C190,202.1,185.7,170.4,185.7,167.4
		C185.7,167.4,185.7,171.7,185.7,167.4z M188.7,227.6c-1.3,0,2.4-14.6-1.7-15.4c-2.2-0.4-21,24.3-21.1,26.4c-0.1,1.9-2.9,5.6-4.5,7
		c-6.1,5.2-4.3,12-4.3,19.2c0,2.7,2.5,36.4,5,36.3c3.7-0.2,14.8-20.1,15.7-23.8c0.3-1.1,9.6-12.6,9.2-12.6
		C196.4,264.1,188.7,234.1,188.7,227.6C188.7,227.6,188.7,230.8,188.7,227.6z M222.2,129.6c0.7,0-0.3-22.1-2.4-25.1
		c-1.9-2.8-12.4,17.3-15.4,19c-19.8,11.8-12.2,40.5-11.7,59.1c0.3,10.7,16.4-6.7,18.4-12c2.2-6,7.2-9.2,9.9-13.4
		C225.1,150.8,222.2,137.4,222.2,129.6C222.2,129.6,222.2,135.7,222.2,129.6z M222.1,190c0,0,0.3-19,0.1-20.6
		c-0.8-6.7-10.6,5.3-10.7,5.4c0,2.1-11.2,19.2-14,19.3c-10.5,0.6-5.7,55.4-2.2,55.9c2.6,0.4,15.7-21.3,16.6-23.7
		c1.3-3.3,7.1-7.6,8.3-11.9c0.7-2.5,4.8,0.5,2.1-3.6C219.9,207.2,222.1,194.5,222.1,190C222.2,190,222.1,196.2,222.1,190z
		 M225.1,182.5c0,1.1,1.7,27.3,5,18.2c1.6-4.3,5.2-7.9,8.1-11.7c10.8-14,12.8-22.4,12.8-41.2c0-3.4,3.3-24.2-0.9-23.9
		c-5.8,0.4-7.8,10.8-11.8,14.1C224,149.5,225.5,166.4,225.1,182.5C225.1,189.3,225.2,176.7,225.1,182.5z M222.3,244.4
		c-1.6,0,3-22.3-1.7-22.3c-8.8,0-14.9,28.3-21.7,31.7c-5.6,2.9-6.6,46-1.4,47.3c6.4,1.6,10.9-20,14.6-20.2
		c1.4-0.1,7.2-10.9,7.7-12.2C222.6,260.9,222.3,253.4,222.3,244.4C222.3,244.4,222.3,251,222.3,244.4z M250.3,89
		c0-3.1,1.8-23.4-0.6-24.2c-3.8-1.2-17.5,25.8-19.7,26.6c-8.8,3.2-6.1,52.7-2.7,53.3c4.3,0.8,11.8-15.4,13.4-18.5
		c1.8-3.4,5.5-5.6,6.7-9.2C250.5,107.8,250.3,99.5,250.3,89C250.3,84.5,250.3,95.9,250.3,89z M250.3,199.3c-1.7,0,2.8-17.5-1.6-17.5
		c-3.3,0-14.3,20.8-15.3,24.3c-1.1,4-7.2,6.2-8.6,10.4c-2.5,7.7,2.8,10.9,2.5,17.5c-0.8-0.8-1.8-1.3-2.9-1.6
		c3-1.7,0.7,25.4,4.5,25.5c4,0.2,10.4-21.8,13.4-21.9C253.1,235.7,250.3,203.7,250.3,199.3C250.3,199.3,250.3,203.8,250.3,199.3z
		 M225.8,230c-0.1-0.6-1.5-3.8-1.8-0.7C223.7,233,225.6,230.8,225.8,230C225.7,229.3,225.7,230.5,225.8,230z"/>
	<g id="blue_1_">
		<path style="fill:#0111A5;" d="M45,322.7c-2.6,4.8-12.1-26-9.7-24.3c-2.4-1.7-4-17.7-4.1-20.3c-0.3-5.5,10.1,0.7,11.8,0.8
			c4.9,0.1,30.4,5.7,33.6,10.5c3.4,5.1,8.6,0.3,9.7,10.5c0.8,7.6,3.2,15,2.9,22.8C74.5,322.7,59.8,322.7,45,322.7
			C45.7,321.5,59.8,322.7,45,322.7z"/>
		<path style="fill:#0111A5;" d="M1.3,208.3c12.1,1.1,11.2,31.3,13.4,40.5c2.7,11.3-1.1,10.1-10.9,6.5
			C-2.9,252.9,1.3,215.5,1.3,208.3C1.6,208.3,1.3,223.3,1.3,208.3z"/>
		<path style="fill:#0111A5;" d="M19.2,202.6c0-6.9-14.7-44.1-7.4-48.1c2.5-1.3,18.3,4.8,22.2,5.5c6.2,1.1,17.7,3.9,23.8,5.9
			c12.5,4,15,17.2,15.2,29.3c0.1,8.5,7.7,27.9-4.3,27.1c-6.1-0.4-12.2-5.3-17.1-5.5c-7.4-0.3-13.7-3.9-20.4-5.6
			C30.5,210.9,15.4,202.6,19.2,202.6C19.2,201.5,19.3,202.6,19.2,202.6z"/>
		<path style="fill:#0111A5;" d="M146.7,253.6c0.2,7.2,2.1,12.7,2.1,21c0,6.5,0.4,13.4,1.7,19.7c2.2,10.6-6.9,3.5-12,3.7
			c-5,0.2-13.2-4.9-18.7-5.8c-6.2-1-17.1-5.2-22.5-8.8c-5.1-3.4-7.4-18.8-7.4-25c-0.1-12-7.2-23.9,6.5-22.3
			C102.4,236.8,147.4,247.3,146.7,253.6C146.7,255.8,146.9,251.7,146.7,253.6z"/>
	</g>
	<g id="green_1_">
		<path style="fill:#18865C;" d="M98.3,322.7c0-9.5-9.8-33.6,6.3-24.8c4.6,2.5,10.9,1,15.3,2.9c4,1.7,9.7,6.2,15.1,5.9
			c3.8-0.2,19.7,5.4,18.7,7.4c9.2,11.3-10.9,8.6-15.2,8.6C125.1,322.7,111.7,322.7,98.3,322.7C98.3,320.5,117,322.7,98.3,322.7z"/>
		<path style="fill:#18865C;" d="M1.3,264c13.8,4.3,18.2,9.6,15.9,24.9c-0.5,3.3,6.7,21.9,1.2,23c-3,0.6-12.5-5.4-17.1-5.3
			C1.3,292.3,1.3,278.2,1.3,264C3.9,264.8,1.3,278.2,1.3,264z"/>
		<path style="fill:#18865C;" d="M1.3,183.2c1.8,2,2.8,18.6,0,18.6C1.3,195.5,1.3,189.4,1.3,183.2C2.2,184.1,1.3,189.4,1.3,183.2z"
			/>
		<path style="fill:#18865C;" d="M149.1,229.9c0,12.5,1.4,15.7-9.6,12c-4.7-1.6-14.9-5.3-19.7-5.5c-7.3-0.2-17.7-4.1-25.2-6.3
			c-8.5-2.5-10.2-17.5-10.1-25.5c0.1-4.7-8.1-38.9,7.2-25.9c5.5,4.6,20.8,6,27.9,7c6.5,0.9,17.2,3.7,22.8,7
			C146.8,195.2,149.8,229.9,149.1,229.9C149.1,233.8,149.1,229.9,149.1,229.9z"/>
		<path style="fill:#18865C;" d="M28.1,216.1c3.1,0,31.3,8.1,31.4,10.4c-0.2-3.7,19,9.3,17.4,9.2c1.5,0.1,4.4,33.7,4.6,37.6
			c0.4,8.5-9.9,8.9-13.8,2.5c-3.1-5-27-8.2-32.9-9.1c-14.3-2.1-3.9-18.9-9-27c-2.2-3.5-3.6-7.3-3.6-11.7c0-3.4,0-6.8,0-10.2
			C22.2,215,28.1,216.3,28.1,216.1C29.3,216.1,28.1,216.1,28.1,216.1z"/>
	</g>
	<g id="yellow_1_">
		<path style="fill:#E3B204;" d="M1.3,67.6c6-4.2,20.3-26.7,30.6-15.8c1.5,1.6,12.6,4.5,14.9,4.4c2.3-0.1,24.3,4.1,25.3,5.9
			c2.3,3.9-22.6,27.7-25.9,31.4c-8,8.9-15.4-0.9-25.4-0.8c-4.9,0.1-5.4-3.2-12.9-3C-2.9,90.1,1.3,74.5,1.3,67.6
			C1.8,67.3,1.3,74.2,1.3,67.6z"/>
		<path style="fill:#E3B204;" d="M74.4,156.2c-2.3,0.3-27.8-4.8-28.3-5.7c-2.6-5.7-24.9-2.4-30.3-8.2c-5.8-6.3,25.3-24.7,26-31
			c1.3-11.2,53.9,2.1,61.4,6.1C108.7,120.3,79,152.5,74.4,156.2C73,156.5,75.5,155.4,74.4,156.2z"/>
		<path style="fill:#E3B204;" d="M157.8,81.9c7.5,0,54.6,8.3,52.9,15.8c-1.4,6.3-13.8,11.7-13.7,17.8c0,2.5-7,11.3-9.4,13.1
			c-1.9,1.5-19.7,3.3-19.3-1.1c0.1-0.6-27.3-6.4-30.5-7.3c-10.4-2.9-13.9-5.2-7.6-14.5C134.9,98.8,149.4,80.5,157.8,81.9
			C159.6,81.9,154.2,81.3,157.8,81.9z"/>
		<path style="fill:#E3B204;" d="M124.8,28.1c6.7,0.1,35.1,2.8,38.5,7.7c2.9,4.2,11-3.2,11,4.4c0,3.8-13.1,10.6-11,14.5
			c0.3,0.6-8,10.2-9.5,11.9c-5.7,6-11,2.3-17.3,0.6c-5.2-1.4-42.6-4.6-44-8.8C90,51,118.7,28.1,124.8,28.1
			C128.1,28.1,123.9,28.1,124.8,28.1z"/>
	</g>
	<g id="white_1_">
		<path style="fill:#F4F4F4;" d="M1.3,92.8c3.6,1.1,28.9,5.6,29.3,9.1c0.4,3.6-24.8,29.9-29.3,30.4C1.3,119.1,1.3,106,1.3,92.8
			C2.9,93.3,1.3,106,1.3,92.8z"/>
		<path style="fill:#F4F4F4;" d="M139.2,179.7c-2.7,0-24.1-5.3-24.4-6.8c-0.8-3.5-28.5-5.9-32.2-8.7c-1.8-1.3,22.4-35.7,26.5-35.1
			c0.1,0,3.6-5.4,4.2-5.7c3.4-1.2,20.8,3,22.1,4.4c8.5,8.8,35.7-1.3,36,13.9c0.1,5.2-8.9,13.7-10.9,17.9c-1,2.1-6.8,5.7-8.5,8.1
			C149.1,171.6,146.6,181.3,139.2,179.7C137.9,179.7,141.8,180.3,139.2,179.7z"/>
		<path style="fill:#F4F4F4;" d="M212.2,87.9c-9.5-3.4-21.3-4.9-31.3-6.6c-3.9-0.6-20.2-3-22.1-7.4c-2-4.7,19.6-24.1,21.2-29.2
			c2.7-8.5,40.4,4.5,46.7,6.3c2.1,0.6,12.1,0.5,12.9,3.6c1.6,5.6-6.6,10.4-8.6,13.7C227.4,74.7,220.3,88.8,212.2,87.9
			C209.8,87.1,215.1,88.3,212.2,87.9z"/>
		<path style="fill:#F4F4F4;" d="M123.2,72.4c3.6,3,13.7,6,18.7,6.1c5.9,0.1-12.6,20.6-12.5,22.7c0.1,1.6-13.6,11.5-15.3,11.5
			c-2.5,0-27.8-5.9-29.1-7.8c-1-1.5-35.9-3.9-20.9-12.7c3.5-2.1,6.5-7.6,9.5-10.2c3.2-2.8,10-14.9,14.7-14.2
			C101.1,69.4,110.7,72,123.2,72.4C124,73,122.3,72.4,123.2,72.4z"/>
		<path style="fill:#F4F4F4;" d="M76.7,53.3c-6.5,0-47.6-10.7-46.4-14.2c2.2-6.5,26-30.2,33.6-26.8c5.5,2.4,44.6,5.9,45.8,11.2
			C111.1,29.9,81.9,53.3,76.7,53.3C75.6,53.3,77.1,53.3,76.7,53.3z"/>
	</g>
	<g id="red_1_">
		<path style="fill:#A50101;" d="M188.7,227.6c0,10.4,6.5,26,1.1,35.4c-1,1.7-8.8,12.7-11,13.1c-6.6,1.4-9.1,24.5-16.8,25
			c-1.5,0.1-5-27.1-5-29.7c0-6.2-2.3-17,1.3-22.4c1.2-1.8,6.8-6.3,7.4-8.3c0.9-3.1,17.4-29.1,21.3-28.4
			C191.1,213,187.4,227.6,188.7,227.6C188.7,230.8,188.7,227.6,188.7,227.6z"/>
		<path style="fill:#A50101;" d="M222.2,129.6c0,2,1.4,24.9,0.6,25.3c-3,1.4-11.3,10.1-11.5,13.6c-0.3,5.4-18.6,20.6-18.6,17.1
			c0.1-14.7-1.2-29.7-1.3-44.6c0-3.9,8.9-12.6,11.2-16.2c1.9-2.9,14.3-20.8,15.6-20.8C226.8,103.7,219.6,129.6,222.2,129.6
			C222.2,135.7,222.2,129.6,222.2,129.6z"/>
		<path style="fill:#A50101;" d="M225.1,182.5c0.4-16.1-1-33,13.2-44.4c4.1-3.3,6-13.8,11.8-14.1c4.2-0.3,0.9,20.4,0.9,23.9
			c0,18.8-2,27.2-12.8,41.2c-2.9,3.7-6.5,7.4-8.1,11.7C226.7,209.7,225.1,183.6,225.1,182.5C225.2,176.7,225.1,189.3,225.1,182.5z"
			/>
		<path style="fill:#A50101;" d="M222.3,244.4c0,15.6-0.5,23-8.7,35.8c-1.1,1.7-11.8,21.9-16,20.9c-1.9-0.5-2.4-13.9-2.4-14.7
			c-0.1-5.7,2.2-11.3,1.1-17c-1.2-2.5-2.2-5.1-2.9-7.8c1.2-1.4,2.3-2.9,3.2-4.5c0.2-3.8,19.4-34.9,24-34.9
			C225.3,222.1,220.6,244.4,222.3,244.4C222.3,251,222.3,244.4,222.3,244.4z"/>
	</g>
	<g id="orange_1_">
		<path style="fill:#A50101;" d="M165.9,322.7c0.5-10.4,0.8-12.2,5.5-20.8c1.7-3.1,7.6-7.6,8.4-10.8c0.7-2.6,8.7-19.2,13.4-18.1
			c2.5,0.6,1.2,32.2,1.5,36.5C195.6,327.2,179.4,322.7,165.9,322.7C166.1,318.5,174.3,322.7,165.9,322.7z"/>
		<path style="fill:#A50101;" d="M185.7,167.4c0,11.7,2.3,21.3,2.4,33c0,4.2-8,11.4-10.1,15.2c-1.8,3.2-15,26-18.8,25.8
			c-1.9-0.1-4.6-26.4-4.6-30.3c-0.1-13.6-4-24.6,8.6-34.8c5.2-4.2,8.5-15.6,14.4-18.2c3.8-1.7,1.3-6.4,5-6.6
			C189.9,151.1,183.4,167.4,185.7,167.4C185.7,171.7,185.7,167.4,185.7,167.4z"/>
		<path style="fill:#A50101;" d="M222.1,190c0,3.5,1.8,23.8-1.1,23.7c-3.1-0.1-5.7,12.2-8.2,12.5c-6,0.7-11.7,24.7-17.5,23.9
			c-3.5-0.5-8.3-55.4,2.2-55.9c2.8-0.2,14-17.2,14-19.3c0.1,0,10-12.1,10.7-5.4C222.5,171.1,222.2,190,222.1,190
			C222.1,196.2,222.2,190,222.1,190z"/>
		<path style="fill:#A50101;" d="M250.3,89c0,7.9,3,28.8-6.4,33.7c-4.4,2.3-11,23-16.7,22c-3.3-0.6-6-50.1,2.7-53.3
			c2.2-0.8,15.9-27.8,19.7-26.6C252.1,65.6,250.3,85.9,250.3,89C250.3,95.9,250.3,84.5,250.3,89z"/>
		<path style="fill:#A50101;" d="M250.3,199.3c0,4.4,2.8,36.4-8,36.9c-3,0.1-9.4,22.1-13.4,21.9c-3.8-0.2-1.6-27.2-4.5-25.5
			c1.1,0.3,2.1,0.8,2.9,1.6c0.3-7.2-7.9-21.9,5.1-26.8c5-1.9,9.9-25.4,16.3-25.5C253.1,181.8,248.7,199.3,250.3,199.3
			C250.3,203.8,250.3,199.3,250.3,199.3z"/>
		<path style="fill:#A50101;" d="M225.8,230c-0.2,0.7-2.1,2.9-1.8-0.7C224.3,226.3,225.7,229.4,225.8,230
			C225.7,230.5,225.7,229.3,225.8,230z"/>
	</g>
</g>
<g>
</g>
<g>
</g>
<g>
</g>
<g>
</g>
<g>
</g>
<g>
</g>
<g>
</g>
<g>
</g>
<g>
</g>
<g>
</g>
<g>
</g>
<g>
</g>
<g>
</g>
<g>
</g>
<g>
</g>
</svg>
