<svg xmlns="http://www.w3.org/2000/svg" width="320" height="323" viewBox="0 0 320.4 323.2" style="enable-background:new 0 0 320.4 323.2">
 <path d="m98 323c-8.7 0-11.3-.6-9.9-10.8.6-4.9-1.1-15.2-3.8-19.5-2-3.2-27-11.5-31-11-6.8.8-13.8-5-20.4-5.4-4.2-.3.7 12.8.5 14.9-.4 5.1 2.1 16.3 3.2 21 1.2 5.7 7.8 6.9 8.6 9.2 0 0-44 4.9-44-.3.1-4.8.1-9.6 0-14.4 2.6-.8 4.9-.5 7.1.8 0 .6 9.9 4.6 10 4.6 5.6-1.1-1.6-19.7-1.2-23 1-6.9 1.5-16-4.7-20.3-9.7-6.7-11.2-2.5-11.2-15.3 3.5 1 14.6 9.4 15.4 2.1 1.1-9.4-5.8-21.8-5.8-32 0-8.4-6.6-10-8.8-14.8-2.7-5.9-.9-25.4-.9-33.7 0-13.6-4.5-36.8 4.3-46 6.6-6.9 15.5-19.7 24-23.6 4.6-2.1-5.6-6.8-6.8-6.8-8.4-.1-21.6-2.3-21.6-10.9 3.1-.5 24.3 4 26 7.8 1.1 2.3 9.4-.5 11.8 2.8 1.2 1.6 8.4-6.4 10-7.1 3.4-1.3 23.7-27 22.9-28.7-2.5-4.3-31.9-8.2-37.7-9.1-20-3.1-19.4 6.3-34 16.7v-69.8h320l.6 322-129 .6c-.4-5.8 3.7-11.3 3.3-18-.2-3.6 1.5-30.9-1.1-31.5-6.6-1.6-11.5 19-15.4 19.5-.9.1-7.5 11.8-8.3 13.4-3.8 7-3.6.2-3.5 10.5.1 9.5-3.4 6.2-11.4 6.2.6-8.2-1.4-14.6-11.8-13.7-5.4.4-13.6-5.7-20.4-5.4-1.3.1-18.5-6.2-18.5-7-.4-5.7-8.8 1.2-8.4 8 .2 6.4 2.7 11 2.7 18m16.7-250c1-3.6-24.8-5.9-27.6-4.2-3.5 2-12.6 16-15.8 16.3-.8.1-10.4 8.6-10.4 9.6-.3 10.7 27.6 12.9 35.5 12.6 5.3-.2 18.2 9.7 23.8 3.3 2.2-2.5 11.5-8.2 11.9-12 .5-6.3 22.3-25-1.1-22.3-2.7.3-5.3-.9-7.9-3-.4-3.6-5.1-.2-8.4-.2m34 158c.9 0-3-32.8-3.9-34.5-4-7.1-17.6-3.2-21.6-7.8-3.6-4.2-23.7-7.6-29-8-1.1-.1-12.9-5.4-12.8-1.6.3 7.1 2.9 12.6 3 19.9 0 7 2.4 12.9 2.4 19.8 0 7.8 5 6.6 5.9 10.5.6 2.5 22 8.4 25.3 8.4 6.8 0 12.6 5.2 19.5 5.3 11-.1 11.4 5.3 11.4-12m-9.9-50c11.6 2.5 11.9-20.4 19.4-19.5.6.1 12.8-15.5 12.8-18.5-.2-9.3-22.4-13.7-31-12.5-7.7 1-17.2-6-25-5.9-1.9 0-5.9 5.8-6.2 5.8-4-.6-28 33.8-26.5 35 7.5 5.6 22.9 5.7 30.9 7.9 7.7 2 17.9 7.6 25.7 7.6m-120 22.9c-3.8 0 11.2 8.3 12 8.5 6.7 1.7 12.9 5.3 20.4 5.6 4.9.2 11 5.1 17 5.5 12 .9 4.4-18.6 4.3-27-.2-12-2.7-25-15.2-29-6.1-2-17.6-4.8-23.8-5.9-3.9-.7-19.8-6.8-22-5.5-7.4 4 7.3 41 7.3 48m127 51c.7-6.2-44-16.8-50-17.5-13.2-1.6-6.6 5-6.6 15.4 0 7.8 1 27.6 7.4 31.9 1.7 1.1 20.3 6.7 20.3 6.5.4 1.5 18.8 8.2 20.8 8.1 3.8-.2 9.9 5.1 12 .6 2.4-4.9-1.8-13-1.8-18.2 0-10-1.8-18.2-2-26.8m-72-97c7.1-5.9 10.8-13.7 18-19 4.1-3 8.5-16.2 12.6-17.6-1.3-3.4-29.5-10.3-34-10-11.7.7-18-4.8-28.6.1-10.5 4.8-18.6 24.4-27 31.8-.8.7 27 7.2 29 7.8 7.6 1.8 22 8.1 29.9 7m83-74c-13.8-2.2-14.6 18.6-25.8 21.9-1.6.5-6.8 8.1-6.4 10 .8 3.5 9 5.6 12.3 6.5 8.9 2.4 18.9 6.2 28.9 6.1 7.4-.1 13.8 7.8 20.8 2.3 3.2-2.6 7.2-8 9.1-11.3 3.1-5.5 12.6-13.3 14-19.6 1.7-7.6-45-15.9-52.9-15.9m-130 134c0-2.5-5.8 3.5-5.8 6.9 0 4-.7 13 2.7 15.9 5.1 4.4-.4 20.8 6 26 6.2 5.1 21.8 6.1 29.7 8.3 2 .6 20.9 9 20.8 5.6-.3-12.8-2.3-25.8-2.5-39.8-.1-6.7-12.7-13.3-19-12-1.7.3-12.3-5.1-16.3-5.2-5.1-.2-9.8-5.9-15.5-5.9m184-128c8.2.9 15.3-13.3 18.9-19.6.9-1.6 5.7-7.9 7-9 7.8-6.8-9.4-7.7-11.4-8.3-6.4-1.8-44-14.8-46.7-6.3-1.6 5.1-23 24.4-21 29 1.9 4.4 18.2 6.8 22 7.4 9.9 1.7 21.7 3.3 31 6.6m-87-59.8c-6.1 0-34.8 22.9-32 30 .7 1.9 37.6 9.1 41 8.8 5-.4 11.8 1.9 16.7 2.5 1.8.2 11.8-12.7 12.9-13.8 6.7-6.8 17.7-18.4 3-19.3-13.6-.9-27-8.2-41-8.3m-48 25c5.3 0 34.5-23.4 33-29.8-1.2-5.3-40-8.8-45.8-11.2-7.5-3.4-31.4 20.3-33.6 26.8-1.2 3.5 39.9 14 46 14.2m109 114c.9 0 .1-26.7-5.8-11.8-2.3 5.9-13 10.9-14 17-.9 6.4-10.9 9.7-11.5 17.7-.4 5.2.1 8.5.1 14 0 3.6 1.5 36.7 4.7 36.8 1.7.1 18-22.6 18-22.8-.1-2.3 8.4-15.9 9.4-16 3.4-.3-.9-32-.9-35m3 60c-1.3 0 2.4-14.6-1.7-15.4-2.2-.4-21 24.3-21 26.4-.1 1.9-2.9 5.6-4.5 7-6.1 5.2-4.3 12-4.3 19 0 2.7 2.5 36.4 5 36 3.7-.2 14.8-20 15.7-23.8.3-1.1 9.6-12.6 9.2-12.6 9.4-.6 1.7-30.6 1.7-37m33.5-98c.7 0-.3-22-2.4-25-1.9-2.8-12.4 17.3-15.4 19-19.8 11.8-12.2 40.5-11.7 59 .3 10.7 16.4-6.7 18.4-12 2.2-6 7.2-9.2 9.9-13.4 4.1-6.4 1.2-19.8 1.2-27.6m-.1 60c0 0 .3-19 .1-20.6-.8-6.7-10.6 5.3-10.7 5.4 0 2.1-11.2 19-14 19.3-10.5.6-5.7 55-2.2 55.9 2.6.4 15.7-21.3 16.6-23.7 1.3-3.3 7.1-7.6 8.3-11.9.7-2.5 4.8.5 2.1-3.6-2.4-3.6-.2-16.3-.2-20.8m3-7.5c0 1.1 1.7 27.3 5 18.2 1.6-4.3 5.2-7.9 8.1-11.7 10.8-14 12.8-22.4 12.8-41 0-3.4 3.3-24-.9-23.9-5.8.4-7.8 10.8-11.8 14-14.3 11.5-12.8 28.4-13.2 44.5m-2.8 61.9c-1.6 0 3-22.3-1.7-22.3-8.8 0-14.9 28-21.7 31.7-5.6 2.9-6.6 46-1.4 47 6.4 1.6 10.9-20 14.6-20 1.4-.1 7.2-10.9 7.7-12.2 2.8-7.8 2.5-15.3 2.5-24.3m28-155c0-3.1 1.8-23.4-.6-24-3.8-1.2-17.5 25.8-19.7 26.6-8.8 3.2-6.1 52.7-2.7 53 4.3.8 11.8-15.4 13.4-18.5 1.8-3.4 5.5-5.6 6.7-9.2 3.1-9.2 2.9-17.5 2.9-28m0 110c-1.7 0 2.8-17.5-1.6-17.5-3.3 0-14.3 20.8-15.3 24.3-1.1 4-7.2 6.2-8.6 10.4-2.5 7.7 2.8 10.9 2.5 17.5-.8-.8-1.8-1.3-2.9-1.6 3-1.7.7 25.4 4.5 25.5 4 .2 10.4-21.8 13.4-21.9 10.8-.3 8-32 8-36.7m-24.5 30.7c-.1-.6-1.5-3.8-1.8-.7-.3 3.7 1.6 1.5 1.8.7"/>
 <g style="fill:#0111a5">
  <path d="m45 323c-2.6 4.8-12-26-9.7-24.3-2.4-1.7-4-17.7-4.1-20.3-.3-5.5 10 .7 11.8.8 4.9.1 30.4 5.7 33.6 10.5 3.4 5.1 8.6.3 9.7 10.5.8 7.6 3.2 15 2.9 22.8-14.7 0-29.4 0-44 0"/>
  <path d="m1.3 208c12 1.1 11.2 31 13.4 40.5 2.7 11.3-1.1 10-10.9 6.5-6.7-2.4-2.5-39.8-2.5-47"/>
  <path d="m19 203c0-6.9-14.7-44-7.4-48 2.5-1.3 18.3 4.8 22 5.5 6.2 1.1 17.7 3.9 23.8 5.9 12.5 4 15 17.2 15.2 29 .1 8.5 7.7 27.9-4.3 27-6.1-.4-12.2-5.3-17-5.5-7.4-.3-13.7-3.9-20.4-5.6-.7-.3-15.8-8.6-12-8.6"/>
  <path d="m147 254c.2 7.2 2.1 12.7 2.1 21 0 6.5.4 13.4 1.7 19.7 2.2 10.6-6.9 3.5-12 3.7-5 .2-13.2-4.9-18.7-5.8-6.2-1-17-5.2-22.5-8.8-5.1-3.4-7.4-18.8-7.4-25-.1-12-7.2-23.9 6.5-22.3 6 .7 51 11.2 50 17.5"/>
 </g>
 <g style="fill:#18865c">
  <path d="m98 323c0-9.5-9.8-33.6 6.3-24.8 4.6 2.5 10.9 1 15.3 2.9 4 1.7 9.7 6.2 15 5.9 3.8-.2 19.7 5.4 18.7 7.4 9.2 11.3-10.9 8.6-15.2 8.6-13.4 0-26.8 0-40 0"/>
  <path d="m1.3 264c13.8 4.3 18.2 9.6 15.9 24.9-.5 3.3 6.7 21.9 1.2 23-3 .6-12.5-5.4-17-5.3 0-14.3 0-28.4 0-42.6"/>
  <path d="m1.3 183c1.8 2 2.8 18.6 0 18.6 0-6.3 0-12.4 0-18.6"/>
  <path d="m149 230c0 12.5 1.4 15.7-9.6 12-4.7-1.6-14.9-5.3-19.7-5.5-7.3-.2-17.7-4.1-25-6.3-8.5-2.5-10.2-17.5-10-25.5.1-4.7-8.1-38.9 7.2-25.9 5.5 4.6 20.8 6 27.9 7 6.5.9 17.2 3.7 22.8 7 4.4 2.5 7.4 37 6.7 37"/>
  <path d="m28 216c3.1 0 31 8.1 31.4 10.4-.2-3.7 19 9.3 17.4 9.2 1.5.1 4.4 33.7 4.6 37.6.4 8.5-9.9 8.9-13.8 2.5-3.1-5-27-8.2-32.9-9.1-14.3-2.1-3.9-18.9-9-27-2.2-3.5-3.6-7.3-3.6-11.7 0-3.4 0-6.8 0-10.2 0-2.8 5.9-1.5 5.9-1.7"/>
 </g>
 <g style="fill:#e3b204">
  <path d="m1.3 68c6-4.2 20.3-26.7 30.6-15.8 1.5 1.6 12.6 4.5 14.9 4.4 2.3-.1 24.3 4.1 25.3 5.9 2.3 3.9-22.6 27.7-25.9 31.4-8 8.9-15.4-.9-25.4-.8-4.9.1-5.4-3.2-12.9-3-10.8.4-6.6-15.2-6.6-22"/>
  <path d="m74 156c-2.3.3-27.8-4.8-28-5.7-2.6-5.7-24.9-2.4-30-8.2-5.8-6.3 25.3-24.7 26-31 1.3-11.2 53.9 2.1 61 6.1 5.5 2.9-24 35-28.8 38.8"/>
  <path d="m158 81.9c7.5 0 54.6 8.3 52.9 15.8-1.4 6.3-13.8 11.7-13.7 17.8 0 2.5-7 11.3-9.4 13-1.9 1.5-19.7 3.3-19.3-1.1.1-.6-27.3-6.4-30.5-7.3-10.4-2.9-13.9-5.2-7.6-14.5 4.7-6.9 19-25 27.6-23.8"/>
  <path d="m125 28c6.7.1 35 2.8 38.5 7.7 2.9 4.2 11-3.2 11 4.4 0 3.8-13 10.6-11 14.5.3.6-8 10.2-9.5 11.9-5.7 6-11 2.3-17.3.6-5.2-1.4-42.6-4.6-44-8.8-2.5-7.4 26-30 32-30"/>
 </g>
 <g style="fill:#f4f4f4">
  <path d="m1.3 93c3.6 1.1 28.9 5.6 29 9.1.4 3.6-24.8 29.9-29 30.4 0-13.2 0-26.3 0-39.5"/>
  <path d="m139 180c-2.7 0-24-5.3-24.4-6.8-.8-3.5-28.5-5.9-32-8.7-1.8-1.3 22.4-35.7 26.5-35 .1 0 3.6-5.4 4.2-5.7 3.4-1.2 20.8 3 22 4.4 8.5 8.8 35.7-1.3 36 13.9.1 5.2-8.9 13.7-10.9 17.9-1 2.1-6.8 5.7-8.5 8.1-2.9 3.9-5.4 13.6-12.8 12"/>
  <path d="m212 88c-9.5-3.4-21.3-4.9-31-6.6-3.9-.6-20-3-22-7.4-2-4.7 19.6-24 21-29 2.7-8.5 40 4.5 46.7 6.3 2.1.6 12 .5 12.9 3.6 1.6 5.6-6.6 10.4-8.6 13.7-3.6 6.4-10.7 20.5-18.8 19.6"/>
  <path d="m123 72c3.6 3 13.7 6 18.7 6.1 5.9.1-12.6 20.6-12.5 22.7.1 1.6-13.6 11.5-15.3 11.5-2.5 0-27.8-5.9-29-7.8-1-1.5-35.9-3.9-20.9-12.7 3.5-2.1 6.5-7.6 9.5-10.2 3.2-2.8 10-14.9 14.7-14.2 12.8 1.6 22.4 4.2 34.9 4.6"/>
  <path d="m77 53c-6.5 0-47.6-10.7-46-14.2 2.2-6.5 26-30 33.6-26.8 5.5 2.4 44.6 5.9 45.8 11.2 1.4 6.4-27.8 29.8-33 29.8"/>
 </g>
 <g style="fill:#a50101">
  <path d="m189 228c0 10.4 6.5 26 1.1 35.4-1 1.7-8.8 12.7-11 13-6.6 1.4-9.1 24.5-16.8 25-1.5.1-5-27-5-29.7 0-6.2-2.3-17 1.3-22.4 1.2-1.8 6.8-6.3 7.4-8.3.9-3.1 17.4-29 21.3-28.4 4.1.7.4 15.3 1.7 15.3"/>
  <path d="m222 130c0 2 1.4 24.9.6 25.3-3 1.4-11.3 10-11.5 13.6-.3 5.4-18.6 20.6-18.6 17 .1-14.7-1.2-29.7-1.3-44.6 0-3.9 8.9-12.6 11.2-16.2 1.9-2.9 14.3-20.8 15.6-20.8 8.6-.3 1.4 25.6 4 25.6"/>
  <path d="m225 183c.4-16-1-33 13.2-44 4.1-3.3 6-13.8 11.8-14 4.2-.3.9 20.4.9 23.9 0 18.8-2 27-12.8 41-2.9 3.7-6.5 7.4-8.1 11.7-3.4 8.9-5-17.2-5-18.3"/>
  <path d="m222 244c0 15.6-.5 23-8.7 35.8-1.1 1.7-11.8 21.9-16 20.9-1.9-.5-2.4-13.9-2.4-14.7-.1-5.7 2.2-11.3 1.1-17-1.2-2.5-2.2-5.1-2.9-7.8 1.2-1.4 2.3-2.9 3.2-4.5.2-3.8 19.4-34.9 24-34.9 4.7-.1 0 22 1.7 22"/>
  <path d="m166 323c.5-10.4.8-12.2 5.5-20.8 1.7-3.1 7.6-7.6 8.4-10.8.7-2.6 8.7-19 13.4-18 2.5.6 1.2 32 1.5 36.5.9 17.7-15.3 13.2-28.8 13.2"/>
  <path d="m186 167c0 11.7 2.3 21.3 2.4 33 0 4.2-8 11.4-10 15.2-1.8 3.2-15 26-18.8 25.8-1.9-.1-4.6-26.4-4.6-30-.1-13.6-4-24.6 8.6-34.8 5.2-4.2 8.5-15.6 14.4-18.2 3.8-1.7 1.3-6.4 5-6.6 7.3-.4.8 15.9 3.1 15.9"/>
  <path d="m222 190c0 3.5 1.8 23.8-1.1 23.7-3.1-.1-5.7 12.2-8.2 12.5-6 .7-11.7 24.7-17.5 23.9-3.5-.5-8.3-55 2.2-55.9 2.8-.2 14-17.2 14-19.3.1 0 10-12 10.7-5.4.3 1.6 0 20.5-.1 20.5"/>
  <path d="m250 89c0 7.9 3 28.8-6.4 33.7-4.4 2.3-11 23-16.7 22-3.3-.6-6-50 2.7-53 2.2-.8 15.9-27.8 19.7-26.6 2.5.8.7 21 .7 24"/>
  <path d="m250 199c0 4.4 2.8 36.4-8 36.9-3 .1-9.4 22-13.4 21.9-3.8-.2-1.6-27-4.5-25.5 1.1.3 2.1.8 2.9 1.6.3-7.2-7.9-21.9 5.1-26.8 5-1.9 9.9-25.4 16.3-25.5 4.4-.1 0 17.4 1.6 17.4"/>
  <path d="m226 230c-.2.7-2.1 2.9-1.8-.7.3-3 1.7.1 1.8.7"/>
 </g>
</svg>
