<?xml version="1.0" encoding="utf-8"?>
<!-- Generator: Adobe Illustrator 17.0.0, SVG Export Plug-In . SVG Version: 6.00 Build 0)  -->
<!DOCTYPE svg PUBLIC "-//W3C//DTD SVG 1.1//EN" "http://www.w3.org/Graphics/SVG/1.1/DTD/svg11.dtd">
<svg version="1.1" id="Layer_1" xmlns="http://www.w3.org/2000/svg" xmlns:xlink="http://www.w3.org/1999/xlink" x="0px" y="0px"
	 width="258.5px" height="245.9px" viewBox="0 0 258.5 245.9" style="enable-background:new 0 0 258.5 245.9;" xml:space="preserve"
	>
<g id="green.svg">
	<path style="fill:#18865C;" d="M162,245.4c0-15.9-16.3-56.2,10.5-41.4c7.7,4.2,18.2,1.7,25.6,4.8c6.6,2.8,16.2,10.3,25.2,9.8
		c6.4-0.4,32.9,9,31.2,12.4c15.4,18.9-18.2,14.4-25.4,14.4C206.8,245.4,184.4,245.4,162,245.4C162,241.7,193.3,245.4,162,245.4z"/>
	<path style="fill:#18865C;" d="M0,147.4c23,7.2,30.4,16,26.6,41.5c-0.8,5.5,11.3,36.6,1.9,38.4c-5.1,1-20.8-9-28.5-8.9
		C0,194.7,0,171.1,0,147.4C4.4,148.8,0,171.1,0,147.4z"/>
	<path style="fill:#18865C;" d="M0,12.4c3,3.3,4.7,31,0,31C0,33.1,0,22.7,0,12.4C1.5,14,0,22.7,0,12.4z"/>
	<path style="fill:#18865C;" d="M246.9,90.4c0,20.9,2.3,26.3-16.1,20c-7.9-2.7-24.8-8.9-32.9-9.1c-12.1-0.4-29.6-6.8-42.1-10.6
		c-14.1-4.2-17.1-29.2-16.8-42.6c0.2-7.8-13.5-64.9,12.1-43.3c9.2,7.8,34.8,10.1,46.6,11.6c10.8,1.4,28.8,6.1,38.1,11.6
		C243,32.4,248.1,90.4,246.9,90.4C246.9,96.9,246.9,90.4,246.9,90.4z"/>
	<path style="fill:#18865C;" d="M44.8,67.4C50,67.4,97,81,97.2,84.9c-0.3-6.1,31.7,15.5,29.1,15.4c2.6,0.1,7.4,56.4,7.7,62.8
		c0.7,14.2-16.5,14.9-23.1,4.2c-5.1-8.3-45.1-13.7-54.9-15.1c-23.9-3.4-6.6-31.5-15-45.1c-3.6-5.9-6-12.3-5.9-19.5
		c0.1-5.7,0.1-11.3,0.1-17C35,65.5,44.8,67.8,44.8,67.4C46.8,67.4,44.8,67.4,44.8,67.4z"/>
</g>
<g>
</g>
<g>
</g>
<g>
</g>
<g>
</g>
<g>
</g>
<g>
</g>
<g>
</g>
<g>
</g>
<g>
</g>
<g>
</g>
<g>
</g>
<g>
</g>
<g>
</g>
<g>
</g>
<g>
</g>
</svg>
