<svg xmlns="http://www.w3.org/2000/svg" width="259" viewBox="0 0 258.5 245.9" style="enable-background:new 0 0 258.5 245.9">
 <g style="fill:#18865c">
  <path d="m162 245c0-15.9-16.3-56 10.5-41 7.7 4.2 18.2 1.7 25.6 4.8 6.6 2.8 16.2 10.3 25 9.8 6.4-.4 32.9 9 31 12.4 15.4 18.9-18.2 14.4-25.4 14.4-22.3 0-44.7 0-67 0"/>
  <path d="m0 147c23 7.2 30.4 16 26.6 41.5-.8 5.5 11.3 36.6 1.9 38-5.1 1-20.8-9-28.5-8.9 0-23.7 0-47 0-71"/>
  <path d="m0 12.4c3 3.3 4.7 31 0 31 0-10.3 0-20.7 0-31"/>
  <path d="m247 90c0 20.9 2.3 26.3-16 20-7.9-2.7-24.8-8.9-32.9-9.1-12-.4-29.6-6.8-42-10.6-14-4.2-17-29-16.8-42.6.2-7.8-13.5-64.9 12-43 9.2 7.8 34.8 10 46.6 11.6 10.8 1.4 28.8 6.1 38 11.6 7.2 4.4 12.3 62 11 62"/>
  <path d="m44.8 67c5.2 0 52 13.6 52 17.5-.3-6.1 31.7 15.5 29 15.4 2.6.1 7.4 56 7.7 62.8.7 14.2-16.5 14.9-23 4.2-5.1-8.3-45-13.7-54.9-15-23.9-3.4-6.6-31.5-15-45-3.6-5.9-6-12.3-5.9-19.5.1-5.7.1-11.3.1-17-.2-5.1 9.6-2.8 9.6-3.2"/>
 </g>
</svg>
