<svg xmlns="http://www.w3.org/2000/svg" viewBox="0 0 508 120.9" style="enable-background:new 0 0 508 120.9">
 <g style="fill-rule:evenodd">
  <path d="m314 76c0 0-35 18.2-46 23.8-1.6.9-3.3 1.3-5.1 1.2-18.2-.8-36.4-1.5-54.6-2.3-5.8-.3-11 1.7-16.6 3-25 5.7-50 11.6-76 17.4-.4.1-.9.1-2 .2 3.7-6.8 7.2-13 11-20-31 4.1-61 8.2-92 12.2 0-.2-.1-.3-.1-.5 15.8-6.8 31.5-13.5 47-20.3 0-.2 0-.4-.1-.6-22-.3-43.9-.6-65.9-1 2.5-1.6 5.3-1.9 8.1-2.5 29.6-6.4 59-12.6 89-19 3.3-.7 3.3-.7 2.5-4.1-.7-3.1-1.4-6.3-2.3-9.4-.5-1.8-.3-2.4 1.8-2.7 20.9-3 41.8-6.4 62.8-8.9 14-1.7 27-5.9 40-11.2 10.4-4.2 21-7.9 31-12 4.5-1.8 8.9-.5 13.3-.3 14.9.9 29.8 2.4 44.8 3.2 4.1.2 8.2-1.5 12.3-2.5 24-5.7 48-11.3 72-17 2.2-.5 3-.1 3.5 2 .9 3.5 2.2 6.8 3.2 10.3.4 1.2 1 1.7 2.3 1.5 17.6-2.1 35-4.1 52.9-6.1 8.7-1 17.4-1.9 26.3-2.4-14.5 6.5-29 12.9-44 19.3 1.1 1 2.3.4 3.2.1 6.7-1.8 13.5-1.4 20.3-.9 13 1 25.9 1.8 38.9 2.7.5 0 1.1-.2 1.7.8-4.1 1-8.1 1.9-12.2 2.9-25.5 5.8-51 11.6-76 17.3-2.1.5-2.6 1.1-1.7 3.2 1.7 3.8 3.1 7.6 4.7 11.4.6 1.4.6 2-1.2 2.1-14.7 1.3-29.4 2.8-44 4.2-16 1.5-31.9 3.1-47.9 4.7-1.8.2-3.5-5.2-6-4.4l.6 6.6c17-2 40.8-4.2 57.7-5.9 13.7-1.3 27.5-2.6 41-3.9 1.9-.2 2.7-.4 1.7-2.7-2.1-4.4-3.7-9.1-5.6-13.8 33-7.3 66-14.9 99-22.4 0-.2-.1-.4-.1-.6-20.9-1.4-41.8-2.9-63-4.4 14.5-6.3 28.5-12.3 42-18.4-4.9-.6-9.5.3-14.2.9-24 2.7-48 5.5-73 8.3-1.3.1-1.9 0-2.3-1.4-1.1-3.7-2.4-7.3-3.5-11-.5-1.6-.9-2.1-2.8-1.7-24.4 5.8-48.7 11.6-73 17.2-4.6 1.1-9.1 3.1-13.9 2.8-15.6-1-31-2.3-46.7-3.5-4-.3-7.8-.7-11.8.9-12.8 5.2-25.6 10-38.5 14.8-5 1.9-9.8 4.6-15 5.4-16.5 2.6-33 4.8-49 7.2-10.5 1.5-21 3.2-31.6 4.6-2.3.3-2.3 1.2-1.8 2.9.9 3.3 1.5 6.6 2.5 9.9.7 2.3 0 3.1-2.3 3.6-32 6.9-65 13.8-97 20.6-4.3.9-8.5 1.9-12.7 2.8 0 .1 0 .3.1.4 24.5.4 48.9.8 73 1.1 0 .2 0 .3.1.5-16.9 7.2-33.8 14.5-50.6 21.7 0 .2.1.4.1.6 33-4.4 65.9-8.8 99-13.2-3.8 6.9-7.5 13.6-11.3 20.5.8 0 1.1 0 1.5-.1 28-6.5 56.7-13 85-19.6 3.3-.8 6.5-1.9 10-1.7 18.5.9 37 1.7 56 2.5 1.6.1 2.9-.3 4.3-1 11-5.7 35-18 46-23.8l-.2-1.7" style="fill:#594326"/>
  <path d="m319 75c16-1.6 31.9-3.1 47.9-4.7 14.7-1.4 29.4-2.9 44-4.2 1.8-.2 1.8-.8 1.2-2.1-1.6-3.8-3-7.7-4.7-11.4-.9-2-.4-2.7 1.7-3.2 25.5-5.7 51-11.5 77-17.3 4-.9 8-1.9 12.2-2.9-.6-.9-1.2-.7-1.7-.8-13-.9-25.9-1.8-38.9-2.7-6.8-.5-13.6-.9-20.3.9-.9.2-2.1.8-3.2-.1 14.8-6.4 29.6-12.8 44-19-8.9.5-17.6 1.4-26.3 2.4-17.6 2-35 4-52.9 6.1-1.4.2-1.9-.3-2.3-1.5-1-3.4-2.3-6.8-3.2-10.3-.6-2.1-1.4-2.6-3.5-2-24 5.8-48 11.4-72 17-4.1 1-8.3 2.7-12.3 2.5-14.9-.7-29.8-2.2-44.8-3.2-4.4-.3-8.8-1.6-13.3.3-10.4 4.2-21 7.9-31 12-13 5.3-26 9.5-40 11.2-21 2.5-41.8 6-62.8 8.9-2 .3-2.3.9-1.8 2.7.9 3.1 1.5 6.3 2.3 9.4.8 3.4.8 3.4-2.5 4.1-29.6 6.3-59 12.6-89 19-2.7.6-5.6.8-8.1 2.5 22 .3 43.9.6 65.9 1 0 .2 0 .4.1.6-15.8 6.8-31.5 13.5-47 20.3 0 .2.1.3.1.5 30.4-4 60.9-8.1 92-12.2-3.9 7.1-7.4 13.4-11 20 1.1-.1 1.6-.1 2-.2 25-5.8 50-11.7 76-17.4 5.5-1.2 10.8-3.2 16.6-3 18.2.8 36.4 1.5 54.6 2.3 1.9.1 3.5-.3 5.1-1.2 10.7-5.6 21.5-11 32-16.7 17.3-9.5 17.3-7.6 19-7.8" style="fill:#fcc725"/>
 </g>
 <path d="m63 99c.7-6.1 1.4-12.8 2.3-19.4.4-3.3 2.4-5.5 5.6-6.2 6-1.2 12-2.2 18-3.3.3-.1.6-.1.9 0 4 1.8 7-.2 10.7-1.6 6.3-2.4 13-4.1 20-2.8.6.1 1.2.4 1.7 0 4.7-4.2 10.8-3.5 16.3-4.6 3.1-.6 6.1-1.6 9.3-1.8 1.2-.1 1.7-.8 1.8-2.1 1-7 2-8 9-9.4 3-.6 6-1.2 9.1-1.6 4-.6 6.6.5 8.3 4 1.3 2.8 3.3 3.3 6 2.9 4.2-.8 8.5-1.5 12.7-2.4 1.7-.3 3.2-.5 4.8.1.8.3 1.6.2 2.5-.2 7.1-3.6 14.9-4.4 22.6-4.8 3.9-.2 7.2-.8 10.9-2.1 7.3-2.5 15-3.3 22.8-4.4 4.2-.6 8.2-1.7 12.3-2.5 3.6-.7 7.3-2.2 10.7-1.8 5.5.6 10-1.9 15-2.9 5.2-1 10.4-1.9 15.6-2.7 5-.8 9.1.8 11.8 5.2.5.7.9 1.4 1.7 1.9 2.2 1.5 3.3 3.7 4 6.1.3 1.2.2 2.7 2.1 2.3 1.6-.3 3.3-.3 3.3-2.7 0-1.5.4-3 .6-4.6 1.3-9.1 5.9-13.8 15-15.6 4.3-.8 8.7-1.6 13-2.4 1.9-.3 3.8-.8 5.7-.1.7.3 1.3.3 1.9-.1 5.5-3.2 11.8-3.1 17.8-4.4.9-.2 2-.2 2.9.1 1.6.5 2.9.3 4.3-.8 2.3-1.7 5.3-1.6 8-2.2 7.2-1.4 14.5-2.6 21.8-3.9 4.7-.8 9.1 1.3 11.5 5.4.4.6.6 1.3 1.4 1.8 3.9 2.4 5.1 6.2 4.8 10.4-.3 4.7-1 9.4-1.6 14-.5 4.2-2.7 6.8-6.8 7.5-10.5 2-21 4.6-31.7 5.5-7.3.6-13.9 4.1-21 4.1-5.1 0-9.7 1.5-14.5 2.6-6.5 1.4-13 3.3-19.9 3-1.2-.1-1.3.9-1.6 1.7-1.1 3.2-3.4 4.9-6.8 5.5-3.5.6-7 1.3-10.5 1.9-2.9.5-5.4-.3-7.3-2.4-.9-1-1.6-1.8-3.1-1-1.6.9-4.2.5-4.2 3.5-.1 2-.5 4-.8 6-1.3 7.1-6.3 12.4-13.4 13.7-21.9 4-43.9 8-65.8 12-3.3.6-6.3-.9-8.1-3.8-.3-.5-.4-1.2-.8-1.5-4-2.3-5.4-5.7-4.5-10.2.3-1.4-1-1.1-1.8-1-2.2.3-4.3 1-6.5 1.1-4.8.1-9.3.8-13.9 2.4-5.4 1.8-11.2 2.7-17 3.2-4.2.3-8.1.9-12 2.2-3.5 1.2-7.4 2.1-11 1.9-3.7-.2-6.8.3-10.2 1.8-3.7 1.6-8 1.8-12 2.4-2.3.4-4.4-.4-6.1-2-.5-.5-1.1-1.3-1.9-.4-4 5.1-10 5.7-15.8 6.7-3.3.6-6.6 1.5-10 .5-.3-.1-.9-.1-1.1 0-5.4 4.1-12.2 2.7-18 4.8-1.8.6-3.8.8-5.7 1.1-1.4.2-2.9.4-4.3.1-4.3-.6-10.8-8.8-10.7-13.7m375-76c.3-9.7-4.9-13.9-13-12.4-6.2 1.1-12.5 2.2-18.7 3.4-3 .6-6.3.4-8.8 2.3-1.5 1.1-2.7 1.8-4.6 1.1-1-.4-2.3-.3-3.4-.1-3.9.6-7.9.9-11.6 2-4.2 1.3-8.2 2.3-12.6 2.4-4.5.1-9.1 1.5-13.6 2.4-9.3 1.9-12.7 5.4-14.3 14.7-.4 2.4.2 5.7-1.5 7.1-1.7 1.4-4.7 1.1-7.2 1.6-6 1.3-5.3.6-4.5-4.2 1.3-8.5-4.2-13.5-12.9-11.9-3.6.7-7.2 1.3-10.7 2.1-3.7.8-7.8.4-10.6 3.7-.4.5-1.1.3-1.6.1-3-1.2-6.1-.7-9.1 0-6.2 1.5-12.6 2.2-18.8 3.9-3.5 1-7.7.9-11.5 1.6-5.9 1.2-12.4 1-17.3 5.4-.5.4-1 .5-1.6.2-3.3-1.8-6.8-1.1-10-.3-5.9 1.4-12.3 1-17.6 4.9-.5.4-1.1.3-1.7 0-1.9-1.1-3.9-.7-5.9-.3-5.5 1-11 1.9-16.4 3.1-1.9.4-2.3.1-2.3-1.8-.1-4.1-2.7-6.4-6.8-6.1-3 .2-5.9.8-8.8 1.4-7.4 1.5-7.9 1.9-8.9 9.3-.2 1.7-1.1 2.3-2.5 2.5-4.7.8-9.4 1.5-14 2.5-4 .9-8.6.3-11.7 4.1-.4.5-1 .4-1.6.1-2.9-1.3-5.8-.9-8.8-.2-4.5 1.1-9.4.7-13.2 3.6-2.3 1.7-4.3 2.7-7.1 1.2-1.5-.8-3.4-.4-5.1-.1-5 .9-10 1.8-15 2.8-3.2.7-4.9 2.6-5.3 6-.7 6.3-1.5 12.6-2.1 18.9-.5 4.7 3.2 7.9 8.1 7.2 5.6-.9 11-2.4 16.6-3.2 4.9-.6 9.3-3.5 14.7-2.8 3.5.4 7.3-1.2 11-1.9 2.7-.5 5.2-1.7 6.9-3.9 2-2.6 3.6-3.9 5.8-.3.2.3.6.4 1 .6 2.6 1.3 16.6-1.3 18.4-3.6 1.1-1.5 1.9-2.1 3.6-.8 1.2.9 2.8 1 4.4.7 3.7-.7 7.6-.8 11-2.3 3.6-1.6 7.1-1.6 10.8-1.9 5.5-.4 10.9-2 16.5-2.8 2.8-.4 4.8-2.8 7.2-3.1 2.5-.3 5.3.7 7.9.2 4.4-.7 8.9-1.5 13.3-2.5 2-.4 2.4.2 2.1 2-.5 3.1-1.1 6.3-1.2 9.4-.2 4.2 3.1 7 7.3 6.3 9.9-1.7 19.8-3.5 29.8-5.3 12.3-2.2 24.6-4.4 36.8-6.9 5.8-1.2 9.8-4.8 11.3-10.7.6-2.5.9-5.1 1.2-7.7.2-1.8.3-3.3 2.7-3.7 1.7-.3 3.3-1.4 5.1-1.9.6-.2.6.8.9 1.3 1.7 2.6 3.9 3.8 7.1 3.2 3.6-.7 7.2-1.3 10.8-1.9 1.8-.3 3.9-1 4.2-2.6 1-4.9 4.2-4.4 8-4.6 5.3-.3 10.6-1.5 15.9-2.8 4.3-1 8.2-3.1 13-2.6 3.6.4 7.6-.5 11-1.9 4.9-2.1 10-1.9 15-2.6 3.7-.5 7.3-1.8 11-2.2 5.9-.7 11.7-2.2 17.5-3 2.9-.4 4.6-2.3 5-5.2.1-4.9.6-9.9 1-13.2" style="fill:#bc9362"/>
 <path d="m438 22c-.4 3.3-1 8.3-1.6 13.2-.4 2.9-2.1 4.8-5 5.2-5.9.8-11.6 2.3-17.5 3-3.7.4-7.2 1.7-11 2.2-5 .7-10 .5-15 2.6-3.4 1.4-7.4 2.3-11 1.9-4.9-.6-8.8 1.5-13 2.6-5.2 1.3-10.5 2.5-15.9 2.8-3.8.2-7-.2-8 4.6-.3 1.6-2.5 2.3-4.2 2.6-3.6.6-7.2 1.2-10.8 1.9-3.2.6-5.4-.6-7.1-3.2-.3-.5-.3-1.5-.9-1.3-1.7.5-3.3 1.6-5.1 1.9-2.4.4-2.5 1.9-2.7 3.7-.3 2.6-.6 5.2-1.2 7.7-1.5 5.9-5.5 9.5-11.3 10.7-12.2 2.5-24.5 4.6-36.8 6.9-9.9 1.8-19.8 3.6-29.8 5.3-4.2.7-7.5-2.1-7.3-6.3.2-3.2.7-6.3 1.2-9.4.3-1.8-.1-2.5-2.1-2-4.4 1-8.9 1.7-13.3 2.5-2.7.5-5.5-.5-7.9-.2-2.4.3-4.4 2.7-7.2 3.1-5.5.8-10.9 2.3-16.5 2.8-3.7.3-7.2.3-10.8 1.9-3.3 1.5-7.3 1.5-11 2.3-1.6.3-3.2.2-4.4-.7-1.7-1.3-2.5-.7-3.6.8-1.8 2.3-15.8 4.9-18.4 3.6-.3-.2-.8-.3-1-.6-2.1-3.6-3.8-2.3-5.8.3-1.7 2.1-4.2 3.4-6.9 3.9-3.7.7-7.5 2.3-11 1.9-5.4-.7-9.8 2.2-14.7 2.8-5.6.7-11 2.3-16.6 3.2-4.9.8-8.6-2.4-8.1-7.2.7-6.3 1.4-12.6 2.1-18.9.4-3.3 2.1-5.3 5.3-6 5-1 10-1.9 15-2.8 1.7-.3 3.6-.7 5.1.1 2.9 1.5 4.8.5 7.1-1.2 3.9-2.8 8.8-2.5 13.2-3.6 2.9-.7 5.9-1.1 8.8.2.6.2 1.2.4 1.6-.1 3-3.8 7.7-3.2 11.7-4.1 4.6-1.1 9.4-1.7 14-2.5 1.4-.2 2.2-.8 2.5-2.5 1.1-7.5 1.5-7.8 8.9-9.3 2.9-.6 5.9-1.2 8.8-1.4 4.1-.3 6.6 2 6.8 6.1.1 1.9.5 2.2 2.3 1.8 5.4-1.2 10.9-2.1 16.4-3.1 2-.4 4-.8 5.9.3.5.3 1.1.4 1.7 0 5.3-3.8 11.7-3.4 17.6-4.9 3.3-.8 6.8-1.5 10 .3.6.3 1.1.2 1.6-.2 5-4.4 11.4-4.2 17.3-5.4 3.8-.8 8-.7 11.5-1.6 6.2-1.7 12.6-2.4 18.8-3.9 3-.7 6.1-1.2 9.1 0 .5.2 1.2.5 1.6-.1 2.8-3.4 6.9-3 10.6-3.7 3.6-.8 7.2-1.4 10.7-2.1 8.7-1.6 14.2 3.4 12.9 11.9-.8 4.8-1.5 5.5 4.5 4.2 2.4-.5 5.5-.2 7.2-1.6 1.7-1.4 1.1-4.6 1.5-7.1 1.6-9.3 5-12.9 14.3-14.7 4.5-.9 9-2.3 13.6-2.4 4.4-.1 8.4-1 12.6-2.4 3.7-1.2 7.7-1.5 11.6-2 1.1-.2 2.4-.3 3.4.1 1.9.7 3.1.1 4.6-1.1 2.5-1.9 5.8-1.7 8.8-2.3 6.2-1.3 12.5-2.3 18.7-3.4 8.8-1.5 13.9 2.7 13.6 12.4m-370 81c.4 2.7 2.5 2.3 4.2 2 5.3-.9 10.5-1.9 15.8-2.9 3.1-.6 6.7-.3 8.6-3.8.1-.1.6-.2.7-.1 4.8 2.7 9.4.2 14-.3 7.8-.8 12.9-4.6 14-13.4.4 2.1.6 3.6.9 5.1.7 3.2 3 4.9 6.3 4.4 2.3-.4 4.5-1 6.8-1.2 4.2-.5 8-1.3 9.1-7 1.8 4.1 4.6 4.5 7.8 3.9 2.3-.4 4.5-.9 6.8-1.2 3-.3 5.3-2.8 7.7-3.2 2.7-.4 5.8.6 8.8.1 3.3-.6 6.6-1.1 9.9-1.8 3.1-.7 6.6-.3 9.1-2.9 3-3.1 6.2 1.4 9.3-.3.2-.1.5-.2.8-.2 5-.9 10-1.7 15-2.7 1.8-.4 2.1.2 1.8 1.7-.5 3-.9 6.1-1.4 9.1-.9 5.4 1.8 8.2 7.1 7.2 8.1-1.5 16.2-3 24.4-4.5 13.5-2.5 27-4.9 40.5-7.5 6.4-1.2 10-5.6 11-12 .4-2.6.8-5.1 1.1-7.7.1-1.1.5-1.9 1.6-2 3.2-.3 5.8-1.9 8.2-3.9.7 5.3 2.8 6.8 7.8 5.8 2.8-.5 5.7-1.1 8.5-1.5 3.7-.6 5-1.7 5.7-5.4.4-2.1.5-3.6 3.4-2.2 1.9.9 4.2.4 6.3 0 4.9-.9 9.8-1.9 14.7-2.7 1.9-.3 3.5-.9 4.6-2.6.4-.6.7-1 1.6-.7 8.1 2.1 15.7 0 22.9-3.6.7-.4 1.3-.7 2.1-.2 1.7 1.1 3.5.8 5.3.4 4.1-.8 8.2-1.9 12.3-2.5 6-.9 12-2.3 18-3.1 2-.3 3.5-1.8 3.8-3.9.7-5.2 1.5-10.5 1.7-15.7.3-6.3-4.5-10.3-10.7-9.1-7.5 1.3-14.9 2.6-22.4 4.1-2.3.4-5.1.3-6.6 2.3-1.2 1.5-2.1 1.5-3.6.8-.7-.3-1.5-.4-2.2-.4-5.5.3-10.9 1.2-16 2.9-2.5.9-4.7 2.7-7.6 1.2-.4-.2-1.1 0-1.7.1-5.2.9-10.4 1.9-15.6 2.8-6.4 1.2-10.9 5.6-11.8 11.5-.4 3-.9 6.1-1.2 9.1-.1 1.1-.4 1.6-1.7 1.7-2.5.2-4.9.6-7.4 1.1-6.8 1.3-6.8 1.3-5.5-5.4 1.4-7.5-3.6-12.4-11-11-5 .9-10 1.8-15 2.7-2.5.5-5 .8-6.3 3.4-.3.6-.9.6-1.5.3-3.9-1.9-8-.9-11.9 0-5.5 1.2-11 2.1-16.5 3.5-4.2 1.1-8.9 1.1-13.3 2-5.5 1.1-11.4.9-15.7 5.5-.8.8-1.6.1-2.3-.2-1.9-.9-3.9-1.3-6.1-.8-2.7.6-5.5.9-8.2 1.4-4.4.9-9.1.9-12.7 4.2-.6.6-1.2.3-1.8-.1-1.8-1.1-3.7-.9-5.6-.5-6.8 1.4-13.7 2-20.5 4.4.1-.9 0-1.5.1-2 .9-5.4-1.9-8.1-7.2-7-1.6.3-3.2.6-4.8.9-8.9 1.3-8.9 1.4-10.2 10-.1.7.2 1.7-.9 1.8-3.4.3-6.6 1.6-9.8 1.9-4.5.5-8.9 1.6-13.3 2.1-2.5.3-3.5 3.2-5.2 3.4-2 .3-4.2-1.6-6.6-1.2-3.6.6-7.2 1.4-10.8 2-3.3.5-6 1.9-8.3 4.3-.9.9-1.4 1-2.4.3-2.4-1.7-4.9-1.8-7.7-1.2-3.4.7-6.8 1.2-10.2 1.9-6.5 1.3-8.6-.2-9.4 9.5-.3 4.9-1 10-1.3 15.2-.1 1.4-.7 3.4 1.9 3.5" style="fill:#fefefe"/>
 <path d="m67.9 103c-2.5-.1-2-2.1-1.9-3.5.4-5.2 1-10.3 1.5-15.5.8-9.7 2.9-8.2 9.4-9.5 3.4-.7 6.8-1.2 10.2-1.9 2.8-.6 5.4-.5 7.7 1.2 1 .7 1.5.6 2.4-.3 2.2-2.4 5-3.8 8.3-4.3 3.6-.5 7.2-1.3 10.8-2 2.4-.4 4.6 1.5 6.6 1.2 1.7-.2 2.7-3.1 5.2-3.4 4.5-.5 8.8-1.6 13.3-2.1 3.3-.4 6.5-1.6 9.8-1.9 1.2-.1.8-1.1.9-1.8 1.3-8.8 1.4-8.8 10.2-10 1.6-.2 3.2-.6 4.8-.9 5.4-1.1 8.1 1.6 7.2 7-.1.6-.1 1.1-.1 2 6.8-2.2 13.8-2.8 20.6-4.2 1.9-.4 3.8-.7 5.6.5.6.4 1.2.6 1.8.1 3.6-3.3 8.3-3.3 12.7-4.2 2.7-.6 5.5-.8 8.2-1.4 2.2-.5 4.2-.1 6.1.8.8.4 1.6 1.1 2.3.2 4.3-4.6 10.2-4.4 15.7-5.5 4.4-.8 9.1-.9 13.3-2 5.5-1.4 11-2.3 16.5-3.5 3.9-.9 7.9-1.9 11.9 0 .6.3 1.2.3 1.5-.3 1.3-2.6 3.9-2.9 6.3-3.4 5-.9 10-1.8 15-2.7 7.5-1.4 12.5 3.5 11 11-1.2 6.7-1.2 6.7 5.5 5.4 2.4-.5 4.9-.9 7.4-1.1 1.3-.1 1.5-.6 1.7-1.7.3-3.1.8-6.1 1.2-9.1.8-5.9 5.4-10.3 11.8-11.5 5.2-.9 10.4-1.9 15.6-2.8.6-.1 1.3-.4 1.7-.1 2.9 1.6 5-.3 7.6-1.2 5.2-1.8 10.6-2.6 16-2.9.7 0 1.6.1 2.2.4 1.5.7 2.4.7 3.6-.8 1.6-2.1 4.3-1.9 6.6-2.3 7.4-1.4 14.9-2.7 22.4-4.1 6.2-1.1 11 2.8 10.7 9.1-.3 5.3-1 10.5-1.7 15.7-.3 2.1-1.8 3.6-3.8 3.9-6 .8-12 2.3-18 3.1-4.1.6-8.2 1.7-12.3 2.5-1.8.4-3.6.7-5.3-.4-.8-.5-1.3-.2-2.1.2-7.3 3.6-14.8 5.7-22.9 3.6-.9-.2-1.2.1-1.6.7-1.1 1.7-2.8 2.2-4.6 2.6-4.9.9-9.8 1.9-14.7 2.7-2.1.4-4.4.9-6.3 0-2.9-1.4-3 .2-3.4 2.2-.7 3.7-2 4.8-5.7 5.4-2.8.5-5.7 1-8.5 1.5-5 1-7.2-.6-7.8-5.8-2.5 2-5.1 3.6-8.2 3.9-1.1.1-1.5.9-1.6 2-.3 2.6-.8 5.1-1.1 7.7-.9 6.5-4.7 10.8-11 12-13.5 2.6-27 5-40.5 7.5-8.1 1.5-16.2 3-24.4 4.5-5.3 1-8.1-1.8-7.1-7.2.5-3 .9-6.1 1.4-9.1.2-1.5-.1-2-1.8-1.7-5 1-10 1.8-15 2.7-.3.1-.6.1-.8.2-3 1.8-6.3-2.8-9.3.3-2.5 2.6-6 2.2-9.1 2.9-3.3.8-6.6 1.2-9.9 1.8-3 .5-6.1-.5-8.8-.1-2.4.4-4.7 2.8-7.7 3.2-2.3.3-4.5.8-6.8 1.2-3.2.6-6 .2-7.8-3.9-1.1 5.6-4.9 6.5-9.1 7-2.3.3-4.5.8-6.8 1.2-3.3.5-5.6-1.1-6.3-4.4-.3-1.5-.5-3-.9-5.1-1.1 8.7-6.2 12.6-14 13.4-4.7.5-9.3 3-14 .3-.2-.1-.7 0-.7.1-1.9 3.5-5.5 3.2-8.6 3.8-5.3 1-10.5 2-15.8 2.9-2 .5-4.2.9-4.5-1.9 1.4-.1 2.5 1.2 4.1.7 1.9-.6 4-.7 5.9-1.1 3.7-.7 7.3-1.9 11-2.1 3.1-.2 6.4-.6 6.8-4.7 7.4 4.5 14.4 1.3 20.9-.9 8.7-2.9 6.4-12 8.6-19.5.8 4.9 1.5 9 2.1 13 .5 3.5 1.6 4.5 5.2 4.1 3-.4 6-1.2 9.1-1.5 2.7-.3 4-1.7 5-4.1 1.1-2.7 1.8-5.5 3.7-8.2.5 1.9 0 3.3-.2 4.7-.5 3.7 1.1 5.6 4.8 5.1 3.6-.5 7.2-1.2 10.8-1.9 1.5-.3 2.7-1.1 3.1-2.7.3-1.1.7-1.5 1.8-.7 2.5 1.8 5.3 1.6 8.1 1.1 4.7-.8 9.4-1.9 14.2-2.6 3.2-.4 5.5-1.5 5.8-5.3 2.3 1.8 4.6 3.2 7.3 2.8 7.1-1.2 14.2-2.2 21.5-4.2-.7 4.8-1.4 9.5-2.1 14.2-.5 3.3 1.4 5.5 4.8 5 2-.3 4-.7 5.9-1.1 20-3.7 40-7.3 60-11 4.8-.9 8.8-5.2 9.6-10 .5-2.8 1-5.7 1.2-8.5.2-2.1 1-3.1 3.1-3.3 3.8-.4 6.6-2.5 8.7-5.5.4-.6.5-1.5 1.5-1.5.4 1.7-.5 3.2-.5 4.9-.1 3.2 1.6 4.9 4.8 4.5 1.7-.2 3.4-.7 5.1-1 9.6-1.8 9.8-2 9.7-11.6 2.3 3.4 5.7 3.9 9.4 3.3 4.5-.8 9-1.7 13.6-2.5 3.1-.5 6.2-.8 6.5-5 4.2 2.4 5.9 2.8 9.2 2.2 2.9-.5 5.9-1.1 8.8-1.6 1.8-.4 3.6-.6 5.1-1.9 1.7-1.5 3.3-2.7 5.5-.6.7.7 2 .1 3.1 0 5.3-.4 10.2-2.4 15.5-3 4.8-.5 9.6-1.9 14.5-2.6 2.2-.3 3.3-1.6 3.6-3.8.5-4.5 1.1-9 1.6-13.4.7-6.2-3.4-9.9-9.5-8.8-7.8 1.5-15.6 3-23.5 4.3-2.9.5-5.3 1.2-5.7 4.9-1.7-1.3-3.2-2.6-5.1-2.4-5.8.4-11.7 1-17 3.4-2.2 1-3.9 3.1-6.4.8-.3-.3-1.1-.2-1.7-.1-5.8 1.1-11.5 2-17.2 3.3-5 1.2-8.4 4.3-9.1 9.6-.6 4.3-1.6 8.5-1.5 12.9-6.5-1.2-12.5.7-18.6 2.9.4-3 .8-6.4 1.3-9.7 1-6.3-2.9-10.2-9.3-9-4.6.9-9.2 1.8-13.9 2.5-3.6.6-7.3.7-7.1 6-4.6-3.4-5.7-3.7-11-2.6-1.5.3-3.1.3-4.5.8-4.7 1.6-10.3.2-14.3 4.2-.4.4-.9.1-1.3-.2-1.4-1-3-.7-4.5-.4-4.1.7-8.1 1.4-12.2 2.2-3.3.7-6.8.7-9.4 3.3-1.8 1.9-3.3 3.5-5.9.9-.9-.9-2.7-.9-4.2-.6-5 .9-10 1.8-15 2.7-1.5.3-3 .8-4.3 1.7-1.9 1.4-3.6 3.2-6 .7-.3-.3-1.1-.3-1.7-.2-7.9 2.1-16.6 1.2-23.7 6.2-.3.2-.7.1-1.3.1.8-2 .9-3.9 1.2-5.7.6-3.7-1.5-5.6-5.2-4.9-2.8.5-5.7 1-8.5 1.5-4.2.7-4.9 1.4-5.4 5.7-.2 1.6-.8 3.2-.2 4.8.2.7-.2 1.1-.9 1.1-3.9-.3-7.5 1.4-11 1.9-3.5.5-7.1 1-10.7 1.4-1.7.2-3.5.4-5 1.3-1.7 1.1-1.4 3.1-1.7 5.3-2.3-2.7-4.6-4.3-7.7-4-2.3.2-4.6.7-6.8 1.1-4.8.9-9.8 1.3-12.9 6-.8 1.2-1.4.3-2.1-.2-2-1.6-4.2-2.3-6.7-1.8-5 .9-10 1.9-15 2.7-2.6.5-3.8 2-4 4.5-.3 3.3-.9 6.7-1.1 10-.3 3.8-1.6 7.7-.3 11.7" style="fill:#bc9362"/>
 <g style="fill:#fefefe">
  <path d="m67.9 103c-1.3-4 0-8 .2-12 .2-3.3.7-6.7 1.1-10 .2-2.5 1.5-4.1 4-4.5 5-.9 10-1.9 15-2.7 2.5-.4 4.8.2 6.7 1.8.7.5 1.3 1.4 2.1.2 3-4.7 8-5.2 12.9-6 2.3-.4 4.5-.9 6.8-1.1 3.1-.3 5.5 1.3 7.7 4 .3-2.2-.1-4.2 1.7-5.3 1.5-1 3.2-1.1 5-1.3 3.6-.4 7.2-.9 10.7-1.4 3.7-.5 7.2-2.2 11-1.9.7.1 1.1-.4.9-1.1-.6-1.7 0-3.2.2-4.8.6-4.3 1.2-5 5.4-5.7 2.8-.5 5.7-1 8.5-1.5 3.7-.7 5.8 1.3 5.2 4.9-.3 1.9-.5 3.7-1.2 5.7.6 0 1.1.1 1.3-.1 7.2-4.9 15.8-4.1 23.7-6.2.5-.1 1.4-.1 1.7.2 2.4 2.5 4.1.7 6-.7 1.3-.9 2.7-1.4 4.3-1.7 5-.9 10-1.8 15-2.7 1.5-.3 3.3-.3 4.2.6 2.6 2.6 4.1.9 5.9-.9 2.5-2.6 6.1-2.7 9.4-3.3 4-.8 8.1-1.5 12.2-2.2 1.5-.3 3-.6 4.5.4.4.3.8.6 1.3.2 4-4 9.6-2.6 14.3-4.2 1.4-.5 3-.5 4.5-.8 5.3-1 6.5-.8 11 2.6-.2-5.3 3.6-5.4 7.1-6 4.6-.7 9.3-1.7 13.9-2.5 6.4-1.2 10.4 2.7 9.3 9-.5 3.3-.9 6.6-1.3 9.7 6-2.2 12-4.1 18.6-2.9-.2.6.1 1 .6 1.2.1 9.6-.1 9.8-9.7 11.6-1.7.3-3.4.8-5.1 1-3.2.4-4.9-1.2-4.8-4.5 0-1.6.9-3.2.5-4.9-1 .1-1.1 1-1.5 1.5-2.2 3-5 5.1-8.7 5.5-2.1.3-2.9 1.3-3.1 3.3-.3 2.9-.8 5.7-1.2 8.5-.8 4.7-4.8 9.1-9.6 10-20 3.7-40 7.3-60 11-2 .4-3.9.8-5.9 1.1-3.3.5-5.3-1.7-4.8-5 .7-4.7 1.4-9.4 2.1-14.2-7.3 1.9-14.4 3-21.5 4.2-2.7.5-5-.9-7.3-2.8-.4 3.8-2.6 4.9-5.8 5.3-4.7.7-9.4 1.8-14.2 2.6-2.8.5-5.6.7-8.1-1.1-1-.8-1.5-.4-1.8.7-.4 1.6-1.6 2.4-3.1 2.7-3.6.7-7.2 1.4-10.8 1.9-3.7.5-5.4-1.4-4.8-5.1.2-1.4.7-2.8.2-4.7-1.8 2.7-2.6 5.6-3.7 8.2-.9 2.4-2.3 3.8-5 4.1-3 .3-6 1.2-9.1 1.5-3.6.4-4.7-.6-5.2-4.1-.6-4-1.3-8.1-2.1-13-2.2 7.5.2 16.6-8.6 19.5-6.5 2.2-13.6 5.3-20.9.9-.4 4.1-3.7 4.5-6.8 4.7-3.8.2-7.4 1.4-11 2.1-2 .4-4 .5-5.9 1.1-1.7.6-2.8-.7-4.2-.6m166-30c-3.1.2-5.4.5-5.8 3.1-.7 4.6-1.4 9.3-2 14-.3 2.7.9 3.7 3.6 3.2 21.7-3.9 43-7.8 65-11.8 5.1-.9 8.4-4.6 9.3-9.7.5-2.8 1.1-5.7 1.2-8.5.1-2.4 1.2-3.3 3.4-3.6 4.4-.6 8-2.8 9.4-7.1 1.3-4.2 1.9-8.6 1.8-13-.1-3-2-4.8-5-4.9-1.5-.1-3.1 0-4.6.3-4.9.8-9.8 1.9-14.7 2.7-2.4.4-3.5 1.5-3.8 3.9-.8 6.1-1.8 12.2-2.8 18.2-.4 2.7-2.2 3.8-5.3 3.9 2.2-2.2 4.1-4.1 4.6-6.9.5-3.2 1.1-6.4 1.4-9.7.4-4.9-2.5-7.7-7.4-7-5.8.9-11.5 2.2-17.3 3.1-2.5.4-3.4 1.8-3.7 4-.8 5.6-1.6 11.2-2.5 16.8-.2 1.4-.3 3.1-2 4.1.1-.9.1-1.6.2-2.2.9-5.5 1.8-11 2.6-16.5.6-3.9-.5-5-4.3-4.3-5.5 1-11 1.9-16.4 3-4.7.9-8 4.2-8.9 9-.4 2.3-.6 4.7-1.1 7.1-.8 3.6-.1 6.8 4.9 8.9m-66 5.9c2.8 4.4 4.5 5.4 8.5 4.7 5.6-.9 11-2.1 16.7-3 2.4-.4 3.5-1.7 3.6-4.1.1-3.6 1.4-7 .9-10.8-.2-1.8 1.4-4.4 1.7-6.7.4-2.7-.9-4-3.6-3.5-3 .5-6.1 1.1-9.1 1.6-6.2 1.2-13 1.1-16.3 8.2-.8-2.7-1-5 .3-7.4.6-1.1.6-2.6.6-3.9.1-2.5-1-3.5-3.5-3.1-2.5.4-4.9.9-7.4 1.3-5.6 1-6.9 2.7-6.3 8.3.1.6.3 1.1.5 1.6.4 1.3-1.2 1.6-1.4 2.7-.1.6-.4.3-.8.1-3.9-1.8-8.1-.8-11 2.5-.9-1.7-2.5-1.5-4.1-1.3-2.8.5-5.7 1-8.5 1.6-3.4.7-3.8 1.2-3.4 4.7.7 5.5 1.6 11 2.5 16.5.4 2.4 1.8 3.2 4.1 2.8 2.5-.5 4.9-1.2 7.4-1.3 3.4-.2 5-1.9 6.1-5 2-5.5 4.4-10.9 6.6-16.4-.1 5.1-.8 10-1.5 15-.4 3 .8 4.1 3.7 3.7 1.6-.3 3.2-.7 4.8-.9 4.9-.6 9.8-.8 9-7.9m-73 13.7c1.7 3.7 4.7 5.1 8.7 4.4 3.3-.6 6.6-1.1 9.9-1.8 3.9-.9 7.1-3.1 8.1-7 1-3.9 1.3-8 1.5-12 .2-3.2-1.9-5.8-5.1-5.8-5.8.1-11.5.9-16.8 3.2-2.1.9-3.6 2.8-4.6 5-.3.6 0 1.6-1 1.8-1-3.8-3-5.5-6.9-5.1-5.4.7-10.8 1.8-16.2 2.8-1.5.3-2.3 1.2-2.5 2.8-.6 6.4-1.4 12.6-2 18.9-.2 1.8.8 3.4 2.6 3 4.3-.9 9.1-.1 12.7-3.5.5-.5.8-.1 1.2.1 5.1 1.9 9.1-.4 9.8-5.5 0-.5-.1-1 .6-1.3m103-21.9c-.2 5.3 2.4 8 7.2 7.4 6.2-.8 12.3-2 18.4-3.1 1.5-.3 2.2-1.4 2.4-2.9.4-3.8 1.8-7.5 1-11.4-.2-.8.4-1.2.8-1.8 1.5-1.8 2.3-3.8 1.1-6.1-1.3-2.3-3.5-2.6-5.8-2.2-5.4.9-10.8 1.7-16 3-3.8.9-6.6 3.6-7.5 7.6-.8 3.4-1.1 6.9-1.5 9.5m139-17.7c.2-2.2-.6-3.8-3-3.4-3.8.5-7.6 1.2-11.3 2.1-2.7.6-4.3 7.4-2.3 9.3.8.8 1.8.8 2.9.6 2.4-.5 4.9-1 7.3-1.4 5.6-.9 6.2-1.5 6.4-7.2m-188 25h.2v-.2l-.2.1"/>
  <path d="m339 48.8c-.1-4.3.8-8.6 1.5-12.9.8-5.2 4.2-8.4 9.1-9.6 5.7-1.4 11.5-2.2 17.2-3.3.5-.1 1.4-.2 1.7.1 2.5 2.3 4.2.2 6.4-.8 5.4-2.4 11.2-3.1 17-3.4 1.8-.1 3.4 1.1 5.1 2.4.5-3.7 2.8-4.4 5.7-4.9 7.9-1.3 15.7-2.8 23.5-4.3 6.1-1.1 10.2 2.6 9.5 8.8-.5 4.5-1.1 8.9-1.6 13.4-.2 2.2-1.4 3.5-3.6 3.8-4.9.7-9.6 2-14.5 2.6-5.3.6-10.3 2.6-15.5 3-1.1.1-2.4.6-3.1 0-2.2-2-3.8-.8-5.5.6-1.4 1.2-3.3 1.5-5.1 1.9-2.9.6-5.8 1.1-8.8 1.6-3.3.6-5 .2-9.2-2.2-.2 4.2-3.4 4.5-6.5 5-4.5.7-9 1.7-13.6 2.5-3.7.6-7.1.1-9.4-3.3.2-.4.2-.9-.4-1m31.6-20.6c-.6-3.8-1.4-4.4-4.9-3.8-5.1.9-10.2 1.7-15.3 2.9-4.7 1.1-8.1 3.9-8.8 9.1-.3 2.6-.7 5.1-1.1 7.7-.9 6.2 2.2 9.1 8.3 8 4.1-.7 8.1-1.7 12.2-2.1 4.3-.5 7.4-1.9 7.2-6.9 0-.2.2-.5.4-.8 2.8 4.5 4.5 5.4 10 4.3 6.3-1.3 13.6-.6 17.4-7.9-.2 2.1.5 4.5 2.3 4.1 4.6-.8 9.7 0 13.5-3.6.3-.3.5-.5.9-.3 3.7 1.6 7 1.1 9.8-1.8.2-.2.3-.5.6-.2 2.1 2.3 4.5.5 6.8.4 2-.1 3-1.4 3.2-3.4.5-4.5 1-9 1.5-13.4.5-4.2-2.1-7.1-6.3-7.1-1.3 0-2.7.2-4 .4-6.9 1.2-13.8 2.6-20.7 3.8-4.9.8-4.9.8-5.5 5.6-.2 1.2-.4 2.4-.7 4-.7-5.7-3.4-7.7-8.7-6.8-2.4.4-4.7.9-7.1 1.2-4.5.4-8.5 2.1-11 6.6"/>
 </g>
 <g style="fill:#bc9362">
  <path d="m234 73c-4.9-2.1-5.7-5.2-4.8-9.1.5-2.3.7-4.7 1.1-7.1.9-4.8 4.2-8.1 8.9-9 5.5-1 10.9-2 16.4-3 3.8-.7 4.9.4 4.3 4.3-.9 5.5-1.8 11-2.6 16.5-.1.7-.1 1.3-.2 2.2 1.8-1 1.8-2.6 2-4.1.9-5.6 1.7-11.2 2.5-16.8.3-2.2 1.2-3.6 3.7-4 5.8-.9 11.5-2.2 17.3-3.1 4.9-.8 7.8 2.1 7.4 7-.3 3.2-.8 6.5-1.4 9.7-.5 2.8-2.4 4.7-4.6 6.9 3.1-.1 4.8-1.2 5.3-3.9 1-6.1 2-12 2.8-18.2.3-2.4 1.4-3.5 3.8-3.9 4.9-.8 9.8-1.8 14.7-2.7 1.5-.3 3.1-.3 4.6-.3 3 .2 4.9 2 5 4.9.1 4.4-.5 8.9-1.8 13-1.4 4.3-5 6.5-9.4 7.1-2.3.3-3.3 1.2-3.4 3.6-.1 2.9-.7 5.7-1.2 8.5-.8 5.1-4.2 8.8-9.3 9.7-21.7 4-43 7.9-65 11.8-2.7.5-3.9-.5-3.6-3.2.5-4.7 1.2-9.3 2-14 .3-2.4 2.6-2.7 5.7-2.9m48-30c-4.2.8-9.3 1.9-14.5 2.6-2.6.3-3.2 1.8-3.5 3.9-.6 4.5-1.2 8.9-1.8 13.3-.9 6.3-2.6 8.4-7.9 9.4-6.7 1.3-13.5 2.6-20.3 3.6-2.3.3-3.2 1.4-3.4 3.4-.5 3.3-.9 6.6-1.5 9.9-.3 1.6.3 1.9 1.6 1.7 8.6-1.6 17.2-3.2 25.9-4.8 11.2-2 22.3-4.2 33.5-6.1 8.4-1.4 11.2-3.6 12-10.4.3-2.6 1.1-5.1 1-7.7-.1-3.6 1.8-4.2 4.7-4.6 4.7-.5 7.9-3.1 8.5-7.2.4-2.8.9-5.7 1.3-8.5.4-3.1-1.3-4.8-4.4-4.3-5.5.9-10.9 1.9-16.4 3-1.2.2-2.1.9-2.2 2.3-.7 5.7-1.6 11.4-2.4 17-.4 3.1-2 5.6-5.1 6.4-4.3 1.1-8.8 1.8-13.2 2.7-.9.2-1.2 0-1.3-.9-.2-2.3 1.1-4.1 3.5-4.4 6.8-1 10.2-3.8 10.4-10.7.1-1.6.4-3.2.6-4.8.6-3.9-.3-4.9-5.2-4.8m-25 7.4c.1-1.6.4-3.1-1.9-2.6-5.1 1-10.2 1.7-15.2 2.8-3.2.7-6 2.4-6.7 6-.7 3.3-1.1 6.6-1.6 9.9-.3 2.4 1 3.6 3.3 3.7 3.8.1 7.4-.6 10.9-1.9 1.2-.4 2.1-.7 3.5-.6 1.9.2 4.7.7 5.3-2 1.1-5.1 1.6-10.4 2.4-15.3"/>
  <path d="m169 79c.7 7-4.1 7.3-8.7 7.8-1.6.2-3.2.7-4.8.9-2.9.5-4.1-.7-3.7-3.7.7-4.9 1.3-9.9 1.5-15-2.2 5.4-4.6 10.8-6.6 16.4-1.1 3.1-2.7 4.8-6.1 5-2.5.1-4.9.9-7.4 1.3-2.3.5-3.8-.4-4.1-2.8-.8-5.5-1.7-11-2.5-16.5-.5-3.5 0-4 3.4-4.7 2.8-.6 5.7-1.1 8.5-1.6 1.5-.3 3.1-.5 4.1 1.3 3-3.3 7.2-4.2 11-2.5.4.2.7.5.8-.1.2-1 1.8-1.3 1.4-2.7-.2-.5-.4-1.1-.5-1.6-.6-5.6.7-7.3 6.3-8.3 2.5-.4 4.9-.9 7.4-1.3 2.5-.4 3.6.6 3.5 3.1-.1 1.3 0 2.9-.6 3.9-1.3 2.4-1.1 4.7-.3 7.4 3.3-7.1 10-7 16.3-8.2 3-.6 6-1.1 9.1-1.6 2.7-.5 3.9.8 3.6 3.5-.3 2.4-1.9 4.9-1.7 6.7.4 3.8-.8 7.2-.9 10.8-.1 2.4-1.2 3.7-3.6 4.1-5.6.9-11 2.1-16.7 3-4.3.8-6-.2-8.8-4.6m27-8.1c.1-2.5.1-2.5-2.1-2.1-2.1.3-4.1.7-6.2 1.1-2.2.5-3-.4-2.7-2.6.2-1.6 1-2.3 2.5-2.6 2.7-.4 5.5-.9 8.2-1.5 2.1-.5 2.1-2.4 1.8-3.9-.3-1.6-1.7-.5-2.6-.4-4.6.8-9.2 1.5-13.8 2.5-3.8.8-6.7 2.8-7.4 7-.5 3-1 6-1.4 9.1-.3 2.4 1.4 4.2 3.8 3.9 5.7-.9 11.3-2.1 16.9-3 1.4-.2 2-1 2.2-2.2.3-2 .5-3.8.8-5.3m-54 6.3c-.2 0-.4-.1-.6-.1-.3-2.1-.6-4.1-.9-6.2-.2-1.2-.5-2.3-2.4-1.7-2.5.7-5.1.9-7.6 1.3-.9.1-1.4.5-1.3 1.5.8 5.3 1.7 10.6 2.5 15.8.1.9.4 1.6 1.7 1.3 2.7-.6 5.5-.9 8.2-1.4.8-.2 1.6-.6 2-1.5 2.4-5.9 4.7-11.7 7.1-17.6.4-.9.4-1.6-.8-1.5-1.9.2-4 .2-4.8 2.7-1 2.6-2.1 5-3.1 7.4m14 7.8c2.8-.5 5.6-1.1 8.4-1.6.7-.1 1.2-.4 1.4-1.3.8-5.6 1.6-11 2.3-16.7.2-1.2-.1-1.7-1.6-1.4-2.5.6-5.1.9-7.6 1.3-1.5.2-2.1 1.1-2.3 2.5-.7 5.1-1.4 10.2-2.2 15.3-.2 1.4.1 2 1.6 1.9m4-24.9c2-.4 4.1-1.1 6.2-1.1 3.2 0 3-2.3 3.4-4.2.2-.7-.3-1-1-.9-3 .6-6 1-8.9 1.7-1.8.4-1.7 2.2-1.8 3.5-.1 1.4 1.1.9 2.1 1"/>
  <path d="m95 92c-.7.3-.6.8-.7 1.3-.7 5.2-4.7 7.4-9.8 5.5-.4-.2-.7-.5-1.2-.1-3.6 3.4-8.4 2.6-12.7 3.5-1.8.4-2.8-1.2-2.6-3 .7-6.3 1.4-12.6 2.1-18.9.2-1.5 1-2.5 2.5-2.8 5.4-1 10.7-2.1 16.2-2.8 3.9-.5 5.9 1.3 6.9 5.1 1-.2.7-1.2 1-1.8 1-2.2 2.4-4.1 4.6-5 5.3-2.3 11-3.2 16.8-3.2 3.2 0 5.3 2.6 5.1 5.8-.3 4-.6 8.1-1.5 12-1 3.9-4.1 6.2-8.1 7-3.3.7-6.6 1.3-9.9 1.8-4 .7-7-.7-8.7-4.4m25.5-15.4c.3-3-1.6-4.8-4.5-4.3-3.7.6-7.3 1.3-11 2.1-4 .9-6 3.5-6.3 7.5-.2 2.4-.6 4.7-1 7.1-.5 2.9 1.7 5.4 4.7 5 3.9-.6 7.7-1.4 11.5-2.3 3.1-.7 4.9-3 5.5-6 .6-3 .8-6.1 1.1-9.1m-27.6 6.5c.7-5.2-2.1-6.2-4.6-5.7-4.4.8-8.8 1.5-13.2 2.4-.9.2-2.1.2-2.3 1.7-.5 5.1-1.1 10.3-1.7 15.4-.3 2.2.8 2.7 2.7 2.3 1.8-.4 3.5-.9 5.3-1 1.5-.1 1.8-.8 1.9-2.2.3-3.5.9-7 1.3-10.5.3-2.8 2.1-3.3 4.2-3 2.4.4 1.2 2.4 1.2 3.7-.2 2.9-.7 5.9-1 8.8-.1.5-.2 1.2.4 1.5 1.6.8 4.4-.7 4.7-2.6.4-3.8.7-7.7 1.1-10.8"/>
  <path d="m199 70c.4-2.7.7-6.1 1.5-9.5.9-4 3.7-6.6 7.5-7.6 5.3-1.3 10.7-2.1 16-3 2.3-.4 4.5-.1 5.8 2.2 1.2 2.3.4 4.3-1.1 6.1-.4.5-1 1-.8 1.8.8 3.9-.6 7.6-1 11.4-.2 1.5-.9 2.6-2.4 2.9-6.1 1.1-12.3 2.4-18.4 3.1-4.7.7-7.4-2-7.2-7.4m21-7.5c2.3-2.1 4.3-4 6.4-5.9.9-.9 1.4-2 .8-3.1-.6-1.1-1.8-1.2-3-1-4.9.9-9.8 1.7-14.6 2.8-3.4.7-6 2.6-6.6 6.3-.4 2.5-.7 5.1-1.2 7.6-.8 4.3 1 6.3 5.2 5.5 5.3-.9 10.5-1.9 15.8-2.8 1-.2 1.5-.6 1.7-1.6.1-1.1.4-2.3.5-3.4.6-4.6.6-4.6-3.9-4.2-.2.1-.5 0-1.1-.2"/>
  <path d="m338 52.7c-.3 5.6-.8 6.2-6.3 7.2-2.5.4-4.9.9-7.3 1.4-1.1.2-2.1.2-2.9-.6-2-1.9-.4-8.7 2.3-9.3 3.7-.9 7.5-1.6 11.3-2.1 2.4-.3 3.1 1.3 2.9 3.4m-2.9 2.2c-.1-1.5.3-2.9-1.2-2.7-3 .4-6 .9-8.9 1.7-1.6.5-1.7 2.3-1.4 3.7.3 1.6 1.6.7 2.6.6 2.2-.4 4.5-.9 6.7-1.2 1.7-.2 2.3-1.1 2.2-2.1"/>
  <path d="m339 48.7c.6.2.6.7.6 1.2-.5-.2-.7-.6-.6-1.2"/>
  <polygon points="150.6,77.9 150.7,77.8 150.7,78 		"/>
  <path d="m370 28c2.5-4.5 6.5-6.2 11.2-6.8 2.4-.3 4.7-.8 7.1-1.2 5.3-.9 8 1.1 8.7 6.8.3-1.6.5-2.8.7-4 .6-4.8.7-4.8 5.5-5.6 6.9-1.2 13.8-2.5 20.7-3.8 1.3-.2 2.7-.4 4-.4 4.2 0 6.8 2.9 6.3 7.1-.5 4.5-1.1 9-1.5 13.4-.2 2-1.2 3.3-3.2 3.4-2.3.1-4.6 1.9-6.8-.4-.3-.3-.4 0-.6.2-2.9 2.9-6.2 3.4-9.8 1.8-.4-.2-.6 0-.9.3-3.8 3.6-9 2.8-13.5 3.6-1.8.3-2.5-2-2.3-4.1-3.8 7.4-11 6.7-17.4 7.9-5.5 1.1-7.3.2-10-4.3-.1.3-.4.5-.4.8.2 5-2.9 6.4-7.2 6.9-4.1.5-8.1 1.4-12.2 2.1-6.1 1.1-9.1-1.8-8.3-8 .4-2.6.8-5.1 1.1-7.7.7-5.2 4-8 8.8-9.1 5-1.2 10.2-2 15.3-2.9 3.3-.4 4.1.3 4.7 4m61-7.6c0-3.9-1.5-5.3-5-4.7-7.9 1.5-15.8 3.1-23.7 4.4-1.7.3-2.3 1-2.5 2.5-.4 3.9-.8 7.8-1.2 11.7-.6 5.6-.5 5.6 5.2 4.5 5-1 4.9-1 5.3-6.2.2-2.7.7-5.3 1-8 .4-2.5 2.6-2 4.1-2.1 1.9-.2 1.2 1.7 1.1 2.6-.2 2.8-.8 5.5-1 8.3-.1 1.1-.7 2.6.5 3.2.9.4 2.3 0 3.3-.4 1.4-.5 1.2-2 1.4-3.2.4-3.4.7-6.9 1.2-10.3.3-2.2 2.3-1.9 3.8-2 1.7-.1 1.4 1.3 1.3 2.2-.3 3-.8 6.1-1 9.1-.1.9-.7 2.2.6 2.8 1.6.7 4.2-.8 4.4-2.6.4-3.8.7-7.8 1.2-11.8m-37.6 8.2c.1-5.4-1.4-6.7-5.4-5.9-3.1.6-6.2 1.1-9.3 1.7-4.3.8-6.9 3.7-7.3 8.1-.2 2.1-.5 4.2-.9 6.2-.7 3.5.8 5.5 4.3 5.3 4.2-.2 8.3-1.1 12.4-2.2 2.4-.6 4.3-2.3 4.9-4.9.8-3.1 1.1-6.4 1.3-8.3m-51 16.2c-.1 3.8 1.3 5 4.5 4.5 2.8-.5 5.7-.9 8.5-1.4 2.5-.5 5.2-.6 7.5-1.6 3.1-1.3 1.3-4.8 2.3-7.1.1-.3.2-.6.2-.8.1-1.1 0-1.8-1.5-1.5-2.6.5-5.3.9-7.9 1.4-.7.1-1.2.5-1.5-.5-.6-2.1.6-4.3 2.8-4.7 2.3-.4 4.7-.8 7.1-1.2 2.5-.4 2.4-2.3 2.2-4-.3-2.2-1.9-.6-2.7-.5-4.4.6-8.9 1.4-13.2 2.3-3.3.7-6 2.4-6.8 5.8-.7 3.2-1 6.5-1.5 9.3"/>
 </g>
 <g style="fill:#de3624">
  <path d="m282 42c5-.1 5.8.9 5.2 4.7-.3 1.6-.6 3.2-.6 4.8-.2 6.9-3.6 9.7-10.4 10.7-2.4.3-3.7 2.1-3.5 4.4.1.9.4 1.1 1.3.9 4.4-.9 8.9-1.5 13.2-2.7 3-.8 4.6-3.2 5.1-6.4.8-5.7 1.6-11.3 2.4-17 .2-1.4 1.1-2 2.2-2.3 5.4-1 10.9-2.1 16.4-3 3.1-.5 4.8 1.2 4.4 4.3-.4 2.8-.9 5.7-1.3 8.5-.6 4.1-3.8 6.8-8.5 7.2-2.9.3-4.8 1-4.7 4.6.1 2.5-.7 5.1-1 7.7-.9 6.8-3.8 9-12 10.4-11.2 1.8-22.3 4-33.5 6.1-8.6 1.6-17.2 3.2-25.9 4.8-1.3.2-2 0-1.6-1.7.6-3.3 1-6.6 1.5-9.9.3-2 1.2-3.1 3.4-3.4 6.8-1 13.6-2.3 20.3-3.6 5.3-1 7-3.1 7.9-9.4.7-4.4 1.3-8.9 1.8-13.3.3-2.1.9-3.6 3.5-3.9 5.1-.6 10.3-1.8 14.5-2.5m-7 9.2c.1.5-.2 1.8.8 1.5 1.6-.3 3.3-.1 4.7-1.2 1.4-1 .4-2.7 1.1-4 .2-.3-.1-.7-.5-.8-2.6-.7-5.9 1.6-6.1 4.5m35-9.8c-3.6.1-4.5.8-4.5 3.7 0 1.1-.2 2.1 1.5 2 3.1-.2 4.6-1.5 4.8-4.3.1-1.4-.8-1.4-1.8-1.4"/>
  <path d="m257 49.8c-.7 5-1.3 10.2-2.4 15.3-.6 2.7-3.4 2.2-5.3 2-1.3-.1-2.3.1-3.5.6-3.5 1.4-7.2 2-10.9 1.9-2.3-.1-3.6-1.3-3.3-3.7.5-3.3.9-6.6 1.6-9.9.7-3.6 3.4-5.3 6.7-6 5-1.1 10-1.8 15.2-2.8 2.3-.5 2 1 1.9 2.6m-6.3 4.9c-.2-.5.4-1.8-.9-1.8-1.4 0-2.9.3-4.1.8-1.4.6-1.8 4.1-.7 4.7 1.9 1.2 5.6-1.1 5.7-3.7"/>
  <path d="m196 71c-.2 1.5-.4 3.3-.7 5.1-.2 1.2-.7 2-2.2 2.2-5.6.9-11.3 2.1-16.9 3-2.4.4-4.1-1.4-3.8-3.9.4-3 .9-6 1.4-9.1.7-4.2 3.6-6.2 7.4-7 4.6-1 9.2-1.7 13.8-2.5.9-.2 2.3-1.2 2.6.4.3 1.5.3 3.4-1.8 3.9-2.7.6-5.4 1.1-8.2 1.5-1.6.2-2.3 1-2.5 2.6-.3 2.2.5 3 2.7 2.6 2.1-.4 4.1-.8 6.2-1.1 2-.2 2-.2 2 2.3"/>
  <path d="m142 77c1-2.5 2.2-4.9 3-7.4.8-2.5 2.8-2.5 4.8-2.7 1.2-.1 1.2.6.8 1.5-2.4 5.9-4.7 11.7-7.1 17.6-.4.9-1.1 1.3-2 1.5-2.7.5-5.5.8-8.2 1.4-1.3.3-1.5-.4-1.7-1.3-.9-5.3-1.7-10.5-2.5-15.8-.1-1 .4-1.3 1.3-1.5 2.5-.4 5.2-.6 7.6-1.3 1.9-.6 2.2.5 2.4 1.7.4 2 .6 4.1.9 6.2.2 0 .4.1.7.1"/>
  <path d="m156 85c-1.5.1-1.9-.5-1.6-1.9.8-5.1 1.5-10.2 2.2-15.3.2-1.4.8-2.3 2.3-2.5 2.5-.4 5.1-.7 7.6-1.3 1.5-.3 1.8.2 1.6 1.4-.7 5.6-1.5 11-2.3 16.7-.1.8-.7 1.1-1.4 1.3-2.8.5-5.6 1.1-8.4 1.6"/>
  <path d="m160 59.7c-1-.1-2.3.3-2.1-1 .1-1.3 0-3.1 1.8-3.5 3-.6 6-1.1 8.9-1.7.7-.1 1.2.1 1 .9-.4 2-.3 4.2-3.4 4.2-2.1 0-4.2.8-6.2 1.1"/>
  <path d="m121 76.9c-.3 3-.5 6.1-1.1 9.1-.6 3-2.4 5.3-5.5 6-3.8.9-7.7 1.7-11.5 2.3-2.9.5-5.2-2.1-4.7-5 .4-2.3.8-4.7 1-7.1.3-4 2.4-6.6 6.3-7.5 3.6-.8 7.3-1.5 11-2.1 3-.5 4.8 1.3 4.5 4.3m-10.8 3.5c.1-1-.2-1.7-1.5-1.7-3-.1-4.1 1-4.4 4.3-.1 1-.1 1.4 1 1.4 3 0 4.7-1.3 4.9-4"/>
  <path d="m93 83c-.3 3.1-.7 7-1.2 10.9-.2 1.9-3.1 3.4-4.7 2.6-.7-.3-.5-1-.4-1.5.3-2.9.9-5.9 1-8.8.1-1.3 1.3-3.3-1.2-3.7-2.1-.3-4 .2-4.2 3-.3 3.5-.9 7-1.3 10.5-.1 1.3-.4 2.1-1.9 2.2-1.8.1-3.6.7-5.3 1-1.9.4-2.9-.1-2.7-2.3.6-5.1 1.2-10.2 1.7-15.4.2-1.6 1.4-1.5 2.3-1.7 4.4-.9 8.8-1.7 13.2-2.4 2.5-.6 5.3.4 4.7 5.6"/>
  <path d="m220 62.9c.6.1.9.2 1.2.2 4.5-.3 4.5-.3 3.9 4.2-.2 1.1-.4 2.3-.5 3.4-.1 1-.7 1.5-1.7 1.6-5.3.9-10.5 1.9-15.8 2.8-4.3.7-6.1-1.2-5.2-5.5.5-2.5.8-5.1 1.2-7.6.6-3.7 3.2-5.6 6.6-6.3 4.8-1 9.7-1.8 14.6-2.8 1.2-.2 2.4-.2 3 1 .6 1.1.1 2.2-.8 3.1-2.2 1.9-4.2 3.9-6.5 5.9m-5.6 1.3c2-1.9 3.8-3.6 5.8-5.5-5.3-.2-6.3.8-5.8 5.5"/>
  <path d="m335 54.9c.1 1-.5 1.9-2.2 2.1-2.3.3-4.5.8-6.7 1.2-1 .2-2.2 1-2.6-.6-.3-1.4-.2-3.2 1.4-3.7 2.9-.8 5.9-1.3 8.9-1.7 1.5-.1 1.1 1.2 1.2 2.7"/>
  <path d="m432 20.6c-.4 4-.8 8-1.3 12-.2 1.8-2.8 3.3-4.4 2.6-1.3-.5-.7-1.8-.6-2.8.3-3 .7-6.1 1-9.1.1-1 .4-2.4-1.3-2.2-1.5.1-3.5-.3-3.8 2-.5 3.4-.8 6.8-1.2 10.3-.1 1.2 0 2.7-1.4 3.2-1 .4-2.4.8-3.3.4-1.2-.5-.6-2.1-.5-3.2.3-2.8.8-5.5 1-8.3.1-.9.7-2.8-1.1-2.6-1.5.1-3.7-.5-4.1 2.1-.4 2.6-.9 5.3-1 8-.3 5.2-.2 5.2-5.3 6.2-5.7 1.2-5.8 1.1-5.2-4.5.4-3.9.8-7.8 1.2-11.7.2-1.5.7-2.3 2.5-2.5 7.9-1.4 15.8-3 23.7-4.4 3.6-.8 5 .6 5.1 4.5"/>
  <path d="m394 28.8c-.3 1.9-.5 5.1-1.2 8.3-.6 2.5-2.5 4.2-4.9 4.9-4.1 1.1-8.2 2-12.4 2.2-3.5.2-5-1.8-4.3-5.3.4-2.1.7-4.1.9-6.2.4-4.4 3-7.3 7.3-8.1 3.1-.6 6.2-1.1 9.3-1.7 3.9-.7 5.5.6 5.3 5.9m-15.4 5.5c3.4 0 4.5-1.1 4.8-4.3.1-1-.1-1.5-1.2-1.4-1.1.2-2.3.2-3.3.7-1.8.8-1.6 2.6-1.6 4.2 0 1.1.6 1 1.3.8"/>
  <path d="m343 45c.4-2.8.7-6.2 1.5-9.4.8-3.5 3.6-5.1 6.8-5.8 4.4-.9 8.8-1.7 13.2-2.3.8-.1 2.4-1.6 2.7.5.2 1.7.3 3.6-2.2 4-2.4.4-4.7.8-7.1 1.2-2.2.4-3.5 2.6-2.8 4.7.3 1 .9.7 1.5.5 2.6-.5 5.3-.8 7.9-1.4 1.5-.3 1.6.4 1.5 1.5 0 .3-.1.6-.2.8-1 2.3.7 5.7-2.3 7.1-2.3 1-5 1.1-7.5 1.6-2.8.5-5.7.9-8.5 1.4-3.1.7-4.5-.6-4.5-4.4"/>
 </g>
 <g style="fill:#bc9362">
  <path d="m275 51.6c.3-2.9 3.6-5.3 6.1-4.5.5.1.7.5.5.8-.6 1.3.3 3-1.1 4-1.4 1-3.1.9-4.7 1.2-1.1.3-.7-1-.8-1.5"/>
  <path d="m310 41.8c1-.1 1.9 0 1.8 1.4-.1 2.7-1.7 4.1-4.8 4.3-1.7.1-1.5-1-1.5-2 0-2.8.9-3.6 4.5-3.7"/>
  <path d="m251 54.7c-.1 2.6-3.7 4.8-5.7 3.7-1.1-.6-.7-4.2.7-4.7 1.3-.5 2.7-.8 4.1-.8 1.3 0 .7 1.3.9 1.8"/>
  <path d="m110 80c-.2 2.7-1.9 4-4.9 4-1.1 0-1.1-.5-1-1.4.3-3.3 1.4-4.4 4.4-4.3 1.3.1 1.6.7 1.5 1.7"/>
  <path d="m214 64c-.5-4.7.5-5.7 5.8-5.5-2 1.9-3.8 3.6-5.8 5.5"/>
  <path d="m379 34c-.7.2-1.3.2-1.3-.8 0-1.6-.2-3.4 1.6-4.2 1-.5 2.2-.5 3.3-.7 1-.1 1.3.4 1.2 1.4-.2 3.2-1.4 4.3-4.8 4.3"/>
 </g>
</svg>
