<?xml version="1.0" encoding="utf-8"?>
<!-- Generator: Adobe Illustrator 17.0.0, SVG Export Plug-In . SVG Version: 6.00 Build 0)  -->
<!DOCTYPE svg PUBLIC "-//W3C//DTD SVG 1.1//EN" "http://www.w3.org/Graphics/SVG/1.1/DTD/svg11.dtd">
<svg version="1.1" id="Layer_1" xmlns="http://www.w3.org/2000/svg" xmlns:xlink="http://www.w3.org/1999/xlink" x="0px" y="0px"
	 width="508px" height="120.9px" viewBox="0 0 508 120.9" style="enable-background:new 0 0 508 120.9;" xml:space="preserve">
<g>
	<g id="pad-03.svg">
		<g>
			<path style="fill-rule:evenodd;clip-rule:evenodd;fill:#594326;" d="M313.6,75.5c0,0-35.3,18.2-46,23.8c-1.6,0.9-3.3,1.3-5.1,1.2
				c-18.2-0.8-36.4-1.5-54.6-2.3c-5.8-0.3-11.1,1.7-16.6,3c-25.2,5.7-50.4,11.6-75.7,17.4c-0.4,0.1-0.9,0.1-2,0.2
				c3.7-6.8,7.2-13.1,11.1-20.2c-31.1,4.1-61.5,8.2-92,12.2c0-0.2-0.1-0.3-0.1-0.5c15.8-6.8,31.5-13.5,47.3-20.3
				c0-0.2,0-0.4-0.1-0.6c-22-0.3-43.9-0.6-65.9-1c2.5-1.6,5.3-1.9,8.1-2.5c29.6-6.4,59.2-12.6,88.8-19c3.3-0.7,3.3-0.7,2.5-4.1
				c-0.7-3.1-1.4-6.3-2.3-9.4c-0.5-1.8-0.3-2.4,1.8-2.7c20.9-3,41.8-6.4,62.8-8.9c14.1-1.7,27.2-5.9,40.2-11.2
				c10.4-4.2,21-7.9,31.3-12.1c4.5-1.8,8.9-0.5,13.3-0.3c14.9,0.9,29.8,2.4,44.8,3.2c4.1,0.2,8.2-1.5,12.3-2.5
				c24.1-5.7,48.3-11.3,72.4-17.1c2.2-0.5,3-0.1,3.5,2c0.9,3.5,2.2,6.8,3.2,10.3c0.4,1.2,1,1.7,2.3,1.5c17.6-2.1,35.2-4.1,52.9-6.1
				c8.7-1,17.4-1.9,26.3-2.4C463.6,13.6,448.9,20,434,26.4c1.1,1,2.3,0.4,3.2,0.1c6.7-1.8,13.5-1.4,20.3-0.9c13,1,25.9,1.8,38.9,2.7
				c0.5,0,1.1-0.2,1.7,0.8c-4.1,1-8.1,1.9-12.2,2.9c-25.5,5.8-51,11.6-76.5,17.3c-2.1,0.5-2.6,1.1-1.7,3.2c1.7,3.8,3.1,7.6,4.7,11.4
				c0.6,1.4,0.6,2-1.2,2.1c-14.7,1.3-29.4,2.8-44.2,4.2c-16,1.5-31.9,3.1-47.9,4.7c-1.8,0.2-3.5-5.2-6-4.4l0.6,6.6
				c17-2,40.8-4.2,57.7-5.9c13.7-1.3,27.5-2.6,41.2-3.9c1.9-0.2,2.7-0.4,1.7-2.7c-2.1-4.4-3.7-9.1-5.6-13.8
				C442,43.5,475,35.9,508,28.4c0-0.2-0.1-0.4-0.1-0.6c-20.9-1.4-41.8-2.9-63.3-4.4C459.1,17.1,473.1,11.1,487,5
				c-4.9-0.6-9.5,0.3-14.2,0.9c-24.2,2.7-48.4,5.5-72.7,8.3c-1.3,0.1-1.9,0-2.3-1.4c-1.1-3.7-2.4-7.3-3.5-11
				c-0.5-1.6-0.9-2.1-2.8-1.7c-24.4,5.8-48.7,11.6-73.2,17.2c-4.6,1.1-9.1,3.1-13.9,2.8c-15.6-1-31.1-2.3-46.7-3.5
				c-4-0.3-7.8-0.7-11.8,0.9c-12.8,5.2-25.6,10-38.5,14.8c-5,1.9-9.8,4.6-15.1,5.4c-16.5,2.6-33,4.8-49.5,7.2
				c-10.5,1.5-21.1,3.2-31.6,4.6c-2.3,0.3-2.3,1.2-1.8,2.9c0.9,3.3,1.5,6.6,2.5,9.9c0.7,2.3,0,3.1-2.3,3.6
				C77.3,72.8,45,79.7,12.7,86.5C8.4,87.4,4.2,88.4,0,89.3c0,0.1,0,0.3,0.1,0.4c24.5,0.4,48.9,0.8,73.4,1.1c0,0.2,0,0.3,0.1,0.5
				C56.7,98.5,39.8,105.8,23,113c0,0.2,0.1,0.4,0.1,0.6c33-4.4,65.9-8.8,99.2-13.2c-3.8,6.9-7.5,13.6-11.3,20.5c0.8,0,1.1,0,1.5-0.1
				c28.3-6.5,56.7-13.1,85-19.6c3.3-0.8,6.5-1.9,10-1.7c18.5,0.9,37.1,1.7,55.6,2.5c1.6,0.1,2.9-0.3,4.3-1
				c11-5.7,35.3-18.1,46.4-23.8L313.6,75.5z"/>
			<path style="fill-rule:evenodd;clip-rule:evenodd;fill:#FCC725;" d="M319.2,75c16-1.6,31.9-3.1,47.9-4.7
				c14.7-1.4,29.4-2.9,44.2-4.2c1.8-0.2,1.8-0.8,1.2-2.1c-1.6-3.8-3-7.7-4.7-11.4c-0.9-2-0.4-2.7,1.7-3.2
				c25.5-5.7,51-11.5,76.5-17.3c4-0.9,8-1.9,12.2-2.9c-0.6-0.9-1.2-0.7-1.7-0.8c-13-0.9-25.9-1.8-38.9-2.7
				c-6.8-0.5-13.6-0.9-20.3,0.9c-0.9,0.2-2.1,0.8-3.2-0.1c14.8-6.4,29.6-12.8,44.3-19.2c-8.9,0.5-17.6,1.4-26.3,2.4
				c-17.6,2-35.2,4-52.9,6.1c-1.4,0.2-1.9-0.3-2.3-1.5c-1-3.4-2.3-6.8-3.2-10.3c-0.6-2.1-1.4-2.6-3.5-2
				c-24.1,5.8-48.3,11.4-72.4,17.1c-4.1,1-8.3,2.7-12.3,2.5c-14.9-0.7-29.8-2.2-44.8-3.2c-4.4-0.3-8.8-1.6-13.3,0.3
				c-10.4,4.2-21,7.9-31.3,12.1c-13,5.3-26.1,9.5-40.2,11.2c-21,2.5-41.8,6-62.8,8.9c-2,0.3-2.3,0.9-1.8,2.7
				c0.9,3.1,1.5,6.3,2.3,9.4c0.8,3.4,0.8,3.4-2.5,4.1c-29.6,6.3-59.2,12.6-88.8,19c-2.7,0.6-5.6,0.8-8.1,2.5c22,0.3,43.9,0.6,65.9,1
				c0,0.2,0,0.4,0.1,0.6c-15.8,6.8-31.5,13.5-47.3,20.3c0,0.2,0.1,0.3,0.1,0.5c30.4-4,60.9-8.1,92-12.2c-3.9,7.1-7.4,13.4-11.1,20.2
				c1.1-0.1,1.6-0.1,2-0.2c25.2-5.8,50.4-11.7,75.7-17.4c5.5-1.2,10.8-3.2,16.6-3c18.2,0.8,36.4,1.5,54.6,2.3
				c1.9,0.1,3.5-0.3,5.1-1.2c10.7-5.6,21.5-11,32.2-16.7C317.4,73.3,317.4,75.2,319.2,75z"/>
		</g>
	</g>
	<g id="noviceapp-com.svg_2_">
		<path style="fill:#BC9362;" d="M63.3,98.7c0.7-6.1,1.4-12.8,2.3-19.4c0.4-3.3,2.4-5.5,5.6-6.2c6-1.2,12.1-2.2,18.1-3.3
			c0.3-0.1,0.6-0.1,0.9,0c4,1.8,7-0.2,10.7-1.6c6.3-2.4,13-4.1,20-2.8c0.6,0.1,1.2,0.4,1.7,0c4.7-4.2,10.8-3.5,16.3-4.6
			c3.1-0.6,6.1-1.6,9.3-1.8c1.2-0.1,1.7-0.8,1.8-2.1c1-7,2-8,9-9.4c3-0.6,6-1.2,9.1-1.6c4-0.6,6.6,0.5,8.3,4c1.3,2.8,3.3,3.3,6,2.9
			c4.2-0.8,8.5-1.5,12.7-2.4c1.7-0.3,3.2-0.5,4.8,0.1c0.8,0.3,1.6,0.2,2.5-0.2c7.1-3.6,14.9-4.4,22.6-4.8c3.9-0.2,7.2-0.8,10.9-2.1
			c7.3-2.5,15.1-3.3,22.8-4.4c4.2-0.6,8.2-1.7,12.3-2.5c3.6-0.7,7.3-2.2,10.7-1.8c5.5,0.6,10-1.9,15-2.9c5.2-1,10.4-1.9,15.6-2.7
			c5-0.8,9.1,0.8,11.8,5.2c0.5,0.7,0.9,1.4,1.7,1.9c2.2,1.5,3.3,3.7,4,6.1c0.3,1.2,0.2,2.7,2.1,2.3c1.6-0.3,3.3-0.3,3.3-2.7
			c0-1.5,0.4-3,0.6-4.6c1.3-9.1,5.9-13.8,15.1-15.6c4.3-0.8,8.7-1.6,13-2.4c1.9-0.3,3.8-0.8,5.7-0.1c0.7,0.3,1.3,0.3,1.9-0.1
			c5.5-3.2,11.8-3.1,17.8-4.4c0.9-0.2,2-0.2,2.9,0.1c1.6,0.5,2.9,0.3,4.3-0.8c2.3-1.7,5.3-1.6,8-2.2c7.2-1.4,14.5-2.6,21.8-3.9
			c4.7-0.8,9.1,1.3,11.5,5.4c0.4,0.6,0.6,1.3,1.4,1.8c3.9,2.4,5.1,6.2,4.8,10.4c-0.3,4.7-1,9.4-1.6,14c-0.5,4.2-2.7,6.8-6.8,7.5
			c-10.5,2-21.1,4.6-31.7,5.5c-7.3,0.6-13.9,4.1-21.1,4.1c-5.1,0-9.7,1.5-14.5,2.6c-6.5,1.4-13.1,3.3-19.9,3
			c-1.2-0.1-1.3,0.9-1.6,1.7c-1.1,3.2-3.4,4.9-6.8,5.5c-3.5,0.6-7,1.3-10.5,1.9c-2.9,0.5-5.4-0.3-7.3-2.4c-0.9-1-1.6-1.8-3.1-1
			c-1.6,0.9-4.2,0.5-4.2,3.5c-0.1,2-0.5,4-0.8,6c-1.3,7.1-6.3,12.4-13.4,13.7c-21.9,4-43.9,8-65.8,12c-3.3,0.6-6.3-0.9-8.1-3.8
			c-0.3-0.5-0.4-1.2-0.8-1.5c-4-2.3-5.4-5.7-4.5-10.2c0.3-1.4-1-1.1-1.8-1c-2.2,0.3-4.3,1-6.5,1.1c-4.8,0.1-9.3,0.8-13.9,2.4
			c-5.4,1.8-11.2,2.7-17,3.2c-4.2,0.3-8.1,0.9-12,2.2c-3.5,1.2-7.4,2.1-11,1.9c-3.7-0.2-6.8,0.3-10.2,1.8c-3.7,1.6-8,1.8-12.1,2.4
			c-2.3,0.4-4.4-0.4-6.1-2c-0.5-0.5-1.1-1.3-1.9-0.4c-4,5.1-10,5.7-15.8,6.7c-3.3,0.6-6.6,1.5-10,0.5c-0.3-0.1-0.9-0.1-1.1,0
			c-5.4,4.1-12.2,2.7-18.1,4.8c-1.8,0.6-3.8,0.8-5.7,1.1c-1.4,0.2-2.9,0.4-4.3,0.1C69.7,111.8,63.2,103.6,63.3,98.7z M437.8,22.2
			c0.3-9.7-4.9-13.9-13-12.4c-6.2,1.1-12.5,2.2-18.7,3.4c-3,0.6-6.3,0.4-8.8,2.3c-1.5,1.1-2.7,1.8-4.6,1.1c-1-0.4-2.3-0.3-3.4-0.1
			c-3.9,0.6-7.9,0.9-11.6,2c-4.2,1.3-8.2,2.3-12.6,2.4c-4.5,0.1-9.1,1.5-13.6,2.4c-9.3,1.9-12.7,5.4-14.3,14.7
			c-0.4,2.4,0.2,5.7-1.5,7.1c-1.7,1.4-4.7,1.1-7.2,1.6c-6,1.3-5.3,0.6-4.5-4.2c1.3-8.5-4.2-13.5-12.9-11.9
			c-3.6,0.7-7.2,1.3-10.7,2.1c-3.7,0.8-7.8,0.4-10.6,3.7c-0.4,0.5-1.1,0.3-1.6,0.1c-3-1.2-6.1-0.7-9.1,0c-6.2,1.5-12.6,2.2-18.8,3.9
			c-3.5,1-7.7,0.9-11.5,1.6c-5.9,1.2-12.4,1-17.3,5.4c-0.5,0.4-1,0.5-1.6,0.2c-3.3-1.8-6.8-1.1-10.1-0.3c-5.9,1.4-12.3,1-17.6,4.9
			c-0.5,0.4-1.1,0.3-1.7,0c-1.9-1.1-3.9-0.7-5.9-0.3c-5.5,1-11,1.9-16.4,3.1c-1.9,0.4-2.3,0.1-2.3-1.8c-0.1-4.1-2.7-6.4-6.8-6.1
			c-3,0.2-5.9,0.8-8.8,1.4c-7.4,1.5-7.9,1.9-8.9,9.3c-0.2,1.7-1.1,2.3-2.5,2.5c-4.7,0.8-9.4,1.5-14.1,2.5c-4,0.9-8.6,0.3-11.7,4.1
			c-0.4,0.5-1,0.4-1.6,0.1c-2.9-1.3-5.8-0.9-8.8-0.2c-4.5,1.1-9.4,0.7-13.2,3.6c-2.3,1.7-4.3,2.7-7.1,1.2c-1.5-0.8-3.4-0.4-5.1-0.1
			c-5,0.9-10,1.8-15,2.8c-3.2,0.7-4.9,2.6-5.3,6c-0.7,6.3-1.5,12.6-2.1,18.9c-0.5,4.7,3.2,7.9,8.1,7.2c5.6-0.9,11-2.4,16.6-3.2
			c4.9-0.6,9.3-3.5,14.7-2.8c3.5,0.4,7.3-1.2,11-1.9c2.7-0.5,5.2-1.7,6.9-3.9c2-2.6,3.6-3.9,5.8-0.3c0.2,0.3,0.6,0.4,1,0.6
			c2.6,1.3,16.6-1.3,18.4-3.6c1.1-1.5,1.9-2.1,3.6-0.8c1.2,0.9,2.8,1,4.4,0.7c3.7-0.7,7.6-0.8,11-2.3c3.6-1.6,7.1-1.6,10.8-1.9
			c5.5-0.4,10.9-2,16.5-2.8c2.8-0.4,4.8-2.8,7.2-3.1c2.5-0.3,5.3,0.7,7.9,0.2c4.4-0.7,8.9-1.5,13.3-2.5c2-0.4,2.4,0.2,2.1,2
			c-0.5,3.1-1.1,6.3-1.2,9.4c-0.2,4.2,3.1,7,7.3,6.3c9.9-1.7,19.8-3.5,29.8-5.3c12.3-2.2,24.6-4.4,36.8-6.9
			c5.8-1.2,9.8-4.8,11.3-10.7c0.6-2.5,0.9-5.1,1.2-7.7c0.2-1.8,0.3-3.3,2.7-3.7c1.7-0.3,3.3-1.4,5.1-1.9c0.6-0.2,0.6,0.8,0.9,1.3
			c1.7,2.6,3.9,3.8,7.1,3.2c3.6-0.7,7.2-1.3,10.8-1.9c1.8-0.3,3.9-1,4.2-2.6c1-4.9,4.2-4.4,8-4.6c5.3-0.3,10.6-1.5,15.9-2.8
			c4.3-1,8.2-3.1,13.1-2.6c3.6,0.4,7.6-0.5,11-1.9c4.9-2.1,10-1.9,15.1-2.6c3.7-0.5,7.3-1.8,11-2.2c5.9-0.7,11.7-2.2,17.5-3
			c2.9-0.4,4.6-2.3,5-5.2C436.9,30.5,437.4,25.5,437.8,22.2z"/>
		<path style="fill:#FEFEFE;" d="M437.8,22.2c-0.4,3.3-1,8.3-1.6,13.2c-0.4,2.9-2.1,4.8-5,5.2c-5.9,0.8-11.6,2.3-17.5,3
			c-3.7,0.4-7.2,1.7-11,2.2c-5,0.7-10.1,0.5-15.1,2.6c-3.4,1.4-7.4,2.3-11,1.9c-4.9-0.6-8.8,1.5-13.1,2.6
			c-5.2,1.3-10.5,2.5-15.9,2.8c-3.8,0.2-7-0.2-8,4.6c-0.3,1.6-2.5,2.3-4.2,2.6c-3.6,0.6-7.2,1.2-10.8,1.9c-3.2,0.6-5.4-0.6-7.1-3.2
			c-0.3-0.5-0.3-1.5-0.9-1.3c-1.7,0.5-3.3,1.6-5.1,1.9c-2.4,0.4-2.5,1.9-2.7,3.7c-0.3,2.6-0.6,5.2-1.2,7.7
			c-1.5,5.9-5.5,9.5-11.3,10.7c-12.2,2.5-24.5,4.6-36.8,6.9c-9.9,1.8-19.8,3.6-29.8,5.3c-4.2,0.7-7.5-2.1-7.3-6.3
			c0.2-3.2,0.7-6.3,1.2-9.4c0.3-1.8-0.1-2.5-2.1-2c-4.4,1-8.9,1.7-13.3,2.5c-2.7,0.5-5.5-0.5-7.9-0.2c-2.4,0.3-4.4,2.7-7.2,3.1
			c-5.5,0.8-10.9,2.3-16.5,2.8c-3.7,0.3-7.2,0.3-10.8,1.9c-3.3,1.5-7.3,1.5-11,2.3c-1.6,0.3-3.2,0.2-4.4-0.7
			c-1.7-1.3-2.5-0.7-3.6,0.8c-1.8,2.3-15.8,4.9-18.4,3.6c-0.3-0.2-0.8-0.3-1-0.6c-2.1-3.6-3.8-2.3-5.8,0.3c-1.7,2.1-4.2,3.4-6.9,3.9
			c-3.7,0.7-7.5,2.3-11,1.9c-5.4-0.7-9.8,2.2-14.7,2.8c-5.6,0.7-11.1,2.3-16.6,3.2c-4.9,0.8-8.6-2.4-8.1-7.2
			c0.7-6.3,1.4-12.6,2.1-18.9c0.4-3.3,2.1-5.3,5.3-6c5-1,10-1.9,15-2.8c1.7-0.3,3.6-0.7,5.1,0.1c2.9,1.5,4.8,0.5,7.1-1.2
			c3.9-2.8,8.8-2.5,13.2-3.6c2.9-0.7,5.9-1.1,8.8,0.2c0.6,0.2,1.2,0.4,1.6-0.1c3-3.8,7.7-3.2,11.7-4.1c4.6-1.1,9.4-1.7,14.1-2.5
			c1.4-0.2,2.2-0.8,2.5-2.5c1.1-7.5,1.5-7.8,8.9-9.3c2.9-0.6,5.9-1.2,8.8-1.4c4.1-0.3,6.6,2,6.8,6.1c0.1,1.9,0.5,2.2,2.3,1.8
			c5.4-1.2,10.9-2.1,16.4-3.1c2-0.4,4-0.8,5.9,0.3c0.5,0.3,1.1,0.4,1.7,0c5.3-3.8,11.7-3.4,17.6-4.9c3.3-0.8,6.8-1.5,10.1,0.3
			c0.6,0.3,1.1,0.2,1.6-0.2c5-4.4,11.4-4.2,17.3-5.4c3.8-0.8,8-0.7,11.5-1.6c6.2-1.7,12.6-2.4,18.8-3.9c3-0.7,6.1-1.2,9.1,0
			c0.5,0.2,1.2,0.5,1.6-0.1c2.8-3.4,6.9-3,10.6-3.7c3.6-0.8,7.2-1.4,10.7-2.1c8.7-1.6,14.2,3.4,12.9,11.9c-0.8,4.8-1.5,5.5,4.5,4.2
			c2.4-0.5,5.5-0.2,7.2-1.6c1.7-1.4,1.1-4.6,1.5-7.1c1.6-9.3,5-12.9,14.3-14.7c4.5-0.9,9-2.3,13.6-2.4c4.4-0.1,8.4-1,12.6-2.4
			c3.7-1.2,7.7-1.5,11.6-2c1.1-0.2,2.4-0.3,3.4,0.1c1.9,0.7,3.1,0.1,4.6-1.1c2.5-1.9,5.8-1.7,8.8-2.3c6.2-1.3,12.5-2.3,18.7-3.4
			C433,8.3,438.1,12.5,437.8,22.2z M67.9,103L67.9,103c0.4,2.7,2.5,2.3,4.2,2c5.3-0.9,10.5-1.9,15.8-2.9c3.1-0.6,6.7-0.3,8.6-3.8
			c0.1-0.1,0.6-0.2,0.7-0.1c4.8,2.7,9.4,0.2,14-0.3c7.8-0.8,12.9-4.6,14-13.4c0.4,2.1,0.6,3.6,0.9,5.1c0.7,3.2,3,4.9,6.3,4.4
			c2.3-0.4,4.5-1,6.8-1.2c4.2-0.5,8-1.3,9.1-7c1.8,4.1,4.6,4.5,7.8,3.9c2.3-0.4,4.5-0.9,6.8-1.2c3-0.3,5.3-2.8,7.7-3.2
			c2.7-0.4,5.8,0.6,8.8,0.1c3.3-0.6,6.6-1.1,9.9-1.8c3.1-0.7,6.6-0.3,9.1-2.9c3-3.1,6.2,1.4,9.3-0.3c0.2-0.1,0.5-0.2,0.8-0.2
			c5-0.9,10-1.7,15-2.7c1.8-0.4,2.1,0.2,1.8,1.7c-0.5,3-0.9,6.1-1.4,9.1c-0.9,5.4,1.8,8.2,7.1,7.2c8.1-1.5,16.2-3,24.4-4.5
			c13.5-2.5,27-4.9,40.5-7.5c6.4-1.2,10.1-5.6,11.1-12c0.4-2.6,0.8-5.1,1.1-7.7c0.1-1.1,0.5-1.9,1.6-2c3.2-0.3,5.8-1.9,8.2-3.9
			c0.7,5.3,2.8,6.8,7.8,5.8c2.8-0.5,5.7-1.1,8.5-1.5c3.7-0.6,5-1.7,5.7-5.4c0.4-2.1,0.5-3.6,3.4-2.2c1.9,0.9,4.2,0.4,6.3,0
			c4.9-0.9,9.8-1.9,14.7-2.7c1.9-0.3,3.5-0.9,4.6-2.6c0.4-0.6,0.7-1,1.6-0.7c8.1,2.1,15.7,0,22.9-3.6c0.7-0.4,1.3-0.7,2.1-0.2
			c1.7,1.1,3.5,0.8,5.3,0.4c4.1-0.8,8.2-1.9,12.3-2.5c6-0.9,12-2.3,18-3.1c2-0.3,3.5-1.8,3.8-3.9c0.7-5.2,1.5-10.5,1.7-15.7
			c0.3-6.3-4.5-10.3-10.7-9.1c-7.5,1.3-14.9,2.6-22.4,4.1c-2.3,0.4-5.1,0.3-6.6,2.3c-1.2,1.5-2.1,1.5-3.6,0.8
			c-0.7-0.3-1.5-0.4-2.2-0.4c-5.5,0.3-10.9,1.2-16.1,2.9c-2.5,0.9-4.7,2.7-7.6,1.2c-0.4-0.2-1.1,0-1.7,0.1
			c-5.2,0.9-10.4,1.9-15.6,2.8c-6.4,1.2-10.9,5.6-11.8,11.5c-0.4,3-0.9,6.1-1.2,9.1c-0.1,1.1-0.4,1.6-1.7,1.7
			c-2.5,0.2-4.9,0.6-7.4,1.1c-6.8,1.3-6.8,1.3-5.5-5.4c1.4-7.5-3.6-12.4-11.1-11c-5,0.9-10,1.8-15,2.7c-2.5,0.5-5,0.8-6.3,3.4
			c-0.3,0.6-0.9,0.6-1.5,0.3c-3.9-1.9-8-0.9-11.9,0c-5.5,1.2-11.1,2.1-16.5,3.5c-4.2,1.1-8.9,1.1-13.3,2c-5.5,1.1-11.4,0.9-15.7,5.5
			c-0.8,0.8-1.6,0.1-2.3-0.2c-1.9-0.9-3.9-1.3-6.1-0.8c-2.7,0.6-5.5,0.9-8.2,1.4c-4.4,0.9-9.1,0.9-12.7,4.2
			c-0.6,0.6-1.2,0.3-1.8-0.1c-1.8-1.1-3.7-0.9-5.6-0.5c-6.8,1.4-13.7,2-20.5,4.4c0.1-0.9,0-1.5,0.1-2c0.9-5.4-1.9-8.1-7.2-7
			c-1.6,0.3-3.2,0.6-4.8,0.9c-8.9,1.3-8.9,1.4-10.2,10.1c-0.1,0.7,0.2,1.7-0.9,1.8c-3.4,0.3-6.6,1.6-9.8,1.9
			c-4.5,0.5-8.9,1.6-13.3,2.1c-2.5,0.3-3.5,3.2-5.2,3.4c-2,0.3-4.2-1.6-6.6-1.2c-3.6,0.6-7.2,1.4-10.8,2c-3.3,0.5-6,1.9-8.3,4.3
			c-0.9,0.9-1.4,1-2.4,0.3c-2.4-1.7-4.9-1.8-7.7-1.2c-3.4,0.7-6.8,1.2-10.2,1.9c-6.5,1.3-8.6-0.2-9.4,9.5C67,89.2,66.3,94.4,66,99.5
			C65.9,100.9,65.3,102.9,67.9,103z"/>
		<path style="fill:#BC9362;" d="M67.9,103c-2.5-0.1-2-2.1-1.9-3.5c0.4-5.2,1-10.3,1.5-15.5c0.8-9.7,2.9-8.2,9.4-9.5
			c3.4-0.7,6.8-1.2,10.2-1.9c2.8-0.6,5.4-0.5,7.7,1.2c1,0.7,1.5,0.6,2.4-0.3c2.2-2.4,5-3.8,8.3-4.3c3.6-0.5,7.2-1.3,10.8-2
			c2.4-0.4,4.6,1.5,6.6,1.2c1.7-0.2,2.7-3.1,5.2-3.4c4.5-0.5,8.8-1.6,13.3-2.1c3.3-0.4,6.5-1.6,9.8-1.9c1.2-0.1,0.8-1.1,0.9-1.8
			c1.3-8.8,1.4-8.8,10.2-10.1c1.6-0.2,3.2-0.6,4.8-0.9c5.4-1.1,8.1,1.6,7.2,7c-0.1,0.6-0.1,1.1-0.1,2C181,55,188,54.4,194.8,53
			c1.9-0.4,3.8-0.7,5.6,0.5c0.6,0.4,1.2,0.6,1.8,0.1c3.6-3.3,8.3-3.3,12.7-4.2c2.7-0.6,5.5-0.8,8.2-1.4c2.2-0.5,4.2-0.1,6.1,0.8
			c0.8,0.4,1.6,1.1,2.3,0.2c4.3-4.6,10.2-4.4,15.7-5.5c4.4-0.8,9.1-0.9,13.3-2c5.5-1.4,11-2.3,16.5-3.5c3.9-0.9,7.9-1.9,11.9,0
			c0.6,0.3,1.2,0.3,1.5-0.3c1.3-2.6,3.9-2.9,6.3-3.4c5-0.9,10-1.8,15-2.7c7.5-1.4,12.5,3.5,11.1,11c-1.2,6.7-1.2,6.7,5.5,5.4
			c2.4-0.5,4.9-0.9,7.4-1.1c1.3-0.1,1.5-0.6,1.7-1.7c0.3-3.1,0.8-6.1,1.2-9.1c0.8-5.9,5.4-10.3,11.8-11.5c5.2-0.9,10.4-1.9,15.6-2.8
			c0.6-0.1,1.3-0.4,1.7-0.1c2.9,1.6,5-0.3,7.6-1.2c5.2-1.8,10.6-2.6,16.1-2.9c0.7,0,1.6,0.1,2.2,0.4c1.5,0.7,2.4,0.7,3.6-0.8
			c1.6-2.1,4.3-1.9,6.6-2.3c7.4-1.4,14.9-2.7,22.4-4.1c6.2-1.1,11,2.8,10.7,9.1c-0.3,5.3-1,10.5-1.7,15.7c-0.3,2.1-1.8,3.6-3.8,3.9
			c-6,0.8-12,2.3-18,3.1c-4.1,0.6-8.2,1.7-12.3,2.5c-1.8,0.4-3.6,0.7-5.3-0.4c-0.8-0.5-1.3-0.2-2.1,0.2c-7.3,3.6-14.8,5.7-22.9,3.6
			c-0.9-0.2-1.2,0.1-1.6,0.7c-1.1,1.7-2.8,2.2-4.6,2.6c-4.9,0.9-9.8,1.9-14.7,2.7c-2.1,0.4-4.4,0.9-6.3,0c-2.9-1.4-3,0.2-3.4,2.2
			c-0.7,3.7-2,4.8-5.7,5.4c-2.8,0.5-5.7,1-8.5,1.5c-5,1-7.2-0.6-7.8-5.8c-2.5,2-5.1,3.6-8.2,3.9c-1.1,0.1-1.5,0.9-1.6,2
			c-0.3,2.6-0.8,5.1-1.1,7.7c-0.9,6.5-4.7,10.8-11.1,12c-13.5,2.6-27,5-40.5,7.5c-8.1,1.5-16.2,3-24.4,4.5c-5.3,1-8.1-1.8-7.1-7.2
			c0.5-3,0.9-6.1,1.4-9.1c0.2-1.5-0.1-2-1.8-1.7c-5,1-10,1.8-15,2.7c-0.3,0.1-0.6,0.1-0.8,0.2c-3,1.8-6.3-2.8-9.3,0.3
			c-2.5,2.6-6,2.2-9.1,2.9c-3.3,0.8-6.6,1.2-9.9,1.8c-3,0.5-6.1-0.5-8.8-0.1c-2.4,0.4-4.7,2.8-7.7,3.2c-2.3,0.3-4.5,0.8-6.8,1.2
			c-3.2,0.6-6,0.2-7.8-3.9c-1.1,5.6-4.9,6.5-9.1,7c-2.3,0.3-4.5,0.8-6.8,1.2c-3.3,0.5-5.6-1.1-6.3-4.4c-0.3-1.5-0.5-3-0.9-5.1
			c-1.1,8.7-6.2,12.6-14,13.4c-4.7,0.5-9.3,3-14,0.3c-0.2-0.1-0.7,0-0.7,0.1c-1.9,3.5-5.5,3.2-8.6,3.8c-5.3,1-10.5,2-15.8,2.9
			C70.4,105.4,68.2,105.8,67.9,103c1.4-0.1,2.5,1.2,4.1,0.7c1.9-0.6,4-0.7,5.9-1.1c3.7-0.7,7.3-1.9,11.1-2.1
			c3.1-0.2,6.4-0.6,6.8-4.7c7.4,4.5,14.4,1.3,20.9-0.9c8.7-2.9,6.4-12,8.6-19.5c0.8,4.9,1.5,9,2.1,13c0.5,3.5,1.6,4.5,5.2,4.1
			c3-0.4,6-1.2,9.1-1.5c2.7-0.3,4-1.7,5-4.1c1.1-2.7,1.8-5.5,3.7-8.2c0.5,1.9,0,3.3-0.2,4.7c-0.5,3.7,1.1,5.6,4.8,5.1
			c3.6-0.5,7.2-1.2,10.8-1.9c1.5-0.3,2.7-1.1,3.1-2.7c0.3-1.1,0.7-1.5,1.8-0.7c2.5,1.8,5.3,1.6,8.1,1.1c4.7-0.8,9.4-1.9,14.2-2.6
			c3.2-0.4,5.5-1.5,5.8-5.3c2.3,1.8,4.6,3.2,7.3,2.8c7.1-1.2,14.2-2.2,21.5-4.2c-0.7,4.8-1.4,9.5-2.1,14.2c-0.5,3.3,1.4,5.5,4.8,5
			c2-0.3,4-0.7,5.9-1.1c20-3.7,40-7.3,60-11c4.8-0.9,8.8-5.2,9.6-10c0.5-2.8,1-5.7,1.2-8.5c0.2-2.1,1-3.1,3.1-3.3
			c3.8-0.4,6.6-2.5,8.7-5.5c0.4-0.6,0.5-1.5,1.5-1.5c0.4,1.7-0.5,3.2-0.5,4.9c-0.1,3.2,1.6,4.9,4.8,4.5c1.7-0.2,3.4-0.7,5.1-1
			c9.6-1.8,9.8-2,9.7-11.6c2.3,3.4,5.7,3.9,9.4,3.3c4.5-0.8,9-1.7,13.6-2.5c3.1-0.5,6.2-0.8,6.5-5c4.2,2.4,5.9,2.8,9.2,2.2
			c2.9-0.5,5.9-1.1,8.8-1.6c1.8-0.4,3.6-0.6,5.1-1.9c1.7-1.5,3.3-2.7,5.5-0.6c0.7,0.7,2,0.1,3.1,0c5.3-0.4,10.2-2.4,15.5-3
			c4.8-0.5,9.6-1.9,14.5-2.6c2.2-0.3,3.3-1.6,3.6-3.8c0.5-4.5,1.1-9,1.6-13.4c0.7-6.2-3.4-9.9-9.5-8.8c-7.8,1.5-15.6,3-23.5,4.3
			c-2.9,0.5-5.3,1.2-5.7,4.9c-1.7-1.3-3.2-2.6-5.1-2.4c-5.8,0.4-11.7,1-17.1,3.4c-2.2,1-3.9,3.1-6.4,0.8c-0.3-0.3-1.1-0.2-1.7-0.1
			c-5.8,1.1-11.5,2-17.2,3.3c-5,1.2-8.4,4.3-9.1,9.6c-0.6,4.3-1.6,8.5-1.5,12.9c-6.5-1.2-12.5,0.7-18.6,2.9c0.4-3,0.8-6.4,1.3-9.7
			c1-6.3-2.9-10.2-9.3-9c-4.6,0.9-9.2,1.8-13.9,2.5c-3.6,0.6-7.3,0.7-7.1,6c-4.6-3.4-5.7-3.7-11.1-2.6c-1.5,0.3-3.1,0.3-4.5,0.8
			c-4.7,1.6-10.3,0.2-14.3,4.2c-0.4,0.4-0.9,0.1-1.3-0.2c-1.4-1-3-0.7-4.5-0.4c-4.1,0.7-8.1,1.4-12.2,2.2c-3.3,0.7-6.8,0.7-9.4,3.3
			c-1.8,1.9-3.3,3.5-5.9,0.9c-0.9-0.9-2.7-0.9-4.2-0.6c-5,0.9-10,1.8-15,2.7c-1.5,0.3-3,0.8-4.3,1.7c-1.9,1.4-3.6,3.2-6,0.7
			c-0.3-0.3-1.1-0.3-1.7-0.2c-7.9,2.1-16.6,1.2-23.7,6.2c-0.3,0.2-0.7,0.1-1.3,0.1c0.8-2,0.9-3.9,1.2-5.7c0.6-3.7-1.5-5.6-5.2-4.9
			c-2.8,0.5-5.7,1-8.5,1.5c-4.2,0.7-4.9,1.4-5.4,5.7c-0.2,1.6-0.8,3.2-0.2,4.8c0.2,0.7-0.2,1.1-0.9,1.1c-3.9-0.3-7.5,1.4-11.1,1.9
			c-3.5,0.5-7.1,1-10.7,1.4c-1.7,0.2-3.5,0.4-5,1.3c-1.7,1.1-1.4,3.1-1.7,5.3c-2.3-2.7-4.6-4.3-7.7-4c-2.3,0.2-4.6,0.7-6.8,1.1
			c-4.8,0.9-9.8,1.3-12.9,6c-0.8,1.2-1.4,0.3-2.1-0.2c-2-1.6-4.2-2.3-6.7-1.8c-5,0.9-10,1.9-15,2.7c-2.6,0.5-3.8,2-4,4.5
			c-0.3,3.3-0.9,6.7-1.1,10C67.9,95.1,66.6,99,67.9,103z"/>
		<path style="fill:#FEFEFE;" d="M67.9,103c-1.3-4,0-8,0.2-12c0.2-3.3,0.7-6.7,1.1-10c0.2-2.5,1.5-4.1,4-4.5c5-0.9,10-1.9,15-2.7
			c2.5-0.4,4.8,0.2,6.7,1.8c0.7,0.5,1.3,1.4,2.1,0.2c3-4.7,8-5.2,12.9-6c2.3-0.4,4.5-0.9,6.8-1.1c3.1-0.3,5.5,1.3,7.7,4
			c0.3-2.2-0.1-4.2,1.7-5.3c1.5-1,3.2-1.1,5-1.3c3.6-0.4,7.2-0.9,10.7-1.4c3.7-0.5,7.2-2.2,11.1-1.9c0.7,0.1,1.1-0.4,0.9-1.1
			c-0.6-1.7,0-3.2,0.2-4.8c0.6-4.3,1.2-5,5.4-5.7c2.8-0.5,5.7-1,8.5-1.5c3.7-0.7,5.8,1.3,5.2,4.9c-0.3,1.9-0.5,3.7-1.2,5.7
			c0.6,0,1.1,0.1,1.3-0.1c7.2-4.9,15.8-4.1,23.7-6.2c0.5-0.1,1.4-0.1,1.7,0.2c2.4,2.5,4.1,0.7,6-0.7c1.3-0.9,2.7-1.4,4.3-1.7
			c5-0.9,10-1.8,15-2.7c1.5-0.3,3.3-0.3,4.2,0.6c2.6,2.6,4.1,0.9,5.9-0.9c2.5-2.6,6.1-2.7,9.4-3.3c4-0.8,8.1-1.5,12.2-2.2
			c1.5-0.3,3-0.6,4.5,0.4c0.4,0.3,0.8,0.6,1.3,0.2c4-4,9.6-2.6,14.3-4.2c1.4-0.5,3-0.5,4.5-0.8c5.3-1,6.5-0.8,11.1,2.6
			c-0.2-5.3,3.6-5.4,7.1-6c4.6-0.7,9.3-1.7,13.9-2.5c6.4-1.2,10.4,2.7,9.3,9c-0.5,3.3-0.9,6.6-1.3,9.7c6-2.2,12-4.1,18.6-2.9l0,0
			c-0.2,0.6,0.1,1,0.6,1.2l0,0c0.1,9.6-0.1,9.8-9.7,11.6c-1.7,0.3-3.4,0.8-5.1,1c-3.2,0.4-4.9-1.2-4.8-4.5c0-1.6,0.9-3.2,0.5-4.9
			c-1,0.1-1.1,1-1.5,1.5c-2.2,3-5,5.1-8.7,5.5c-2.1,0.3-2.9,1.3-3.1,3.3c-0.3,2.9-0.8,5.7-1.2,8.5c-0.8,4.7-4.8,9.1-9.6,10
			c-20,3.7-40,7.3-60,11c-2,0.4-3.9,0.8-5.9,1.1c-3.3,0.5-5.3-1.7-4.8-5c0.7-4.7,1.4-9.4,2.1-14.2c-7.3,1.9-14.4,3-21.5,4.2
			c-2.7,0.5-5-0.9-7.3-2.8c-0.4,3.8-2.6,4.9-5.8,5.3c-4.7,0.7-9.4,1.8-14.2,2.6c-2.8,0.5-5.6,0.7-8.1-1.1c-1-0.8-1.5-0.4-1.8,0.7
			c-0.4,1.6-1.6,2.4-3.1,2.7c-3.6,0.7-7.2,1.4-10.8,1.9c-3.7,0.5-5.4-1.4-4.8-5.1c0.2-1.4,0.7-2.8,0.2-4.7c-1.8,2.7-2.6,5.6-3.7,8.2
			c-0.9,2.4-2.3,3.8-5,4.1c-3,0.3-6,1.2-9.1,1.5c-3.6,0.4-4.7-0.6-5.2-4.1c-0.6-4-1.3-8.1-2.1-13c-2.2,7.5,0.2,16.6-8.6,19.5
			c-6.5,2.2-13.6,5.3-20.9,0.9c-0.4,4.1-3.7,4.5-6.8,4.7c-3.8,0.2-7.4,1.4-11.1,2.1c-2,0.4-4,0.5-5.9,1.1
			C70.4,104.2,69.3,102.9,67.9,103L67.9,103z M234.2,72.7c-3.1,0.2-5.4,0.5-5.8,3.1c-0.7,4.6-1.4,9.3-2,14c-0.3,2.7,0.9,3.7,3.6,3.2
			c21.7-3.9,43.4-7.8,65.2-11.8c5.1-0.9,8.4-4.6,9.3-9.7c0.5-2.8,1.1-5.7,1.2-8.5c0.1-2.4,1.2-3.3,3.4-3.6c4.4-0.6,8-2.8,9.4-7.1
			c1.3-4.2,1.9-8.6,1.8-13.1c-0.1-3-2-4.8-5-4.9c-1.5-0.1-3.1,0-4.6,0.3c-4.9,0.8-9.8,1.9-14.7,2.7c-2.4,0.4-3.5,1.5-3.8,3.9
			c-0.8,6.1-1.8,12.2-2.8,18.2c-0.4,2.7-2.2,3.8-5.3,3.9c2.2-2.2,4.1-4.1,4.6-6.9c0.5-3.2,1.1-6.4,1.4-9.7c0.4-4.9-2.5-7.7-7.4-7
			c-5.8,0.9-11.5,2.2-17.3,3.1c-2.5,0.4-3.4,1.8-3.7,4c-0.8,5.6-1.6,11.2-2.5,16.8c-0.2,1.4-0.3,3.1-2,4.1c0.1-0.9,0.1-1.6,0.2-2.2
			c0.9-5.5,1.8-11,2.6-16.5c0.6-3.9-0.5-5-4.3-4.3c-5.5,1-11,1.9-16.4,3c-4.7,0.9-8,4.2-8.9,9c-0.4,2.3-0.6,4.7-1.1,7.1
			C228.5,67.4,229.2,70.6,234.2,72.7z M168.5,78.6c2.8,4.4,4.5,5.4,8.5,4.7c5.6-0.9,11.1-2.1,16.7-3c2.4-0.4,3.5-1.7,3.6-4.1
			c0.1-3.6,1.4-7,0.9-10.8c-0.2-1.8,1.4-4.4,1.7-6.7c0.4-2.7-0.9-4-3.6-3.5c-3,0.5-6.1,1.1-9.1,1.6c-6.2,1.2-13.1,1.1-16.3,8.2
			c-0.8-2.7-1-5,0.3-7.4c0.6-1.1,0.6-2.6,0.6-3.9c0.1-2.5-1-3.5-3.5-3.1c-2.5,0.4-4.9,0.9-7.4,1.3c-5.6,1-6.9,2.7-6.3,8.3
			c0.1,0.6,0.3,1.1,0.5,1.6c0.4,1.3-1.2,1.6-1.4,2.7c-0.1,0.6-0.4,0.3-0.8,0.1c-3.9-1.8-8.1-0.8-11.1,2.5c-0.9-1.7-2.5-1.5-4.1-1.3
			c-2.8,0.5-5.7,1-8.5,1.6c-3.4,0.7-3.8,1.2-3.4,4.7c0.7,5.5,1.6,11,2.5,16.5c0.4,2.4,1.8,3.2,4.1,2.8c2.5-0.5,4.9-1.2,7.4-1.3
			c3.4-0.2,5-1.9,6.1-5c2-5.5,4.4-10.9,6.6-16.4c-0.1,5.1-0.8,10-1.5,15c-0.4,3,0.8,4.1,3.7,3.7c1.6-0.3,3.2-0.7,4.8-0.9
			C164.4,85.9,169.3,85.7,168.5,78.6z M95.3,92.3c1.7,3.7,4.7,5.1,8.7,4.4c3.3-0.6,6.6-1.1,9.9-1.8c3.9-0.9,7.1-3.1,8.1-7
			c1-3.9,1.3-8,1.5-12c0.2-3.2-1.9-5.8-5.1-5.8c-5.8,0.1-11.5,0.9-16.8,3.2c-2.1,0.9-3.6,2.8-4.6,5c-0.3,0.6,0,1.6-1,1.8
			c-1-3.8-3-5.5-6.9-5.1c-5.4,0.7-10.8,1.8-16.2,2.8c-1.5,0.3-2.3,1.2-2.5,2.8C69.8,87,69,93.2,68.4,99.5c-0.2,1.8,0.8,3.4,2.6,3
			c4.3-0.9,9.1-0.1,12.7-3.5c0.5-0.5,0.8-0.1,1.2,0.1c5.1,1.9,9.1-0.4,9.8-5.5C94.7,93.1,94.6,92.6,95.3,92.3z M198.7,70.4
			c-0.2,5.3,2.4,8,7.2,7.4c6.2-0.8,12.3-2,18.4-3.1c1.5-0.3,2.2-1.4,2.4-2.9c0.4-3.8,1.8-7.5,1-11.4c-0.2-0.8,0.4-1.2,0.8-1.8
			c1.5-1.8,2.3-3.8,1.1-6.1c-1.3-2.3-3.5-2.6-5.8-2.2c-5.4,0.9-10.8,1.7-16.1,3c-3.8,0.9-6.6,3.6-7.5,7.6
			C199.4,64.3,199.1,67.8,198.7,70.4z M338.1,52.7c0.2-2.2-0.6-3.8-3-3.4c-3.8,0.5-7.6,1.2-11.3,2.1c-2.7,0.6-4.3,7.4-2.3,9.3
			c0.8,0.8,1.8,0.8,2.9,0.6c2.4-0.5,4.9-1,7.3-1.4C337.3,59,337.9,58.4,338.1,52.7z M150.6,77.9l0.2,0.1l0-0.2L150.6,77.9z"/>
		<path style="fill:#FEFEFE;" d="M338.6,48.8c-0.1-4.3,0.8-8.6,1.5-12.9c0.8-5.2,4.2-8.4,9.1-9.6c5.7-1.4,11.5-2.2,17.2-3.3
			c0.5-0.1,1.4-0.2,1.7,0.1c2.5,2.3,4.2,0.2,6.4-0.8c5.4-2.4,11.2-3.1,17.1-3.4c1.8-0.1,3.4,1.1,5.1,2.4c0.5-3.7,2.8-4.4,5.7-4.9
			c7.9-1.3,15.7-2.8,23.5-4.3c6.1-1.1,10.2,2.6,9.5,8.8c-0.5,4.5-1.1,8.9-1.6,13.4c-0.2,2.2-1.4,3.5-3.6,3.8
			c-4.9,0.7-9.6,2-14.5,2.6c-5.3,0.6-10.3,2.6-15.5,3c-1.1,0.1-2.4,0.6-3.1,0c-2.2-2-3.8-0.8-5.5,0.6c-1.4,1.2-3.3,1.5-5.1,1.9
			c-2.9,0.6-5.8,1.1-8.8,1.6c-3.3,0.6-5,0.2-9.2-2.2c-0.2,4.2-3.4,4.5-6.5,5c-4.5,0.7-9,1.7-13.6,2.5c-3.7,0.6-7.1,0.1-9.4-3.3l0,0
			C339.2,49.4,339.2,48.9,338.6,48.8L338.6,48.8z M370.2,28.2c-0.6-3.8-1.4-4.4-4.9-3.8c-5.1,0.9-10.2,1.7-15.3,2.9
			c-4.7,1.1-8.1,3.9-8.8,9.1c-0.3,2.6-0.7,5.1-1.1,7.7c-0.9,6.2,2.2,9.1,8.3,8c4.1-0.7,8.1-1.7,12.2-2.1c4.3-0.5,7.4-1.9,7.2-6.9
			c0-0.2,0.2-0.5,0.4-0.8c2.8,4.5,4.5,5.4,10,4.3c6.3-1.3,13.6-0.6,17.4-7.9c-0.2,2.1,0.5,4.5,2.3,4.1c4.6-0.8,9.7,0,13.5-3.6
			c0.3-0.3,0.5-0.5,0.9-0.3c3.7,1.6,7,1.1,9.8-1.8c0.2-0.2,0.3-0.5,0.6-0.2c2.1,2.3,4.5,0.5,6.8,0.4c2-0.1,3-1.4,3.2-3.4
			c0.5-4.5,1-9,1.5-13.4c0.5-4.2-2.1-7.1-6.3-7.1c-1.3,0-2.7,0.2-4,0.4c-6.9,1.2-13.8,2.6-20.7,3.8c-4.9,0.8-4.9,0.8-5.5,5.6
			c-0.2,1.2-0.4,2.4-0.7,4c-0.7-5.7-3.4-7.7-8.7-6.8c-2.4,0.4-4.7,0.9-7.1,1.2C376.7,22,372.7,23.7,370.2,28.2z"/>
		<path style="fill:#BC9362;" d="M234.2,72.7c-4.9-2.1-5.7-5.2-4.8-9.1c0.5-2.3,0.7-4.7,1.1-7.1c0.9-4.8,4.2-8.1,8.9-9
			c5.5-1,10.9-2,16.4-3c3.8-0.7,4.9,0.4,4.3,4.3c-0.9,5.5-1.8,11-2.6,16.5c-0.1,0.7-0.1,1.3-0.2,2.2c1.8-1,1.8-2.6,2-4.1
			c0.9-5.6,1.7-11.2,2.5-16.8c0.3-2.2,1.2-3.6,3.7-4c5.8-0.9,11.5-2.2,17.3-3.1c4.9-0.8,7.8,2.1,7.4,7c-0.3,3.2-0.8,6.5-1.4,9.7
			c-0.5,2.8-2.4,4.7-4.6,6.9c3.1-0.1,4.8-1.2,5.3-3.9c1-6.1,2-12.1,2.8-18.2c0.3-2.4,1.4-3.5,3.8-3.9c4.9-0.8,9.8-1.8,14.7-2.7
			c1.5-0.3,3.1-0.3,4.6-0.3c3,0.2,4.9,2,5,4.9c0.1,4.4-0.5,8.9-1.8,13.1c-1.4,4.3-5,6.5-9.4,7.1c-2.3,0.3-3.3,1.2-3.4,3.6
			c-0.1,2.9-0.7,5.7-1.2,8.5c-0.8,5.1-4.2,8.8-9.3,9.7c-21.7,4-43.4,7.9-65.2,11.8c-2.7,0.5-3.9-0.5-3.6-3.2c0.5-4.7,1.2-9.3,2-14
			C228.8,73.2,231.1,72.9,234.2,72.7z M282.2,42.4c-4.2,0.8-9.3,1.9-14.5,2.6c-2.6,0.3-3.2,1.8-3.5,3.9c-0.6,4.5-1.2,8.9-1.8,13.3
			c-0.9,6.3-2.6,8.4-7.9,9.4c-6.7,1.3-13.5,2.6-20.3,3.6c-2.3,0.3-3.2,1.4-3.4,3.4c-0.5,3.3-0.9,6.6-1.5,9.9
			c-0.3,1.6,0.3,1.9,1.6,1.7c8.6-1.6,17.2-3.2,25.9-4.8c11.2-2,22.3-4.2,33.5-6.1c8.4-1.4,11.2-3.6,12.1-10.4c0.3-2.6,1.1-5.1,1-7.7
			c-0.1-3.6,1.8-4.2,4.7-4.6c4.7-0.5,7.9-3.1,8.5-7.2c0.4-2.8,0.9-5.7,1.3-8.5c0.4-3.1-1.3-4.8-4.4-4.3c-5.5,0.9-10.9,1.9-16.4,3
			c-1.2,0.2-2.1,0.9-2.2,2.3c-0.7,5.7-1.6,11.4-2.4,17c-0.4,3.1-2,5.6-5.1,6.4c-4.3,1.1-8.8,1.8-13.2,2.7c-0.9,0.2-1.2,0-1.3-0.9
			c-0.2-2.3,1.1-4.1,3.5-4.4c6.8-1,10.2-3.8,10.4-10.7c0.1-1.6,0.4-3.2,0.6-4.8C288,43.3,287.1,42.3,282.2,42.4z M257.2,49.8
			c0.1-1.6,0.4-3.1-1.9-2.6c-5.1,1-10.2,1.7-15.2,2.8c-3.2,0.7-6,2.4-6.7,6c-0.7,3.3-1.1,6.6-1.6,9.9c-0.3,2.4,1,3.6,3.3,3.7
			c3.8,0.1,7.4-0.6,10.9-1.9c1.2-0.4,2.1-0.7,3.5-0.6c1.9,0.2,4.7,0.7,5.3-2C255.9,60,256.4,54.7,257.2,49.8z"/>
		<path style="fill:#BC9362;" d="M168.5,78.6c0.7,7-4.1,7.3-8.7,7.8c-1.6,0.2-3.2,0.7-4.8,0.9c-2.9,0.5-4.1-0.7-3.7-3.7
			c0.7-4.9,1.3-9.9,1.5-15c-2.2,5.4-4.6,10.8-6.6,16.4c-1.1,3.1-2.7,4.8-6.1,5c-2.5,0.1-4.9,0.9-7.4,1.3c-2.3,0.5-3.8-0.4-4.1-2.8
			c-0.8-5.5-1.7-11-2.5-16.5c-0.5-3.5,0-4,3.4-4.7c2.8-0.6,5.7-1.1,8.5-1.6c1.5-0.3,3.1-0.5,4.1,1.3c3-3.3,7.2-4.2,11.1-2.5
			c0.4,0.2,0.7,0.5,0.8-0.1c0.2-1,1.8-1.3,1.4-2.7c-0.2-0.5-0.4-1.1-0.5-1.6c-0.6-5.6,0.7-7.3,6.3-8.3c2.5-0.4,4.9-0.9,7.4-1.3
			c2.5-0.4,3.6,0.6,3.5,3.1c-0.1,1.3,0,2.9-0.6,3.9c-1.3,2.4-1.1,4.7-0.3,7.4c3.3-7.1,10.1-7,16.3-8.2c3-0.6,6-1.1,9.1-1.6
			c2.7-0.5,3.9,0.8,3.6,3.5c-0.3,2.4-1.9,4.9-1.7,6.7c0.4,3.8-0.8,7.2-0.9,10.8c-0.1,2.4-1.2,3.7-3.6,4.1c-5.6,0.9-11.1,2.1-16.7,3
			C173,84,171.3,83,168.5,78.6z M195.5,70.5c0.1-2.5,0.1-2.5-2.1-2.1c-2.1,0.3-4.1,0.7-6.2,1.1c-2.2,0.5-3-0.4-2.7-2.6
			c0.2-1.6,1-2.3,2.5-2.6c2.7-0.4,5.5-0.9,8.2-1.5c2.1-0.5,2.1-2.4,1.8-3.9c-0.3-1.6-1.7-0.5-2.6-0.4c-4.6,0.8-9.2,1.5-13.8,2.5
			c-3.8,0.8-6.7,2.8-7.4,7c-0.5,3-1,6-1.4,9.1c-0.3,2.4,1.4,4.2,3.8,3.9c5.7-0.9,11.3-2.1,16.9-3c1.4-0.2,2-1,2.2-2.2
			C195,73.8,195.2,72,195.5,70.5z M141.5,76.8c-0.2,0-0.4-0.1-0.6-0.1c-0.3-2.1-0.6-4.1-0.9-6.2c-0.2-1.2-0.5-2.3-2.4-1.7
			c-2.5,0.7-5.1,0.9-7.6,1.3c-0.9,0.1-1.4,0.5-1.3,1.5c0.8,5.3,1.7,10.6,2.5,15.8c0.1,0.9,0.4,1.6,1.7,1.3c2.7-0.6,5.5-0.9,8.2-1.4
			c0.8-0.2,1.6-0.6,2-1.5c2.4-5.9,4.7-11.7,7.1-17.6c0.4-0.9,0.4-1.6-0.8-1.5c-1.9,0.2-4,0.2-4.8,2.7
			C143.6,72,142.5,74.4,141.5,76.8z M155.6,84.6c2.8-0.5,5.6-1.1,8.4-1.6c0.7-0.1,1.2-0.4,1.4-1.3c0.8-5.6,1.6-11.1,2.3-16.7
			c0.2-1.2-0.1-1.7-1.6-1.4c-2.5,0.6-5.1,0.9-7.6,1.3c-1.5,0.2-2.1,1.1-2.3,2.5c-0.7,5.1-1.4,10.2-2.2,15.3
			C153.8,84.1,154.1,84.7,155.6,84.6z M159.6,59.7c2-0.4,4.1-1.1,6.2-1.1c3.2,0,3-2.3,3.4-4.2c0.2-0.7-0.3-1-1-0.9
			c-3,0.6-6,1-8.9,1.7c-1.8,0.4-1.7,2.2-1.8,3.5C157.4,60.1,158.6,59.6,159.6,59.7z"/>
		<path style="fill:#BC9362;" d="M95.3,92.3c-0.7,0.3-0.6,0.8-0.7,1.3c-0.7,5.2-4.7,7.4-9.8,5.5c-0.4-0.2-0.7-0.5-1.2-0.1
			c-3.6,3.4-8.4,2.6-12.7,3.5c-1.8,0.4-2.8-1.2-2.6-3c0.7-6.3,1.4-12.6,2.1-18.9c0.2-1.5,1-2.5,2.5-2.8c5.4-1,10.7-2.1,16.2-2.8
			c3.9-0.5,5.9,1.3,6.9,5.1c1-0.2,0.7-1.2,1-1.8c1-2.2,2.4-4.1,4.6-5c5.3-2.3,11.1-3.2,16.8-3.2c3.2,0,5.3,2.6,5.1,5.8
			c-0.3,4-0.6,8.1-1.5,12c-1,3.9-4.1,6.2-8.1,7c-3.3,0.7-6.6,1.3-9.9,1.8C100,97.4,97,96,95.3,92.3z M120.8,76.9
			c0.3-3-1.6-4.8-4.5-4.3c-3.7,0.6-7.3,1.3-11,2.1c-4,0.9-6,3.5-6.3,7.5c-0.2,2.4-0.6,4.7-1,7.1c-0.5,2.9,1.7,5.4,4.7,5
			c3.9-0.6,7.7-1.4,11.5-2.3c3.1-0.7,4.9-3,5.5-6C120.3,83,120.5,79.9,120.8,76.9z M93.2,83.4c0.7-5.2-2.1-6.2-4.6-5.7
			c-4.4,0.8-8.8,1.5-13.2,2.4c-0.9,0.2-2.1,0.2-2.3,1.7c-0.5,5.1-1.1,10.3-1.7,15.4c-0.3,2.2,0.8,2.7,2.7,2.3c1.8-0.4,3.5-0.9,5.3-1
			c1.5-0.1,1.8-0.8,1.9-2.2c0.3-3.5,0.9-7,1.3-10.5c0.3-2.8,2.1-3.3,4.2-3c2.4,0.4,1.2,2.4,1.2,3.7c-0.2,2.9-0.7,5.9-1,8.8
			c-0.1,0.5-0.2,1.2,0.4,1.5c1.6,0.8,4.4-0.7,4.7-2.6C92.5,90.4,92.8,86.5,93.2,83.4z"/>
		<path style="fill:#BC9362;" d="M198.7,70.4c0.4-2.7,0.7-6.1,1.5-9.5c0.9-4,3.7-6.6,7.5-7.6c5.3-1.3,10.7-2.1,16.1-3
			c2.3-0.4,4.5-0.1,5.8,2.2c1.2,2.3,0.4,4.3-1.1,6.1c-0.4,0.5-1,1-0.8,1.8c0.8,3.9-0.6,7.6-1,11.4c-0.2,1.5-0.9,2.6-2.4,2.9
			c-6.1,1.1-12.3,2.4-18.4,3.1C201.2,78.5,198.5,75.8,198.7,70.4z M219.8,62.9c2.3-2.1,4.3-4,6.4-5.9c0.9-0.9,1.4-2,0.8-3.1
			c-0.6-1.1-1.8-1.2-3-1c-4.9,0.9-9.8,1.7-14.6,2.8c-3.4,0.7-6,2.6-6.6,6.3c-0.4,2.5-0.7,5.1-1.2,7.6c-0.8,4.3,1,6.3,5.2,5.5
			c5.3-0.9,10.5-1.9,15.8-2.8c1-0.2,1.5-0.6,1.7-1.6c0.1-1.1,0.4-2.3,0.5-3.4c0.6-4.6,0.6-4.6-3.9-4.2
			C220.7,63.2,220.4,63.1,219.8,62.9z"/>
		<path style="fill:#BC9362;" d="M338.1,52.7c-0.3,5.6-0.8,6.2-6.3,7.2c-2.5,0.4-4.9,0.9-7.3,1.4c-1.1,0.2-2.1,0.2-2.9-0.6
			c-2-1.9-0.4-8.7,2.3-9.3c3.7-0.9,7.5-1.6,11.3-2.1C337.6,49,338.3,50.6,338.1,52.7z M335.2,54.9c-0.1-1.5,0.3-2.9-1.2-2.7
			c-3,0.4-6,0.9-8.9,1.7c-1.6,0.5-1.7,2.3-1.4,3.7c0.3,1.6,1.6,0.7,2.6,0.6c2.2-0.4,4.5-0.9,6.7-1.2
			C334.7,56.8,335.3,55.9,335.2,54.9z"/>
		<path style="fill:#BC9362;" d="M338.6,48.7c0.6,0.2,0.6,0.7,0.6,1.2C338.7,49.7,338.5,49.3,338.6,48.7z"/>
		<polygon style="fill:#BC9362;" points="150.6,77.9 150.7,77.8 150.7,78 		"/>
		<path style="fill:#BC9362;" d="M370.2,28.2c2.5-4.5,6.5-6.2,11.2-6.8c2.4-0.3,4.7-0.8,7.1-1.2c5.3-0.9,8,1.1,8.7,6.8
			c0.3-1.6,0.5-2.8,0.7-4c0.6-4.8,0.7-4.8,5.5-5.6c6.9-1.2,13.8-2.5,20.7-3.8c1.3-0.2,2.7-0.4,4-0.4c4.2,0,6.8,2.9,6.3,7.1
			c-0.5,4.5-1.1,9-1.5,13.4c-0.2,2-1.2,3.3-3.2,3.4c-2.3,0.1-4.6,1.9-6.8-0.4c-0.3-0.3-0.4,0-0.6,0.2c-2.9,2.9-6.2,3.4-9.8,1.8
			c-0.4-0.2-0.6,0-0.9,0.3c-3.8,3.6-9,2.8-13.5,3.6c-1.8,0.3-2.5-2-2.3-4.1c-3.8,7.4-11,6.7-17.4,7.9c-5.5,1.1-7.3,0.2-10-4.3
			c-0.1,0.3-0.4,0.5-0.4,0.8c0.2,5-2.9,6.4-7.2,6.9c-4.1,0.5-8.1,1.4-12.2,2.1c-6.1,1.1-9.1-1.8-8.3-8c0.4-2.6,0.8-5.1,1.1-7.7
			c0.7-5.2,4-8,8.8-9.1c5-1.2,10.2-2,15.3-2.9C368.8,23.8,369.6,24.5,370.2,28.2z M431.6,20.6c0-3.9-1.5-5.3-5-4.7
			c-7.9,1.5-15.8,3.1-23.7,4.4c-1.7,0.3-2.3,1-2.5,2.5c-0.4,3.9-0.8,7.8-1.2,11.7c-0.6,5.6-0.5,5.6,5.2,4.5c5-1,4.9-1,5.3-6.2
			c0.2-2.7,0.7-5.3,1-8c0.4-2.5,2.6-2,4.1-2.1c1.9-0.2,1.2,1.7,1.1,2.6c-0.2,2.8-0.8,5.5-1,8.3c-0.1,1.1-0.7,2.6,0.5,3.2
			c0.9,0.4,2.3,0,3.3-0.4c1.4-0.5,1.2-2,1.4-3.2c0.4-3.4,0.7-6.9,1.2-10.3c0.3-2.2,2.3-1.9,3.8-2c1.7-0.1,1.4,1.3,1.3,2.2
			c-0.3,3-0.8,6.1-1,9.1c-0.1,0.9-0.7,2.2,0.6,2.8c1.6,0.7,4.2-0.8,4.4-2.6C430.8,28.6,431.1,24.6,431.6,20.6z M394,28.8
			c0.1-5.4-1.4-6.7-5.4-5.9c-3.1,0.6-6.2,1.1-9.3,1.7c-4.3,0.8-6.9,3.7-7.3,8.1c-0.2,2.1-0.5,4.2-0.9,6.2c-0.7,3.5,0.8,5.5,4.3,5.3
			c4.2-0.2,8.3-1.1,12.4-2.2c2.4-0.6,4.3-2.3,4.9-4.9C393.5,34,393.8,30.7,394,28.8z M342.6,45c-0.1,3.8,1.3,5,4.5,4.5
			c2.8-0.5,5.7-0.9,8.5-1.4c2.5-0.5,5.2-0.6,7.5-1.6c3.1-1.3,1.3-4.8,2.3-7.1c0.1-0.3,0.2-0.6,0.2-0.8c0.1-1.1,0-1.8-1.5-1.5
			c-2.6,0.5-5.3,0.9-7.9,1.4c-0.7,0.1-1.2,0.5-1.5-0.5c-0.6-2.1,0.6-4.3,2.8-4.7c2.3-0.4,4.7-0.8,7.1-1.2c2.5-0.4,2.4-2.3,2.2-4
			c-0.3-2.2-1.9-0.6-2.7-0.5c-4.4,0.6-8.9,1.4-13.2,2.3c-3.3,0.7-6,2.4-6.8,5.8C343.4,38.9,343.1,42.2,342.6,45z"/>
		<path style="fill:#DE3624;" d="M282.2,42.4c5-0.1,5.8,0.9,5.2,4.7c-0.3,1.6-0.6,3.2-0.6,4.8c-0.2,6.9-3.6,9.7-10.4,10.7
			c-2.4,0.3-3.7,2.1-3.5,4.4c0.1,0.9,0.4,1.1,1.3,0.9c4.4-0.9,8.9-1.5,13.2-2.7c3-0.8,4.6-3.2,5.1-6.4c0.8-5.7,1.6-11.3,2.4-17
			c0.2-1.4,1.1-2,2.2-2.3c5.4-1,10.9-2.1,16.4-3c3.1-0.5,4.8,1.2,4.4,4.3c-0.4,2.8-0.9,5.7-1.3,8.5c-0.6,4.1-3.8,6.8-8.5,7.2
			c-2.9,0.3-4.8,1-4.7,4.6c0.1,2.5-0.7,5.1-1,7.7c-0.9,6.8-3.8,9-12.1,10.4c-11.2,1.8-22.3,4-33.5,6.1c-8.6,1.6-17.2,3.2-25.9,4.8
			c-1.3,0.2-2,0-1.6-1.7c0.6-3.3,1-6.6,1.5-9.9c0.3-2,1.2-3.1,3.4-3.4c6.8-1,13.6-2.3,20.3-3.6c5.3-1,7-3.1,7.9-9.4
			c0.7-4.4,1.3-8.9,1.8-13.3c0.3-2.1,0.9-3.6,3.5-3.9C272.8,44.3,278,43.1,282.2,42.4z M275.2,51.6c0.1,0.5-0.2,1.8,0.8,1.5
			c1.6-0.3,3.3-0.1,4.7-1.2c1.4-1,0.4-2.7,1.1-4c0.2-0.3-0.1-0.7-0.5-0.8C278.7,46.4,275.4,48.7,275.2,51.6z M310.2,41.8
			c-3.6,0.1-4.5,0.8-4.5,3.7c0,1.1-0.2,2.1,1.5,2c3.1-0.2,4.6-1.5,4.8-4.3C312.1,41.8,311.2,41.8,310.2,41.8z"/>
		<path style="fill:#DE3624;" d="M257.2,49.8c-0.7,5-1.3,10.2-2.4,15.3c-0.6,2.7-3.4,2.2-5.3,2c-1.3-0.1-2.3,0.1-3.5,0.6
			c-3.5,1.4-7.2,2-10.9,1.9c-2.3-0.1-3.6-1.3-3.3-3.7c0.5-3.3,0.9-6.6,1.6-9.9c0.7-3.6,3.4-5.3,6.7-6c5-1.1,10.1-1.8,15.2-2.8
			C257.6,46.7,257.3,48.2,257.2,49.8z M250.9,54.7c-0.2-0.5,0.4-1.8-0.9-1.8c-1.4,0-2.9,0.3-4.1,0.8c-1.4,0.6-1.8,4.1-0.7,4.7
			C247.1,59.6,250.8,57.3,250.9,54.7z"/>
		<path style="fill:#DE3624;" d="M195.5,70.5c-0.2,1.5-0.4,3.3-0.7,5.1c-0.2,1.2-0.7,2-2.2,2.2c-5.6,0.9-11.3,2.1-16.9,3
			c-2.4,0.4-4.1-1.4-3.8-3.9c0.4-3,0.9-6,1.4-9.1c0.7-4.2,3.6-6.2,7.4-7c4.6-1,9.2-1.7,13.8-2.5c0.9-0.2,2.3-1.2,2.6,0.4
			c0.3,1.5,0.3,3.4-1.8,3.9c-2.7,0.6-5.4,1.1-8.2,1.5c-1.6,0.2-2.3,1-2.5,2.6c-0.3,2.2,0.5,3,2.7,2.6c2.1-0.4,4.1-0.8,6.2-1.1
			C195.5,68,195.5,68,195.5,70.5z"/>
		<path style="fill:#DE3624;" d="M141.5,76.8c1-2.5,2.2-4.9,3-7.4c0.8-2.5,2.8-2.5,4.8-2.7c1.2-0.1,1.2,0.6,0.8,1.5
			c-2.4,5.9-4.7,11.7-7.1,17.6c-0.4,0.9-1.1,1.3-2,1.5c-2.7,0.5-5.5,0.8-8.2,1.4c-1.3,0.3-1.5-0.4-1.7-1.3
			c-0.9-5.3-1.7-10.5-2.5-15.8c-0.1-1,0.4-1.3,1.3-1.5c2.5-0.4,5.2-0.6,7.6-1.3c1.9-0.6,2.2,0.5,2.4,1.7c0.4,2,0.6,4.1,0.9,6.2
			C141,76.7,141.2,76.8,141.5,76.8z"/>
		<path style="fill:#DE3624;" d="M155.6,84.6c-1.5,0.1-1.9-0.5-1.6-1.9c0.8-5.1,1.5-10.2,2.2-15.3c0.2-1.4,0.8-2.3,2.3-2.5
			c2.5-0.4,5.1-0.7,7.6-1.3c1.5-0.3,1.8,0.2,1.6,1.4c-0.7,5.6-1.5,11.1-2.3,16.7c-0.1,0.8-0.7,1.1-1.4,1.3
			C161.2,83.5,158.4,84.1,155.6,84.6z"/>
		<path style="fill:#DE3624;" d="M159.6,59.7c-1-0.1-2.3,0.3-2.1-1c0.1-1.3,0-3.1,1.8-3.5c3-0.6,6-1.1,8.9-1.7
			c0.7-0.1,1.2,0.1,1,0.9c-0.4,2-0.3,4.2-3.4,4.2C163.7,58.6,161.6,59.4,159.6,59.7z"/>
		<path style="fill:#DE3624;" d="M120.8,76.9c-0.3,3-0.5,6.1-1.1,9.1c-0.6,3-2.4,5.3-5.5,6c-3.8,0.9-7.7,1.7-11.5,2.3
			c-2.9,0.5-5.2-2.1-4.7-5c0.4-2.3,0.8-4.7,1-7.1c0.3-4,2.4-6.6,6.3-7.5c3.6-0.8,7.3-1.5,11-2.1C119.3,72.1,121.1,73.9,120.8,76.9z
			 M110,80.4c0.1-1-0.2-1.7-1.5-1.7c-3-0.1-4.1,1-4.4,4.3c-0.1,1-0.1,1.4,1,1.4C108.1,84.4,109.8,83.1,110,80.4z"/>
		<path style="fill:#DE3624;" d="M93.2,83.4c-0.3,3.1-0.7,7-1.2,10.9c-0.2,1.9-3.1,3.4-4.7,2.6c-0.7-0.3-0.5-1-0.4-1.5
			c0.3-2.9,0.9-5.9,1-8.8c0.1-1.3,1.3-3.3-1.2-3.7c-2.1-0.3-4,0.2-4.2,3c-0.3,3.5-0.9,7-1.3,10.5c-0.1,1.3-0.4,2.1-1.9,2.2
			c-1.8,0.1-3.6,0.7-5.3,1c-1.9,0.4-2.9-0.1-2.7-2.3c0.6-5.1,1.2-10.2,1.7-15.4c0.2-1.6,1.4-1.5,2.3-1.7c4.4-0.9,8.8-1.7,13.2-2.4
			C91,77.2,93.8,78.2,93.2,83.4z"/>
		<path style="fill:#DE3624;" d="M219.8,62.9c0.6,0.1,0.9,0.2,1.2,0.2c4.5-0.3,4.5-0.3,3.9,4.2c-0.2,1.1-0.4,2.3-0.5,3.4
			c-0.1,1-0.7,1.5-1.7,1.6c-5.3,0.9-10.5,1.9-15.8,2.8c-4.3,0.7-6.1-1.2-5.2-5.5c0.5-2.5,0.8-5.1,1.2-7.6c0.6-3.7,3.2-5.6,6.6-6.3
			c4.8-1,9.7-1.8,14.6-2.8c1.2-0.2,2.4-0.2,3,1c0.6,1.1,0.1,2.2-0.8,3.1C224.1,58.9,222.1,60.9,219.8,62.9z M214.2,64.2
			c2-1.9,3.8-3.6,5.8-5.5C214.7,58.5,213.7,59.5,214.2,64.2z"/>
		<path style="fill:#DE3624;" d="M335.2,54.9c0.1,1-0.5,1.9-2.2,2.1c-2.3,0.3-4.5,0.8-6.7,1.2c-1,0.2-2.2,1-2.6-0.6
			c-0.3-1.4-0.2-3.2,1.4-3.7c2.9-0.8,5.9-1.3,8.9-1.7C335.5,52.1,335.1,53.4,335.2,54.9z"/>
		<path style="fill:#DE3624;" d="M431.6,20.6c-0.4,4-0.8,8-1.3,12c-0.2,1.8-2.8,3.3-4.4,2.6c-1.3-0.5-0.7-1.8-0.6-2.8
			c0.3-3,0.7-6.1,1-9.1c0.1-1,0.4-2.4-1.3-2.2c-1.5,0.1-3.5-0.3-3.8,2c-0.5,3.4-0.8,6.8-1.2,10.3c-0.1,1.2,0,2.7-1.4,3.2
			c-1,0.4-2.4,0.8-3.3,0.4c-1.2-0.5-0.6-2.1-0.5-3.2c0.3-2.8,0.8-5.5,1-8.3c0.1-0.9,0.7-2.8-1.1-2.6c-1.5,0.1-3.7-0.5-4.1,2.1
			c-0.4,2.6-0.9,5.3-1,8c-0.3,5.2-0.2,5.2-5.3,6.2c-5.7,1.2-5.8,1.1-5.2-4.5c0.4-3.9,0.8-7.8,1.2-11.7c0.2-1.5,0.7-2.3,2.5-2.5
			c7.9-1.4,15.8-3,23.7-4.4C430.1,15.3,431.5,16.7,431.6,20.6z"/>
		<path style="fill:#DE3624;" d="M394,28.8c-0.3,1.9-0.5,5.1-1.2,8.3c-0.6,2.5-2.5,4.2-4.9,4.9c-4.1,1.1-8.2,2-12.4,2.2
			c-3.5,0.2-5-1.8-4.3-5.3c0.4-2.1,0.7-4.1,0.9-6.2c0.4-4.4,3-7.3,7.3-8.1c3.1-0.6,6.2-1.1,9.3-1.7C392.6,22.2,394.2,23.5,394,28.8z
			 M378.6,34.3c3.4,0,4.5-1.1,4.8-4.3c0.1-1-0.1-1.5-1.2-1.4c-1.1,0.2-2.3,0.2-3.3,0.7c-1.8,0.8-1.6,2.6-1.6,4.2
			C377.3,34.6,377.9,34.5,378.6,34.3z"/>
		<path style="fill:#DE3624;" d="M342.6,45c0.4-2.8,0.7-6.2,1.5-9.4c0.8-3.5,3.6-5.1,6.8-5.8c4.4-0.9,8.8-1.7,13.2-2.3
			c0.8-0.1,2.4-1.6,2.7,0.5c0.2,1.7,0.3,3.6-2.2,4c-2.4,0.4-4.7,0.8-7.1,1.2c-2.2,0.4-3.5,2.6-2.8,4.7c0.3,1,0.9,0.7,1.5,0.5
			c2.6-0.5,5.3-0.8,7.9-1.4c1.5-0.3,1.6,0.4,1.5,1.5c0,0.3-0.1,0.6-0.2,0.8c-1,2.3,0.7,5.7-2.3,7.1c-2.3,1-5,1.1-7.5,1.6
			c-2.8,0.5-5.7,0.9-8.5,1.4C344,50.1,342.6,48.8,342.6,45z"/>
		<path style="fill:#BC9362;" d="M275.2,51.6c0.3-2.9,3.6-5.3,6.1-4.5c0.5,0.1,0.7,0.5,0.5,0.8c-0.6,1.3,0.3,3-1.1,4
			c-1.4,1-3.1,0.9-4.7,1.2C274.9,53.4,275.3,52.1,275.2,51.6z"/>
		<path style="fill:#BC9362;" d="M310.2,41.8c1-0.1,1.9,0,1.8,1.4c-0.1,2.7-1.7,4.1-4.8,4.3c-1.7,0.1-1.5-1-1.5-2
			C305.7,42.7,306.6,41.9,310.2,41.8z"/>
		<path style="fill:#BC9362;" d="M250.9,54.7c-0.1,2.6-3.7,4.8-5.7,3.7c-1.1-0.6-0.7-4.2,0.7-4.7c1.3-0.5,2.7-0.8,4.1-0.8
			C251.3,52.9,250.7,54.2,250.9,54.7z"/>
		<path style="fill:#BC9362;" d="M110,80.4c-0.2,2.7-1.9,4-4.9,4c-1.1,0-1.1-0.5-1-1.4c0.3-3.3,1.4-4.4,4.4-4.3
			C109.8,78.8,110.1,79.4,110,80.4z"/>
		<path style="fill:#BC9362;" d="M214.2,64.2c-0.5-4.7,0.5-5.7,5.8-5.5C218,60.6,216.2,62.3,214.2,64.2z"/>
		<path style="fill:#BC9362;" d="M378.6,34.3c-0.7,0.2-1.3,0.2-1.3-0.8c0-1.6-0.2-3.4,1.6-4.2c1-0.5,2.2-0.5,3.3-0.7
			c1-0.1,1.3,0.4,1.2,1.4C383.2,33.2,382,34.3,378.6,34.3z"/>
	</g>
</g>
<g>
</g>
<g>
</g>
<g>
</g>
<g>
</g>
<g>
</g>
<g>
</g>
<g>
</g>
<g>
</g>
<g>
</g>
<g>
</g>
<g>
</g>
<g>
</g>
<g>
</g>
<g>
</g>
<g>
</g>
</svg>
