<svg xmlns="http://www.w3.org/2000/svg" height="432" viewBox="0 0 162.1 431.7" style="enable-background:new 0 0 162.1 431.7">
 <g style="fill:#a50101">
  <path d="m20 431c.9-17.4 1.4-20.5 9.1-34.7 2.8-5.2 12.7-12.7 14-18 1.2-4.4 14.5-32 22.4-30 4.2 1 2.1 53.7 2.4 61 1.6 29.6-25.5 21.9-48 21.9"/>
  <path d="m53 171c0 19.5 3.8 35.7 4 55 .1 7.1-13.3 19-16.9 25.3-3.1 5.3-25 43-31.4 43-3.2-.2-7.7-44-7.7-50-.2-22.7-6.7-41 14.3-58 8.7-7 14-26 24-30.4 6.3-2.8 2.2-10.7 8.4-11 12.3-.5 1.4 26.6 5.2 26.6"/>
  <path d="m114 209c0 5.9 2.9 39.7-1.8 39.6-5.2-.1-9.5 20.4-13.8 20.9-10 1.2-19.5 41-29 39.9-5.8-.9-13.8-92 3.7-93 4.7-.3 23.4-28.8 23.5-32 .2 0 16.6-20 17.9-8.9.3 2.4-.3 34-.3 34"/>
  <path d="m161 40.5c0 13.2 5 48-10.7 56-7.3 3.9-18.4 38.5-28 36.7-5.6-1-10-84 4.6-89 3.7-1.3 26.6-46 33-44.5 4.1 1.3 1.1 35 1.1 40.5"/>
  <path d="m161 225c0 7.4 4.6 60.8-13.3 62-4.9.2-15.6 36.9-22.4 36.6-6.4-.3-2.6-45.5-7.5-42.7 1.8.5 3.5 1.3 4.9 2.6.6-12-13-36.6 8.5-44.7 8.4-3.1 16.5-42 27-42.5 7.2-.2-.2 29 2.6 29"/>
  <path d="m120 276c-.4 1.2-3.4 4.9-3-1.1.4-5.2 2.9.1 3 1.1"/>
 </g>
</svg>
