<?xml version="1.0" encoding="utf-8"?>
<!-- Generator: Adobe Illustrator 17.0.0, SVG Export Plug-In . SVG Version: 6.00 Build 0)  -->
<!DOCTYPE svg PUBLIC "-//W3C//DTD SVG 1.1//EN" "http://www.w3.org/Graphics/SVG/1.1/DTD/svg11.dtd">
<svg version="1.1" id="Layer_1" xmlns="http://www.w3.org/2000/svg" xmlns:xlink="http://www.w3.org/1999/xlink" x="0px" y="0px"
	 width="162.1px" height="431.7px" viewBox="0 0 162.1 431.7" style="enable-background:new 0 0 162.1 431.7;" xml:space="preserve"
	>
<g id="orange.svg">
	<path style="fill:#A50101;" d="M20.1,430.8c0.9-17.4,1.4-20.5,9.1-34.7c2.8-5.2,12.7-12.7,14.1-18c1.2-4.4,14.5-32.1,22.4-30.2
		c4.2,1,2.1,53.7,2.4,61C69.7,438.5,42.6,430.8,20.1,430.8C20.4,423.9,34.1,430.8,20.1,430.8z"/>
	<path style="fill:#A50101;" d="M53.1,171.4c0,19.5,3.8,35.7,4,55.1c0.1,7.1-13.3,19.1-16.9,25.3c-3.1,5.3-25,43.4-31.4,43
		c-3.2-0.2-7.7-44.2-7.7-50.5c-0.2-22.7-6.7-41.1,14.3-58.1c8.7-7,14.1-26,24.1-30.4c6.3-2.8,2.2-10.7,8.4-11
		C60.2,144.3,49.3,171.4,53.1,171.4C53.1,178.6,53.1,171.4,53.1,171.4z"/>
	<path style="fill:#A50101;" d="M114,209.3c0,5.9,2.9,39.7-1.8,39.6c-5.2-0.1-9.5,20.4-13.8,20.9c-10,1.2-19.5,41.3-29.2,39.9
		c-5.8-0.9-13.8-92.5,3.7-93.4c4.7-0.3,23.4-28.8,23.5-32.3c0.2,0,16.6-20.2,17.9-8.9C114.6,177.5,114,209.3,114,209.3
		C114,219.6,114.1,209.3,114,209.3z"/>
	<path style="fill:#A50101;" d="M161.1,40.5c0,13.2,5,48.1-10.7,56.4c-7.3,3.9-18.4,38.5-28,36.7c-5.6-1-10.1-83.8,4.6-89.1
		c3.7-1.3,26.6-46.5,33-44.5C164.1,1.3,161.1,35.3,161.1,40.5C161.1,52,161.1,33,161.1,40.5z"/>
	<path style="fill:#A50101;" d="M161.1,224.7c0,7.4,4.6,60.8-13.3,61.6c-4.9,0.2-15.6,36.9-22.4,36.6c-6.4-0.3-2.6-45.5-7.5-42.7
		c1.8,0.5,3.5,1.3,4.9,2.6c0.6-12.1-13.1-36.6,8.5-44.7c8.4-3.1,16.5-42.4,27.2-42.5C165.7,195.4,158.3,224.7,161.1,224.7
		C161.1,232.2,161.1,224.7,161.1,224.7z"/>
	<path style="fill:#A50101;" d="M120.1,276.1c-0.4,1.2-3.4,4.9-3-1.1C117.5,269.8,120,275.1,120.1,276.1
		C119.9,276.9,119.9,274.9,120.1,276.1z"/>
</g>
<g>
</g>
<g>
</g>
<g>
</g>
<g>
</g>
<g>
</g>
<g>
</g>
<g>
</g>
<g>
</g>
<g>
</g>
<g>
</g>
<g>
</g>
<g>
</g>
<g>
</g>
<g>
</g>
<g>
</g>
</svg>
