<?xml version="1.0" encoding="utf-8"?>
<!-- Generator: Adobe Illustrator 17.0.0, SVG Export Plug-In . SVG Version: 6.00 Build 0)  -->
<!DOCTYPE svg PUBLIC "-//W3C//DTD SVG 1.1//EN" "http://www.w3.org/Graphics/SVG/1.1/DTD/svg11.dtd">
<svg version="1.1" id="Layer_1" xmlns="http://www.w3.org/2000/svg" xmlns:xlink="http://www.w3.org/1999/xlink" x="0px" y="0px"
	 width="476.2px" height="532.4px" viewBox="0 0 476.2 532.4" style="enable-background:new 0 0 476.2 532.4;" xml:space="preserve"
	>
<g id="rafszul.svg">
	<path style="fill:#010101;" d="M190.3,0c1.3,0,2.7,0,4,0c3.3,5,9.4,3.8,13.8,6.3c6.6,3.6,12.9,5.6,19.3-0.7c1.5-1.4,3.9-2,6-2.6
		c2.9-0.8,5.9-0.8,7.5,2.5c2.4,5,6,5.3,10.4,2.9c5-2.6,10-2.1,15.4-1c9.9,2.1,19.3,6.5,29.7,6.5c1.8,0,3.4,0.7,4.6,2.2
		c3.7,4.4,7.8,3.8,11.6,0.4c3.5-3.1,6.8-3.9,10.7-1.3c2.7,1.9,5.4,1.3,8.2,0.4c7.8-2.5,12.4-1.1,14.6,6.6c2.4,8.3,8,10.1,15.2,11.1
		c8.9,1.2,17.4,4.1,24,10.3c7.2,6.8,13.8,14.3,20.6,21.5c0,4.8-0.1,9.4,2.3,14.1c5.8,11.5,4.6,15.4-5.8,22.8
		c-0.1,0.1-0.1,0.4-0.3,0.7c0.1,2.7,2.1,3.4,4.5,3.6c11,0.7,21.3,3,27.7,13.3c0.1,0.1,0.4,0.1,0.6,0.1c1,1.7,2.1,3.3,3.1,5
		c-0.3,1.7,0.8,2.8,1.7,4c3.8,5.4,2.4,11.5-3.4,14.7c-1.1,0.6-2.4,0.9-3,2.2c-4.1,0-6-2.4-7.4-6c-2-5-3.7-5.3-8.6-1.9
		c-0.4,0.5-0.7,1.1-1.1,1.6c-1.9,2.8-1.9,5.7,0.1,8.5c0.3,1.5,1.2,2.4,2.7,2.7c5.3,4.8,11.4,3.3,17.4,2.2c9.2,4.4,14,14.3,12.5,24.2
		c-1.1,7.6-1.6,15.8,2.5,22.6c3.8,6.3,4.2,12.1,2.4,18.7c-1.9-0.2-3.9-0.6-5.4,1.2c-3.6,4.7-2.9,9.7-1.1,14.7c0.5,3-0.1,6.3,2.5,8.8
		c1,5.2,2.7,10.6-3.1,14.4c-0.8,0.5-1,1.8-1.5,2.8c-4.3,1.2-8.3,2.7-10.2,7.2c0.8,4.7,1.6,9.3,2.4,13.6c-1.2,2-2.8,3.4-4.4,3.3
		c-7.3-0.1-7.9,4.8-8.1,10.1c-0.1,2,0.3,3.9,0.4,5.9c0.1,7.1,0.1,14.1-6.2,19.2c-0.5,0.4-0.5,1.6-0.7,2.4l0.2-0.1
		c-9.6,0.1-10.3,0.8-10.7,10.6c-1.3,2.9-3.9,5.5-6.3,6.2c-7.8,2-10.5,8.4-13.9,14.4c-1.5,1.2-3,2.4-4.5,3.7c-1.6,1.7-7.6-0.9-4.9,5
		c-3.4,2-7,3.3-11,3c-0.7,0.1-1.4,0-2,0.3c-11.6,4.5-23.1,9.4-35.6,11c-5.9,0.8-11.9,1.7-17,4.7c-7.1,4.3-14.2,7.4-22.8,6.7
		c-4.6-0.4-8.8,1.7-9.1,7.4c-0.1,2.2-1.3,3.4-2.9,4c-4.7,1.8-6.5,5.2-6.8,10.1c-0.2,2.8-1.5,5.5-2.5,8.2c-1.7,4.9-2.6,9.5,2.8,12.8
		c1.6,1,1.4,2.6,1.6,4.1c-0.6,2.2-1.9,4.1-1.4,6.5c5.3,2.8,10.9,0.6,16.4,1.4c-0.1,1.7-0.2,3.5-0.3,5.2c-3.8,7.9-5.6,16.7-11,23.9
		c-2.7,0.6-5.2,1.4-6.6,4l0,0c-0.5,0.4-0.9,0.9-1.4,1.3c-10.8,7.3-22.8,11.3-35.3,14.3c-4.5,1.1-7.4,0-7.5-5.3
		c-0.1-1.9-1.2-2.7-3-2.5c-1.7,0.2-2,1.4-1.9,2.8c-2.8,3.7-3,9.9-10.1,9.4c-21.1-1.5-42.6,3-63.5-2.9c-6.2-1.7-12.5-3.5-18.6-5.9
		c-5.7-2.2-10-6.8-15.9-8.4c-1.4-1.8-3.3-1.4-5.1-1.3c-3.6-2.7-7.1-5.3-10.7-8c0.7-5.2-2.5-5.9-6.5-5.6c-4.8-6.8-11-12.8-13.3-21.2
		c1.3-1.2,2.3-2.9,3.8-3.5c4.1-1.7,4.5-8.3,10.3-7.4c1.9,1.5,0.8,4.3,2.6,5.8c1.5,4.1,3.8,7.4,7.9,9.3c3.2,4.1,6.9,7.2,12.5,6.8
		c0.2,0.6,0.4,1.3,0.7,1.8c0.9,1.6,2.1,3,4.1,2.5c1.4-0.4,2-1.6,1.9-3c-0.1-2.7-1.9-3.1-4.1-3c-0.6,0-1.3-0.3-1.9-0.5
		c-0.9-3.9-6-2.7-7.5-6.1c0.5-1.4,0.9-2.8,1.4-4.2c2.2,0,4.4-0.1,6.6-0.1c3,2.1,5.9,3.1,8-1.1c5.1-0.2,10.1-2.7,15.1-1.3
		c5.9,1.7,11.4,0.6,17-0.7c2.2-0.5,4.3-0.6,6.5-0.3c0,0.8,0,1.5,0,2.3c0,1.1,0.2,2.1,1.3,2.7c0.2,1.1,0.3,2.3,1.7,2.4
		c1.8,0.2,2.1-1,2.3-2.4c0-0.9,0-1.8,0-2.7c1-0.5,1.3-1.3,1.4-2.4c0.5-0.5,1-1.1,1.5-1.6c3.9-1.2,2.3-3.8,1.8-6.2
		c-3.2-0.5-6-1.5-7.8,1.8c-4.8-2.3-10.7-3.3-11.6-10.1c-2.7-7.4-2.7-14.8-0.2-22.3c7-2.7,4.5,10.2,12.4,8.1
		c-5.7-6.7-5.9-13.1-3.2-20.5c2.5,1.3,4.6,3.3,7.4,2.5c0.4,0,0.7,0.1,1.1,0.1c0,3.6,0,7.1,0,10.7c-4.8,2.3-4.8,4.2-0.1,8
		c1.9,2.7,3.8,5.3,5.7,8c0.2,1.4,1.1,2.2,2.4,2.6c4.6,4.9,10.1,3,14.9,1.2c6-2.2,10-9.9,9.4-15.5c0.4-3.2,0.7-6.3,1.1-9.5
		c1.3-3.7,5.6-5.2,6.6-9.1c3.6-3,7.8-2.3,11.9-2.2l-0.1,0.4c0.3,1.8-0.7,4,1.4,5.4c-0.2,2.5,0.5,4.8,1.6,6.9
		c1.3,2.3,2.2,5.7,6.2,3.5c3.8,0.4,8,1.8,9.2-3.9c2.4-0.7,3.3-3.3,5.9-4c2.6-0.7,2.5-3.2,1.1-5.3c-3.2-4.6-7.8-6.8-13-8.1
		c-1-0.9-2.1-1.8-3.1-2.7c-0.6-3.4-3.3-2.1-5.3-2.4c-1.3-3.8,2.7-6.2,2.5-9.7c0.2-2-0.1-3.5-2.7-3.4c-1.9,0.1-4.2,0.6-5.6-1.3
		c-3.4-4.6-8.2-4.5-13.1-4.2c-3.4,0.3-6.2-1.2-9.1-2.5c-1.7-1.1-3.4-2.1-5.1-3.2c-0.2-1.8-0.4-3.5-0.6-5.3c3.3-4.8,9.3-4.8,13.7-7.8
		c2.2,0,4.4-0.1,6.7-0.1l0.5,0.2l0.6,0c3.9,4.6,11.7,0.7,14.4,7.3c2.7-2.5,4.1-4.6,4.1-7.4c1.3-2.2,3.8-2.5,5.7-3.8
		c4.7-1.5,7.2,2.2,10.4,4.3c1,2.2,2.5,3.9,3.1,6.7c0.7,3.5,1.8,7.3,4.2,10.6c4.6,6.4,11.2,7.8,18.4,9.2c-0.4,3.9,1,7.2,2.6,10.3
		c-0.1,1.8-0.2,3.9,2.2,4c2.5,0.1,4.2-1.2,3.9-4.1l0.3,0.1c5.3,3.5,9.6,1.8,13.4-2.7c0.6,3.3,2.5,3.5,4.4,1.4
		c2.7-3.1,5-6.7,2.8-11.2l0.4,0.1c1.7,0.3,3.1,1.7,5.1,1.1c0.5-2.3,1.1-4.6,1.7-6.9c0.5-2-0.4-2.9-2.3-3c-0.1-0.7-0.3-1.3-0.4-2
		c0.6-2.4,1.1-4.8,1.7-7.2c1.4-0.2,3.2,0.5,3.7-1.7c-0.8-1.9-1.9-2.9-3.8-1.1c-1.2-0.4-2.5-0.9-3.7-1.3c-5.4-3.1-11.3,0-17-1.3
		c3.1,4.1,7.7,1.9,11.6,2.7c0.7,4.1-1.2,6.5-5,7.6c-1.5,0.4-2.9,0.9-3.4,2.5c-2.2-4-7-4.1-10.1-6.8c-2.1-4.8-4.8-8.7-11.1-7.4
		c-3-1.2-5.2-3.6-7.5-5.8c-3.9-6.6-3.9,2.5-6.4,1.6c-1.2-2.1,1.2-5.6-2.6-6.7c-0.3-0.4-0.6-0.8-0.9-1.2c0.2-2.9,0.3-5.8-3.5-6.7
		c-2.1-1.3-0.9-3.5-1.3-5.2c1.1-2.3,4.4-3.4,3.9-6.7l0.6,0.2c3.4-0.1,3.8-2.1,3-4.9c0.1-0.5,0.1-1,0.2-1.6c1.8-2.7,1.6-5.7,1.6-8.7
		c0-4.1,0.5-8,2.6-11.6c0.9,0.1,1.8,0.2,2.6,0.2c5.1,0.6,4.7-3.9,4.6-6.2c0-2.8,0.5-4.8,1.9-7.1c2,1.5,2.1,5.8,5.5,2.5
		c1.9,1.2,4,1,6.1,0.9c1.2,0.3,2.3,0.3,3.2-0.7c1.3-0.1,2.5-0.2,3.8-0.3c0.5,0.1,1,0.2,1.5,0.3c0.9,1.1,2.1,1,3.2,0.5
		c1.1,0,2.2,0.1,3.3,0.1c7.7,4.9,11.2,4.1,16.1-3.6c1.9-0.1,3.4-0.8,4.3-2.6c1.7-0.1,4.2-0.2,3.3-2.7c-1.5-3.9-2.3-8.7-7.8-9.3
		c-0.8-4.8-0.9-9.7-0.2-14.5c0.8-5.2-1-9.3-4.2-13.3c-4-5.1-9.5-8.4-13.9-13.1c-2.6-2.8-3.1-6.9-6.3-9.1c-10.3-7-22-11.2-33.8-13.6
		c-8.5-1.7-17.6-0.1-26.4,0c-6-0.7-11.7,0.6-17.4,2.3c-1.1,0.1-2.4-0.1-3.2,0.4c-8,4.7-14.9,10.9-20,18.4c-3.8,5.5-8.3,6.4-13.9,5.6
		c-2.8-0.4-5.3-0.6-6.7,2.4c-2.2,0.8-3.7,2.3-4.7,4.4c-0.6,0.3-1.1,0.6-1.7,0.9c-5.8-0.7-3.9,3.6-4.3,6.5c-0.6,1.2-2,2-1.7,3.5
		c-1,1.9-1.8,3.9-1.9,6.1c-0.7,1.6-1.3,3.1-2,4.7c-1.7,1-1.9,2.7-1.9,4.4c-0.5,2.6,0.2,5.4-0.9,8c-0.9,0.5-0.8,1.5-1.1,2.2
		c-3.1,6.7-2.7,14.9-9.2,20c-11.5,8.9-13.4,20.9-11,34.2c6.2,1.9,5.7,1.9,5.4,7.6c-0.3,7-5.5,10.7-8.9,15.7
		c-2.2,1.4-4.1,3.8-6.9,3.7c-11.7-0.4-22.5,6.4-34.3,4.6c-0.9-0.1-1.8-0.3-2.7-0.4l0,0c-3.5-5.3-4.9-11.1-4.2-17.5
		c0.6-5.5-1.4-9.8-6.6-12.6c-2.6-1.4-5.5-2.9-6.9-5.9c1.1-4.3-1.9-5.8-4.9-7.4c-4.1-2.5-6.1-6.9-9.2-10.3c0.1-2.8-1.5-4.6-3.5-6.2
		c-3.1-3.9-1.9-8.9-3.2-13.3c0.4-3.3,0.8-6.6,1.2-10.1c-2-0.4-3.6-0.7-5.3-1.1c-2.5-2.1-2.7-5.6-4.7-8c-1.2-6.4-1.3-12.8,1.3-18.9
		c3.6-3.4,3.3-7,0.5-10.6c-2.2-2.9-3.7-6-2.9-9.8c10.5-10.3,10.5-10.3,0.8-21.9c-0.4-0.5-0.8-1.1-1.3-1.5c-2.1-2.3-2.2-4.6-0.3-7.1
		c3.5-4.7,4.9-10.3,6.5-15.8c1.3-4.4,1.1-9.3,4.6-12.8c5.3,0.7,8.8,4.2,12.4,7.6c0.4,0.4,0.9,0.9,1.3,1.3c1.4,1.7,2.8,1.7,5.8,0.3
		c-2.6-0.5-3.8-0.7-5.1-0.9c-0.5-0.5-0.9-0.9-1.4-1.4c-0.1-2.7-1.4-6,2.4-7.3c3.8-1.3,5.9,1,7.5,5.3c1.1-8.3-4.3-8.5-8.6-9.3
		c-5-1-8.8-2.7-9-8.5c2.1-3.3,5.4-6.1,5.4-10.3c0-4.6,2.6-6.6,6.3-8.2c2.2-0.9,4.2-2.4,6.2-3.6c3.3,0.1,4.8-2.2,5-4.9
		c0.3-3,0.1-6.1-0.2-9.1c-0.3-3.1,0.9-4.9,3.9-5.9c7.3-2.4,7.3-2.6,2-8.3c-0.7-0.8-1.2-1.8-1.7-2.7c3.4-3.7,10-4.5,11.2-9.8
		c1.9-8.4,7.1-14.5,11.5-21.4c3.2-5,7.3-8.1,13-7.8c9.5,0.6,14.3-4.9,18.8-11.9c5.7-8.8,9.4-9.6,19.3-6.4c4,1.3,8.6,2.7,11.7-2.5
		c4.6-7.6,4.7-7.5,12.8-3.9c6.7,3,10.1,1.5,13.1-5c1.9-4.1,0.6-8.2,0.1-11.5C185.7,1.4,189.3,2.5,190.3,0z M215.7,475
		c0,1.5-2.2,3.2,0.2,4.5c2.6,1.4,4.3-0.1,5.8-2C220.1,474.7,217.4,476.1,215.7,475c-0.3-1.1,1.4-2.3-0.1-3.8c-2-0.4-4.4-1-6.7-1.2
		c-1.8-0.2-3.7,0.4-3.8,2.6c-0.1,2.4,1.3,3.7,3.7,3.5C211.1,476,213.4,475.4,215.7,475z M441.6,191.5c-2.4-5.4-6.9-8.9-10.9-12.8
		c-1.2-1.2-2.9-1-4.3-0.1c-1.4,0.9-2,2.2-1.7,3.9C425.5,187.6,435.6,193.3,441.6,191.5z M407.4,267.9c-0.8,4.7,0.2,8,5,8.7
		c2.2,0.3,4.3-1.1,3.8-3.4C415.2,269.2,412.5,266.8,407.4,267.9z M135.5,465.2c2.7-0.1,3.6-2.2,3.9-4.4c0.2-1.5-0.9-3-2.7-3.1
		c-2.4-0.1-4.5,0.8-4.8,3.4C131.6,463.4,133.3,464.7,135.5,465.2z M245.7,371.4c2.6,4.5,5.1,6.5,10,5.5
		C253.3,373.2,250.8,371.3,245.7,371.4z M146.7,468.1c2.1-0.1,2.7-1.5,2.9-3.1c0.2-1.8-0.8-3-2.6-3.1c-1.8,0-2.7,1.4-2.8,3.1
		C144.1,466.7,144.9,468,146.7,468.1z M85.5,274.2c-1.6,0.5-2.9,1.4-2.7,3.6c0.2,1.7,1.3,2.8,3,2.8c2.1-0.1,2.8-1.9,2.9-3.6
		C88.9,275,87.4,274.3,85.5,274.2z M167.8,48.9c2.6-1.2,3.1-2.9,1.7-4.9c-1.2-1.8-2.9-1.7-4.6-0.5c-0.5,0.4-0.7,1-1,1.5
		C164.5,47,165.7,48.1,167.8,48.9z M298.7,24.5c-2.7-0.9-4.8-0.8-5.5,2.4c-0.3,1.2,0.7,2.2,1.8,2.3
		C298.1,29.4,299.2,27.8,298.7,24.5z M260.7,323.2c5.6,1.5,5.6,1.5,6-3.7C264.1,319.4,262.1,320.1,260.7,323.2z M129.5,458.2
		c-1.6-3.6-3.3-3.8-5.9-1.3C125.1,460,126.9,459.9,129.5,458.2z M110.4,94.4c2.1,2.9,3.8,3.3,6.5,0.8
		C114.7,92.8,113,92.6,110.4,94.4z M320.3,23.9c-1,2.2-1.7,3.7,0.6,5.1C323.4,27.5,323.6,26,320.3,23.9z M228.2,32.7
		c1.3-2.8,0.3-3.9-2.6-4.4C224.7,31,225.4,32.4,228.2,32.7z M234,365.9c2.5,1.8,4.3,1.8,6.8,0C238.4,364,236.6,364,234,365.9z
		 M432.3,217.5c-0.2-0.8-0.5-1.6-1.5-1.7c-1.3-0.1-2.1,0.5-2.1,1.8c0,0.9,0.4,1.6,1.5,1.7C431.5,219.4,432.1,218.7,432.3,217.5z
		 M159.7,469c0-0.9-0.3-1.7-1.3-1.9c-1-0.2-1.8,0.1-2.1,1.1c-0.3,1.3,0.6,2.1,1.7,2.4C158.9,470.7,159.5,470,159.7,469z
		 M171.3,470.7c-0.3-0.3-0.7-0.8-1.2-0.9c-0.9-0.2-1.7,0.4-1.6,1.3c0,0.4,0.7,1.1,1.1,1.1C170.5,472.4,171.3,472.1,171.3,470.7z
		 M223.9,470c1.5,1.1,2.6,1.6,3.6,0.1c0.2-0.2,0-0.9-0.2-1.2C226.1,467.8,225,468,223.9,470z M166,417.2c1.4-1.4,1.4-1.4-0.3-2.9
		C165.3,415.4,165,416.3,166,417.2z M201.3,421.8c1.1,1.2,2,1.5,2.9,0.5c0.2-0.2,0.2-0.9,0-1.1C203.3,420.2,202.4,420.5,201.3,421.8
		z M340.2,303.3c-0.5,1.5-1.3,2.4-0.1,3.3c0.2,0.2,0.9,0.2,1.1,0C342.2,305.7,342,304.8,340.2,303.3z M269,447.3
		c-0.8-0.2-1.1,0.3-1.3,0.9c-0.2,0.7,0.3,1.2,0.9,1.2c0.4,0,1-0.5,1.2-0.9C270.2,447.8,269.6,447.5,269,447.3z M182.5,471.2
		c-1.1,0.3-1.4,0.9-1.2,1.5c0.1,0.3,0.6,0.6,1,0.6c0.7,0.1,1.2-0.3,1.1-1.1C183.3,471.5,182.8,471.1,182.5,471.2z"/>
	<path style="fill:#47CE27;" d="M91.5,430.8c-5.8-0.9-6.3,5.7-10.3,7.4c-1.5,0.6-2.6,2.3-3.8,3.5c-9.1-6.2-15.8-15.1-22.4-23.5
		c-6-7.6-10.3-16.6-14.3-25.5c-1.3-2.9-3.9-4.5-4.7-7.6c-3.4-12.8-9.5-24.9-11.4-38.1c-1.4-9.9-3.4-19.7-3-29.9
		c0.3-9.5,1-18.8,2.2-28.3c1.3-9.8,1.9-19.5,6.9-28.3c1.6-0.2,3.2-0.5,4.8-0.7c1.4,3.1-0.4,7.9,4.9,8.8c1.3,4.4,0.1,9.4,3.2,13.3
		c-0.3,3.2-2.1,6.8,1.8,9.1c3.4,4.2,5.1,10,10.8,12.2c0.4,0.9,0.9,1.8,1.3,2.7c-1.9,2.7,0.4,4.3,2,5.3c6.4,4,7.8,9.9,7.6,16.9
		c-0.3,10.8,0.8,11.8,11.8,13.7l0,0c-0.3,2.2,0.2,3.5,2.7,4.2c2.8,0.8,5.4,2.4,8,3.6c-2.2,1.7-1.1,3.4,0,5.1
		c7.2,10.8,17.4,16,30.1,16.7c1.3-1.8,2.2-3.2,3.2-4.6c-0.4,5,1.7,10.3-1.2,15.1c-1.8,5.9-4.7,11.5-4.3,17.9l0-0.1
		c-1.9,3-6.8,3-7.2,7.5c-2.3,0-4.6-0.1-5.5,2.8c-3,0.7-3.4,2.7-2.5,5.3c-1.1,3.7-2.3,7.4-3.4,11.1C96.4,428.1,92.5,427.2,91.5,430.8
		z"/>
	<path style="fill:#F72301;" d="M166.3,215.7c1.4-3,3.9-2.8,6.7-2.4c5.7,0.8,10.1,0,13.9-5.6c5.2-7.5,12.1-13.7,20-18.4
		c0.8-0.5,2.1-0.3,3.2-0.4c4.3,0,8.6,0.1,12.9,0.1c1.9,0,4,0.3,4.5-2.4c8.8-0.1,18-1.7,26.4,0c11.9,2.4,23.6,6.6,33.8,13.6
		c3.2,2.2,3.7,6.3,6.3,9.1c4.3,4.7,9.9,8,13.9,13.1c3.2,4,5,8.1,4.2,13.3c-0.7,4.8-0.6,9.7,0.2,14.5c-0.3,4.7,4.6,7.4,4.6,12
		c-0.9,1.8-2.5,2.4-4.3,2.6c-5.7-2.4-11.5-4.7-17.2-7.1c-0.3-1.5-1.4-1.9-2.8-2.2c-8.2-1.2-16.3,2.3-24.5,1c-0.1,0-0.4,1.1-0.7,1.7
		c-2.6,0-5.2,0-7.7,0c-2.4,0-4.8,0-7.5,0c-0.2,2.5,1,6-3.4,5.2c-0.7-2.6,1.6-6-1.8-8c-0.7-0.9-1.4-1.8-2.2-2.7c-0.8-1-1.6-2-2.4-3
		c-0.6-1.2-1.2-2.5-1.8-3.7c0.7-5.1-2.5-6.2-6.6-6.4c-2.9-1-5.5-2.9-8.6-3.2c-8.9-3.1-17.9-6-27.2-7.9c-2.3-3.5-5.5-2.4-8.6-1.9
		c-0.5,2.3,1.3,3,1.8,4.4c-0.3,0.3-0.6,0.5-1,0.6c-1-0.1-2.1-0.2-3.1-0.3c-1.4-2.3-3.6-3.3-6.1-3.2c-4.1,0.2-8.2,0.8-12.3,1.2
		c-1.5-0.5-2.8-1.1-3-3c0.3-1,0.7-1.9,1-2.9C170.9,220.5,165.4,218.4,166.3,215.7z"/>
	<path style="fill:#D21104;" d="M30.5,260.5c-5,8.8-5.6,18.5-6.9,28.3c-1.2,9.4-1.9,18.8-2.2,28.3c-0.3,10.2,1.7,20,3,29.9
		c1.9,13.3,8,25.3,11.4,38.1c0.8,3.1,3.4,4.8,4.7,7.6c4,8.9,8.3,17.9,14.3,25.5c6.7,8.4,13.3,17.3,22.4,23.5
		c2.2,8.4,8.4,14.4,13.3,21.2c0.8,3.5,2.9,5.3,6.5,5.6c3.6,2.7,7.1,5.3,10.7,8c2.3,7.5,6,14,13.1,18c1.4,0.8,4,0.7,1.5,3.2
		c-0.8,0-1.7-0.1-2.5-0.1c-0.9,0-1.8-0.1-2.7-0.1c-6.8-4.3-14-7.8-21.5-10.8c-10-5.4-18.1-13.2-26-21.1c-4.7-4.6-9.2-9.4-14.1-13.8
		c-5-4.5-8.6-10.5-13-15.7c-20.7-24.6-33.1-53.1-39-84.3c-4.5-23.6-4.7-47.3-1-71.1c3-19.3,9.4-37.4,17.2-55.1
		c0.7-1.5,1.6-2.6,2.9-3.5c2.1,1.7,1.2,4.1,1.3,6.2c0,2.6,0.2,4.9,3,5.9c0.1,5.8-0.8,11.8,2.7,17.1C30.5,254.4,29,257.6,30.5,260.5z
		"/>
	<path style="fill:#464646;" d="M438,124.8c11.3,5.1,18.1,14.2,22.9,25.4c1.5,3.5,2,6.5,0.5,10.1c-2.8,6.4-2.2,12.2,2.7,17.7
		c5,5.6,7.5,12.5,6.6,20.1c-0.9,8.5,0.3,16.8,3.5,24.7c2.5,6.3,2.8,12.3,0.5,18.7c-2.5,7-3,14.2-1.5,21.6c1.7,8.5,0.2,16.3-6.3,22.6
		c-2.3,2.2-4,4.9-4.2,8.1c-0.3,6.9-3.3,12.6-7.6,17.9c-2.2,2.7-3.9,6.1-4.1,9.7c-0.8,12.1-8.5,20.1-15.6,28.9
		c-6.5,8.1-14.6,14.7-19.9,23.8c-1,0.4-2,0.8-3,1.2c-0.2-2.4,1.1-4.1,2.5-5.8c3.1-3.8,4.8-8.3,5.5-13.2c1.6-11.3,1.4-22.7,1.4-34.1
		c1.2-1.5,2.6-2.9,3.5-4.6c2.9-5.2,6.3-10.4,3.1-16.8c0.5-2.7-0.3-5.7,2.8-7.6c7.3-4.6,11.6-10.6,8.6-19.8c-0.3-0.9,0.3-2.1,0.5-3.2
		c2.5-2.9,5.4-5.6,7-9.2c3.2-0.2,4.6-2.5,5.4-5.1c1.8-5.6,1.1-11.1-1.9-16.3c-0.8-7.3-1.6-14.7,2.9-21.3c1.8-6.6,1.4-12.4-2.4-18.7
		c-4.1-6.8-3.6-14.9-2.5-22.6c1.5-9.9-3.3-19.7-12.5-24.2c1.6-3.5,1.3-6.1-3-7c0.5-1.4,1.8-1.6,3-2.2c5.8-3.2,7.2-9.4,3.4-14.7
		C438.8,127.6,437.7,126.5,438,124.8z"/>
	<path style="fill:#F72301;" d="M214.1,335.3l-0.6,0l-0.5-0.2c-0.6-2.5-0.9-5.5-4.5-5c-3.2,0.4-1.9,3.2-2.2,5.2
		c-4.3,3-10.4,2.9-13.7,7.8c-1.9,0.4-2.3,1.7-2.1,3.4c0.2,1.7,1.4,2,2.8,1.9c1.7,1.1,3.4,2.1,5.1,3.2c0.5,2.4,1.8,4.7,1.3,7.4
		c-1.7,0.2-3.5,0.4-5.2,0.7c-1.9-4.6-5.9-4.6-9.7-3.8c-2.4,0.5-4,2.7-3.6,5.5c0.4,2.7,2.4,3.4,4.8,3.3c2.4,0,4.8,0,7.2,0
		c0.8,0.2,1.7,0.3,2.5,0.5c0.4,1.7,1,2.8,2.6,0.9c1.8,0,3.6,0,5.3-0.1c1.1,4.1,4.8,3.4,7.7,4c0.5,0.4,1.1,0.7,1.6,1.1
		c1.1,2.7-3.1,5.4,0,8.2c-0.8,1.9-3.1,3.2-2.5,5.7c-1,3.9-5.3,5.4-6.6,9.1c-6.2,0.7-3.4,5.5-3.9,8.7c-0.7,6.1-4.9,13.6-8.4,13.5
		c-4.5-0.1-8.6,1.7-13,1.5c-1.3-0.5-2.2-1.2-2.4-2.6c1-0.3,2.1-0.7,3.1-1c6.4-1.5,10.9-6.7,11.1-13c0.1-2.3,0.4-4.9-3.1-5.4
		c-2,3.4,0.1,7.2-1.5,10.5c-4.2-0.5-8.7-0.3-9.6-5.9c1-1.4,3.3-1.9,3.1-4.5c-3.8-2.6-3.9-6.2-2.6-10.7c1.9-6.7-0.9-11.1-7-11.8
		c-0.8,2.7,1.1,4.5,1.9,6.7c0.5,1.5,2.6,2.9,0.3,4.6c-1.3-0.4-2.7-0.9-4-1.3c-2.2-1.6-2.4-5.9-6.5-5.1c-4-3-4.9-0.5-5.2,3
		c-0.3,0.3-0.7,0.7-1,1c-1.8-0.3-3.8,0-4.8-2c0-1.5,0-3.1,0-4.6c2.6-1.9,4.2-5.1,7.7-5.8c4.4,3.2,7.7,2.3,10.5-3.1
		c-2.7-1.3-5.5-0.4-8.3-0.7c-1.2-3.2-1.8-6.7,0.1-9.6c2.6-4.2,3.7-8.8,5.5-13.2c2.6-0.6,4.4,2,7.1,2.3c0.5-3.7,0.2-6.4-3.6-7.4
		c-0.1-1.3-0.2-2.5-0.3-3.8c3.8-2.8,2.5-7.1,3-10.9c4.6,0.2,5.2-5.4,9.6-5.7c-4.4-4.9-6.6-4.7-8.3,0.4c-0.4,1.1-0.6,2.1-1.6,2.7
		c-1.2-3.3,1.6-8.1-3.8-9.8c0.3-2.2-0.5-3.9-2.4-5c-0.1-1.3-0.1-2.6-0.2-3.9c1.1-0.1,2.2-0.1,3.2-0.2c3.7,1.3,7.9,0.9,11.3,3
		c4.5,5.4,8.9,1.9,13.3-0.2c0.5-1.3,1.8-1.2,2.8-1.6c1.9,0.3,3.5,0.4,3.6-2.2c0.9-0.1,1.7-0.2,2.6-0.2c2.6-0.2,4,2.6,6.4,2.7
		c3.5-0.5,4.5-5,8.1-5.1c2.3,0,3.6,3.7,6.9,1.4c-1.3-2.3-2.6-4.6-3.9-7c5.9-4.3,10.8-9.7,16.2-14.5c4.2,0.4,4-2.5,3.9-5.3
		c0.4-2.4,0.5-5,2.6-6.7c0.9,0.1,1.8,0.1,2.7,0.2c0.6,2.3,1.3,4.6,0.5,6.7c1.3,1.8,4.5,0.3,4.5,3.5c-1.8,3.6-6.4-0.2-8.7,3
		c1.6,4.5,8.5,6.4,6.8,12.9c-3-0.5-5.1-4.1-8.7-0.6c3.2,4.9,9,4.4,13.5,6.3c0,1.3,0.4,2.4,1.8,2.9c-0.4,1.3-0.8,2.6-1.2,3.9
		l-0.6-0.2c-4.2,1.2-6.9,3.5-6.4,8.4c0,0.3,0,0.7-0.2,1c-4.3-0.5-4.1,2.4-4,5.3c-2.3,2-4.5,4.3-7.8,5.1c1.2,2.9,4.8,3.8,3.8,7.1
		c-1.9,1.3-4.4,1.7-5.7,3.8C226.4,337.9,220.2,334,214.1,335.3z M222.7,324.3L222.7,324.3c-0.3,1.3-0.2,2.6,1.6,2.8
		c1.4,0.1,1.8-0.9,2-2c0.1-0.4,0.3-0.7,0.8-0.7c2.9,0.3,4.5-1.2,5.7-4.2c-3.7-3.6-4.7-8.9-7.1-14.7c-3.4,3.6-6.7,0-10.7,0.9
		c-0.2,5.9-6.7,6-9.6,9.6l0.1,0.3l-0.3,0.3c-4.7,1.1-2.8-3.4-3.9-5.1c-3-0.1-4.4,1.4-5.2,3.6c2.5,4.2,3,9.6,8.1,12
		c2-0.3,3.8-1,4.9-2.8c1.3,0.9,2.6,1.8,3.9,2.7c0.5,4.7,4.2,2.3,6.6,2.9c0.5,3.1,1.6,2.5,3,0.2c-1-0.1-2-0.1-3-0.2
		c-0.5-1.4-1-2.8-1.4-4.2c0.3-1.1,1-1.6,2.1-1.4C221.1,324.4,221.9,324.3,222.7,324.3z M238.4,302.8c-4.1,4.4-5.6,8-1.5,13.3
		C239.7,311.5,242.7,308.1,238.4,302.8z M187.5,322.7c5.6,4.3,5.7,4.3,8.9,0.1C193.8,321.4,191.1,321.8,187.5,322.7z M169.4,354.6
		c-0.2,2.6,0.2,4.4,2.9,4c0.6-0.1,1.6-1.2,1.5-1.8C173.6,354.3,172.1,353.6,169.4,354.6z M194.9,330.4c-3.6-0.2-6.3-1.9-7.1,2.4
		C190.5,334.6,192.2,333.2,194.9,330.4z M183,394.5c2.3-2.7,2.5-4.3,0-6C180.5,390.1,180.7,391.7,183,394.5z M194.4,371.1
		c-2.7-1.6-4.5-1.7-6.5,0.1C190.1,373,191.8,372.8,194.4,371.1z M177.1,346.5c2.6,0.4,3.9-0.2,4.9-2.6
		C179.6,343.4,177.6,342.5,177.1,346.5z M176.1,362.4c-1.7,0-2.5,0.7-2.6,1.9c-0.1,1.6,0.8,2.4,2.6,2.3
		C177.1,365.4,177.4,364.1,176.1,362.4z M208.2,306.4c-2.4,0.6-2.9,2.1-2.6,4c1.2,0.7,1.9,0.2,2.5-0.4
		C208.8,309.1,209,308.2,208.2,306.4z M176.3,334.5c-0.3,1.2-1,2.4,0.9,3.1c0.9,0.3,1.9,0.1,2-1C179.2,335,178.2,334.4,176.3,334.5z
		 M184.3,312.2c-0.1,1.1,0.6,1.6,1.5,1.7c1,0,2.3,0.2,2.5-1.7C187,311.3,185.7,310.9,184.3,312.2z M178.9,326.8
		c1.4,1.4,1.4,1.4,2.7-0.1C180.7,325.8,179.8,326,178.9,326.8z"/>
	<path style="fill:#330502;" d="M226,485.3c0,5.2,3,6.4,7.5,5.3c12.5-3.1,24.6-7.1,35.3-14.3c0.3,0.2,0.7,0.3,1,0.5
		c0.1-0.6,0.2-1.2,0.4-1.8l0,0c3.3,0,6.8,0.4,8-3.9c6.7-2.2,12.2-6.5,18.6-9.3c2,5.6,6.8,3.4,10.7,3.9c0.1,0.4,0.3,0.9,0.4,1.3
		c-2.7,3-3.7,6.9-5.3,10.4c-0.9,1.9-0.6,4,2.3,4.3l0.2,0.1c-0.5,2.5-2.2,4-4.1,5.4c-5.4,1.3-9.7,5.4-13.5,8.6
		c-11.4,9.5-24.3,12.4-38.4,12.4c-0.6-4.2-3.6-4.7-7.2-4.9c-1.3,5.7-4.9,8-10.4,7.7c-2-0.1-4.6-0.7-5.1,2.5c-3.1,0-6.2,0.1-9.3,0.1
		c-3-1.5-5.9-3.1-8,1.2c-7.5,0-15,0-22.5,0c-0.4-0.7-0.8-2-1.3-2c-8.7-0.4-16.8-3.8-25.4-4.5c-0.6-1.2-1.6-2-3-2.4
		c-7.9-2.1-15-5.7-21.9-10c-4.6-2.8-9-6-13.8-8.4c-4.3-2.1-7-5.1-8.2-9.6c5.9,1.6,10.2,6.1,15.9,8.4c6.1,2.4,12.3,4.2,18.6,5.9
		c20.9,5.9,42.3,1.4,63.5,2.9c7.1,0.5,7.3-5.7,10.1-9.4C222.7,485.5,224.3,485.4,226,485.3z"/>
	<path style="fill:#12350A;" d="M273,433.8c-0.2-1.5,0.1-3.1-1.6-4.1c-5.4-3.3-4.5-7.9-2.8-12.8c0.9-2.7,2.3-5.4,2.5-8.2
		c0.3-4.9,2.1-8.3,6.8-10.1c1.6-0.6,2.8-1.8,2.9-4c0.3-5.7,4.5-7.8,9.1-7.4c8.7,0.7,15.7-2.4,22.8-6.7c5.1-3.1,11.1-4,17-4.7
		c12.5-1.6,24-6.5,35.6-11c0.6-0.2,1.3-0.2,2-0.3c-3.2,6.6-3.5,14.2-7.5,20.8c-1.5,2.5-4.6,4.7-4.5,8.3c0,0.8,0,1.6-0.1,2.4
		c-0.6,0.3-1.1,0.6-1.7,0.8c-6.7-1-13.1-1-19.3,2.6c-6.3,3.7-13.3,6-20.8,5c-2.6-0.3-4.5,0.8-6.6,2.4c-10.3,7.9-14.8,18.8-16.8,31.1
		c-0.3,1.5,0,3.2-2,3.6c-5.4-0.8-11.1,1.4-16.4-1.4C276.4,439.1,276.7,438,273,433.8z"/>
	<path style="fill:#F32403;" d="M150.1,380c1,2,3,1.8,4.8,2c-0.5,2.9-4,3.6-4.5,6.4c-0.3,0.2-0.4,0.5-0.2,0.9
		c-2.3,1.1-3.1,3-3.2,5.4c0,6.2-0.7,12.4,1.4,18.4c1,2.7,0.7,6.5,4.6,7.5c0.9,6.8,6.7,7.8,11.6,10.1c0,0.3,0.2,0.5,0.4,0.6
		c0.4,1.6,0.9,3.2,1.3,4.8c-1.3,0.2-2.6,0.5-3.9,0.7c-2.2-0.4-4.3-0.2-6.5,0.3c-5.6,1.3-11.1,2.4-17,0.7c-5-1.5-10,1.1-15.1,1.3
		c-3-1.8-5.6-0.9-8,1.1c-2.2,0-4.4,0.1-6.6,0.1c-6.3-2.8-7.9-7.5-5.5-13.8c0.8-2.2,0.9-4.7,1.8-6.9c0.8-2.1,0.6-3.8-0.7-5.5
		c-0.1-1.3-0.2-2.6-0.2-4c0.9-2.8,3.2-2.7,5.5-2.8c1.7,1.9,3.7,2,6.3,1.2c0.3-2.8,1.8-5.6,0.9-8.7l0,0.1c4.4-5.3,6.2-11.2,4.3-17.9
		c2.8-4.8,0.8-10.1,1.2-15.1c2.3-3.7,0.4-8,1.8-11.8c0.5,0.3,1.1,0.7,1.6,1c-0.3,3.7,0.7,7,3.1,9.8c0.3,5.9,7,5.3,8.8,9.5
		c2.7-0.8,4.2-3.5,6.9-2.6c0.2,0.4,0.3,0.9,0.5,1.3c-0.3,1.9-0.6,3.8,0.3,5.5C147.2,380.7,148.7,380.2,150.1,380z"/>
	<path style="fill:#1A1A1A;" d="M421.8,322c0,11.4,0.3,22.8-1.4,34.1c-0.7,4.9-2.4,9.3-5.5,13.2c-1.4,1.8-2.7,3.5-2.5,5.8
		c-7.1,7.9-16.5,9.6-26.5,9.5c1.4-2.9,2.2-6.1,3.4-9.2c2.6-6.5,5.8-13.3,1.5-20.5c1.6-3.9,4.3-6.8,7.6-9.4c4.8-3.7,10.1-7.1,12.7-13
		c2.5-3.6,5-7.1,7.5-10.7l-0.2,0.1C419.6,322,420.7,322,421.8,322z"/>
	<path style="fill:#EA2305;" d="M277,372.4c-1.7-3.1-3-6.3-2.6-10.3c-7.2-1.4-13.8-2.8-18.4-9.2c-2.4-3.4-3.5-7.1-4.2-10.6
		c-0.6-2.7-2.1-4.5-3.1-6.7c1.1-2,3-2.6,5.1-3.1c1,2.1-1.8,4-0.2,6.3c5.3-1,6.1-6.8,10-9.3c2.3,2.2,4.5,4.6,7.5,5.8
		c3.9,2.2,5.1,8.4,11.1,7.4c3.1,2.6,8,2.7,10.1,6.8c0.2,0.5,0.4,1,0.6,1.6c-2.7,4.3,1.9,7.9,1.2,12c-2.8,2.2-2.4,5.7-3.1,8.6
		c-2.9,0.2-5.7-4-7.7,0.8l-0.3-0.1C281.1,372.4,279.1,372.4,277,372.4z"/>
	<path style="fill:#464646;" d="M405.9,65.2c2.9,0.3,4.5,2.5,6.2,4.5c1.4,1.7,2.7,3.5,4.1,5.1c5.6,6.1,10.9,12,12,21.1
		c0.9,8.2,6.5,15.4,6.6,24c-0.2,0-0.6,0-0.6-0.1c-6.4-10.3-16.7-12.6-27.7-13.3c-2.4-0.2-4.3-0.9-4.5-3.6c0.1-0.4,0.1-0.6,0.3-0.7
		c10.4-7.4,11.6-11.3,5.8-22.8C405.8,74.6,405.9,70,405.9,65.2z"/>
	<path style="fill:#330502;" d="M390.8,355c4.4,7.1,1.2,14-1.5,20.5c-1.2,3-2,6.2-3.4,9.2c-0.3,0.2-0.7,0.3-1.1,0.4
		c-2.3-3-4.8-1.9-7.6-0.7c-7.3,3.2-15,5.4-22,9.3c-0.1-3.6,3-5.8,4.5-8.3c4-6.5,4.3-14.1,7.5-20.8c4,0.4,7.6-1,11-3
		c2.1,0.2,4-0.3,5.3-2c2.2-0.7,3.8-2.2,4.9-4.2C389.3,355.3,390.1,355.2,390.8,355z"/>
	<path style="fill:#34901E;" d="M288,441.8c2.1-0.4,1.8-2.1,2-3.6c2-12.3,6.5-23.2,16.8-31.1c2.1-1.6,4-2.8,6.6-2.4
		c7.6,1,14.5-1.2,20.8-5c6.2-3.7,12.6-3.6,19.3-2.6c-0.9,1.2-1.8,2.3-2.7,3.5c-6.5,0.9-12.8,2.3-18.6,6c-4,2.5-8.2,5-13.5,4.7
		c-7.6-0.5-13.3,2.4-15.5,10.3c-0.6,2.1-2.4,3.1-3.6,4.6c-8.7,10.6-7.5,22.7,3,30.5c-0.5,0.8-0.9,1.5-1.4,2.3
		c-0.3-0.1-0.6,0-0.9,0.2c-1.6,0-3.5,0.1-4.1-1.5c-1.7-4.6-6-6.8-8.6-10.6C287.8,445.2,287.9,443.5,288,441.8z"/>
	<path style="fill:#1A0705;" d="M259.8,258.2c2.6,0,5.2,0,7.7,0c3.9,4.5,8.6,3.4,12.3,0.6c3.1-2.3,6-2.2,9.3-2
		c2.2,0.1,4.2,1.6,6.4,0.9c5.7,2.4,11.5,4.7,17.2,7.1c-4.9,7.7-8.4,8.5-16.1,3.6c0.8-1.2,2.5-2.5,0.3-3.7c-3.2-1.9-6.6-3.7-10-0.2
		c-2.4,0.1-4.8,0.2-7.2,0.3c-2,0.1-4.1-0.1-4.3,2.7c-3.4,3.3-3.5-1.1-5.5-2.5c-1.4,2.3-1.9,4.3-1.9,7.1c0,2.3,0.4,6.9-4.6,6.2
		c3.1-5.4-0.2-8.8-3.8-12.2c-0.9-2.1-0.8-4.4-0.7-6.6C259.3,259.1,259.5,258.6,259.8,258.2z"/>
	<path style="fill:#F32403;" d="M212.9,379.2c-3-2.7,1.1-5.4,0-8.2c1.6-0.3,3.1-0.4,4,1.4c2,5.5,6.5,1.8,9.7,2.7
		c0.7,0.2,1.5,0.3,2.2,0.5c0.9,3.6,3.7,2,5.8,2.2c5.2,1.3,9.9,3.5,13,8.1c-2.8,2.8-7.9,3.8-7,9.3c-1.2,5.7-5.4,4.3-9.2,3.9
		c-1.2-2-1.6-4.1-1.4-6.3c3.7-4.5,3.4-5.9-1.4-8.2c-2.1-1-4.1-1.5-6.4-1.3l0.1-0.4C220.2,378.9,216.4,379.4,212.9,379.2z"/>
	<path style="fill:#F32403;" d="M171.7,384.5c2.3-1.7,0.2-3.1-0.3-4.6c-0.8-2.2-2.7-4-1.9-6.7c6.1,0.7,9,5.1,7,11.8
		c-1.3,4.5-1.2,8.1,2.6,10.7c0.2,2.7-2.1,3.1-3.1,4.5c1,5.6,5.4,5.5,9.6,5.9c1.7-3.3-0.5-7.1,1.5-10.5c3.5,0.5,3.1,3.1,3.1,5.4
		c-0.2,6.3-4.7,11.5-11.1,13c-1.1,0.3-2.1,0.6-3.1,1c-1.9-2.7-3.8-5.3-5.7-8c0-2.7,0.1-5.3,0.1-8c0-3.6,0-7.1,0-10.7
		C172,387.5,171.6,385.9,171.7,384.5z"/>
	<path style="fill:#A1422E;" d="M122.5,334c3.5-4.9,8.6-8.7,8.9-15.7c0.3-5.7,0.8-5.7-5.4-7.6c-2.4-13.3-0.5-25.3,11-34.2
		c6.5-5.1,6.2-13.3,9.2-20c0.4-0.8,0.3-1.7,1.1-2.2c-0.1,4-0.3,7.9-0.4,11.9c-0.2,1.3-0.4,2.6-0.6,3.9c-1.4,3.1-2.8,6.1-4.2,9.2
		c-8.4,3.6-12.7,9.7-12.8,19.2c0,4.3-0.5,8,5.2,8.8c-0.5,9.1-1.2,17.8-5.6,25.7c-0.5,0-1.2-0.1-0.9,0.8c-0.2,0.1-0.4,0.3-0.5,0.5
		c-0.5,0.1-1,0.1-1.6,0.2C124.9,334.3,123.7,334.1,122.5,334z"/>
	<path style="fill:#9C0D04;" d="M112.9,477.8c1.2,4.5,3.9,7.5,8.2,9.6c4.8,2.4,9.2,5.6,13.8,8.4c6.9,4.3,14,7.9,21.9,10
		c1.4,0.4,2.3,1.1,3,2.4c-1.4,0.1-2.9,0.2-4.3,0.2c-8.5-0.2-16.5-3.1-24.3-6.1c-2.4-0.9-4.4-2.9-7.2-2c-1-0.5-1.4-1.5-1.5-2.5
		c2.5-2.5-0.1-2.4-1.5-3.2c-7.1-4-10.7-10.6-13.1-18C109.6,476.4,111.5,476,112.9,477.8z"/>
	<path style="fill:#0D0303;" d="M153,420.6c-3.9-1-3.6-4.8-4.6-7.5c-2.2-5.9-1.5-12.2-1.4-18.4c0-2.4,0.9-4.3,3.2-5.4
		c0.7,1.7-0.6,4,2.4,5.8c2.4-3.4,2.5-5.6-2.2-6.6c0.6-2.8,4.1-3.6,4.5-6.4c0.3-0.3,0.7-0.7,1-1c2.1-0.4,4.5-0.3,5.2-3
		c4.1-0.8,4.3,3.5,6.5,5.1c0.6,1.7,1.2,3.4,1.7,5.1c-2.8,0.8-4.9-1.2-7.4-2.5c-2.7,7.4-2.4,13.9,3.2,20.5c-8,2.1-5.4-10.8-12.4-8.1
		C150.3,405.8,150.3,413.2,153,420.6z"/>
	<path style="fill:#B8B8A3;" d="M78.7,341.9c-11-1.8-12.1-2.9-11.8-13.7c0.2-7-1.2-12.9-7.6-16.9c-1.6-1-4-2.5-2-5.3
		c1.2,0,2.4,0,3.7-0.1c1.4,3,4.2,4.5,6.9,5.9c5.2,2.8,7.2,7.1,6.6,12.6C73.8,330.8,75.2,336.5,78.7,341.9z"/>
	<path style="fill:#B8B8A3;" d="M126.1,334.4c0.5-0.1,1-0.1,1.6-0.2c-4,7-1.1,14.5-1.6,21.8c-0.5-0.3-1.1-0.7-1.6-1
		c-2.5-8.1-5.9-10.2-13.9-8.5c-1.9,0.4-3.9,0.9-5.7,1.6c-5.1,2-10.2,2.3-15.5,1.4c-2.7-1.2-5.2-2.8-8-3.6c-2.4-0.7-3-2-2.7-4.2
		c0.9,0.1,1.8,0.3,2.7,0.4c7.9,3.6,15.8,5.7,24.3,1.3c2.2-1.1,5.1-1.4,7.6-1.6C118.8,341.6,123.3,339.5,126.1,334.4z"/>
	<path style="fill:#F32403;" d="M199.6,358.9c0.5-2.6-0.8-4.9-1.3-7.4c2.9,1.3,5.7,2.7,9.1,2.5c4.8-0.4,9.7-0.4,13.1,4.2
		c1.4,1.8,3.6,1.3,5.6,1.3c2.6-0.1,2.8,1.4,2.7,3.4c-6.3,3.7-13.2,0.3-19.4,0.5c-1.3,3.4,2.1,4.3,2,6.5c-2.9-0.6-6.6,0-7.7-4
		c0.6-1.7,3-2.8,1.9-5.1C204.1,358.5,201.5,359.7,199.6,358.9z"/>
	<path style="fill:#12350A;" d="M287.7,447c2.5,3.8,6.9,6,8.6,10.6c0.6,1.6,2.6,1.5,4.1,1.5c0.1,0.8-0.3,1.2-1,1.4
		c-0.9,0.4-1.8,0.9-2.7,1.3c-6.4,2.8-11.9,7.1-18.6,9.3c-0.5,0-0.9,0-1.4-0.1C282.1,463.7,283.9,454.9,287.7,447z"/>
	<path style="fill:#EDE6DB;" d="M440.4,270c-0.2,1.1-0.8,2.3-0.5,3.2c3,9.2-1.3,15.2-8.6,19.8c-3.1,1.9-2.3,4.9-2.8,7.6
		c-1.1-0.1-2.1-0.2-3.2-0.3c-0.2-2-0.5-3.9-0.4-5.9c0.2-5.3,0.8-10.2,8.1-10.1c1.6,0,3.2-1.3,4.4-3.3c-0.7-4.3-1.5-9-2.4-13.6
		C437.4,267.1,438.5,269.2,440.4,270z"/>
	<path style="fill:#F32403;" d="M253.8,332.6c-2.1,0.5-4,1.1-5.1,3.1c-3.2-2.1-5.7-5.8-10.4-4.3c1-3.3-2.6-4.2-3.8-7.1
		c3.3-0.7,5.4-3,7.8-5.1c2.8,4.2,8,1.8,11.5,4c0.3,0.4,0.6,0.8,0.9,1.2c-0.2,0.5-0.5,1-0.7,1.4c-0.1,0.1-0.4,0.3-0.4,0.4
		c0.1,0.3,0.4,0.6,0.6,0.9C255.5,329.1,254.7,330.9,253.8,332.6z"/>
	<path style="fill:#605F5F;" d="M40.7,150.9c1.7-4.3,1.5-9.5,5.5-12.9c0.1,5.8,3.9,7.6,9,8.5c4.3,0.8,9.7,1,8.6,9.3
		c-1.6-4.4-3.8-6.7-7.5-5.3c-3.8,1.3-2.5,4.6-2.4,7.3c-0.2,0.2-0.4,0.5-0.6,0.7C49.5,155.1,46,151.6,40.7,150.9z"/>
	<path style="fill:#8E8E8E;" d="M126.1,334.4c-2.8,5.1-7.3,7.2-12.9,7.6c-2.6,0.2-5.4,0.4-7.6,1.6c-8.4,4.3-16.3,2.2-24.3-1.3
		c11.9,1.8,22.6-5,34.3-4.6c2.8,0.1,4.7-2.3,6.9-3.7C123.7,334.1,124.9,334.3,126.1,334.4z"/>
	<path style="fill:#595958;" d="M64.1,115.8c3.7-4.4,3.2-9.3,2.2-14.4c-1.4-6.9,0.7-12.6,6.8-16.5c0.6,0.9,1,1.9,1.7,2.7
		c5.3,5.7,5.3,5.9-2,8.3c-3,1-4.2,2.7-3.9,5.9c0.3,3,0.5,6.1,0.2,9.1C68.9,113.7,67.4,115.9,64.1,115.8z"/>
	<path style="fill:#0D0303;" d="M292.9,351.1c-0.2-0.5-0.4-1-0.6-1.6c0.6-1.6,1.9-2.1,3.4-2.5c3.8-1.1,5.7-3.6,5-7.6
		c1.9-0.3,4,0.6,5.4-1.4c1.2,0.4,2.5,0.9,3.7,1.3c0.1,0.9,0.1,1.8,0.2,2.8c-0.6,2.4-1.1,4.8-1.7,7.2c-3.6-0.3-4.1,3.2-6.1,4.9
		c-0.9-0.1-1.8-0.2-2.7-0.3C298.3,350.6,295.4,351.3,292.9,351.1z"/>
	<path style="fill:#605F5F;" d="M433.3,145.8c4.4,0.9,4.6,3.5,3,7c-6,1.2-12.1,2.6-17.4-2.2c0.3-0.4,0.7-0.7,1-1.1
		c2.5,0.9,4.9,1.4,5.7-2.1c1.1-4.5-2.4-8.5-7.5-8.7c-0.3-0.3-0.5-0.6-0.8-0.9c4.9-3.3,6.6-3.1,8.6,1.9
		C427.4,143.3,429.3,145.8,433.3,145.8z"/>
	<path style="fill:#8E8E8E;" d="M441.6,191.5c-6,1.8-16.1-3.9-16.9-9c-0.3-1.7,0.3-3,1.7-3.9c1.4-0.9,3.1-1,4.3,0.1
		C434.6,182.6,439.2,186.1,441.6,191.5z"/>
	<path style="fill:#EDE6DB;" d="M147,266.1c0.1-4,0.3-7.9,0.4-11.9c1.2-2.6,0.5-5.4,0.9-8c2.5-0.7,1.7-2.8,1.9-4.4
		c0.7-1.6,1.3-3.1,2-4.7c2.7-3.4,7.9-1.8,10.6-5.2c2.1-0.4,4.1-0.8,6.2-1.3c0,0.7,0,1.4,0,2.1c-0.9,0.5-1.8,1.4-2.8,1.5
		c-9.8,1.9-12.9,9.2-14.9,17.6c-1.1,4.7-2,9.3-2.3,14.1C148.4,266.1,147.7,266.1,147,266.1z"/>
	<path style="fill:#330502;" d="M104.8,414c1.3,1.7,1.5,3.4,0.7,5.5c-0.9,2.2-1,4.7-1.8,6.9c-2.3,6.3-0.7,11,5.5,13.8
		c-0.5,1.4-0.9,2.8-1.4,4.2c-0.8-0.2-1.6-0.3-2.4-0.5c-1.4-3-3.5-5.6-6-7.7c-0.3-3.3-0.5-6.5-0.8-9.8c1.1-3.7,2.3-7.4,3.4-11.1
		C103,414.9,103.9,414.4,104.8,414z"/>
	<path style="fill:#1A0705;" d="M211.3,369.9c0.1-2.2-3.3-3.1-2-6.5c6.2-0.2,13,3.2,19.4-0.5c0.2,3.5-3.8,5.9-2.5,9.7
		c-0.3,0.3-0.5,0.6-0.8,0.9c-2.8-0.3-5.6-0.7-8.5-1c-0.9-1.7-2.4-1.7-4-1.4C212.4,370.6,211.9,370.2,211.3,369.9z"/>
	<path style="fill:#B8B8A3;" d="M390.8,355c-0.7,0.2-1.5,0.3-2.2,0.5c-0.3-0.8-0.6-1.6-0.9-2.4c3.4-5.9,6-12.3,13.9-14.4
		c2.5-0.6,5-3.3,6.3-6.2c1.1,0,2.1,0,3.2,0.1c-2.5,6-7.8,9.3-12.7,13C395.1,348.2,392.4,351.1,390.8,355z"/>
	<path style="fill:#F32403;" d="M178.4,417.7c4.4,0.2,8.6-1.6,13-1.5c3.5,0.1,7.8-7.4,8.4-13.5c0.9,0.2,1.9,0.5,2.8,0.7
		c0.6,5.5-3.4,13.3-9.4,15.5C188.6,420.7,183,422.7,178.4,417.7z"/>
	<path style="fill:#DFC4BE;" d="M25.3,217.7c0.2-3.5,2-5.9,5-7.6c-0.8,3.8,0.6,6.9,2.9,9.8c2.8,3.6,3.1,7.2-0.5,10.6
		c-1-0.1-2-0.2-3-0.3c-0.1-0.9-0.3-1.8-0.4-2.6C30.5,223.3,28.3,220.3,25.3,217.7z"/>
	<path style="fill:#330502;" d="M260.9,278c-2.2,3.6-2.7,7.5-2.6,11.6c0,3,0.2,6.1-1.6,8.7c-0.4-0.2-0.7-0.3-1.1-0.4
		c-0.3-9.2,1.9-18.3,0.1-27.5c-0.3-1.5,0.7-2.5,2-3.1C260.6,270.4,261,274.1,260.9,278z"/>
	<path style="fill:#8E8E8E;" d="M425.3,300.3c1.1,0.1,2.1,0.2,3.2,0.3c3.2,6.4-0.2,11.6-3.1,16.8c-0.9,1.7-2.3,3.1-3.5,4.6
		c-1.1,0-2.3,0-3.4-0.1c0.2-0.8,0.2-2,0.7-2.4C425.4,314.4,425.4,307.4,425.3,300.3z"/>
	<path style="fill:#491215;" d="M299.6,353.8c0.9,0.1,1.8,0.2,2.7,0.3c-1.2,1.9-1.5,4-1.5,6.2c-0.5,1.4-0.9,2.8-1.4,4.2
		c-2.7,0.1-5.6,0.1-2.6,4c-0.1,0.4-0.1,0.8-0.1,1.2c-3.7,4.5-8,6.2-13.4,2.7c1.9-4.8,4.7-0.6,7.7-0.8c0.6-2.9,0.3-6.4,3.1-8.6
		C298.6,361.6,297.5,356.7,299.6,353.8z"/>
	<path style="fill:#8E8E8E;" d="M450.8,239.5c3,5.1,3.7,10.6,1.9,16.3c-0.8,2.5-2.2,4.9-5.4,5.1c-0.7-0.2-1.5-0.5-2.2-0.7
		c0.5-0.9,0.7-2.2,1.5-2.8c5.8-3.9,4.1-9.2,3.1-14.4C449.6,241.6,450,240.5,450.8,239.5z"/>
	<path style="fill:#B8B8A3;" d="M29.7,230.2c1,0.1,2,0.2,3,0.3c-2.6,6.2-2.5,12.5-1.3,18.9c-0.6,0.6-1.1,1.3-1.7,1.9
		c-3.4-5.3-2.6-11.3-2.7-17.1c1.1-0.6,1.3-1.6,1.3-2.7C28.8,231.2,29.3,230.7,29.7,230.2z"/>
	<path style="fill:#EDE6DB;" d="M450.8,239.5c-0.8,1-1.2,2.1-1.1,3.4c-2.6-2.4-2-5.8-2.5-8.8c2.6-4.8,0.4-9.9,1.1-14.7
		c1.5-1.8,3.5-1.4,5.4-1.2C449.2,224.8,450,232.1,450.8,239.5z"/>
	<path style="fill:#330502;" d="M253.9,326c0.2-0.5,0.5-1,0.7-1.4c3.8,1.1,1.4,4.6,2.6,6.7c2.5,0.9,2.5-8.2,6.4-1.6
		c-3.9,2.4-4.7,8.3-10,9.3c-1.7-2.3,1.2-4.2,0.2-6.3c0.9-1.7,1.7-3.5,0.3-5.3C254.2,326.8,254.2,326.4,253.9,326z"/>
	<path style="fill:#464646;" d="M407.4,267.9c5.2-1,7.8,1.3,8.8,5.3c0.5,2.3-1.6,3.7-3.8,3.4C407.6,275.9,406.6,272.6,407.4,267.9z"
		/>
	<path style="fill:#DFC4BE;" d="M411.1,332.6c-1.1,0-2.1,0-3.2-0.1c0.3-9.8,1-10.5,10.7-10.6C416.1,325.5,413.6,329,411.1,332.6z"/>
	<path style="fill:#EA2305;" d="M253.7,323.3c-3.5-2.2-8.7,0.2-11.5-4c-0.1-2.9-0.3-5.8,4-5.3c0.4,2.3-0.1,5.8,3.9,2.6
		C254,317.5,253.9,320.4,253.7,323.3z"/>
	<path style="fill:#491215;" d="M222.3,383.1c2.3-0.2,4.3,0.3,6.4,1.3c4.8,2.3,5.1,3.7,1.4,8.2c-2.2,0-2.9-1.6-3.5-3.2
		c-0.6-1.8-1.7-1.6-2.9-1C221.6,387.1,222.6,385,222.3,383.1z"/>
	<path style="fill:#DFC4BE;" d="M445.2,260.1c0.7,0.2,1.5,0.5,2.2,0.7c-1.6,3.6-4.5,6.3-7,9.2c-1.8-0.8-3-2.9-5.3-2.7
		C436.9,262.8,440.9,261.3,445.2,260.1z"/>
	<path style="fill:#B8B8A3;" d="M56,303.2c-5.7-2.2-7.4-8-10.8-12.2c0.6-1,1.1-1.9,1.7-2.9c3.1,3.4,5,7.9,9.2,10.3
		C56.1,300.1,56,301.6,56,303.2z"/>
	<path style="fill:#B8B8A3;" d="M99.4,436.2c2.5,2.2,4.6,4.7,6,7.7c-1.2,0.7-2.3,1.3-3.5,2c-4.1-1.9-6.4-5.2-7.9-9.3
		C95.8,436.5,97.6,436.4,99.4,436.2z"/>
	<path style="fill:#9C0D04;" d="M215.7,475c-2.3,0.4-4.6,1-6.9,1.2c-2.3,0.2-3.8-1.2-3.7-3.5c0.1-2.2,2-2.8,3.8-2.6
		c2.3,0.2,4.7,0.8,6.7,1.2C217.1,472.7,215.4,473.8,215.7,475L215.7,475z"/>
	<path style="fill:#EA2305;" d="M214.1,335.3c6.1-1.3,12.3,2.5,18.5-0.1c0.1,2.9-1.4,4.9-4.1,7.4C225.7,336,218,340,214.1,335.3z"/>
	<path style="fill:#0D0303;" d="M299.4,364.6c0.5-1.4,0.9-2.8,1.4-4.2c1.1-0.1,2.1-0.3,3.2-0.4c2.1,4.5-0.1,8.1-2.8,11.2
		c-1.9,2.2-3.8,2-4.4-1.4c0-0.4,0-0.8,0.1-1.2C298.3,367.6,298.7,366,299.4,364.6z"/>
	<path style="fill:#B6416B;" d="M101.9,445.9c1.2-0.7,2.3-1.3,3.5-2c0.8,0.2,1.6,0.3,2.4,0.5c1.4,3.3,6.5,2.1,7.5,6.1
		c-0.3,0.8-0.5,1.5-0.8,2.3C108.9,453.1,105.1,450,101.9,445.9z"/>
	<path style="fill:#A1422E;" d="M223.7,388.5c1.3-0.6,2.3-0.8,2.9,1c0.6,1.6,1.3,3.2,3.5,3.2c-0.2,2.3,0.3,4.4,1.4,6.3
		c-3.9,2.1-4.9-1.2-6.2-3.5C224.2,393.3,223.5,391,223.7,388.5z"/>
	<path style="fill:#B6416B;" d="M135.5,465.2c-2.2-0.6-3.9-1.8-3.6-4c0.3-2.6,2.4-3.5,4.8-3.4c1.8,0.1,2.9,1.6,2.7,3.1
		C139.1,463,138.2,465.1,135.5,465.2z"/>
	<path style="fill:#8E8E8E;" d="M29.7,251.4c0.6-0.6,1.1-1.3,1.7-1.9c2,2.4,2.2,5.9,4.7,8c-0.3,0.8-0.6,1.6-0.9,2.3
		c-1.6,0.2-3.2,0.5-4.8,0.7C29,257.6,30.5,254.4,29.7,251.4z"/>
	<path style="fill:#DFC4BE;" d="M99.4,436.2c-1.8,0.1-3.6,0.3-5.4,0.4c-1.8-1.5-0.7-4.3-2.6-5.8c1-3.7,4.9-2.7,7.2-4.4
		C98.9,429.7,99.2,433,99.4,436.2z"/>
	<path style="fill:#DFC4BE;" d="M35.3,259.8c0.3-0.8,0.6-1.6,0.9-2.3c1.6,0.3,3.3,0.7,5.3,1.1c-0.4,3.5-0.8,6.8-1.2,10.1
		C34.9,267.7,36.6,262.9,35.3,259.8z"/>
	<path style="fill:#A1422E;" d="M304,359.9c-1.1,0.1-2.1,0.3-3.2,0.4c0-2.2,0.3-4.3,1.5-6.2c2-1.6,2.5-5.2,6.1-4.9
		c0.1,0.7,0.3,1.3,0.4,2c-1.5,2.9-4.3,5.2-4.4,8.8L304,359.9z"/>
	<path style="fill:#B6416B;" d="M287,264.5c3.4-3.6,6.8-1.8,10,0.2c2.1,1.3,0.4,2.5-0.3,3.7c-1.1,0-2.2-0.1-3.3-0.1
		c-1-0.9-2.1-0.9-3.2-0.5c-0.5-0.1-1-0.2-1.5-0.3C288.1,266.5,287.6,265.5,287,264.5z"/>
	<path style="fill:#1A0705;" d="M317.1,262.1c0.1-4.6-4.8-7.3-4.6-12c5.5,0.6,6.3,5.4,7.8,9.3C321.3,261.9,318.8,262,317.1,262.1z"
		/>
	<path style="fill:#1A1A1A;" d="M306.2,337.9c-1.4,2-3.6,1.1-5.4,1.4c-3.9-0.8-8.5,1.4-11.6-2.7
		C294.8,337.9,300.8,334.9,306.2,337.9z"/>
	<path style="fill:#0D0303;" d="M304.4,360c0.1-3.6,2.9-5.9,4.4-8.8c1.9,0.2,2.8,1.1,2.3,3c-0.6,2.3-1.1,4.6-1.7,6.9
		C307.4,361.8,306,360.4,304.4,360z"/>
	<path style="fill:#491215;" d="M260.9,278c0.1-3.9-0.2-7.7-3.3-10.6c0.2-0.4,0.5-0.9,0.7-1.3c0.5,0,1,0,1.5,0
		c3.6,3.3,6.9,6.7,3.8,12.2C262.6,278.2,261.7,278.1,260.9,278z"/>
	<path style="fill:#605F5F;" d="M287,264.5c0.5,1,1.1,2,1.6,3c-1.3,0.1-2.5,0.2-3.8,0.3c-1.2-0.4-2.3-0.3-3.2,0.7
		c-2.1,0.1-4.2,0.3-6.1-0.9c0.2-2.9,2.3-2.7,4.3-2.7C282.2,264.7,284.6,264.6,287,264.5z"/>
	<path style="fill:#0D0303;" d="M282.2,342.8c-6,1-7.2-5.1-11.1-7.4C277.3,334,280,338,282.2,342.8z"/>
	<path style="fill:#F2D06E;" d="M162.8,231.9c-2.7,3.4-7.9,1.8-10.6,5.2c0-2.2,0.8-4.2,1.9-6.1c2.3,0.6,3.3-0.9,4.5-2.4
		C160.2,229.4,161.9,230.2,162.8,231.9z"/>
	<path style="fill:#EA2305;" d="M212.9,379.2c3.5,0.3,7.3-0.3,9.4,3.5c-4.1-0.1-8.4-0.8-11.9,2.2
		C209.8,382.3,212.1,381.1,212.9,379.2z"/>
	<path style="fill:#EA2305;" d="M240.7,395.1c-0.9-5.5,4.2-6.5,7-9.3c1.3,2.2,1.5,4.6-1.1,5.3C244,391.8,243.1,394.4,240.7,395.1z"
		/>
	<path style="fill:#8E8E8E;" d="M448.3,219.4c-0.7,4.9,1.5,10-1.1,14.7C445.5,229.1,444.8,224.1,448.3,219.4z"/>
	<path style="fill:#3D3B3B;" d="M245.7,371.4c5.2-0.1,7.6,1.8,10,5.5C250.8,377.9,248.3,375.9,245.7,371.4z"/>
	<path style="fill:#595958;" d="M114.5,452.7c0.3-0.8,0.5-1.5,0.8-2.3c0.6,0.2,1.3,0.5,1.9,0.5c2.2-0.1,4,0.3,4.1,3
		c0.1,1.4-0.5,2.7-1.9,3c-2.1,0.5-3.2-0.8-4.1-2.5C114.9,454,114.7,453.3,114.5,452.7z"/>
	<path style="fill:#0D0303;" d="M165,431.3c-0.2-0.2-0.3-0.4-0.4-0.6c1.9-3.3,4.7-2.2,7.8-1.8c0.4,2.4,2.1,4.9-1.8,6.2
		C169.4,432.8,168.1,430.7,165,431.3z"/>
	<path style="fill:#A1422E;" d="M146.7,468.1c-1.8-0.2-2.6-1.4-2.5-3.1c0.1-1.7,1-3.1,2.8-3.1c1.8,0,2.8,1.2,2.6,3.1
		C149.4,466.6,148.8,468,146.7,468.1z"/>
	<path style="fill:#1A1A1A;" d="M85.5,274.2c1.9,0.2,3.4,0.9,3.2,2.7c-0.1,1.7-0.8,3.6-2.9,3.6c-1.7,0.1-2.8-1-3-2.8
		C82.6,275.6,84,274.7,85.5,274.2z"/>
	<path style="fill:#D21104;" d="M227.6,186.5c-0.5,2.8-2.6,2.4-4.5,2.4c-4.3,0-8.6,0-12.9-0.1C215.9,187.2,221.6,185.8,227.6,186.5z
		"/>
	<path style="fill:#9C0D04;" d="M202.7,403.5c-0.9-0.2-1.9-0.5-2.8-0.7c0.6-3.3-2.3-8,3.9-8.7C203.5,397.1,203.1,400.3,202.7,403.5z
		"/>
	<path style="fill:#B6416B;" d="M215.6,475.1c1.8,1.1,4.5-0.4,6,2.4c-1.5,1.9-3.2,3.4-5.8,2C213.5,478.2,215.7,476.5,215.6,475.1
		L215.6,475.1z"/>
	<path style="fill:#3D3B3B;" d="M167.8,48.9c-2.1-0.8-3.3-1.9-3.8-3.9c0.3-0.4,0.5-1.1,1-1.5c1.6-1.2,3.3-1.3,4.6,0.5
		C170.9,46,170.4,47.7,167.8,48.9z"/>
	<path style="fill:#A1422E;" d="M298.7,24.5c0.5,3.2-0.6,4.9-3.7,4.7c-1.1-0.1-2.1-1.1-1.8-2.3C293.9,23.8,296,23.6,298.7,24.5z"/>
	<path style="fill:#F32403;" d="M206.3,335.3c0.3-1.9-1-4.8,2.2-5.2c3.5-0.4,3.9,2.5,4.5,5C210.7,335.2,208.5,335.3,206.3,335.3z"/>
	<path style="fill:#A1422E;" d="M158.5,228.6c-1.1,1.5-2.2,3.1-4.5,2.4c-0.3-1.6,1.1-2.4,1.7-3.5c2.8-1.3,3.4-4,4.3-6.5
		c0.6-0.3,1.1-0.6,1.7-0.9c0.4,0.4,0.7,0.8,1.1,1.1c-0.2,0.8-0.4,1.5-0.6,2.3C161,225.2,159.7,226.9,158.5,228.6z"/>
	<path style="fill:#0D0303;" d="M260.7,323.2c1.4-3.1,3.4-3.8,6-3.7C266.3,324.7,266.3,324.7,260.7,323.2z"/>
	<path style="fill:#8E8E8E;" d="M46.9,288.1c-0.6,1-1.1,1.9-1.7,2.9c-4-2.4-2.1-5.9-1.8-9.1C45.4,283.5,47,285.3,46.9,288.1z"/>
	<path style="fill:#330502;" d="M97.1,468.5c-3.6-0.2-5.7-2.1-6.5-5.6C94.6,462.7,97.8,463.3,97.1,468.5z"/>
	<path style="fill:#A1422E;" d="M166.3,215.7c-0.9,2.7,4.6,4.8,0.7,7.8c-0.6-2.3-1.9-3.4-4.3-2.3c-0.4-0.4-0.7-0.8-1.1-1.1
		C162.7,218,164.1,216.5,166.3,215.7z"/>
	<path style="fill:#330502;" d="M115.8,440.2c2.5-2,5.1-2.9,8-1.1C121.7,443.3,118.8,442.3,115.8,440.2z"/>
	<path style="fill:#A1422E;" d="M277,372.4c2,0,4,0,6-0.1c0.3,2.9-1.4,4.2-3.9,4.1C276.8,376.4,276.9,374.3,277,372.4z"/>
	<path style="fill:#8E8E8E;" d="M129.5,458.2c-2.6,1.6-4.4,1.7-5.9-1.3C126.2,454.5,127.9,454.7,129.5,458.2z"/>
	<path style="fill:#DFC4BE;" d="M56,303.2c0-1.6,0.1-3.2,0.1-4.8c3,1.6,6,3.2,4.9,7.4c-1.2,0-2.4,0-3.7,0.1
		C56.9,305.1,56.5,304.1,56,303.2z"/>
	<path style="fill:#EA2305;" d="M246.4,313c-0.6-4.8,2.2-7.2,6.4-8.4c0.6,3.3-2.8,4.4-3.9,6.7C248.1,311.9,247.3,312.5,246.4,313z"
		/>
	<path style="fill:#0D0303;" d="M170.5,399.1c0,2.7-0.1,5.3-0.1,8C165.6,403.3,165.7,401.5,170.5,399.1z"/>
	<path style="fill:#DFC4BE;" d="M383.7,359.7c-1.4,1.8-3.2,2.2-5.3,2c-2.6-5.9,3.3-3.3,4.9-5C383.4,357.7,383.5,358.7,383.7,359.7z"
		/>
	<path style="fill:#3D3B3B;" d="M273,433.8c3.7,4.1,3.4,5.2-1.4,6.5C271.1,438,272.5,436,273,433.8z"/>
	<path style="fill:#1A1A1A;" d="M276.7,470.9c0.5,0,0.9,0,1.4,0.1c-1.2,4.3-4.7,3.9-8,3.9C271.5,472.3,274.1,471.5,276.7,470.9z"/>
	<path style="fill:#1A1A1A;" d="M110.4,94.4c2.5-1.8,4.3-1.6,6.5,0.8C114.2,97.7,112.5,97.3,110.4,94.4z"/>
	<path style="fill:#1A0705;" d="M160,221c-0.8,2.5-1.5,5.2-4.3,6.5C156.1,224.6,154.2,220.3,160,221z"/>
	<path style="fill:#8E8E8E;" d="M383.7,359.7c-0.1-1-0.3-2-0.4-2.9c1.5-1.2,3-2.4,4.5-3.7c0.3,0.8,0.6,1.6,0.9,2.4
		C387.5,357.5,385.9,359,383.7,359.7z"/>
	<path style="fill:#9C0D04;" d="M165,431.3c3.1-0.6,4.4,1.5,5.6,3.8c-0.5,0.5-1,1.1-1.5,1.6c-0.9-0.2-1.9-0.4-2.8-0.6
		C165.8,434.5,165.4,432.9,165,431.3z"/>
	<path style="fill:#3D3B3B;" d="M320.3,23.9c3.3,2.2,3.1,3.6,0.6,5.1C318.6,27.6,319.3,26.1,320.3,23.9z"/>
	<path style="fill:#464646;" d="M228.2,32.7c-2.8-0.3-3.5-1.6-2.6-4.4C228.5,28.8,229.5,29.9,228.2,32.7z"/>
	<path style="fill:#0D0303;" d="M166.3,436.1c0.9,0.2,1.9,0.4,2.8,0.6c-0.1,1-0.3,1.9-1.4,2.4c-1.8,0-3.6,0-5.3,0c0-0.8,0-1.5,0-2.3
		C163.7,436.5,165,436.3,166.3,436.1z"/>
	<path style="fill:#491215;" d="M246.4,313c0.8-0.5,1.7-1.1,2.5-1.6c0.3,1.8-0.8,3.9,1.3,5.2c-4,3.1-3.5-0.4-3.9-2.6
		C246.4,313.7,246.5,313.4,246.4,313z"/>
	<path style="fill:#491215;" d="M234,365.9c2.5-1.9,4.4-1.9,6.8,0C238.4,367.7,236.5,367.7,234,365.9z"/>
	<path style="fill:#EA2305;" d="M169.4,388.3c-0.6-1.7-1.2-3.4-1.7-5.1c1.3,0.4,2.7,0.9,4,1.3c-0.1,1.4,0.3,3-1.2,3.9
		C170.1,388.4,169.8,388.3,169.4,388.3z"/>
	<path style="fill:#1A1A1A;" d="M432.3,217.5c-0.2,1.3-0.8,2-2.2,1.8c-1.1-0.1-1.5-0.9-1.5-1.7c0-1.2,0.8-1.9,2.1-1.8
		C431.9,215.9,432.1,216.7,432.3,217.5z"/>
	<path style="fill:#464646;" d="M159.7,469c-0.1,1-0.8,1.7-1.7,1.5c-1.1-0.2-2-1-1.7-2.4c0.3-1,1.1-1.3,2.1-1.1
		C159.4,467.2,159.7,468,159.7,469z"/>
	<path style="fill:#3D3B3B;" d="M310.1,342c-0.1-0.9-0.1-1.8-0.2-2.8c1.9-1.8,3-0.8,3.8,1.1C313.2,342.5,311.4,341.9,310.1,342z"/>
	<path style="fill:#595958;" d="M226,485.3c-1.7,0.1-3.3,0.2-5,0.3c0-1.4,0.3-2.6,1.9-2.8C224.8,482.6,225.9,483.4,226,485.3z"/>
	<path style="fill:#040203;" d="M162.4,439c1.8,0,3.6,0,5.3,0c0,0.9,0,1.8,0,2.7c-1.3,0-2.7,0-4,0
		C162.6,441.1,162.4,440.1,162.4,439z"/>
	<path style="fill:#9C0D04;" d="M193.3,348.3c-1.4,0-2.6-0.2-2.8-1.9c-0.2-1.7,0.3-3,2.1-3.4C192.8,344.8,193,346.6,193.3,348.3z"/>
	<path style="fill:#1A0705;" d="M228.9,375.5c-0.7-0.2-1.5-0.3-2.2-0.5c-0.4-0.5-0.8-1.1-1.2-1.6c0.3-0.3,0.5-0.6,0.8-0.9
		c2,0.3,4.7-1,5.3,2.4C230.7,375.1,229.8,375.3,228.9,375.5z"/>
	<path style="fill:#EA2305;" d="M228.9,375.5c0.9-0.2,1.8-0.4,2.7-0.5c1,0.9,2.1,1.8,3.1,2.7C232.6,377.5,229.8,379.1,228.9,375.5z"
		/>
	<path style="fill:#0D0303;" d="M253.4,304.8c0.4-1.3,0.8-2.6,1.2-3.9c0.6-0.3,1.2-0.6,1.8-0.9C257.2,302.7,256.8,304.7,253.4,304.8
		z"/>
	<path style="fill:#605F5F;" d="M171.3,470.7c0,1.4-0.8,1.7-1.6,1.5c-0.4-0.1-1.1-0.7-1.1-1.1c-0.1-1,0.7-1.5,1.6-1.3
		C170.6,469.9,171,470.4,171.3,470.7z"/>
	<path style="fill:#A1422E;" d="M223.9,470c1.2-2,2.2-2.1,3.4-1c0.2,0.2,0.4,0.9,0.2,1.2C226.4,471.5,225.3,471,223.9,470z"/>
	<path style="fill:#605F5F;" d="M416.3,147.9c-1.9-2.8-2-5.6-0.1-8.5c0.2,0.2,0.4,0.3,0.6,0.5c-0.1,2.4-0.5,4.7,0.6,7
		C417,147.2,416.6,147.6,416.3,147.9z"/>
	<path style="fill:#0D0303;" d="M166,417.2c-1-0.9-0.7-1.8-0.3-2.9C167.4,415.7,167.4,415.7,166,417.2z"/>
	<path style="fill:#0D0303;" d="M201.3,421.8c1.1-1.3,2-1.5,2.9-0.6c0.2,0.2,0.2,0.9,0,1.1C203.3,423.3,202.4,423,201.3,421.8z"/>
	<path style="fill:#3D3B3B;" d="M340.2,303.3c1.8,1.5,2,2.4,1,3.3c-0.2,0.2-0.9,0.2-1.1,0C338.9,305.7,339.7,304.8,340.2,303.3z"/>
	<path style="fill:#0D0303;" d="M163.7,441.7c1.3,0,2.7,0,4,0c-0.2,1.4-0.5,2.6-2.3,2.4C164,444,163.9,442.8,163.7,441.7z"/>
	<path style="fill:#EA2305;" d="M256.4,300c-0.6,0.3-1.2,0.6-1.8,0.9c-1.3-0.5-1.7-1.6-1.8-2.9c0.9,0,1.7,0,2.6,0
		c0.4,0.1,0.7,0.2,1.1,0.4C256.5,298.9,256.5,299.4,256.4,300z"/>
	<path style="fill:#B8B8A3;" d="M150.2,241.8c-0.2,1.7,0.6,3.7-1.9,4.4C148.4,244.5,148.5,242.8,150.2,241.8z"/>
	<path style="fill:#605F5F;" d="M419,150.6c-1.4-0.3-2.4-1.2-2.7-2.7c0.4-0.3,0.7-0.7,1.1-1c0.9,0.9,1.7,1.7,2.6,2.6
		C419.6,149.8,419.3,150.2,419,150.6z"/>
	<path style="fill:#605F5F;" d="M269,447.3c0.6,0.2,1.2,0.5,0.9,1.2c-0.2,0.4-0.8,0.9-1.2,0.9c-0.6,0-1.1-0.5-0.9-1.2
		C267.9,447.7,268.2,447.2,269,447.3z"/>
	<path style="fill:#605F5F;" d="M55.2,159.2c1.3,0.2,2.5,0.4,5.1,0.9c-3,1.4-4.4,1.4-5.8-0.3C54.7,159.6,54.9,159.4,55.2,159.2z"/>
	<path style="fill:#595958;" d="M182.5,471.2c0.3-0.1,0.8,0.3,0.9,1c0.1,0.8-0.4,1.2-1.1,1.1c-0.4,0-0.9-0.3-1-0.6
		C181.1,472.1,181.3,471.5,182.5,471.2z"/>
	<path style="fill:#1A1A1A;" d="M270.1,474.9c-0.1,0.6-0.2,1.2-0.4,1.8c-0.3-0.2-0.7-0.3-1-0.5C269.2,475.8,269.7,475.4,270.1,474.9
		z"/>
	<path style="fill:#330502;" d="M290.2,267.7c1.2-0.4,2.3-0.4,3.2,0.5C292.2,268.7,291.1,268.8,290.2,267.7z"/>
	<path style="fill:#330502;" d="M281.6,268.4c0.9-1,2-1,3.2-0.7C283.9,268.7,282.8,268.7,281.6,268.4z"/>
	<path style="fill:#605F5F;" d="M53.8,157.8c0.5,0.5,0.9,0.9,1.4,1.4c-0.2,0.2-0.5,0.4-0.7,0.6c-0.4-0.4-0.9-0.9-1.3-1.3
		C53.4,158.3,53.6,158,53.8,157.8z"/>
	<path style="fill:#605F5F;" d="M416.2,139.4c0.4-0.5,0.7-1.1,1.1-1.6c0.3,0.3,0.5,0.6,0.8,0.9c-0.5,0.4-0.9,0.8-1.4,1.2
		C416.6,139.8,416.4,139.6,416.2,139.4z"/>
	<path style="fill:#605F5F;" d="M358.1,475c-28.6,29.5-63.2,47.3-103.7,54.8c-17.8,3.3-35.6,2.9-53.1,1.7
		c-21.7-1.5-43.2-6.5-62.8-17.1c-0.3-0.2-0.5-0.7-0.7-1c1.4-3,3.3-5.4,6.4-2.4c4.3,4,9.6,5.2,15,6.5c3.2,0.8,7.1,0.2,9.6,1.9
		c6.6,4.6,13.8,5.4,21.4,6.4c4.3,0.5,8.3-1.3,12.4,0c14.4,4.7,28.5,1.8,42.5-1.9c1.7-0.4,3.5-0.6,5.1-1.1c5.7-1.7,12-0.4,17.3-3.6
		c11.9-7.1,25.8-9.6,37.9-16.8c5.1-3.1,11-5.2,15.8-9c2.4-1.9,5-3.4,7.7-3.5c5.3-0.1,7.1-3.3,9.1-8.5c-9.3,1.7-17.1,4.4-23.9,9.7
		c-2.7-3.9-2.1-7.6-1.9-11.3l0.2,0.1c2.2,1.4,4.6,2.3,8.1,2.4c-2.4-3.7,0.5-6.9,0-10.3c0.3-0.8,0.4-2,1-2.4
		c6.5-3.4,11.2-8.9,16.5-13.8c6.7-6.2,12.2-13.6,19-19.6c8.7,0,8.7,0.1,9.9,9.2c0.8,6.4-4.6,5.8-8.5,7.5c-1,1.4-0.2,3.9-2.2,5.1
		c-1.8,1.4-3.8-1.3-5.3-0.1c-3.5,3.7,1.8,8.1-2,12c-3.8,3.9-7.8,1-12.1,1.3c0.6,3.1,1.1,5.8,1.9,10.3
		C344.5,474.8,350.6,471.8,358.1,475z"/>
	<path style="fill:#605F5F;" d="M384.9,385.1c0.4-0.1,0.7-0.3,1.1-0.4c10,0.1,19.3-1.6,26.5-9.5c1-0.4,2-0.8,3-1.2
		c-7.6,28.5-17.8,55.7-37.3,78.5c-2.4-1.9-5.3-2.8-7.9-3.8c-1.1-14.9-0.7-17.8,3.6-26.6c-2-2-3-4.5-2.8-7.5c2.8-5.8,6.8-11,7.4-17.7
		c4.7-0.7,4.1-5.3,5.9-8.1C384.5,387.5,384.7,386.3,384.9,385.1z"/>
	<path style="fill:#595958;" d="M312.3,479.8c-0.2,3.7-0.8,7.4,1.9,11.3c6.8-5.3,14.6-8,23.9-9.7c-2,5.2-3.8,8.4-9.1,8.5
		c-2.7,0.1-5.3,1.6-7.7,3.5c-4.8,3.8-10.7,6-15.8,9c-12.1,7.2-26,9.7-37.9,16.8c-5.3,3.2-11.7,1.9-17.3,3.6
		c-1.7,0.5-3.4,0.7-5.1,1.1c-14,3.7-28.1,6.5-42.5,1.9c-4.1-1.3-8.1,0.5-12.4,0c-7.6-1-14.8-1.8-21.4-6.4c-2.5-1.7-6.4-1.2-9.6-1.9
		c-5.3-1.3-10.7-2.5-15-6.5c-3.2-3-5.1-0.6-6.4,2.4c-2.9-0.4-5.4-1.6-7.5-3.7c0.5-3-1.2-4.5-3.7-5.1c-2.4-0.6-3.1-2-2.9-4.2
		c2.9-0.9,4.8,1.1,7.2,2c7.8,3,15.8,5.9,24.3,6.1c0.5,1.6,1.2,3.1,3,3.6c11.4,4.1,22.8,7.5,35.2,6.9c11.2-0.6,22.5-0.3,33.7-0.1
		c4.7,0.1,9.3-0.5,13.6-2.1c6.9-2.7,14-3.8,21.3-3.3c4.6-0.7,9.4-1.1,13.3-4c4.4,0.5,4.7-6.1,9.3-5.3c2.6-0.1,3.9-1.4,4-3.9
		c0.4-0.4,0.9-0.9,1.3-1.3c1.9,0,3.9,0,4-2.7c0.4-0.4,0.9-0.9,1.3-1.3c7.1-1.5,10.9-6.1,12-13.1C309,481,310.4,479.8,312.3,479.8z"
		/>
	<path style="fill:#595958;" d="M371.1,414.5c-0.2,3,0.7,5.5,2.8,7.5c-4.3,8.8-4.7,11.8-3.6,26.6c2.6,1,5.5,1.9,7.9,3.8
		c-5.3,8.7-12.3,16-20,22.6c-7.6-3.2-13.6-0.3-19.1,6.6c-0.8-4.4-1.4-7.1-1.9-10.3c4.3-0.3,8.3,2.6,12.1-1.3c3.8-3.9-1.5-8.2,2-12
		c1.5-1.2,3.5,1.5,5.3,0.1c1.9-1.2,1.1-3.7,2.2-5.1c3.9-1.6,9.3-1.1,8.5-7.5c-1.2-9.1-1.3-9.2-9.9-9.2c3.2-7.8,9.5-13.6,12.8-21.3
		C370.1,414.8,370.7,414.7,371.1,414.5z"/>
	<path style="fill:#605F5F;" d="M123.8,500.3c-0.2,2.2,0.5,3.6,2.9,4.2c2.5,0.6,4.2,2.2,3.7,5.1c-10.2-2.5-17.4-10.1-26.1-15.2
		c-3.3-2-7.5-3.1-8.7-7.6c7.5,3,14.7,6.4,21.5,10.8c0.2,1,0.1,2.3,1.6,2c0.5-0.1,0.7-1.2,1.1-1.9c0.8,0,1.7,0.1,2.5,0.1
		C122.5,498.8,122.8,499.8,123.8,500.3z"/>
	<path style="fill:#D20E03;" d="M28.4,231.6c0,1.1-0.3,2.1-1.3,2.7c-2.8-1.1-3-3.4-3-5.9c0-2.1,0.8-4.5-1.3-6.2
		c-0.2-2.1-0.1-4,2.6-4.5c3,2.6,5.2,5.6,4,9.9C26.1,228.3,26,229.7,28.4,231.6z"/>
	<path style="fill:#1A450E;" d="M89.3,349.6c5.3,0.9,10.5,0.5,15.5-1.4c1.8-0.7,3.8-1.2,5.7-1.6c8-1.7,11.4,0.4,13.9,8.5
		c-1.4,3.8,0.5,8.1-1.8,11.8c-1,1.4-1.9,2.8-3.2,4.6c-12.7-0.7-22.9-5.9-30.1-16.7C88.2,353,87.1,351.3,89.3,349.6z"/>
	<path style="fill:#F2D06E;" d="M121.5,381.9c1.8,6.8,0,12.7-4.3,17.9C116.9,393.4,119.8,387.8,121.5,381.9z"/>
	<path style="fill:#DFC4BE;" d="M117.2,399.8c0.8,3.1-0.6,5.9-0.9,8.7c-2.6,0.8-4.6,0.6-6.3-1.2
		C110.4,402.8,115.3,402.7,117.2,399.8z"/>
	<path style="fill:#605F5F;" d="M104.8,414c-0.9,0.4-1.8,0.9-2.7,1.3c-0.9-2.6-0.6-4.6,2.5-5.3C104.6,411.3,104.7,412.6,104.8,414z"
		/>
	<path style="fill:#040203;" d="M149,266.1c0.3-4.8,1.2-9.5,2.3-14.1c2-8.5,5.1-15.8,14.9-17.6c1-0.2,1.9-1,2.8-1.5
		c6.1-0.5,12.2-1,18.4-1.5c1,0.1,2.1,0.2,3.1,0.3c3.6,3.6,8,5.3,13.1,4.9c2,0.9,4.1,1.7,6.4,1.7c6.2,2.7,12.2,6,19.2,6.6
		c4.4,1.6,8.9,3.2,13.3,4.9c0.8,1,1.6,2,2.4,3c0.1,4.1-6.2,5.8-4,10.7c-0.2,0.4-0.5,0.8-0.7,1.3c-3,2.6-3.9,6.1-4.3,9.8
		c-0.1,1.2-0.1,2.3-0.2,3.5c-5.4,4.9-10.3,10.3-16.2,14.5c-6.4,1.3-12,4.6-17.5,7.9c-0.9,0.1-1.7,0.2-2.6,0.2c-1.3,0-2.6,0-3.9,0
		c-12.4,0.2-24.8,0.4-34.3-9.7c-0.3-1.5-1.3-2.2-2.7-2.6c-2.1-3.1-4.3-6.2-6.4-9.3c0.2-1.3,1-2.6-0.3-3.8c0.3-1.9-1.1-2.7-2.3-3.6
		l-0.1-0.4C149.2,269.7,149.1,267.9,149,266.1z M181.8,285.6c5.8-5.5,5.9-7.3,0.7-9.2c-2.7-5.3-8.6-6.2-15.5-3.3
		c-4.6,1.9-5.4,5.1-4,8.9c1,2.8,1.3,6.1,3.7,8.3c0.8,2.6,2.7,2.7,4.9,2.2c2.1,0.7,3.4-0.4,4.4-2
		C179.1,290.2,180.8,288.3,181.8,285.6z"/>
	<path style="fill:#F32403;" d="M255.5,298c-0.9,0-1.7,0-2.6,0c-4.5-1.9-10.3-1.4-13.5-6.3c3.6-3.5,5.8,0.1,8.7,0.6
		c1.7-6.5-5.2-8.4-6.8-12.9c2.3-3.2,6.8,0.6,8.7-3c0-3.2-3.3-1.7-4.5-3.5c0.8-2.1,0.1-4.4-0.5-6.7c0.3-1,0.3-2.2,1.5-2.8
		c0.8,0,1.6,0,2.5-0.1c4.4,0.8,3.2-2.7,3.4-5.2c2.7,0,5.1,0,7.5,0c-0.3,0.4-0.5,0.9-0.8,1.3c-1,0.9-2.9,1-3.1,3
		c0.7,1.2,1.5,2.4,2.3,3.6c-0.2,0.4-0.5,0.9-0.7,1.3c-1.3,0.6-2.3,1.5-2,3.1C257.4,279.7,255.2,288.9,255.5,298z"/>
	<path style="fill:#491215;" d="M198.3,228.6c9.3,1.8,18.3,4.7,27.2,7.9c-1.9,1-5.1-1-5.9,2.6c-3.4,0.1-5.7-3-9-3.1
		c-2-1.5-4.4-2-6.8-2.1c-2.4-1-4.9-2-7.3-2.9C197.2,230.2,197.7,229.4,198.3,228.6z"/>
	<path style="fill:#A1422E;" d="M295.6,257.6c-2.3,0.8-4.3-0.7-6.4-0.9c-3.3-0.2-6.2-0.3-9.3,2c-3.7,2.8-8.4,4-12.3-0.6
		c0.2-0.6,0.5-1.7,0.7-1.7c8.2,1.2,16.3-2.3,24.5-1C294.2,255.7,295.2,256.1,295.6,257.6z"/>
	<path style="fill:#330502;" d="M219.7,239.1c0.7-3.6,4-1.7,5.9-2.6c3.2,0.3,5.7,2.2,8.6,3.2c0.2,2-1.7,2.4-2.7,3.4
		c-0.6,0-1.3,0.1-1.9,0.1C227.3,239.5,222.4,241.7,219.7,239.1z"/>
	<path style="fill:#B8B8A3;" d="M187.4,231.3c-6.1,0.5-12.2,1-18.4,1.5c0-0.7,0-1.4,0-2.1c0-0.4,0-0.9,0-1.3c4.1-0.4,8.2-1,12.3-1.2
		C183.8,228.1,186.1,229,187.4,231.3z"/>
	<path style="fill:#DFC4BE;" d="M196.6,231c2.4,1,4.9,2,7.3,2.9c-0.1,0.9-0.2,1.7-0.2,2.6c-5.1,0.3-9.5-1.3-13.1-4.9
		c0.4,0,0.7-0.2,1-0.6C193.2,231,194.9,231,196.6,231z"/>
	<path style="fill:#1A0705;" d="M246.4,263.5c-1.2,0.5-1.2,1.7-1.5,2.8c-0.9-0.1-1.8-0.1-2.7-0.2l0,0.1c0.4-1.3,0.1-2.3-1.3-2.6
		c-2.2-4.9,4.1-6.6,4-10.7c0.7,0.9,1.4,1.8,2.2,2.7C245.3,258,246.8,260.8,246.4,263.5z"/>
	<path style="fill:#B6416B;" d="M169,229.4c0,0.4,0,0.9,0,1.3c-2.1,0.4-4.1,0.8-6.2,1.3c-1-1.7-2.6-2.5-4.3-3.3
		c1.2-1.7,2.4-3.4,3.7-5.1c0.9,1.5,1.9,2.9,3.9,2.9C166.2,228.2,167.5,228.9,169,229.4z"/>
	<path style="fill:#9C0D04;" d="M196.6,231c-1.7,0-3.4,0-5.1,0c-0.5-1.4-2.3-2.1-1.8-4.4c3.1-0.4,6.2-1.6,8.6,1.9
		C197.7,229.4,197.2,230.2,196.6,231z"/>
	<path style="fill:#491215;" d="M231.5,243.1c1-1.1,2.9-1.4,2.7-3.4c4.1,0.2,7.2,1.3,6.6,6.4C237.7,245.1,234.6,244.1,231.5,243.1z"
		/>
	<path style="fill:#A1422E;" d="M231.5,243.1c3.1,1,6.2,2,9.3,2.9c0.6,1.2,1.2,2.5,1.8,3.7c-4.4-1.6-8.9-3.2-13.3-4.9
		c0.1-0.5,0.2-1.1,0.4-1.6C230.2,243.2,230.8,243.2,231.5,243.1z"/>
	<path style="fill:#EA2305;" d="M246.4,263.5c0.3-2.7-1.1-5.5,0.6-8c3.5,2,1.2,5.3,1.8,8C248.1,263.4,247.3,263.5,246.4,263.5z"/>
	<path style="fill:#DFC4BE;" d="M166.1,226.4c-2,0-3-1.3-3.9-2.9c0.2-0.8,0.4-1.5,0.6-2.3c2.4-1.1,3.7,0,4.3,2.3
		C166.8,224.5,166.4,225.4,166.1,226.4z"/>
	<path style="fill:#595958;" d="M119.8,497.7c-0.4,0.7-0.6,1.8-1.1,1.9c-1.4,0.2-1.4-1.1-1.6-2C118,497.6,118.9,497.7,119.8,497.7z"
		/>
	<path style="fill:#F7F5EF;" d="M149.4,271.8c1.2,0.9,2.7,1.7,2.3,3.6c-2.3,1.5-0.5,2.6,0.3,3.8c2.1,3.1,4.3,6.2,6.4,9.3
		c0,1.4-0.1,2.7-0.1,4.1c-1.8,0.2-3.2,1.1-2.2,2.9c1.4,2.5,2.5,5.7,6.5,5c0.3,0.5,0.7,1.1,1,1.6c0,1.5-0.2,3.1,1.6,3.8
		c1.9,1.1,2.7,2.8,2.4,5c-1.5,0.2-2.5,0.9-2.5,2.4c-0.3,7.2-0.7,14.4,3.7,20.8c0.1,1.3,0.2,2.5,0.3,3.8c-1.2,1.7-3.3,2.7-3.5,5.1
		c-1.8,4.4-2.9,9.1-5.5,13.2c-1.8,2.9-1.2,6.4-0.1,9.6c-0.7,1.2-1.5,2.5-2.2,3.7c-3.5,0.7-5.1,3.9-7.7,5.8c-1.6-0.5-3.1-0.9-4.7-1.4
		c-0.2-0.4-0.3-0.9-0.5-1.3c-0.8-5.1-8.8-8.6-15.7-6.9c-2.4-2.8-3.5-6.1-3.1-9.8c0.5-7.3-2.4-14.8,1.6-21.8c0.1-0.2,0.3-0.4,0.5-0.5
		c0.7,0.2,0.9-0.2,0.9-0.8c4.4-7.9,5.1-16.5,5.6-25.7c-5.7-0.8-5.3-4.5-5.2-8.8c0.1-9.5,4.4-15.5,12.8-19.2c2.4-0.4,3.2,3.8,6.6,1.9
		C145.9,277.9,147.3,274.8,149.4,271.8z M137.5,296.2c5.1-5,4.9-6.2-1.6-8.4C136.2,290.7,134.8,293.4,137.5,296.2z M153.8,291
		c0.8-2.7,0.2-4.1-2.8-4.6C150.2,289.1,150.9,290.5,153.8,291z"/>
	<path style="fill:#DFC4BE;" d="M162.7,300.5c-4,0.8-5.2-2.5-6.5-5c-0.9-1.8,0.5-2.7,2.2-2.9c1.2,0.1,2.2-0.3,2.8-1.5
		c9.5,10.1,21.9,9.9,34.3,9.7c0.1,0.7,0.2,1.5,0.3,2.2c-1,0.4-2.3,0.3-2.8,1.6c-4.4,0.1-8.9,0.2-13.3,0.2c-3.5-2.2-7.6-1.7-11.3-3
		C166.4,301.5,165.8,295.4,162.7,300.5z"/>
	<path style="fill:#F32403;" d="M205.4,316c3-3.7,9.5-3.7,9.6-9.6c4-0.9,7.3,2.7,10.7-0.9c2.4,5.8,3.4,11.1,7.1,14.7
		c-1.2,3-2.9,4.6-5.7,4.2c1.5-4-1.9-6.8-2.6-10.3c0.4-1.4,1-2.8-0.8-4.5c-2.5,0.7-5.4,1.2-7,4.2c-0.4,0-0.7,0.2-1,0.4
		c-3.2-0.2-6.2,1-9.3,1.8C206,316,205.7,316.1,205.4,316z"/>
	<path style="fill:#F2D06E;" d="M168.8,334.1c-4.4-6.4-4-13.6-3.7-20.8c0.1-1.6,1.1-2.3,2.5-2.4c5.4,1.6,2.7,6.5,3.8,9.8
		c0.1,0.9,0.2,1.7,0.3,2.6C171.3,327,172.7,331.3,168.8,334.1z"/>
	<path style="fill:#F7F5EF;" d="M215.6,314.2c0.3-0.2,0.6-0.3,1-0.4c2.6,0.1,5.2,0.2,7.8,0.3c0.7,3.5,4.1,6.3,2.6,10.3
		c-0.5,0-0.7,0.2-0.8,0.7c-1.2-0.3-2.5-0.6-3.7-0.8l0.1,0.1c-0.2-0.7-0.5-1.4-0.7-2.2c0.8-0.4,1.6-1.3,0.8-1.9
		c-1.2-1-1.8,0.3-2.2,1.2c-1.6-0.1-3.2-0.1-4.9-0.2c-1.1-2.4-2.5-2.4-4.1-0.5c-0.4,0.1-0.7,0.1-1.1,0c-1.8-0.1-3.7-0.1-5.5-0.2
		c0.1-1.3,0.1-2.6,0.2-4l0.3-0.3l-0.1-0.3c0.3,0,0.7,0,1-0.1C209.7,316.8,213.1,317.8,215.6,314.2z"/>
	<path style="fill:#F32403;" d="M202,300.5c5.5-3.3,11.1-6.6,17.5-7.9c1.3,2.3,2.6,4.7,3.9,7c-3.3,2.3-4.6-1.4-6.9-1.4
		c-3.7,0.1-4.6,4.6-8.1,5.1C206,303.2,204.6,300.3,202,300.5z"/>
	<path style="fill:#F32403;" d="M205.2,316.6c-0.1,1.3-0.1,2.6-0.2,4c-0.7,4,1.9,2.5,3.8,2.3c0.1,0.5,0.2,1,0.3,1.4
		c-1.1,1.9-2.9,2.6-4.9,2.8c-5.1-2.4-5.6-7.8-8.1-12c0.8-2.2,2.2-3.7,5.2-3.6C202.4,313.3,200.5,317.8,205.2,316.6z"/>
	<path style="fill:#F32403;" d="M193.1,364.5c-2.4,0-4.8,0-7.2,0c-2.4,0-4.4-0.6-4.8-3.3c-0.4-2.8,1.2-5,3.6-5.5
		c3.8-0.8,7.8-0.8,9.7,3.8C193.3,361,192.4,362.5,193.1,364.5z M187.1,360.2c-1.1-1-2.1-1.2-2.9-0.2c-0.2,0.3,0,1.4,0.3,1.5
		C185.5,362.1,186.5,362,187.1,360.2z"/>
	<path style="fill:#491215;" d="M193.1,364.5c-0.7-2,0.1-3.5,1.3-5c1.7-0.2,3.5-0.4,5.2-0.7c1.9,0.8,4.4-0.4,5.9,1.9
		c1.1,2.4-1.3,3.4-1.9,5.1c-1.8,0-3.6,0-5.3,0.1c-0.6-1.2-1.6-1.1-2.6-0.9C194.8,364.8,194,364.7,193.1,364.5z"/>
	<path style="fill:#F32403;" d="M238.4,302.8c4.3,5.3,1.3,8.7-1.5,13.3C232.7,310.8,234.3,307.2,238.4,302.8z"/>
	<path style="fill:#491215;" d="M209.1,324.3c-0.1-0.5-0.2-1-0.3-1.4c0.6-0.7,1.2-1.4,1.7-2.1c0.4,0.1,0.7,0.1,1.1,0
		c1.2,1.4,2.6,1.3,4.1,0.5c1.6,0.1,3.2,0.1,4.9,0.2c-0.1,0.2-0.1,0.5,0,0.7c-0.1,0.8-0.2,1.5-0.3,2.3c-1.1-0.2-1.8,0.3-2.1,1.4
		c-1.6,0.8-3.2,1.6-5.1,1.3C211.7,326.1,210.4,325.2,209.1,324.3z"/>
	<path style="fill:#F32403;" d="M171.8,323.3c-0.1-0.9-0.2-1.7-0.3-2.6c1-0.6,1.2-1.6,1.6-2.7c1.7-5.1,3.9-5.4,8.3-0.4
		C177,317.9,176.4,323.4,171.8,323.3z"/>
	<path style="fill:#F32403;" d="M157.8,369.6c0.7-1.2,1.5-2.5,2.2-3.7c2.7,0.3,5.6-0.6,8.3,0.7C165.5,371.9,162.2,372.8,157.8,369.6
		z"/>
	<path style="fill:#F32403;" d="M165.6,343c0.2-2.4,2.3-3.4,3.5-5.1c3.8,1,4.1,3.7,3.6,7.4C170,345,168.2,342.4,165.6,343z"/>
	<path style="fill:#B6416B;" d="M145.5,374c1.6,0.5,3.1,0.9,4.7,1.4c0,1.5,0,3.1,0,4.6c-1.5,0.3-2.9,0.7-4.3-0.4
		C144.8,377.8,145.2,375.9,145.5,374z"/>
	<path style="fill:#F32403;" d="M187.5,322.7c3.6-0.8,6.2-1.2,8.9,0.1C193.2,327,193.1,327,187.5,322.7z"/>
	<path style="fill:#1A0705;" d="M235.9,274.6c0.4-3.7,1.4-7.2,4.3-9.8c0.5,0.7,0.5,2.2,2.1,1.4l0-0.1c-2.2,1.7-2.2,4.3-2.6,6.7
		C238.3,273.4,237.1,274,235.9,274.6z"/>
	<path style="fill:#F32403;" d="M179.7,304.8c4.4-0.1,8.9-0.2,13.3-0.2C188.6,306.7,184.2,310.3,179.7,304.8z"/>
	<path style="fill:#F32403;" d="M169.4,354.6c2.7-1,4.2-0.3,4.5,2.2c0.1,0.6-0.9,1.7-1.5,1.8C169.6,359,169.2,357.2,169.4,354.6z"/>
	<path style="fill:#F32403;" d="M194.9,330.4c-2.8,2.8-4.4,4.2-7.1,2.4C188.6,328.6,191.3,330.3,194.9,330.4z"/>
	<path style="fill:#F32403;" d="M183,394.5c-2.3-2.7-2.5-4.3,0-6C185.5,390.2,185.3,391.8,183,394.5z"/>
	<path style="fill:#F32403;" d="M213.1,327c1.9,0.4,3.5-0.4,5.1-1.3c0.5,1.4,1,2.8,1.4,4.2l0,0C217.3,329.3,213.6,331.8,213.1,327z"
		/>
	<path style="fill:#F32403;" d="M235.9,274.6c1.2-0.6,2.5-1.2,3.7-1.8c0.1,2.8,0.3,5.6-3.9,5.3C235.8,276.9,235.8,275.7,235.9,274.6
		z"/>
	<path style="fill:#F32403;" d="M194.4,371.1c-2.6,1.7-4.3,1.8-6.5,0.1C189.9,369.5,191.7,369.5,194.4,371.1z"/>
	<path style="fill:#F32403;" d="M177.1,346.5c0.5-4,2.5-3.1,4.9-2.6C181,346.2,179.7,346.9,177.1,346.5z"/>
	<path style="fill:#F32403;" d="M161.2,378c-0.8,2.7-3.2,2.6-5.2,3C156.2,377.5,157.1,375,161.2,378z"/>
	<path style="fill:#F32403;" d="M176.1,362.4c1.3,1.7,1,3,0,4.2c-1.8,0-2.8-0.8-2.6-2.3C173.6,363.2,174.4,362.4,176.1,362.4z"/>
	<path style="fill:#F32403;" d="M208.2,306.4c0.8,1.8,0.6,2.7-0.2,3.6c-0.6,0.7-1.3,1.1-2.5,0.4
		C205.4,308.6,205.8,307.1,208.2,306.4z"/>
	<path style="fill:#F32403;" d="M176.3,334.5c1.9-0.2,3,0.5,2.8,2.1c-0.1,1.1-1.1,1.3-2,1C175.3,336.9,176,335.7,176.3,334.5z"/>
	<path style="fill:#F32403;" d="M184.4,312.2c1.4-1.3,2.7-0.9,4,0c-0.2,1.9-1.5,1.7-2.5,1.7C184.9,313.8,184.2,313.3,184.4,312.2z"
		/>
	<path style="fill:#F32403;" d="M162.7,300.5c3.1-5.2,3.8,1,5.7,1.3c-1.1,0.1-2.2,0.1-3.2,0.2c-0.5,0-0.9,0.1-1.4,0.1
		C163.3,301.6,163,301.1,162.7,300.5z"/>
	<path style="fill:#F32403;" d="M178.9,326.8c0.9-0.9,1.8-1,2.7-0.1C180.4,328.2,180.4,328.2,178.9,326.8z"/>
	<path style="fill:#F32403;" d="M222.6,324.2c1.2,0.3,2.5,0.6,3.7,0.8c-0.3,1.1-0.7,2.1-2,2C222.4,326.9,222.4,325.6,222.6,324.2z"
		/>
	<path style="fill:#B6416B;" d="M195.8,303c-0.1-0.7-0.2-1.5-0.3-2.2c1.3,0,2.6,0,3.9,0C199.3,303.3,197.7,303.3,195.8,303z"/>
	<path style="fill:#F32403;" d="M219.6,329.9c1,0.1,2,0.1,3,0.2C221.2,332.4,220.1,333.1,219.6,329.9L219.6,329.9z"/>
	<path style="fill:#F32403;" d="M195.7,365c1.1-0.2,2.1-0.3,2.6,0.9C196.7,367.8,196,366.7,195.7,365z"/>
	<path style="fill:#EDE6DB;" d="M163.7,302.1c0.5,0,0.9-0.1,1.4-0.1c0.1,1.3,0.1,2.6,0.2,3.9C163.4,305.2,163.7,303.6,163.7,302.1z"
		/>
	<path style="fill:#F32403;" d="M220.3,324.4c0.1-0.8,0.2-1.5,0.3-2.3c0.5,0,0.9,0,1.4,0c0.2,0.7,0.5,1.4,0.7,2.2
		C221.9,324.3,221.1,324.4,220.3,324.4z"/>
	<path style="fill:#3D3B3B;" d="M295.5,494.9c-0.4,0.4-0.9,0.9-1.3,1.3c-1.9,0-3.3,0.9-4,2.7c-0.4,0.4-0.9,0.9-1.3,1.3
		c-2.6,0.1-3.9,1.4-4,3.9c-4.6-0.9-4.9,5.8-9.3,5.3c-4.8,0.1-10-1-13.3,4c-7.3-0.4-14.4,0.6-21.3,3.3c-4.3,1.7-8.9,2.2-13.6,2.1
		c-11.2-0.2-22.5-0.5-33.7,0.1c-12.4,0.6-23.8-2.8-35.2-6.9c2.6-2.1,5.4-1.4,8.1-0.4c6.4,2.5,13.1,3.2,19.9,3.1c7.5,0,15,0,22.5,0
		c2.7-0.2,5.7,1.2,8-1.2c3.1,0,6.2-0.1,9.3-0.1c6.3,0.3,12.6,1,17.6-4.4c0.9-1,3.3-0.6,5-0.9c14.1,0,27-2.9,38.4-12.4
		c3.9-3.2,8.1-7.2,13.5-8.6C300.6,490.8,296.6,491.9,295.5,494.9z"/>
	<path style="fill:#9C0D04;" d="M312.3,479.8c-1.9,0-3.3,1.1-4.8,2c-0.8,0-1.7-0.1-2.5-0.1l-0.2-0.1c0.6-5,4.2-9.4,3-14.7
		c-0.1-0.4-0.3-0.9-0.4-1.3c-0.9-2.2-2.7-2.7-4.9-2.6c-1.8,0.1-3-0.6-3.1-2.6c0.6-0.2,1.1-0.6,1-1.4c0.3-0.2,0.6-0.3,0.9-0.2
		c11.9,2.8,11.9,2.8,10.2,15.2c-0.1,1,0.4,1.6,1.1,2.2c0,1.2-0.1,2.5-0.1,3.7L312.3,479.8z"/>
	<path style="fill:#491215;" d="M248.9,508.1c-1.7,0.3-4.1-0.1-5,0.9c-5,5.4-11.3,4.7-17.6,4.4c0.5-3.2,3.1-2.6,5.1-2.5
		c5.5,0.3,9.1-2,10.4-7.7C245.2,503.4,248.2,503.9,248.9,508.1z"/>
	<path style="fill:#491215;" d="M186.4,514.7c-6.8,0.2-13.5-0.6-19.9-3.1c-2.7-1-5.5-1.7-8.1,0.4c-1.8-0.5-2.5-2-3-3.6
		c1.4-0.1,2.9-0.2,4.3-0.2c8.6,0.7,16.7,4.1,25.4,4.5C185.6,512.7,186,514,186.4,514.7z"/>
	<path style="fill:#464646;" d="M304.9,481.8c0.8,0,1.7,0.1,2.5,0.1c-1.1,7-4.9,11.5-12,13.1c1.1-3.1,5.1-4.2,5.3-7.8
		C302.7,485.8,304.4,484.2,304.9,481.8z"/>
	<path style="fill:#491215;" d="M307.8,466.9c1.2,5.3-2.5,9.7-3,14.7c-2.9-0.3-3.2-2.4-2.3-4.3C304.1,473.8,305.1,469.9,307.8,466.9
		z"/>
	<path style="fill:#491215;" d="M299.5,460.4c0,2,1.3,2.7,3.1,2.6c2.2-0.1,3.9,0.4,4.9,2.6c-3.9-0.5-8.7,1.7-10.7-3.9
		C297.7,461.3,298.6,460.9,299.5,460.4z"/>
	<path style="fill:#491215;" d="M217,513.5c-2.4,2.4-5.3,1-8,1.2C211,510.4,214,512,217,513.5z"/>
	<path style="fill:#491215;" d="M384.9,385.1c-0.2,1.2-0.3,2.4-0.5,3.7c-2-0.3-3.6,0.2-5.5,1c-7.6,3-15.4,5.7-23.6,6.4
		c0-0.8,0-1.6,0.1-2.4c7-4,14.7-6.1,22-9.3C380.1,383.2,382.6,382,384.9,385.1z"/>
	<path style="fill:#9C0D04;" d="M355.2,396.2c8.2-0.8,16-3.4,23.6-6.4c2-0.8,3.6-1.2,5.5-1c-1.8,2.8-1.2,7.4-5.9,8.1
		c-3.6-3.5-7,0-10.4,0.5c-5.8,0.9-10.6,5.7-17,4.3c-0.2-0.4-0.3-0.8-0.3-1.2c0.9-1.2,1.8-2.3,2.7-3.5
		C354.1,396.7,354.6,396.4,355.2,396.2z"/>
	<path style="fill:#F2D06E;" d="M129.2,365.8c7-1.7,15,1.8,15.7,6.9c-2.8-0.9-4.3,1.8-6.9,2.6C136.3,371.1,129.5,371.7,129.2,365.8z
		"/>
	<path style="fill:#010101;" d="M150.4,388.5c4.8,1,4.6,3.2,2.2,6.6c-3-1.7-1.7-4.1-2.4-5.8C150,389,150.1,388.7,150.4,388.5z"/>
	<path style="fill:#A1422E;" d="M299.6,353.8c-2.1,2.9-1,7.8-5.5,9.3c0.7-4.1-3.9-7.7-1.2-12C295.4,351.3,298.3,350.6,299.6,353.8z"
		/>
	<path style="fill:#D20E03;" d="M351.2,401.7c6.4,1.3,11.2-3.5,17-4.3c3.4-0.5,6.8-4,10.4-0.5c-0.6,6.7-4.6,11.9-7.4,17.7
		c-0.4,0.2-1,0.3-1.1,0.6c-3.4,7.7-9.7,13.5-12.8,21.3c-6.8,6-12.3,13.4-19,19.6c-5.3,4.9-10,10.3-16.5,13.8c-0.6,0.3-0.7,1.5-1,2.4
		c-2.7,1.4-5.3,2.8-8,4.2c-0.7-0.6-1.2-1.2-1.1-2.2c1.7-12.4,1.7-12.4-10.2-15.2c0.5-0.8,0.9-1.5,1.4-2.3c4.2-2,7.4-5.3,10.6-8.7
		c4.4-4.7,9.1-9,13.7-13.4c1.4,2.1,3.4,3.3,6.8,4.5c-1.7-6.3,3.5-4.7,6.3-6c0.4-3.6-3.6-4.7-3.6-7.7
		C342.5,418.1,345.6,409.2,351.2,401.7z"/>
	<path style="fill:#47CE27;" d="M327.1,434.5c-4.6,4.4-9.4,8.7-13.7,13.4c-3.2,3.4-6.4,6.6-10.6,8.7c-10.5-7.7-11.7-19.9-3-30.5
		c1.2-1.5,3-2.6,3.6-4.6c2.2-7.9,7.9-10.8,15.5-10.3c5.3,0.3,9.5-2.1,13.5-4.7c5.8-3.6,12-5.1,18.6-6c0,0.4,0.1,0.8,0.3,1.2
		c-5.5,7.5-8.6,16.4-14.6,23.6C333,428,329.7,430.9,327.1,434.5z"/>
	<path style="fill:#EA2305;" d="M258.2,266.2c-0.8-1.2-1.6-2.5-2.3-3.6c0.2-2,2.1-2.1,3.1-3c-0.1,2.2-0.2,4.5,0.7,6.6
		C259.2,266.1,258.7,266.1,258.2,266.2z"/>
	<path style="fill:#EA2305;" d="M225.5,373.4c0.4,0.5,0.8,1.1,1.2,1.6c-3.2-0.9-7.7,2.8-9.7-2.7C219.8,372.7,222.7,373,225.5,373.4z
		"/>
	<path style="fill:#EDE6DB;" d="M149.4,271.8c-2.1,3-3.5,6.1-0.6,9.3c-3.4,1.9-4.2-2.3-6.6-1.9c1.4-3.1,2.8-6.1,4.2-9.2
		c1,0.5,1.9,0.9,2.9,1.4L149.4,271.8z"/>
	<path style="fill:#F7F5EF;" d="M149.3,271.4c-1-0.5-1.9-0.9-2.9-1.4c0.2-1.3,0.4-2.6,0.6-3.9c0.7,0,1.3,0,2,0
		C149.1,267.9,149.2,269.7,149.3,271.4z"/>
	<path style="fill:#B8B8A3;" d="M129.1,332.9c0,0.6-0.2,1-0.9,0.8C127.9,332.8,128.5,332.9,129.1,332.9z"/>
	<path style="fill:#EA2305;" d="M253.9,326c0.3,0.4,0.3,0.8,0.2,1.3c-0.2-0.3-0.4-0.6-0.6-0.9C253.5,326.3,253.8,326.1,253.9,326z"
		/>
	<path style="fill:#0D0303;" d="M416.8,139.9c0.5-0.4,0.9-0.8,1.4-1.2c5.1,0.2,8.6,4.2,7.5,8.7c-0.8,3.4-3.2,2.9-5.7,2.1
		c-0.9-0.9-1.7-1.7-2.6-2.6C416.2,144.6,416.6,142.3,416.8,139.9z"/>
	<path style="fill:#9C0D04;" d="M28.4,231.6c-2.4-1.9-2.3-3.3,0.9-4c0.1,0.9,0.3,1.8,0.4,2.6C29.3,230.7,28.8,231.2,28.4,231.6z"/>
	<path style="fill:#3D3B3B;" d="M299.4,364.6c-0.8,1.4-1.1,3-2.6,4C293.8,364.7,296.7,364.7,299.4,364.6z"/>
	<path style="fill:#595958;" d="M312.6,476.3c2.7-1.4,5.3-2.8,8-4.2c0.5,3.4-2.4,6.6,0,10.3c-3.5-0.1-5.9-1-8.1-2.4
		C312.5,478.7,312.6,477.5,312.6,476.3z"/>
	<path style="fill:#464646;" d="M262.1,513.5c3.3-5,8.5-3.9,13.3-4C271.5,512.4,266.8,512.7,262.1,513.5z"/>
	<path style="fill:#464646;" d="M284.8,504.2c0.1-2.5,1.5-3.9,4-3.9C288.7,502.8,287.4,504.1,284.8,504.2z"/>
	<path style="fill:#464646;" d="M290.1,498.9c0.7-1.8,2.1-2.7,4-2.7C294,499,292.1,498.9,290.1,498.9z"/>
	<path style="fill:#EA2305;" d="M176,290.4c-1.1,1.6-2.4,2.6-4.4,2c-0.3-3.7-3-2-4.9-2.2c-2.4-2.2-2.6-5.5-3.7-8.3
		c-1.4-3.8-0.6-7,4-8.9c7-2.9,12.8-2,15.5,3.3c-0.2,1.1-0.4,2.2-0.6,3.3c-3.5-0.3-7.6-1.3-5.5,4.9
		C175.7,286.4,175.8,288.4,176,290.4z"/>
	<path style="fill:#B6416B;" d="M229.6,243.2c-0.1,0.5-0.2,1.1-0.4,1.6c-7-0.6-13-3.8-19.2-6.6c0.2-0.7,0.5-1.5,0.7-2.2
		c3.3,0.1,5.6,3.1,9,3.1C222.4,241.7,227.3,239.5,229.6,243.2z"/>
	<path style="fill:#B6416B;" d="M182,279.6c0.2-1.1,0.4-2.2,0.6-3.3c5.2,1.9,5,3.8-0.7,9.2c-0.4-0.4-0.7-0.8-1.1-1.2
		C181.2,282.8,181.6,281.2,182,279.6z"/>
	<path style="fill:#B6416B;" d="M176,290.4c-0.2-2-0.3-4,0.4-5.9c1.4,0,2.9,0,4.3-0.1c0.4,0.4,0.7,0.8,1.1,1.2
		C180.8,288.3,179.1,290.2,176,290.4z"/>
	<path style="fill:#8E8E8E;" d="M210.7,236c-0.2,0.7-0.5,1.5-0.7,2.2c-2.3,0-4.4-0.8-6.4-1.7c0.1-0.9,0.2-1.7,0.2-2.6
		C206.3,234.1,208.7,234.5,210.7,236z"/>
	<path style="fill:#B6416B;" d="M166.7,290.2c1.9,0.2,4.6-1.5,4.9,2.2C169.4,293,167.5,292.8,166.7,290.2z"/>
	<path style="fill:#EDE6DB;" d="M161.2,291.1c-0.6,1.2-1.6,1.6-2.8,1.5c0-1.4,0.1-2.7,0.1-4.1C159.9,288.9,160.9,289.7,161.2,291.1z
		"/>
	<path style="fill:#EDE6DB;" d="M152.1,279.2c-0.9-1.2-2.6-2.3-0.3-3.8C153,276.6,152.3,277.9,152.1,279.2z"/>
	<path style="fill:#F32403;" d="M242.3,266.1c-1.5,0.8-1.6-0.6-2.1-1.4c0.2-0.4,0.5-0.8,0.7-1.3
		C242.3,263.9,242.6,264.8,242.3,266.1z"/>
	<path style="fill:#EDE6DB;" d="M137.5,296.2c-2.7-2.9-1.4-5.6-1.6-8.4C142.5,290,142.7,291.2,137.5,296.2z"/>
	<path style="fill:#EDE6DB;" d="M153.8,291c-3-0.5-3.6-1.9-2.8-4.6C154,286.9,154.6,288.3,153.8,291z"/>
	<path style="fill:#DFC4BE;" d="M224.5,314.1c-2.6-0.1-5.2-0.2-7.8-0.3c1.6-2.9,4.5-3.4,7-4.2C225.5,311.3,224.9,312.7,224.5,314.1z
		"/>
	<path style="fill:#DFC4BE;" d="M215.6,314.2c-2.5,3.6-5.9,2.6-9.3,1.8C209.4,315.2,212.4,314,215.6,314.2z"/>
	<path style="fill:#DFC4BE;" d="M210.5,320.8c-0.6,0.7-1.2,1.4-1.7,2.1c-1.9,0.3-4.5,1.7-3.8-2.3
		C206.9,320.7,208.7,320.7,210.5,320.8z"/>
	<path style="fill:#DFC4BE;" d="M215.7,321.3c-1.5,0.8-2.9,0.9-4.1-0.5C213.2,318.9,214.6,318.9,215.7,321.3z"/>
	<path style="fill:#DFC4BE;" d="M222,322.1c-0.5,0-0.9,0-1.4,0c-0.2-0.2-0.2-0.4,0-0.7c0.5-1,1-2.3,2.2-1.2
		C223.6,320.9,222.8,321.7,222,322.1z"/>
	<path style="fill:#491215;" d="M187.1,360.2c-0.6,1.8-1.6,1.9-2.6,1.4c-0.3-0.2-0.5-1.3-0.3-1.5C185,359,186,359.2,187.1,360.2z"/>
	<path style="fill:#D21104;" d="M327.1,434.5c2.6-3.6,5.9-6.5,9.4-9.2c0,3,4,4.1,3.6,7.7c-2.7,1.3-7.9-0.3-6.3,6
		C330.5,437.7,328.5,436.6,327.1,434.5z"/>
	<path style="fill:#491215;" d="M180.8,284.4c-1.4,0-2.9,0-4.3,0.1c-2.1-6.1,2-5.2,5.5-4.9C181.6,281.2,181.2,282.8,180.8,284.4z"/>
</g>
<g>
</g>
<g>
</g>
<g>
</g>
<g>
</g>
<g>
</g>
<g>
</g>
<g>
</g>
<g>
</g>
<g>
</g>
<g>
</g>
<g>
</g>
<g>
</g>
<g>
</g>
<g>
</g>
<g>
</g>
</svg>
