<svg xmlns="http://www.w3.org/2000/svg" width="476" height="532" viewBox="0 0 476.2 532.4" style="enable-background:new 0 0 476.2 532.4">
 <path d="m190 0c1.3 0 2.7 0 4 0 3.3 5 9.4 3.8 13.8 6.3 6.6 3.6 12.9 5.6 19.3-.7 1.5-1.4 3.9-2 6-2.6 2.9-.8 5.9-.8 7.5 2.5 2.4 5 6 5.3 10.4 2.9 5-2.6 10-2.1 15.4-1 9.9 2.1 19.3 6.5 29.7 6.5 1.8 0 3.4.7 4.6 2.2 3.7 4.4 7.8 3.8 11.6.4 3.5-3.1 6.8-3.9 10.7-1.3 2.7 1.9 5.4 1.3 8.2.4 7.8-2.5 12.4-1.1 14.6 6.6 2.4 8.3 8 10 15.2 11 8.9 1.2 17.4 4.1 24 10.3 7.2 6.8 13.8 14.3 20.6 21.5 0 4.8-.1 9.4 2.3 14 5.8 11.5 4.6 15.4-5.8 22.8-.1.1-.1.4-.3.7.1 2.7 2.1 3.4 4.5 3.6 11 .7 21.3 3 27.7 13.3.1.1.4.1.6.1 1 1.7 2.1 3.3 3.1 5-.3 1.7.8 2.8 1.7 4 3.8 5.4 2.4 11.5-3.4 14.7-1.1.6-2.4.9-3 2.2-4.1 0-6-2.4-7.4-6-2-5-3.7-5.3-8.6-1.9-.4.5-.7 1.1-1.1 1.6-1.9 2.8-1.9 5.7.1 8.5.3 1.5 1.2 2.4 2.7 2.7 5.3 4.8 11.4 3.3 17.4 2.2 9.2 4.4 14 14.3 12.5 24-1.1 7.6-1.6 15.8 2.5 22.6 3.8 6.3 4.2 12 2.4 18.7-1.9-.2-3.9-.6-5.4 1.2-3.6 4.7-2.9 9.7-1.1 14.7.5 3-.1 6.3 2.5 8.8 1 5.2 2.7 10.6-3.1 14.4-.8.5-1 1.8-1.5 2.8-4.3 1.2-8.3 2.7-10.2 7.2.8 4.7 1.6 9.3 2.4 13.6-1.2 2-2.8 3.4-4.4 3.3-7.3-.1-7.9 4.8-8.1 10-.1 2 .3 3.9.4 5.9.1 7.1.1 14-6.2 19-.5.4-.5 1.6-.7 2.4l.2-.1c-9.6.1-10.3.8-10.7 10.6-1.3 2.9-3.9 5.5-6.3 6.2-7.8 2-10.5 8.4-13.9 14.4-1.5 1.2-3 2.4-4.5 3.7-1.6 1.7-7.6-.9-4.9 5-3.4 2-7 3.3-11 3-.7.1-1.4 0-2 .3-11.6 4.5-23 9.4-35.6 11-5.9.8-11.9 1.7-17 4.7-7.1 4.3-14.2 7.4-22.8 6.7-4.6-.4-8.8 1.7-9.1 7.4-.1 2.2-1.3 3.4-2.9 4-4.7 1.8-6.5 5.2-6.8 10-.2 2.8-1.5 5.5-2.5 8.2-1.7 4.9-2.6 9.5 2.8 12.8 1.6 1 1.4 2.6 1.6 4.1-.6 2.2-1.9 4.1-1.4 6.5 5.3 2.8 10.9.6 16.4 1.4-.1 1.7-.2 3.5-.3 5.2-3.8 7.9-5.6 16.7-11 23.9-2.7.6-5.2 1.4-6.6 4-.5.4-.9.9-1.4 1.3-10.8 7.3-22.8 11.3-35 14.3-4.5 1.1-7.4 0-7.5-5.3-.1-1.9-1.2-2.7-3-2.5-1.7.2-2 1.4-1.9 2.8-2.8 3.7-3 9.9-10 9.4-21-1.5-42.6 3-63-2.9-6.2-1.7-12.5-3.5-18.6-5.9-5.7-2.2-10-6.8-15.9-8.4-1.4-1.8-3.3-1.4-5.1-1.3-3.6-2.7-7.1-5.3-10.7-8 .7-5.2-2.5-5.9-6.5-5.6-4.8-6.8-11-12.8-13.3-21 1.3-1.2 2.3-2.9 3.8-3.5 4.1-1.7 4.5-8.3 10.3-7.4 1.9 1.5.8 4.3 2.6 5.8 1.5 4.1 3.8 7.4 7.9 9.3 3.2 4.1 6.9 7.2 12.5 6.8.2.6.4 1.3.7 1.8.9 1.6 2.1 3 4.1 2.5 1.4-.4 2-1.6 1.9-3-.1-2.7-1.9-3.1-4.1-3-.6 0-1.3-.3-1.9-.5-.9-3.9-6-2.7-7.5-6.1.5-1.4.9-2.8 1.4-4.2 2.2 0 4.4-.1 6.6-.1 3 2.1 5.9 3.1 8-1.1 5.1-.2 10-2.7 15-1.3 5.9 1.7 11.4.6 17-.7 2.2-.5 4.3-.6 6.5-.3 0 .8 0 1.5 0 2.3 0 1.1.2 2.1 1.3 2.7.2 1.1.3 2.3 1.7 2.4 1.8.2 2.1-1 2.3-2.4 0-.9 0-1.8 0-2.7 1-.5 1.3-1.3 1.4-2.4.5-.5 1-1.1 1.5-1.6 3.9-1.2 2.3-3.8 1.8-6.2-3.2-.5-6-1.5-7.8 1.8-4.8-2.3-10.7-3.3-11.6-10-2.7-7.4-2.7-14.8-.2-22.3 7-2.7 4.5 10.2 12.4 8.1-5.7-6.7-5.9-13-3.2-20.5 2.5 1.3 4.6 3.3 7.4 2.5.4 0 .7.1 1.1.1 0 3.6 0 7.1 0 10.7-4.8 2.3-4.8 4.2-.1 8 1.9 2.7 3.8 5.3 5.7 8 .2 1.4 1.1 2.2 2.4 2.6 4.6 4.9 10 3 14.9 1.2 6-2.2 10-9.9 9.4-15.5.4-3.2.7-6.3 1.1-9.5 1.3-3.7 5.6-5.2 6.6-9.1 3.6-3 7.8-2.3 11.9-2.2v.4c.3 1.8-.7 4 1.4 5.4-.2 2.5.5 4.8 1.6 6.9 1.3 2.3 2.2 5.7 6.2 3.5 3.8.4 8 1.8 9.2-3.9 2.4-.7 3.3-3.3 5.9-4 2.6-.7 2.5-3.2 1.1-5.3-3.2-4.6-7.8-6.8-13-8.1-1-.9-2.1-1.8-3.1-2.7-.6-3.4-3.3-2.1-5.3-2.4-1.3-3.8 2.7-6.2 2.5-9.7.2-2-.1-3.5-2.7-3.4-1.9.1-4.2.6-5.6-1.3-3.4-4.6-8.2-4.5-13-4.2-3.4.3-6.2-1.2-9.1-2.5-1.7-1.1-3.4-2.1-5.1-3.2-.2-1.8-.4-3.5-.6-5.3 3.3-4.8 9.3-4.8 13.7-7.8 2.2 0 4.4-.1 6.7-.1l.5.2h.6c3.9 4.6 11.7.7 14.4 7.3 2.7-2.5 4.1-4.6 4.1-7.4 1.3-2.2 3.8-2.5 5.7-3.8 4.7-1.5 7.2 2.2 10.4 4.3 1 2.2 2.5 3.9 3.1 6.7.7 3.5 1.8 7.3 4.2 10.6 4.6 6.4 11.2 7.8 18.4 9.2-.4 3.9 1 7.2 2.6 10.3-.1 1.8-.2 3.9 2.2 4 2.5.1 4.2-1.2 3.9-4.1l.3.1c5.3 3.5 9.6 1.8 13.4-2.7.6 3.3 2.5 3.5 4.4 1.4 2.7-3.1 5-6.7 2.8-11.2l.4.1c1.7.3 3.1 1.7 5.1 1.1.5-2.3 1.1-4.6 1.7-6.9.5-2-.4-2.9-2.3-3-.1-.7-.3-1.3-.4-2 .6-2.4 1.1-4.8 1.7-7.2 1.4-.2 3.2.5 3.7-1.7-.8-1.9-1.9-2.9-3.8-1.1-1.2-.4-2.5-.9-3.7-1.3-5.4-3.1-11.3 0-17-1.3 3.1 4.1 7.7 1.9 11.6 2.7.7 4.1-1.2 6.5-5 7.6-1.5.4-2.9.9-3.4 2.5-2.2-4-7-4.1-10-6.8-2.1-4.8-4.8-8.7-11-7.4-3-1.2-5.2-3.6-7.5-5.8-3.9-6.6-3.9 2.5-6.4 1.6-1.2-2.1 1.2-5.6-2.6-6.7-.3-.4-.6-.8-.9-1.2.2-2.9.3-5.8-3.5-6.7-2.1-1.3-.9-3.5-1.3-5.2 1.1-2.3 4.4-3.4 3.9-6.7l.6.2c3.4-.1 3.8-2.1 3-4.9.1-.5.1-1 .2-1.6 1.8-2.7 1.6-5.7 1.6-8.7 0-4.1.5-8 2.6-11.6.9.1 1.8.2 2.6.2 5.1.6 4.7-3.9 4.6-6.2 0-2.8.5-4.8 1.9-7.1 2 1.5 2.1 5.8 5.5 2.5 1.9 1.2 4 1 6.1.9 1.2.3 2.3.3 3.2-.7 1.3-.1 2.5-.2 3.8-.3.5.1 1 .2 1.5.3.9 1.1 2.1 1 3.2.5 1.1 0 2.2.1 3.3.1 7.7 4.9 11.2 4.1 16-3.6 1.9-.1 3.4-.8 4.3-2.6 1.7-.1 4.2-.2 3.3-2.7-1.5-3.9-2.3-8.7-7.8-9.3-.8-4.8-.9-9.7-.2-14.5.8-5.2-1-9.3-4.2-13.3-4-5.1-9.5-8.4-13.9-13-2.6-2.8-3.1-6.9-6.3-9.1-10.3-7-22-11.2-33.8-13.6-8.5-1.7-17.6-.1-26.4 0-6-.7-11.7.6-17.4 2.3-1.1.1-2.4-.1-3.2.4-8 4.7-14.9 10.9-20 18.4-3.8 5.5-8.3 6.4-13.9 5.6-2.8-.4-5.3-.6-6.7 2.4-2.2.8-3.7 2.3-4.7 4.4-.6.3-1.1.6-1.7.9-5.8-.7-3.9 3.6-4.3 6.5-.6 1.2-2 2-1.7 3.5-1 1.9-1.8 3.9-1.9 6.1-.7 1.6-1.3 3.1-2 4.7-1.7 1-1.9 2.7-1.9 4.4-.5 2.6.2 5.4-.9 8-.9.5-.8 1.5-1.1 2.2-3.1 6.7-2.7 14.9-9.2 20-11.5 8.9-13.4 20.9-11 34 6.2 1.9 5.7 1.9 5.4 7.6-.3 7-5.5 10.7-8.9 15.7-2.2 1.4-4.1 3.8-6.9 3.7-11.7-.4-22.5 6.4-34 4.6-.9-.1-1.8-.3-2.7-.4-3.5-5.3-4.9-11-4.2-17.5.6-5.5-1.4-9.8-6.6-12.6-2.6-1.4-5.5-2.9-6.9-5.9 1.1-4.3-1.9-5.8-4.9-7.4-4.1-2.5-6.1-6.9-9.2-10.3.1-2.8-1.5-4.6-3.5-6.2-3.1-3.9-1.9-8.9-3.2-13.3.4-3.3.8-6.6 1.2-10-2-.4-3.6-.7-5.3-1.1-2.5-2.1-2.7-5.6-4.7-8-1.2-6.4-1.3-12.8 1.3-18.9 3.6-3.4 3.3-7 .5-10.6-2.2-2.9-3.7-6-2.9-9.8 10.5-10.3 10.5-10.3.8-21.9-.4-.5-.8-1.1-1.3-1.5-2.1-2.3-2.2-4.6-.3-7.1 3.5-4.7 4.9-10.3 6.5-15.8 1.3-4.4 1.1-9.3 4.6-12.8 5.3.7 8.8 4.2 12.4 7.6.4.4.9.9 1.3 1.3 1.4 1.7 2.8 1.7 5.8.3-2.6-.5-3.8-.7-5.1-.9-.5-.5-.9-.9-1.4-1.4-.1-2.7-1.4-6 2.4-7.3 3.8-1.3 5.9 1 7.5 5.3 1.1-8.3-4.3-8.5-8.6-9.3-5-1-8.8-2.7-9-8.5 2.1-3.3 5.4-6.1 5.4-10.3 0-4.6 2.6-6.6 6.3-8.2 2.2-.9 4.2-2.4 6.2-3.6 3.3.1 4.8-2.2 5-4.9.3-3 .1-6.1-.2-9.1-.3-3.1.9-4.9 3.9-5.9 7.3-2.4 7.3-2.6 2-8.3-.7-.8-1.2-1.8-1.7-2.7 3.4-3.7 10-4.5 11.2-9.8 1.9-8.4 7.1-14.5 11.5-21.4 3.2-5 7.3-8.1 13-7.8 9.5.6 14.3-4.9 18.8-11.9 5.7-8.8 9.4-9.6 19.3-6.4 4 1.3 8.6 2.7 11.7-2.5 4.6-7.6 4.7-7.5 12.8-3.9 6.7 3 10 1.5 13-5 1.9-4.1.6-8.2.1-11.5 1.4-3 5-1.9 6-4.4m25.4 475c0 1.5-2.2 3.2.2 4.5 2.6 1.4 4.3-.1 5.8-2-1.6-2.8-4.3-1.4-6-2.5-.3-1.1 1.4-2.3-.1-3.8-2-.4-4.4-1-6.7-1.2-1.8-.2-3.7.4-3.8 2.6-.1 2.4 1.3 3.7 3.7 3.5 2.3-.1 4.6-.7 6.9-1.1m226-283c-2.4-5.4-6.9-8.9-10.9-12.8-1.2-1.2-2.9-1-4.3-.1-1.4.9-2 2.2-1.7 3.9.8 5.1 10.9 10.8 16.9 9m-34 76c-.8 4.7.2 8 5 8.7 2.2.3 4.3-1.1 3.8-3.4-1-4-3.7-6.4-8.8-5.3m-272 197c2.7-.1 3.6-2.2 3.9-4.4.2-1.5-.9-3-2.7-3.1-2.4-.1-4.5.8-4.8 3.4-.3 2.3 1.4 3.6 3.6 4.1m110-94c2.6 4.5 5.1 6.5 10 5.5-2.4-3.7-4.9-5.6-10-5.5m-99 97c2.1-.1 2.7-1.5 2.9-3.1.2-1.8-.8-3-2.6-3.1-1.8 0-2.7 1.4-2.8 3.1-.1 1.7.7 3 2.5 3.1m-61-194c-1.6.5-2.9 1.4-2.7 3.6.2 1.7 1.3 2.8 3 2.8 2.1-.1 2.8-1.9 2.9-3.6.2-2-1.3-2.7-3.2-2.8m82-225c2.6-1.2 3.1-2.9 1.7-4.9-1.2-1.8-2.9-1.7-4.6-.5-.5.4-.7 1-1 1.5.6 2 1.8 3.1 3.9 3.9m131-24.4c-2.7-.9-4.8-.8-5.5 2.4-.3 1.2.7 2.2 1.8 2.3 3.1.2 4.2-1.4 3.7-4.7m-38 299c5.6 1.5 5.6 1.5 6-3.7-2.6-.1-4.6.6-6 3.7m-131 135c-1.6-3.6-3.3-3.8-5.9-1.3 1.5 3.1 3.3 3 5.9 1.3m-19-364c2.1 2.9 3.8 3.3 6.5.8-2.2-2.4-3.9-2.6-6.5-.8m210-70c-1 2.2-1.7 3.7.6 5.1 2.5-1.5 2.7-3-.6-5.1m-92 8.8c1.3-2.8.3-3.9-2.6-4.4-.9 2.7-.2 4.1 2.6 4.4m5.8 333c2.5 1.8 4.3 1.8 6.8 0-2.4-1.9-4.2-1.9-6.8 0m198-148c-.2-.8-.5-1.6-1.5-1.7-1.3-.1-2.1.5-2.1 1.8 0 .9.4 1.6 1.5 1.7 1.3.1 1.9-.6 2.1-1.8m-273 252c0-.9-.3-1.7-1.3-1.9-1-.2-1.8.1-2.1 1.1-.3 1.3.6 2.1 1.7 2.4.9.1 1.5-.6 1.7-1.6m11.6 1.7c-.3-.3-.7-.8-1.2-.9-.9-.2-1.7.4-1.6 1.3 0 .4.7 1.1 1.1 1.1.9.2 1.7-.1 1.7-1.5m52.6-.7c1.5 1.1 2.6 1.6 3.6.1.2-.2 0-.9-.2-1.2-1.2-1.1-2.3-.9-3.4 1.1m-57.9-52.8c1.4-1.4 1.4-1.4-.3-2.9-.4 1.1-.7 2 .3 2.9m35 4.6c1.1 1.2 2 1.5 2.9.5.2-.2.2-.9 0-1.1-.9-1-1.8-.7-2.9.6m139-118c-.5 1.5-1.3 2.4-.1 3.3.2.2.9.2 1.1 0 1-.9.8-1.8-1-3.3m-71 144c-.8-.2-1.1.3-1.3.9-.2.7.3 1.2.9 1.2.4 0 1-.5 1.2-.9.4-.7-.2-1-.8-1.2m-86 23.9c-1.1.3-1.4.9-1.2 1.5.1.3.6.6 1 .6.7.1 1.2-.3 1.1-1.1-.1-.7-.6-1.1-.9-1" style="fill:#010101"/>
 <path d="m92 431c-5.8-.9-6.3 5.7-10.3 7.4-1.5.6-2.6 2.3-3.8 3.5-9.1-6.2-15.8-15-22.4-23.5-6-7.6-10.3-16.6-14.3-25.5-1.3-2.9-3.9-4.5-4.7-7.6-3.4-12.8-9.5-24.9-11.4-38-1.4-9.9-3.4-19.7-3-29.9.3-9.5 1-18.8 2.2-28 1.3-9.8 1.9-19.5 6.9-28 1.6-.2 3.2-.5 4.8-.7 1.4 3.1-.4 7.9 4.9 8.8 1.3 4.4.1 9.4 3.2 13.3-.3 3.2-2.1 6.8 1.8 9.1 3.4 4.2 5.1 10 10.8 12.2.4.9.9 1.8 1.3 2.7-1.9 2.7.4 4.3 2 5.3 6.4 4 7.8 9.9 7.6 16.9-.3 10.8.8 11.8 11.8 13.7-.3 2.2.2 3.5 2.7 4.2 2.8.8 5.4 2.4 8 3.6-2.2 1.7-1.1 3.4 0 5.1 7.2 10.8 17.4 16 30 16.7 1.3-1.8 2.2-3.2 3.2-4.6-.4 5 1.7 10.3-1.2 15-1.8 5.9-4.7 11.5-4.3 17.9v-.1c-1.9 3-6.8 3-7.2 7.5-2.3 0-4.6-.1-5.5 2.8-3 .7-3.4 2.7-2.5 5.3-1.1 3.7-2.3 7.4-3.4 11-2.4 1.7-6.3.8-7.3 4.4" style="fill:#47ce27"/>
 <path d="m166 216c1.4-3 3.9-2.8 6.7-2.4 5.7.8 10 0 13.9-5.6 5.2-7.5 12-13.7 20-18.4.8-.5 2.1-.3 3.2-.4 4.3 0 8.6.1 12.9.1 1.9 0 4 .3 4.5-2.4 8.8-.1 18-1.7 26.4 0 11.9 2.4 23.6 6.6 33.8 13.6 3.2 2.2 3.7 6.3 6.3 9.1 4.3 4.7 9.9 8 13.9 13 3.2 4 5 8.1 4.2 13.3-.7 4.8-.6 9.7.2 14.5-.3 4.7 4.6 7.4 4.6 12-.9 1.8-2.5 2.4-4.3 2.6-5.7-2.4-11.5-4.7-17.2-7.1-.3-1.5-1.4-1.9-2.8-2.2-8.2-1.2-16.3 2.3-24.5 1-.1 0-.4 1.1-.7 1.7-2.6 0-5.2 0-7.7 0-2.4 0-4.8 0-7.5 0-.2 2.5 1 6-3.4 5.2-.7-2.6 1.6-6-1.8-8-.7-.9-1.4-1.8-2.2-2.7-.8-1-1.6-2-2.4-3-.6-1.2-1.2-2.5-1.8-3.7.7-5.1-2.5-6.2-6.6-6.4-2.9-1-5.5-2.9-8.6-3.2-8.9-3.1-17.9-6-27-7.9-2.3-3.5-5.5-2.4-8.6-1.9-.5 2.3 1.3 3 1.8 4.4-.3.3-.6.5-1 .6-1-.1-2.1-.2-3.1-.3-1.4-2.3-3.6-3.3-6.1-3.2-4.1.2-8.2.8-12.3 1.2-1.5-.5-2.8-1.1-3-3 .3-1 .7-1.9 1-2.9 4-2.9-1.5-5-.6-7.7" style="fill:#f72301"/>
 <path d="m30.5 261c-5 8.8-5.6 18.5-6.9 28-1.2 9.4-1.9 18.8-2.2 28-.3 10.2 1.7 20 3 29.9 1.9 13.3 8 25.3 11.4 38 .8 3.1 3.4 4.8 4.7 7.6 4 8.9 8.3 17.9 14.3 25.5 6.7 8.4 13.3 17.3 22.4 23.5 2.2 8.4 8.4 14.4 13.3 21 .8 3.5 2.9 5.3 6.5 5.6 3.6 2.7 7.1 5.3 10.7 8 2.3 7.5 6 14 13 18 1.4.8 4 .7 1.5 3.2-.8 0-1.7-.1-2.5-.1-.9 0-1.8-.1-2.7-.1-6.8-4.3-14-7.8-21.5-10.8-10-5.4-18-13.2-26-21-4.7-4.6-9.2-9.4-14-13.8-5-4.5-8.6-10.5-13-15.7-20.7-24.6-33-53-39-84-4.5-23.6-4.7-47-1-71 3-19.3 9.4-37 17.2-55 .7-1.5 1.6-2.6 2.9-3.5 2.1 1.7 1.2 4.1 1.3 6.2 0 2.6.2 4.9 3 5.9.1 5.8-.8 11.8 2.7 17 .9 3.1-.6 6.3.9 9.2" style="fill:#d21104"/>
 <path d="m438 125c11.3 5.1 18 14.2 22.9 25.4 1.5 3.5 2 6.5.5 10-2.8 6.4-2.2 12.2 2.7 17.7 5 5.6 7.5 12.5 6.6 20-.9 8.5.3 16.8 3.5 24.7 2.5 6.3 2.8 12.3.5 18.7-2.5 7-3 14.2-1.5 21.6 1.7 8.5.2 16.3-6.3 22.6-2.3 2.2-4 4.9-4.2 8.1-.3 6.9-3.3 12.6-7.6 17.9-2.2 2.7-3.9 6.1-4.1 9.7-.8 12-8.5 20-15.6 28.9-6.5 8.1-14.6 14.7-19.9 23.8-1 .4-2 .8-3 1.2-.2-2.4 1.1-4.1 2.5-5.8 3.1-3.8 4.8-8.3 5.5-13.2 1.6-11.3 1.4-22.7 1.4-34 1.2-1.5 2.6-2.9 3.5-4.6 2.9-5.2 6.3-10.4 3.1-16.8.5-2.7-.3-5.7 2.8-7.6 7.3-4.6 11.6-10.6 8.6-19.8-.3-.9.3-2.1.5-3.2 2.5-2.9 5.4-5.6 7-9.2 3.2-.2 4.6-2.5 5.4-5.1 1.8-5.6 1.1-11-1.9-16.3-.8-7.3-1.6-14.7 2.9-21.3 1.8-6.6 1.4-12.4-2.4-18.7-4.1-6.8-3.6-14.9-2.5-22.6 1.5-9.9-3.3-19.7-12.5-24 1.6-3.5 1.3-6.1-3-7 .5-1.4 1.8-1.6 3-2.2 5.8-3.2 7.2-9.4 3.4-14.7-1-1.3-2.1-2.4-1.8-4.1" style="fill:#464646"/>
 <path d="m214 335h-.6l-.5-.2c-.6-2.5-.9-5.5-4.5-5-3.2.4-1.9 3.2-2.2 5.2-4.3 3-10.4 2.9-13.7 7.8-1.9.4-2.3 1.7-2.1 3.4.2 1.7 1.4 2 2.8 1.9 1.7 1.1 3.4 2.1 5.1 3.2.5 2.4 1.8 4.7 1.3 7.4-1.7.2-3.5.4-5.2.7-1.9-4.6-5.9-4.6-9.7-3.8-2.4.5-4 2.7-3.6 5.5.4 2.7 2.4 3.4 4.8 3.3 2.4 0 4.8 0 7.2 0 .8.2 1.7.3 2.5.5.4 1.7 1 2.8 2.6.9 1.8 0 3.6 0 5.3-.1 1.1 4.1 4.8 3.4 7.7 4 .5.4 1.1.7 1.6 1.1 1.1 2.7-3.1 5.4 0 8.2-.8 1.9-3.1 3.2-2.5 5.7-1 3.9-5.3 5.4-6.6 9.1-6.2.7-3.4 5.5-3.9 8.7-.7 6.1-4.9 13.6-8.4 13.5-4.5-.1-8.6 1.7-13 1.5-1.3-.5-2.2-1.2-2.4-2.6 1-.3 2.1-.7 3.1-1 6.4-1.5 10.9-6.7 11-13 .1-2.3.4-4.9-3.1-5.4-2 3.4.1 7.2-1.5 10.5-4.2-.5-8.7-.3-9.6-5.9 1-1.4 3.3-1.9 3.1-4.5-3.8-2.6-3.9-6.2-2.6-10.7 1.9-6.7-.9-11-7-11.8-.8 2.7 1.1 4.5 1.9 6.7.5 1.5 2.6 2.9.3 4.6-1.3-.4-2.7-.9-4-1.3-2.2-1.6-2.4-5.9-6.5-5.1-4-3-4.9-.5-5.2 3-.3.3-.7.7-1 1-1.8-.3-3.8 0-4.8-2 0-1.5 0-3.1 0-4.6 2.6-1.9 4.2-5.1 7.7-5.8 4.4 3.2 7.7 2.3 10.5-3.1-2.7-1.3-5.5-.4-8.3-.7-1.2-3.2-1.8-6.7.1-9.6 2.6-4.2 3.7-8.8 5.5-13.2 2.6-.6 4.4 2 7.1 2.3.5-3.7.2-6.4-3.6-7.4-.1-1.3-.2-2.5-.3-3.8 3.8-2.8 2.5-7.1 3-10.9 4.6.2 5.2-5.4 9.6-5.7-4.4-4.9-6.6-4.7-8.3.4-.4 1.1-.6 2.1-1.6 2.7-1.2-3.3 1.6-8.1-3.8-9.8.3-2.2-.5-3.9-2.4-5-.1-1.3-.1-2.6-.2-3.9 1.1-.1 2.2-.1 3.2-.2 3.7 1.3 7.9.9 11.3 3 4.5 5.4 8.9 1.9 13.3-.2.5-1.3 1.8-1.2 2.8-1.6 1.9.3 3.5.4 3.6-2.2.9-.1 1.7-.2 2.6-.2 2.6-.2 4 2.6 6.4 2.7 3.5-.5 4.5-5 8.1-5.1 2.3 0 3.6 3.7 6.9 1.4-1.3-2.3-2.6-4.6-3.9-7 5.9-4.3 10.8-9.7 16.2-14.5 4.2.4 4-2.5 3.9-5.3.4-2.4.5-5 2.6-6.7.9.1 1.8.1 2.7.2.6 2.3 1.3 4.6.5 6.7 1.3 1.8 4.5.3 4.5 3.5-1.8 3.6-6.4-.2-8.7 3 1.6 4.5 8.5 6.4 6.8 12.9-3-.5-5.1-4.1-8.7-.6 3.2 4.9 9 4.4 13.5 6.3 0 1.3.4 2.4 1.8 2.9-.4 1.3-.8 2.6-1.2 3.9l-.6-.2c-4.2 1.2-6.9 3.5-6.4 8.4 0 .3 0 .7-.2 1-4.3-.5-4.1 2.4-4 5.3-2.3 2-4.5 4.3-7.8 5.1 1.2 2.9 4.8 3.8 3.8 7.1-1.9 1.3-4.4 1.7-5.7 3.8-6.2 2.3-12.4-1.6-18.5-.3m8.6-11c-.3 1.3-.2 2.6 1.6 2.8 1.4.1 1.8-.9 2-2 .1-.4.3-.7.8-.7 2.9.3 4.5-1.2 5.7-4.2-3.7-3.6-4.7-8.9-7.1-14.7-3.4 3.6-6.7 0-10.7.9-.2 5.9-6.7 6-9.6 9.6v.3l-.3.3c-4.7 1.1-2.8-3.4-3.9-5.1-3-.1-4.4 1.4-5.2 3.6 2.5 4.2 3 9.6 8.1 12 2-.3 3.8-1 4.9-2.8 1.3.9 2.6 1.8 3.9 2.7.5 4.7 4.2 2.3 6.6 2.9.5 3.1 1.6 2.5 3 .2-1-.1-2-.1-3-.2-.5-1.4-1-2.8-1.4-4.2.3-1.1 1-1.6 2.1-1.4.8.1 1.6 0 2.4 0m15.7-21.5c-4.1 4.4-5.6 8-1.5 13.3 2.8-4.6 5.8-8 1.5-13.3m-50.9 19.9c5.6 4.3 5.7 4.3 8.9.1-2.6-1.4-5.3-1-8.9-.1m-18 31.9c-.2 2.6.2 4.4 2.9 4 .6-.1 1.6-1.2 1.5-1.8-.2-2.5-1.7-3.2-4.4-2.2m25.5-24c-3.6-.2-6.3-1.9-7.1 2.4 2.7 1.8 4.4.4 7.1-2.4m-11.9 64c2.3-2.7 2.5-4.3 0-6-2.5 1.6-2.3 3.2 0 6m11.4-23.4c-2.7-1.6-4.5-1.7-6.5.1 2.2 1.8 3.9 1.6 6.5-.1m-17.3-24.6c2.6.4 3.9-.2 4.9-2.6-2.4-.5-4.4-1.4-4.9 2.6m-1 15.9c-1.7 0-2.5.7-2.6 1.9-.1 1.6.8 2.4 2.6 2.3 1-1.2 1.3-2.5 0-4.2m32-56c-2.4.6-2.9 2.1-2.6 4 1.2.7 1.9.2 2.5-.4.7-.9.9-1.8.1-3.6m-31.9 28c-.3 1.2-1 2.4.9 3.1.9.3 1.9.1 2-1 0-1.6-1-2.2-2.9-2.1m8-22.3c-.1 1.1.6 1.6 1.5 1.7 1 0 2.3.2 2.5-1.7-1.3-.9-2.6-1.3-4 0m-5.4 14.6c1.4 1.4 1.4 1.4 2.7-.1-.9-.9-1.8-.7-2.7.1" style="fill:#f72301"/>
 <path d="m226 485c0 5.2 3 6.4 7.5 5.3 12.5-3.1 24.6-7.1 35-14.3.3.2.7.3 1 .5.1-.6.2-1.2.4-1.8 3.3 0 6.8.4 8-3.9 6.7-2.2 12.2-6.5 18.6-9.3 2 5.6 6.8 3.4 10.7 3.9.1.4.3.9.4 1.3-2.7 3-3.7 6.9-5.3 10.4-.9 1.9-.6 4 2.3 4.3l.2.1c-.5 2.5-2.2 4-4.1 5.4-5.4 1.3-9.7 5.4-13.5 8.6-11.4 9.5-24.3 12.4-38 12.4-.6-4.2-3.6-4.7-7.2-4.9-1.3 5.7-4.9 8-10.4 7.7-2-.1-4.6-.7-5.1 2.5-3.1 0-6.2.1-9.3.1-3-1.5-5.9-3.1-8 1.2-7.5 0-15 0-22.5 0-.4-.7-.8-2-1.3-2-8.7-.4-16.8-3.8-25.4-4.5-.6-1.2-1.6-2-3-2.4-7.9-2.1-15-5.7-21.9-10-4.6-2.8-9-6-13.8-8.4-4.3-2.1-7-5.1-8.2-9.6 5.9 1.6 10.2 6.1 15.9 8.4 6.1 2.4 12.3 4.2 18.6 5.9 20.9 5.9 42 1.4 64 2.9 7.1.5 7.3-5.7 10-9.4 1.6-.2 3.2-.3 4.9-.4" style="fill:#330502"/>
 <path d="m273 434c-.2-1.5.1-3.1-1.6-4.1-5.4-3.3-4.5-7.9-2.8-12.8.9-2.7 2.3-5.4 2.5-8.2.3-4.9 2.1-8.3 6.8-10 1.6-.6 2.8-1.8 2.9-4 .3-5.7 4.5-7.8 9.1-7.4 8.7.7 15.7-2.4 22.8-6.7 5.1-3.1 11-4 17-4.7 12.5-1.6 24-6.5 35.6-11 .6-.2 1.3-.2 2-.3-3.2 6.6-3.5 14.2-7.5 20.8-1.5 2.5-4.6 4.7-4.5 8.3 0 .8 0 1.6-.1 2.4-.6.3-1.1.6-1.7.8-6.7-1-13-1-19.3 2.6-6.3 3.7-13.3 6-20.8 5-2.6-.3-4.5.8-6.6 2.4-10.3 7.9-14.8 18.8-16.8 31-.3 1.5 0 3.2-2 3.6-5.4-.8-11 1.4-16.4-1.4 4.8-1 5.1-2.1 1.4-6.3" style="fill:#12350a"/>
 <path d="m150 380c1 2 3 1.8 4.8 2-.5 2.9-4 3.6-4.5 6.4-.3.2-.4.5-.2.9-2.3 1.1-3.1 3-3.2 5.4 0 6.2-.7 12.4 1.4 18.4 1 2.7.7 6.5 4.6 7.5.9 6.8 6.7 7.8 11.6 10 0 .3.2.5.4.6.4 1.6.9 3.2 1.3 4.8-1.3.2-2.6.5-3.9.7-2.2-.4-4.3-.2-6.5.3-5.6 1.3-11 2.4-17 .7-5-1.5-10 1.1-15 1.3-3-1.8-5.6-.9-8 1.1-2.2 0-4.4.1-6.6.1-6.3-2.8-7.9-7.5-5.5-13.8.8-2.2.9-4.7 1.8-6.9.8-2.1.6-3.8-.7-5.5-.1-1.3-.2-2.6-.2-4 .9-2.8 3.2-2.7 5.5-2.8 1.7 1.9 3.7 2 6.3 1.2.3-2.8 1.8-5.6.9-8.7v.1c4.4-5.3 6.2-11.2 4.3-17.9 2.8-4.8.8-10 1.2-15 2.3-3.7.4-8 1.8-11.8.5.3 1.1.7 1.6 1-.3 3.7.7 7 3.1 9.8.3 5.9 7 5.3 8.8 9.5 2.7-.8 4.2-3.5 6.9-2.6.2.4.3.9.5 1.3-.3 1.9-.6 3.8.3 5.5 1.4 1.1 2.9.6 4.3.4" style="fill:#f32403"/>
 <path d="m422 322c0 11.4.3 22.8-1.4 34-.7 4.9-2.4 9.3-5.5 13.2-1.4 1.8-2.7 3.5-2.5 5.8-7.1 7.9-16.5 9.6-26.5 9.5 1.4-2.9 2.2-6.1 3.4-9.2 2.6-6.5 5.8-13.3 1.5-20.5 1.6-3.9 4.3-6.8 7.6-9.4 4.8-3.7 10-7.1 12.7-13 2.5-3.6 5-7.1 7.5-10.7l-.2.1c1.2.1 2.3.1 3.4.1" style="fill:#1a1a1a"/>
 <path d="m277 372c-1.7-3.1-3-6.3-2.6-10.3-7.2-1.4-13.8-2.8-18.4-9.2-2.4-3.4-3.5-7.1-4.2-10.6-.6-2.7-2.1-4.5-3.1-6.7 1.1-2 3-2.6 5.1-3.1 1 2.1-1.8 4-.2 6.3 5.3-1 6.1-6.8 10-9.3 2.3 2.2 4.5 4.6 7.5 5.8 3.9 2.2 5.1 8.4 11 7.4 3.1 2.6 8 2.7 10 6.8.2.5.4 1 .6 1.6-2.7 4.3 1.9 7.9 1.2 12-2.8 2.2-2.4 5.7-3.1 8.6-2.9.2-5.7-4-7.7.8l-.3-.1c-1.9 0-3.9 0-6 0" style="fill:#ea2305"/>
 <path d="m406 65c2.9.3 4.5 2.5 6.2 4.5 1.4 1.7 2.7 3.5 4.1 5.1 5.6 6.1 10.9 12 12 21 .9 8.2 6.5 15.4 6.6 24-.2 0-.6 0-.6-.1-6.4-10.3-16.7-12.6-27.7-13.3-2.4-.2-4.3-.9-4.5-3.6.1-.4.1-.6.3-.7 10.4-7.4 11.6-11.3 5.8-22.8-2.3-4.8-2.2-9.4-2.2-14.2" style="fill:#464646"/>
 <path d="m391 355c4.4 7.1 1.2 14-1.5 20.5-1.2 3-2 6.2-3.4 9.2-.3.2-.7.3-1.1.4-2.3-3-4.8-1.9-7.6-.7-7.3 3.2-15 5.4-22 9.3-.1-3.6 3-5.8 4.5-8.3 4-6.5 4.3-14 7.5-20.8 4 .4 7.6-1 11-3 2.1.2 4-.3 5.3-2 2.2-.7 3.8-2.2 4.9-4.2.9-.1 1.7-.2 2.4-.4" style="fill:#330502"/>
 <path d="m288 442c2.1-.4 1.8-2.1 2-3.6 2-12.3 6.5-23 16.8-31 2.1-1.6 4-2.8 6.6-2.4 7.6 1 14.5-1.2 20.8-5 6.2-3.7 12.6-3.6 19.3-2.6-.9 1.2-1.8 2.3-2.7 3.5-6.5.9-12.8 2.3-18.6 6-4 2.5-8.2 5-13.5 4.7-7.6-.5-13.3 2.4-15.5 10.3-.6 2.1-2.4 3.1-3.6 4.6-8.7 10.6-7.5 22.7 3 30.5-.5.8-.9 1.5-1.4 2.3-.3-.1-.6 0-.9.2-1.6 0-3.5.1-4.1-1.5-1.7-4.6-6-6.8-8.6-10.6.2-1.9.3-3.6.4-5.3" style="fill:#34901e"/>
 <path d="m260 258c2.6 0 5.2 0 7.7 0 3.9 4.5 8.6 3.4 12.3.6 3.1-2.3 6-2.2 9.3-2 2.2.1 4.2 1.6 6.4.9 5.7 2.4 11.5 4.7 17.2 7.1-4.9 7.7-8.4 8.5-16 3.6.8-1.2 2.5-2.5.3-3.7-3.2-1.9-6.6-3.7-10-.2-2.4.1-4.8.2-7.2.3-2 .1-4.1-.1-4.3 2.7-3.4 3.3-3.5-1.1-5.5-2.5-1.4 2.3-1.9 4.3-1.9 7.1 0 2.3.4 6.9-4.6 6.2 3.1-5.4-.2-8.8-3.8-12.2-.9-2.1-.8-4.4-.7-6.6.4-.4.6-.9.9-1.3" style="fill:#1a0705"/>
 <g style="fill:#f32403">
  <path d="m213 379c-3-2.7 1.1-5.4 0-8.2 1.6-.3 3.1-.4 4 1.4 2 5.5 6.5 1.8 9.7 2.7.7.2 1.5.3 2.2.5.9 3.6 3.7 2 5.8 2.2 5.2 1.3 9.9 3.5 13 8.1-2.8 2.8-7.9 3.8-7 9.3-1.2 5.7-5.4 4.3-9.2 3.9-1.2-2-1.6-4.1-1.4-6.3 3.7-4.5 3.4-5.9-1.4-8.2-2.1-1-4.1-1.5-6.4-1.3v-.4c-2.1-4-5.9-3.5-9.4-3.7"/>
  <path d="m172 385c2.3-1.7.2-3.1-.3-4.6-.8-2.2-2.7-4-1.9-6.7 6.1.7 9 5.1 7 11.8-1.3 4.5-1.2 8.1 2.6 10.7.2 2.7-2.1 3.1-3.1 4.5 1 5.6 5.4 5.5 9.6 5.9 1.7-3.3-.5-7.1 1.5-10.5 3.5.5 3.1 3.1 3.1 5.4-.2 6.3-4.7 11.5-11 13-1.1.3-2.1.6-3.1 1-1.9-2.7-3.8-5.3-5.7-8 0-2.7.1-5.3.1-8 0-3.6 0-7.1 0-10.7 1.6-.8 1.2-2.4 1.3-3.8"/>
 </g>
 <path d="m123 334c3.5-4.9 8.6-8.7 8.9-15.7.3-5.7.8-5.7-5.4-7.6-2.4-13.3-.5-25.3 11-34 6.5-5.1 6.2-13.3 9.2-20 .4-.8.3-1.7 1.1-2.2-.1 4-.3 7.9-.4 11.9-.2 1.3-.4 2.6-.6 3.9-1.4 3.1-2.8 6.1-4.2 9.2-8.4 3.6-12.7 9.7-12.8 19 0 4.3-.5 8 5.2 8.8-.5 9.1-1.2 17.8-5.6 25.7-.5 0-1.2-.1-.9.8-.2.1-.4.3-.5.5-.5.1-1 .1-1.6.2-1-.2-2.2-.4-3.4-.5" style="fill:#a1422e"/>
 <path d="m113 478c1.2 4.5 3.9 7.5 8.2 9.6 4.8 2.4 9.2 5.6 13.8 8.4 6.9 4.3 14 7.9 21.9 10 1.4.4 2.3 1.1 3 2.4-1.4.1-2.9.2-4.3.2-8.5-.2-16.5-3.1-24.3-6.1-2.4-.9-4.4-2.9-7.2-2-1-.5-1.4-1.5-1.5-2.5 2.5-2.5-.1-2.4-1.5-3.2-7.1-4-10.7-10.6-13-18 1.7-.2 3.6-.6 5 1.2" style="fill:#9c0d04"/>
 <path d="m153 421c-3.9-1-3.6-4.8-4.6-7.5-2.2-5.9-1.5-12.2-1.4-18.4 0-2.4.9-4.3 3.2-5.4.7 1.7-.6 4 2.4 5.8 2.4-3.4 2.5-5.6-2.2-6.6.6-2.8 4.1-3.6 4.5-6.4.3-.3.7-.7 1-1 2.1-.4 4.5-.3 5.2-3 4.1-.8 4.3 3.5 6.5 5.1.6 1.7 1.2 3.4 1.7 5.1-2.8.8-4.9-1.2-7.4-2.5-2.7 7.4-2.4 13.9 3.2 20.5-8 2.1-5.4-10.8-12.4-8.1-2.4 7.6-2.4 15 .3 22.4" style="fill:#0d0303"/>
 <g style="fill:#b8b8a3">
  <path d="m79 342c-11-1.8-12-2.9-11.8-13.7.2-7-1.2-12.9-7.6-16.9-1.6-1-4-2.5-2-5.3 1.2 0 2.4 0 3.7-.1 1.4 3 4.2 4.5 6.9 5.9 5.2 2.8 7.2 7.1 6.6 12.6-.7 6.4.7 12 4.2 17.5"/>
  <path d="m126 334c.5-.1 1-.1 1.6-.2-4 7-1.1 14.5-1.6 21.8-.5-.3-1.1-.7-1.6-1-2.5-8.1-5.9-10.2-13.9-8.5-1.9.4-3.9.9-5.7 1.6-5.1 2-10.2 2.3-15.5 1.4-2.7-1.2-5.2-2.8-8-3.6-2.4-.7-3-2-2.7-4.2.9.1 1.8.3 2.7.4 7.9 3.6 15.8 5.7 24.3 1.3 2.2-1.1 5.1-1.4 7.6-1.6 5.5-.2 10-2.3 12.8-7.4"/>
 </g>
 <path d="m200 359c.5-2.6-.8-4.9-1.3-7.4 2.9 1.3 5.7 2.7 9.1 2.5 4.8-.4 9.7-.4 13 4.2 1.4 1.8 3.6 1.3 5.6 1.3 2.6-.1 2.8 1.4 2.7 3.4-6.3 3.7-13.2.3-19.4.5-1.3 3.4 2.1 4.3 2 6.5-2.9-.6-6.6 0-7.7-4 .6-1.7 3-2.8 1.9-5.1-1.5-2.3-4.1-1.1-6-1.9" style="fill:#f32403"/>
 <path d="m288 447c2.5 3.8 6.9 6 8.6 10.6.6 1.6 2.6 1.5 4.1 1.5.1.8-.3 1.2-1 1.4-.9.4-1.8.9-2.7 1.3-6.4 2.8-11.9 7.1-18.6 9.3-.5 0-.9 0-1.4-.1 5.4-7.3 7.2-16 11-24" style="fill:#12350a"/>
 <path d="m440 270c-.2 1.1-.8 2.3-.5 3.2 3 9.2-1.3 15.2-8.6 19.8-3.1 1.9-2.3 4.9-2.8 7.6-1.1-.1-2.1-.2-3.2-.3-.2-2-.5-3.9-.4-5.9.2-5.3.8-10.2 8.1-10 1.6 0 3.2-1.3 4.4-3.3-.7-4.3-1.5-9-2.4-13.6 2.4-.3 3.5 1.8 5.4 2.6" style="fill:#ede6db"/>
 <path d="m254 333c-2.1.5-4 1.1-5.1 3.1-3.2-2.1-5.7-5.8-10.4-4.3 1-3.3-2.6-4.2-3.8-7.1 3.3-.7 5.4-3 7.8-5.1 2.8 4.2 8 1.8 11.5 4 .3.4.6.8.9 1.2-.2.5-.5 1-.7 1.4-.1.1-.4.3-.4.4.1.3.4.6.6.9 1.3 2 .5 3.8-.4 5.5" style="fill:#f32403"/>
 <path d="m40.7 151c1.7-4.3 1.5-9.5 5.5-12.9.1 5.8 3.9 7.6 9 8.5 4.3.8 9.7 1 8.6 9.3-1.6-4.4-3.8-6.7-7.5-5.3-3.8 1.3-2.5 4.6-2.4 7.3-.2.2-.4.5-.6.7-3.8-3.4-7.3-6.9-12.6-7.6" style="fill:#605f5f"/>
 <path d="m126 334c-2.8 5.1-7.3 7.2-12.9 7.6-2.6.2-5.4.4-7.6 1.6-8.4 4.3-16.3 2.2-24.3-1.3 11.9 1.8 22.6-5 34-4.6 2.8.1 4.7-2.3 6.9-3.7 1.2.1 2.4.3 3.6.4" style="fill:#8e8e8e"/>
 <path d="m64 116c3.7-4.4 3.2-9.3 2.2-14.4-1.4-6.9.7-12.6 6.8-16.5.6.9 1 1.9 1.7 2.7 5.3 5.7 5.3 5.9-2 8.3-3 1-4.2 2.7-3.9 5.9.3 3 .5 6.1.2 9.1-.2 2.8-1.7 5-5 4.9" style="fill:#595958"/>
 <path d="m293 351c-.2-.5-.4-1-.6-1.6.6-1.6 1.9-2.1 3.4-2.5 3.8-1.1 5.7-3.6 5-7.6 1.9-.3 4 .6 5.4-1.4 1.2.4 2.5.9 3.7 1.3.1.9.1 1.8.2 2.8-.6 2.4-1.1 4.8-1.7 7.2-3.6-.3-4.1 3.2-6.1 4.9-.9-.1-1.8-.2-2.7-.3-1.2-3.3-4.1-2.6-6.6-2.8" style="fill:#0d0303"/>
 <path d="m433 146c4.4.9 4.6 3.5 3 7-6 1.2-12 2.6-17.4-2.2.3-.4.7-.7 1-1.1 2.5.9 4.9 1.4 5.7-2.1 1.1-4.5-2.4-8.5-7.5-8.7-.3-.3-.5-.6-.8-.9 4.9-3.3 6.6-3.1 8.6 1.9 1.5 3.6 3.4 6.1 7.4 6.1" style="fill:#605f5f"/>
 <path d="m442 192c-6 1.8-16-3.9-16.9-9-.3-1.7.3-3 1.7-3.9 1.4-.9 3.1-1 4.3.1 3.9 3.9 8.5 7.4 10.9 12.8" style="fill:#8e8e8e"/>
 <path d="m147 266c.1-4 .3-7.9.4-11.9 1.2-2.6.5-5.4.9-8 2.5-.7 1.7-2.8 1.9-4.4.7-1.6 1.3-3.1 2-4.7 2.7-3.4 7.9-1.8 10.6-5.2 2.1-.4 4.1-.8 6.2-1.3 0 .7 0 1.4 0 2.1-.9.5-1.8 1.4-2.8 1.5-9.8 1.9-12.9 9.2-14.9 17.6-1.1 4.7-2 9.3-2.3 14-.6.2-1.3.2-2 .2" style="fill:#ede6db"/>
 <path d="m105 414c1.3 1.7 1.5 3.4.7 5.5-.9 2.2-1 4.7-1.8 6.9-2.3 6.3-.7 11 5.5 13.8-.5 1.4-.9 2.8-1.4 4.2-.8-.2-1.6-.3-2.4-.5-1.4-3-3.5-5.6-6-7.7-.3-3.3-.5-6.5-.8-9.8 1.1-3.7 2.3-7.4 3.4-11 1-.4 1.9-.9 2.8-1.3" style="fill:#330502"/>
 <path d="m211 370c.1-2.2-3.3-3.1-2-6.5 6.2-.2 13 3.2 19.4-.5.2 3.5-3.8 5.9-2.5 9.7-.3.3-.5.6-.8.9-2.8-.3-5.6-.7-8.5-1-.9-1.7-2.4-1.7-4-1.4-.5-.5-1-.9-1.6-1.2" style="fill:#1a0705"/>
 <path d="m391 355c-.7.2-1.5.3-2.2.5-.3-.8-.6-1.6-.9-2.4 3.4-5.9 6-12.3 13.9-14.4 2.5-.6 5-3.3 6.3-6.2 1.1 0 2.1 0 3.2.1-2.5 6-7.8 9.3-12.7 13-3.3 2.6-6 5.5-7.6 9.4" style="fill:#b8b8a3"/>
 <path d="m178 418c4.4.2 8.6-1.6 13-1.5 3.5.1 7.8-7.4 8.4-13.5.9.2 1.9.5 2.8.7.6 5.5-3.4 13.3-9.4 15.5-4.6 1.8-10.2 3.8-14.8-1.2" style="fill:#f32403"/>
 <path d="m25.3 218c.2-3.5 2-5.9 5-7.6-.8 3.8.6 6.9 2.9 9.8 2.8 3.6 3.1 7.2-.5 10.6-1-.1-2-.2-3-.3-.1-.9-.3-1.8-.4-2.6 1.2-4.3-1-7.3-4-9.9" style="fill:#dfc4be"/>
 <path d="m261 278c-2.2 3.6-2.7 7.5-2.6 11.6 0 3 .2 6.1-1.6 8.7-.4-.2-.7-.3-1.1-.4-.3-9.2 1.9-18.3.1-27.5-.3-1.5.7-2.5 2-3.1 2.9 3.1 3.3 6.8 3.2 10.7" style="fill:#330502"/>
 <path d="m425 300c1.1.1 2.1.2 3.2.3 3.2 6.4-.2 11.6-3.1 16.8-.9 1.7-2.3 3.1-3.5 4.6-1.1 0-2.3 0-3.4-.1.2-.8.2-2 .7-2.4 6.2-5.1 6.2-12 6.1-19" style="fill:#8e8e8e"/>
 <path d="m300 354c.9.1 1.8.2 2.7.3-1.2 1.9-1.5 4-1.5 6.2-.5 1.4-.9 2.8-1.4 4.2-2.7.1-5.6.1-2.6 4-.1.4-.1.8-.1 1.2-3.7 4.5-8 6.2-13.4 2.7 1.9-4.8 4.7-.6 7.7-.8.6-2.9.3-6.4 3.1-8.6 4.5-1.4 3.4-6.3 5.5-9.2" style="fill:#491215"/>
 <path d="m451 240c3 5.1 3.7 10.6 1.9 16.3-.8 2.5-2.2 4.9-5.4 5.1-.7-.2-1.5-.5-2.2-.7.5-.9.7-2.2 1.5-2.8 5.8-3.9 4.1-9.2 3.1-14.4-.1-1.4.3-2.5 1.1-3.5" style="fill:#8e8e8e"/>
 <path d="m29.7 230c1 .1 2 .2 3 .3-2.6 6.2-2.5 12.5-1.3 18.9-.6.6-1.1 1.3-1.7 1.9-3.4-5.3-2.6-11.3-2.7-17 1.1-.6 1.3-1.6 1.3-2.7.5-.3 1-.8 1.4-1.3" style="fill:#b8b8a3"/>
 <path d="m451 240c-.8 1-1.2 2.1-1.1 3.4-2.6-2.4-2-5.8-2.5-8.8 2.6-4.8.4-9.9 1.1-14.7 1.5-1.8 3.5-1.4 5.4-1.2-4.5 6.6-3.7 13.9-2.9 21.3" style="fill:#ede6db"/>
 <path d="m254 326c.2-.5.5-1 .7-1.4 3.8 1.1 1.4 4.6 2.6 6.7 2.5.9 2.5-8.2 6.4-1.6-3.9 2.4-4.7 8.3-10 9.3-1.7-2.3 1.2-4.2.2-6.3.9-1.7 1.7-3.5.3-5.3.1-.6.1-1-.2-1.4" style="fill:#330502"/>
 <path d="m407 268c5.2-1 7.8 1.3 8.8 5.3.5 2.3-1.6 3.7-3.8 3.4-4.8-.7-5.8-4-5-8.7" style="fill:#464646"/>
 <path d="m411 333c-1.1 0-2.1 0-3.2-.1.3-9.8 1-10.5 10.7-10.6-2.5 3.6-5 7.1-7.5 10.7" style="fill:#dfc4be"/>
 <path d="m254 323c-3.5-2.2-8.7.2-11.5-4-.1-2.9-.3-5.8 4-5.3.4 2.3-.1 5.8 3.9 2.6 3.9.9 3.8 3.8 3.6 6.7" style="fill:#ea2305"/>
 <path d="m222 383c2.3-.2 4.3.3 6.4 1.3 4.8 2.3 5.1 3.7 1.4 8.2-2.2 0-2.9-1.6-3.5-3.2-.6-1.8-1.7-1.6-2.9-1-2.1-1.3-1.1-3.4-1.4-5.3" style="fill:#491215"/>
 <path d="m445 260c.7.2 1.5.5 2.2.7-1.6 3.6-4.5 6.3-7 9.2-1.8-.8-3-2.9-5.3-2.7 1.8-4.5 5.8-6 10-7.2" style="fill:#dfc4be"/>
 <g style="fill:#b8b8a3">
  <path d="m56 303c-5.7-2.2-7.4-8-10.8-12.2.6-1 1.1-1.9 1.7-2.9 3.1 3.4 5 7.9 9.2 10.3 0 1.7-.1 3.2-.1 4.8"/>
  <path d="m99 436c2.5 2.2 4.6 4.7 6 7.7-1.2.7-2.3 1.3-3.5 2-4.1-1.9-6.4-5.2-7.9-9.3 1.8-.1 3.6-.2 5.4-.4"/>
 </g>
 <path d="m216 475c-2.3.4-4.6 1-6.9 1.2-2.3.2-3.8-1.2-3.7-3.5.1-2.2 2-2.8 3.8-2.6 2.3.2 4.7.8 6.7 1.2 1.5 1.4-.2 2.5.1 3.7" style="fill:#9c0d04"/>
 <path d="m214 335c6.1-1.3 12.3 2.5 18.5-.1.1 2.9-1.4 4.9-4.1 7.4-2.8-6.6-10.5-2.6-14.4-7.3" style="fill:#ea2305"/>
 <path d="m299 365c.5-1.4.9-2.8 1.4-4.2 1.1-.1 2.1-.3 3.2-.4 2.1 4.5-.1 8.1-2.8 11.2-1.9 2.2-3.8 2-4.4-1.4 0-.4 0-.8.1-1.2 1.4-1 1.8-2.6 2.5-4" style="fill:#0d0303"/>
 <path d="m102 446c1.2-.7 2.3-1.3 3.5-2 .8.2 1.6.3 2.4.5 1.4 3.3 6.5 2.1 7.5 6.1-.3.8-.5 1.5-.8 2.3-5.6.3-9.4-2.8-12.6-6.9" style="fill:#b6416b"/>
 <path d="m224 389c1.3-.6 2.3-.8 2.9 1 .6 1.6 1.3 3.2 3.5 3.2-.2 2.3.3 4.4 1.4 6.3-3.9 2.1-4.9-1.2-6.2-3.5-1.1-2.2-1.8-4.5-1.6-7" style="fill:#a1422e"/>
 <path d="m136 465c-2.2-.6-3.9-1.8-3.6-4 .3-2.6 2.4-3.5 4.8-3.4 1.8.1 2.9 1.6 2.7 3.1-.3 2.1-1.2 4.2-3.9 4.3" style="fill:#b6416b"/>
 <path d="m29.7 251c.6-.6 1.1-1.3 1.7-1.9 2 2.4 2.2 5.9 4.7 8-.3.8-.6 1.6-.9 2.3-1.6.2-3.2.5-4.8.7-1.4-2.9.1-6.1-.7-9.1" style="fill:#8e8e8e"/>
 <g style="fill:#dfc4be">
  <path d="m99 436c-1.8.1-3.6.3-5.4.4-1.8-1.5-.7-4.3-2.6-5.8 1-3.7 4.9-2.7 7.2-4.4.3 3.3.6 6.6.8 9.8"/>
  <path d="m35 260c.3-.8.6-1.6.9-2.3 1.6.3 3.3.7 5.3 1.1-.4 3.5-.8 6.8-1.2 10-5.4-1-3.7-5.8-5-8.9"/>
 </g>
 <path d="m304 360c-1.1.1-2.1.3-3.2.4 0-2.2.3-4.3 1.5-6.2 2-1.6 2.5-5.2 6.1-4.9.1.7.3 1.3.4 2-1.5 2.9-4.3 5.2-4.4 8.8l-.4-.1" style="fill:#a1422e"/>
 <path d="m287 265c3.4-3.6 6.8-1.8 10 .2 2.1 1.3.4 2.5-.3 3.7-1.1 0-2.2-.1-3.3-.1-1-.9-2.1-.9-3.2-.5-.5-.1-1-.2-1.5-.3-.6-1-1.1-2-1.7-3" style="fill:#b6416b"/>
 <path d="m317 262c.1-4.6-4.8-7.3-4.6-12 5.5.6 6.3 5.4 7.8 9.3 1 2.5-1.5 2.6-3.2 2.7" style="fill:#1a0705"/>
 <path d="m306 338c-1.4 2-3.6 1.1-5.4 1.4-3.9-.8-8.5 1.4-11.6-2.7 5.6 1.3 11.6-1.7 17 1.3" style="fill:#1a1a1a"/>
 <path d="m304 360c.1-3.6 2.9-5.9 4.4-8.8 1.9.2 2.8 1.1 2.3 3-.6 2.3-1.1 4.6-1.7 6.9-2 .7-3.4-.7-5-1.1" style="fill:#0d0303"/>
 <path d="m261 278c.1-3.9-.2-7.7-3.3-10.6.2-.4.5-.9.7-1.3.5 0 1 0 1.5 0 3.6 3.3 6.9 6.7 3.8 12.2-1-.1-1.9-.2-2.7-.3" style="fill:#491215"/>
 <path d="m287 265c.5 1 1.1 2 1.6 3-1.3.1-2.5.2-3.8.3-1.2-.4-2.3-.3-3.2.7-2.1.1-4.2.3-6.1-.9.2-2.9 2.3-2.7 4.3-2.7 2.4-.2 4.8-.3 7.2-.4" style="fill:#605f5f"/>
 <path d="m282 343c-6 1-7.2-5.1-11-7.4 6.2-1.4 8.9 2.6 11 7.4" style="fill:#0d0303"/>
 <path d="m163 232c-2.7 3.4-7.9 1.8-10.6 5.2 0-2.2.8-4.2 1.9-6.1 2.3.6 3.3-.9 4.5-2.4 1.6.8 3.3 1.6 4.2 3.3" style="fill:#f2d06e"/>
 <g style="fill:#ea2305">
  <path d="m213 379c3.5.3 7.3-.3 9.4 3.5-4.1-.1-8.4-.8-11.9 2.2-.6-2.6 1.7-3.8 2.5-5.7"/>
  <path d="m241 395c-.9-5.5 4.2-6.5 7-9.3 1.3 2.2 1.5 4.6-1.1 5.3-2.6.7-3.5 3.3-5.9 4"/>
 </g>
 <path d="m448 219c-.7 4.9 1.5 10-1.1 14.7-1.7-5-2.4-10 1.1-14.7" style="fill:#8e8e8e"/>
 <path d="m246 371c5.2-.1 7.6 1.8 10 5.5-4.9 1-7.4-1-10-5.5" style="fill:#3d3b3b"/>
 <path d="m115 453c.3-.8.5-1.5.8-2.3.6.2 1.3.5 1.9.5 2.2-.1 4 .3 4.1 3 .1 1.4-.5 2.7-1.9 3-2.1.5-3.2-.8-4.1-2.5-.4-.4-.6-1.1-.8-1.7" style="fill:#595958"/>
 <path d="m165 431c-.2-.2-.3-.4-.4-.6 1.9-3.3 4.7-2.2 7.8-1.8.4 2.4 2.1 4.9-1.8 6.2-1.2-2.3-2.5-4.4-5.6-3.8" style="fill:#0d0303"/>
 <path d="m147 468c-1.8-.2-2.6-1.4-2.5-3.1.1-1.7 1-3.1 2.8-3.1 1.8 0 2.8 1.2 2.6 3.1-.2 1.6-.8 3-2.9 3.1" style="fill:#a1422e"/>
 <path d="m86 274c1.9.2 3.4.9 3.2 2.7-.1 1.7-.8 3.6-2.9 3.6-1.7.1-2.8-1-3-2.8-.2-2.1 1.2-3 2.7-3.5" style="fill:#1a1a1a"/>
 <path d="m228 187c-.5 2.8-2.6 2.4-4.5 2.4-4.3 0-8.6 0-12.9-.1 5.7-1.6 11.4-3 17.4-2.3" style="fill:#d21104"/>
 <path d="m203 404c-.9-.2-1.9-.5-2.8-.7.6-3.3-2.3-8 3.9-8.7-.3 3-.7 6.2-1.1 9.4" style="fill:#9c0d04"/>
 <path d="m216 475c1.8 1.1 4.5-.4 6 2.4-1.5 1.9-3.2 3.4-5.8 2-2.3-1.3-.1-3-.2-4.4" style="fill:#b6416b"/>
 <path d="m168 48.9c-2.1-.8-3.3-1.9-3.8-3.9.3-.4.5-1.1 1-1.5 1.6-1.2 3.3-1.3 4.6.5 1.3 2 .8 3.7-1.8 4.9" style="fill:#3d3b3b"/>
 <path d="m299 24.5c.5 3.2-.6 4.9-3.7 4.7-1.1-.1-2.1-1.1-1.8-2.3.7-3.1 2.8-3.3 5.5-2.4" style="fill:#a1422e"/>
 <path d="m206 335c.3-1.9-1-4.8 2.2-5.2 3.5-.4 3.9 2.5 4.5 5-2.3.1-4.5.2-6.7.2" style="fill:#f32403"/>
 <path d="m159 229c-1.1 1.5-2.2 3.1-4.5 2.4-.3-1.6 1.1-2.4 1.7-3.5 2.8-1.3 3.4-4 4.3-6.5.6-.3 1.1-.6 1.7-.9.4.4.7.8 1.1 1.1-.2.8-.4 1.5-.6 2.3-1.2 1.7-2.5 3.4-3.7 5.1" style="fill:#a1422e"/>
 <path d="m261 323c1.4-3.1 3.4-3.8 6-3.7-.4 5.2-.4 5.2-6 3.7" style="fill:#0d0303"/>
 <path d="m46.9 288c-.6 1-1.1 1.9-1.7 2.9-4-2.4-2.1-5.9-1.8-9.1 2 1.6 3.6 3.4 3.5 6.2" style="fill:#8e8e8e"/>
 <path d="m97 469c-3.6-.2-5.7-2.1-6.5-5.6 4-.2 7.2.4 6.5 5.6" style="fill:#330502"/>
 <path d="m166 216c-.9 2.7 4.6 4.8.7 7.8-.6-2.3-1.9-3.4-4.3-2.3-.4-.4-.7-.8-1.1-1.1 1.1-2.1 2.5-3.6 4.7-4.4" style="fill:#a1422e"/>
 <path d="m116 440c2.5-2 5.1-2.9 8-1.1-2.1 4.2-5 3.2-8 1.1" style="fill:#330502"/>
 <path d="m277 372c2 0 4 0 6-.1.3 2.9-1.4 4.2-3.9 4.1-2.3 0-2.2-2.1-2.1-4" style="fill:#a1422e"/>
 <path d="m130 458c-2.6 1.6-4.4 1.7-5.9-1.3 2.6-2.4 4.3-2.2 5.9 1.3" style="fill:#8e8e8e"/>
 <path d="m56 303c0-1.6.1-3.2.1-4.8 3 1.6 6 3.2 4.9 7.4-1.2 0-2.4 0-3.7.1-.4-.8-.8-1.8-1.3-2.7" style="fill:#dfc4be"/>
 <path d="m246 313c-.6-4.8 2.2-7.2 6.4-8.4.6 3.3-2.8 4.4-3.9 6.7-.8.6-1.6 1.2-2.5 1.7" style="fill:#ea2305"/>
 <path d="m171 399c0 2.7-.1 5.3-.1 8-4.8-3.8-4.7-5.6.1-8" style="fill:#0d0303"/>
 <path d="m384 360c-1.4 1.8-3.2 2.2-5.3 2-2.6-5.9 3.3-3.3 4.9-5 .1 1 .2 2 .4 3" style="fill:#dfc4be"/>
 <path d="m273 434c3.7 4.1 3.4 5.2-1.4 6.5-.5-2.3.9-4.3 1.4-6.5" style="fill:#3d3b3b"/>
 <g style="fill:#1a1a1a">
  <path d="m277 471c.5 0 .9 0 1.4.1-1.2 4.3-4.7 3.9-8 3.9 1.4-2.6 4-3.4 6.6-4"/>
  <path d="m110 94c2.5-1.8 4.3-1.6 6.5.8-2.7 2.5-4.4 2.1-6.5-.8"/>
 </g>
 <path d="m160 221c-.8 2.5-1.5 5.2-4.3 6.5.4-2.9-1.5-7.2 4.3-6.5" style="fill:#1a0705"/>
 <path d="m384 360c-.1-1-.3-2-.4-2.9 1.5-1.2 3-2.4 4.5-3.7.3.8.6 1.6.9 2.4-1.2 2-2.8 3.5-5 4.2" style="fill:#8e8e8e"/>
 <path d="m165 431c3.1-.6 4.4 1.5 5.6 3.8-.5.5-1 1.1-1.5 1.6-.9-.2-1.9-.4-2.8-.6-.5-1.6-.9-3.2-1.3-4.8" style="fill:#9c0d04"/>
 <path d="m320 23.9c3.3 2.2 3.1 3.6.6 5.1-2.3-1.4-1.6-2.9-.6-5.1" style="fill:#3d3b3b"/>
 <path d="m228 32.7c-2.8-.3-3.5-1.6-2.6-4.4 2.9.5 3.9 1.6 2.6 4.4" style="fill:#464646"/>
 <path d="m166 436c.9.2 1.9.4 2.8.6-.1 1-.3 1.9-1.4 2.4-1.8 0-3.6 0-5.3 0 0-.8 0-1.5 0-2.3 1.3-.3 2.6-.5 3.9-.7" style="fill:#0d0303"/>
 <g style="fill:#491215">
  <path d="m246 313c.8-.5 1.7-1.1 2.5-1.6.3 1.8-.8 3.9 1.3 5.2-4 3.1-3.5-.4-3.9-2.6.1-.3.2-.6.1-1"/>
  <path d="m234 366c2.5-1.9 4.4-1.9 6.8 0-2.4 1.8-4.3 1.8-6.8 0"/>
 </g>
 <path d="m169 388c-.6-1.7-1.2-3.4-1.7-5.1 1.3.4 2.7.9 4 1.3-.1 1.4.3 3-1.2 3.9-.4 0-.7-.1-1.1-.1" style="fill:#ea2305"/>
 <path d="m432 218c-.2 1.3-.8 2-2.2 1.8-1.1-.1-1.5-.9-1.5-1.7 0-1.2.8-1.9 2.1-1.8 1.2.1 1.4.9 1.6 1.7" style="fill:#1a1a1a"/>
 <path d="m160 469c-.1 1-.8 1.7-1.7 1.5-1.1-.2-2-1-1.7-2.4.3-1 1.1-1.3 2.1-1.1 1 .2 1.3 1 1.3 2" style="fill:#464646"/>
 <path d="m310 342c-.1-.9-.1-1.8-.2-2.8 1.9-1.8 3-.8 3.8 1.1-.5 2.2-2.3 1.6-3.6 1.7" style="fill:#3d3b3b"/>
 <path d="m226 485c-1.7.1-3.3.2-5 .3 0-1.4.3-2.6 1.9-2.8 1.9-.2 3 .6 3.1 2.5" style="fill:#595958"/>
 <path d="m162 439c1.8 0 3.6 0 5.3 0 0 .9 0 1.8 0 2.7-1.3 0-2.7 0-4 0-1.1-.6-1.3-1.6-1.3-2.7" style="fill:#040203"/>
 <path d="m193 348c-1.4 0-2.6-.2-2.8-1.9-.2-1.7.3-3 2.1-3.4.2 1.8.4 3.6.7 5.3" style="fill:#9c0d04"/>
 <path d="m229 376c-.7-.2-1.5-.3-2.2-.5-.4-.5-.8-1.1-1.2-1.6.3-.3.5-.6.8-.9 2 .3 4.7-1 5.3 2.4-.9.2-1.8.4-2.7.6" style="fill:#1a0705"/>
 <path d="m229 376c.9-.2 1.8-.4 2.7-.5 1 .9 2.1 1.8 3.1 2.7-2.1-.2-4.9 1.4-5.8-2.2" style="fill:#ea2305"/>
 <path d="m253 305c.4-1.3.8-2.6 1.2-3.9.6-.3 1.2-.6 1.8-.9.8 2.7.4 4.7-3 4.8" style="fill:#0d0303"/>
 <path d="m171 471c0 1.4-.8 1.7-1.6 1.5-.4-.1-1.1-.7-1.1-1.1-.1-1 .7-1.5 1.6-1.3.4.1.8.6 1.1.9" style="fill:#605f5f"/>
 <path d="m224 470c1.2-2 2.2-2.1 3.4-1 .2.2.4.9.2 1.2-1.1 1.3-2.2.8-3.6-.2" style="fill:#a1422e"/>
 <path d="m416 148c-1.9-2.8-2-5.6-.1-8.5.2.2.4.3.6.5-.1 2.4-.5 4.7.6 7-.4.3-.8.7-1.1 1" style="fill:#605f5f"/>
 <g style="fill:#0d0303">
  <path d="m166 417c-1-.9-.7-1.8-.3-2.9 1.7 1.4 1.7 1.4.3 2.9"/>
  <path d="m201 422c1.1-1.3 2-1.5 2.9-.6.2.2.2.9 0 1.1-.9 1-1.8.7-2.9-.5"/>
 </g>
 <path d="m340 303c1.8 1.5 2 2.4 1 3.3-.2.2-.9.2-1.1 0-1.2-.9-.4-1.8.1-3.3" style="fill:#3d3b3b"/>
 <path d="m164 442c1.3 0 2.7 0 4 0-.2 1.4-.5 2.6-2.3 2.4-1.4-.1-1.5-1.3-1.7-2.4" style="fill:#0d0303"/>
 <path d="m256 300c-.6.3-1.2.6-1.8.9-1.3-.5-1.7-1.6-1.8-2.9.9 0 1.7 0 2.6 0 .4.1.7.2 1.1.4 0 .5 0 1-.1 1.6" style="fill:#ea2305"/>
 <path d="m150 242c-.2 1.7.6 3.7-1.9 4.4.1-1.7.2-3.4 1.9-4.4" style="fill:#b8b8a3"/>
 <g style="fill:#605f5f">
  <path d="m419 151c-1.4-.3-2.4-1.2-2.7-2.7.4-.3.7-.7 1.1-1 .9.9 1.7 1.7 2.6 2.6-.4.3-.7.7-1 1.1"/>
  <path d="m269 447c.6.2 1.2.5.9 1.2-.2.4-.8.9-1.2.9-.6 0-1.1-.5-.9-1.2.1-.5.4-1 1.2-.9"/>
  <path d="m55 159c1.3.2 2.5.4 5.1.9-3 1.4-4.4 1.4-5.8-.3.2-.2.4-.4.7-.6"/>
 </g>
 <path d="m183 471c.3-.1.8.3.9 1 .1.8-.4 1.2-1.1 1.1-.4 0-.9-.3-1-.6-.2-.6 0-1.2 1.2-1.5" style="fill:#595958"/>
 <path d="m270 475c-.1.6-.2 1.2-.4 1.8-.3-.2-.7-.3-1-.5.5-.4 1-.8 1.4-1.3" style="fill:#1a1a1a"/>
 <g style="fill:#330502">
  <path d="m290 268c1.2-.4 2.3-.4 3.2.5-1.2.5-2.3.6-3.2-.5"/>
  <path d="m282 268c.9-1 2-1 3.2-.7-.9 1-2 1-3.2.7"/>
 </g>
 <g style="fill:#605f5f">
  <path d="m53.8 158c.5.5.9.9 1.4 1.4-.2.2-.5.4-.7.6-.4-.4-.9-.9-1.3-1.3.2-.2.4-.5.6-.7"/>
  <path d="m416 139c.4-.5.7-1.1 1.1-1.6.3.3.5.6.8.9-.5.4-.9.8-1.4 1.2-.1-.1-.3-.3-.5-.5"/>
  <path d="m358 475c-28.6 29.5-63 47-104 54.8-17.8 3.3-35.6 2.9-53 1.7-21.7-1.5-43-6.5-62.8-17-.3-.2-.5-.7-.7-1 1.4-3 3.3-5.4 6.4-2.4 4.3 4 9.6 5.2 15 6.5 3.2.8 7.1.2 9.6 1.9 6.6 4.6 13.8 5.4 21.4 6.4 4.3.5 8.3-1.3 12.4 0 14.4 4.7 28.5 1.8 42.5-1.9 1.7-.4 3.5-.6 5.1-1.1 5.7-1.7 12-.4 17.3-3.6 11.9-7.1 25.8-9.6 37.9-16.8 5.1-3.1 11-5.2 15.8-9 2.4-1.9 5-3.4 7.7-3.5 5.3-.1 7.1-3.3 9.1-8.5-9.3 1.7-17 4.4-23.9 9.7-2.7-3.9-2.1-7.6-1.9-11.3l.2.1c2.2 1.4 4.6 2.3 8.1 2.4-2.4-3.7.5-6.9 0-10.3.3-.8.4-2 1-2.4 6.5-3.4 11.2-8.9 16.5-13.8 6.7-6.2 12.2-13.6 19-19.6 8.7 0 8.7.1 9.9 9.2.8 6.4-4.6 5.8-8.5 7.5-1 1.4-.2 3.9-2.2 5.1-1.8 1.4-3.8-1.3-5.3-.1-3.5 3.7 1.8 8.1-2 12-3.8 3.9-7.8 1-12 1.3.6 3.1 1.1 5.8 1.9 10.3 5.8-6.7 11.9-9.7 19.4-6.5"/>
  <path d="m385 385c.4-.1.7-.3 1.1-.4 10 .1 19.3-1.6 26.5-9.5 1-.4 2-.8 3-1.2-7.6 28.5-17.8 55.7-37 79-2.4-1.9-5.3-2.8-7.9-3.8-1.1-14.9-.7-17.8 3.6-26.6-2-2-3-4.5-2.8-7.5 2.8-5.8 6.8-11 7.4-17.7 4.7-.7 4.1-5.3 5.9-8.1.1-1.3.3-2.5.5-3.7"/>
 </g>
 <g style="fill:#595958">
  <path d="m312 480c-.2 3.7-.8 7.4 1.9 11.3 6.8-5.3 14.6-8 23.9-9.7-2 5.2-3.8 8.4-9.1 8.5-2.7.1-5.3 1.6-7.7 3.5-4.8 3.8-10.7 6-15.8 9-12 7.2-26 9.7-37.9 16.8-5.3 3.2-11.7 1.9-17.3 3.6-1.7.5-3.4.7-5.1 1.1-14 3.7-28 6.5-42.5 1.9-4.1-1.3-8.1.5-12.4 0-7.6-1-14.8-1.8-21.4-6.4-2.5-1.7-6.4-1.2-9.6-1.9-5.3-1.3-10.7-2.5-15-6.5-3.2-3-5.1-.6-6.4 2.4-2.9-.4-5.4-1.6-7.5-3.7.5-3-1.2-4.5-3.7-5.1-2.4-.6-3.1-2-2.9-4.2 2.9-.9 4.8 1.1 7.2 2 7.8 3 15.8 5.9 24.3 6.1.5 1.6 1.2 3.1 3 3.6 11.4 4.1 22.8 7.5 35 6.9 11.2-.6 22.5-.3 33.7-.1 4.7.1 9.3-.5 13.6-2.1 6.9-2.7 14-3.8 21.3-3.3 4.6-.7 9.4-1.1 13.3-4 4.4.5 4.7-6.1 9.3-5.3 2.6-.1 3.9-1.4 4-3.9.4-.4.9-.9 1.3-1.3 1.9 0 3.9 0 4-2.7.4-.4.9-.9 1.3-1.3 7.1-1.5 10.9-6.1 12-13 1.7-.9 3.1-2.1 5-2.1"/>
  <path d="m371 415c-.2 3 .7 5.5 2.8 7.5-4.3 8.8-4.7 11.8-3.6 26.6 2.6 1 5.5 1.9 7.9 3.8-5.3 8.7-12.3 16-20 22.6-7.6-3.2-13.6-.3-19 6.6-.8-4.4-1.4-7.1-1.9-10.3 4.3-.3 8.3 2.6 12-1.3 3.8-3.9-1.5-8.2 2-12 1.5-1.2 3.5 1.5 5.3.1 1.9-1.2 1.1-3.7 2.2-5.1 3.9-1.6 9.3-1.1 8.5-7.5-1.2-9.1-1.3-9.2-9.9-9.2 3.2-7.8 9.5-13.6 12.8-21.3-.1-.2.5-.3.9-.5"/>
 </g>
 <path d="m124 500c-.2 2.2.5 3.6 2.9 4.2 2.5.6 4.2 2.2 3.7 5.1-10.2-2.5-17.4-10-26-15.2-3.3-2-7.5-3.1-8.7-7.6 7.5 3 14.7 6.4 21.5 10.8.2 1 .1 2.3 1.6 2 .5-.1.7-1.2 1.1-1.9.8 0 1.7.1 2.5.1.2 1 .5 2 1.5 2.5" style="fill:#605f5f"/>
 <path d="m28.4 232c0 1.1-.3 2.1-1.3 2.7-2.8-1.1-3-3.4-3-5.9 0-2.1.8-4.5-1.3-6.2-.2-2.1-.1-4 2.6-4.5 3 2.6 5.2 5.6 4 9.9-3.3.7-3.4 2.1-1 4" style="fill:#d20e03"/>
 <path d="m89 350c5.3.9 10.5.5 15.5-1.4 1.8-.7 3.8-1.2 5.7-1.6 8-1.7 11.4.4 13.9 8.5-1.4 3.8.5 8.1-1.8 11.8-1 1.4-1.9 2.8-3.2 4.6-12.7-.7-22.9-5.9-30-16.7-1.1-1.8-2.2-3.5 0-5.2" style="fill:#1a450e"/>
 <path d="m122 382c1.8 6.8 0 12.7-4.3 17.9-.3-6.4 2.6-12 4.3-17.9" style="fill:#f2d06e"/>
 <path d="m117 400c.8 3.1-.6 5.9-.9 8.7-2.6.8-4.6.6-6.3-1.2.4-4.5 5.3-4.6 7.2-7.5" style="fill:#dfc4be"/>
 <path d="m105 414c-.9.4-1.8.9-2.7 1.3-.9-2.6-.6-4.6 2.5-5.3 0 1.3.1 2.6.2 4" style="fill:#605f5f"/>
 <path d="m149 266c.3-4.8 1.2-9.5 2.3-14 2-8.5 5.1-15.8 14.9-17.6 1-.2 1.9-1 2.8-1.5 6.1-.5 12.2-1 18.4-1.5 1 .1 2.1.2 3.1.3 3.6 3.6 8 5.3 13 4.9 2 .9 4.1 1.7 6.4 1.7 6.2 2.7 12.2 6 19 6.6 4.4 1.6 8.9 3.2 13.3 4.9.8 1 1.6 2 2.4 3 .1 4.1-6.2 5.8-4 10.7-.2.4-.5.8-.7 1.3-3 2.6-3.9 6.1-4.3 9.8-.1 1.2-.1 2.3-.2 3.5-5.4 4.9-10.3 10.3-16.2 14.5-6.4 1.3-12 4.6-17.5 7.9-.9.1-1.7.2-2.6.2-1.3 0-2.6 0-3.9 0-12.4.2-24.8.4-34-9.7-.3-1.5-1.3-2.2-2.7-2.6-2.1-3.1-4.3-6.2-6.4-9.3.2-1.3 1-2.6-.3-3.8.3-1.9-1.1-2.7-2.3-3.6v-.4c-.2-1.6-.3-3.4-.4-5.2m32.8 19.5c5.8-5.5 5.9-7.3.7-9.2-2.7-5.3-8.6-6.2-15.5-3.3-4.6 1.9-5.4 5.1-4 8.9 1 2.8 1.3 6.1 3.7 8.3.8 2.6 2.7 2.7 4.9 2.2 2.1.7 3.4-.4 4.4-2 3.1-.3 4.8-2.2 5.8-4.9" style="fill:#040203"/>
 <path d="m256 298c-.9 0-1.7 0-2.6 0-4.5-1.9-10.3-1.4-13.5-6.3 3.6-3.5 5.8.1 8.7.6 1.7-6.5-5.2-8.4-6.8-12.9 2.3-3.2 6.8.6 8.7-3 0-3.2-3.3-1.7-4.5-3.5.8-2.1.1-4.4-.5-6.7.3-1 .3-2.2 1.5-2.8.8 0 1.6 0 2.5-.1 4.4.8 3.2-2.7 3.4-5.2 2.7 0 5.1 0 7.5 0-.3.4-.5.9-.8 1.3-1 .9-2.9 1-3.1 3 .7 1.2 1.5 2.4 2.3 3.6-.2.4-.5.9-.7 1.3-1.3.6-2.3 1.5-2 3.1 1.8 9.3-.4 18.5-.1 27.6" style="fill:#f32403"/>
 <path d="m198 229c9.3 1.8 18.3 4.7 27 7.9-1.9 1-5.1-1-5.9 2.6-3.4.1-5.7-3-9-3.1-2-1.5-4.4-2-6.8-2.1-2.4-1-4.9-2-7.3-2.9.7-.8 1.2-1.6 1.8-2.4" style="fill:#491215"/>
 <path d="m296 258c-2.3.8-4.3-.7-6.4-.9-3.3-.2-6.2-.3-9.3 2-3.7 2.8-8.4 4-12.3-.6.2-.6.5-1.7.7-1.7 8.2 1.2 16.3-2.3 24.5-1 1.4.3 2.4.7 2.8 2.2" style="fill:#a1422e"/>
 <path d="m220 239c.7-3.6 4-1.7 5.9-2.6 3.2.3 5.7 2.2 8.6 3.2.2 2-1.7 2.4-2.7 3.4-.6 0-1.3.1-1.9.1-2.3-3.7-7.2-1.5-9.9-4.1" style="fill:#330502"/>
 <path d="m187 231c-6.1.5-12.2 1-18.4 1.5 0-.7 0-1.4 0-2.1 0-.4 0-.9 0-1.3 4.1-.4 8.2-1 12.3-1.2 2.5-.1 4.8.8 6.1 3.1" style="fill:#b8b8a3"/>
 <path d="m197 231c2.4 1 4.9 2 7.3 2.9-.1.9-.2 1.7-.2 2.6-5.1.3-9.5-1.3-13-4.9.4 0 .7-.2 1-.6 1.6 0 3.3 0 5 0" style="fill:#dfc4be"/>
 <path d="m246 264c-1.2.5-1.2 1.7-1.5 2.8-.9-.1-1.8-.1-2.7-.2v.1c.4-1.3.1-2.3-1.3-2.6-2.2-4.9 4.1-6.6 4-10.7.7.9 1.4 1.8 2.2 2.7-1.8 2.4-.3 5.2-.7 7.9" style="fill:#1a0705"/>
 <path d="m169 229c0 .4 0 .9 0 1.3-2.1.4-4.1.8-6.2 1.3-1-1.7-2.6-2.5-4.3-3.3 1.2-1.7 2.4-3.4 3.7-5.1.9 1.5 1.9 2.9 3.9 2.9.1 1.7 1.4 2.4 2.9 2.9" style="fill:#b6416b"/>
 <path d="m197 231c-1.7 0-3.4 0-5.1 0-.5-1.4-2.3-2.1-1.8-4.4 3.1-.4 6.2-1.6 8.6 1.9-.6.9-1.1 1.7-1.7 2.5" style="fill:#9c0d04"/>
 <path d="m232 243c1-1.1 2.9-1.4 2.7-3.4 4.1.2 7.2 1.3 6.6 6.4-3.1-1-6.2-2-9.3-3" style="fill:#491215"/>
 <path d="m232 243c3.1 1 6.2 2 9.3 2.9.6 1.2 1.2 2.5 1.8 3.7-4.4-1.6-8.9-3.2-13.3-4.9.1-.5.2-1.1.4-1.6.5 0 1.1 0 1.8-.1" style="fill:#a1422e"/>
 <path d="m246 264c.3-2.7-1.1-5.5.6-8 3.5 2 1.2 5.3 1.8 8-.7-.1-1.5 0-2.4 0" style="fill:#ea2305"/>
 <path d="m166 226c-2 0-3-1.3-3.9-2.9.2-.8.4-1.5.6-2.3 2.4-1.1 3.7 0 4.3 2.3-.3 1-.7 1.9-1 2.9" style="fill:#dfc4be"/>
 <path d="m120 498c-.4.7-.6 1.8-1.1 1.9-1.4.2-1.4-1.1-1.6-2 .9 0 1.8.1 2.7.1" style="fill:#595958"/>
 <path d="m149 272c1.2.9 2.7 1.7 2.3 3.6-2.3 1.5-.5 2.6.3 3.8 2.1 3.1 4.3 6.2 6.4 9.3 0 1.4-.1 2.7-.1 4.1-1.8.2-3.2 1.1-2.2 2.9 1.4 2.5 2.5 5.7 6.5 5 .3.5.7 1.1 1 1.6 0 1.5-.2 3.1 1.6 3.8 1.9 1.1 2.7 2.8 2.4 5-1.5.2-2.5.9-2.5 2.4-.3 7.2-.7 14.4 3.7 20.8.1 1.3.2 2.5.3 3.8-1.2 1.7-3.3 2.7-3.5 5.1-1.8 4.4-2.9 9.1-5.5 13.2-1.8 2.9-1.2 6.4-.1 9.6-.7 1.2-1.5 2.5-2.2 3.7-3.5.7-5.1 3.9-7.7 5.8-1.6-.5-3.1-.9-4.7-1.4-.2-.4-.3-.9-.5-1.3-.8-5.1-8.8-8.6-15.7-6.9-2.4-2.8-3.5-6.1-3.1-9.8.5-7.3-2.4-14.8 1.6-21.8.1-.2.3-.4.5-.5.7.2.9-.2.9-.8 4.4-7.9 5.1-16.5 5.6-25.7-5.7-.8-5.3-4.5-5.2-8.8.1-9.5 4.4-15.5 12.8-19 2.4-.4 3.2 3.8 6.6 1.9-3-3.1-1.6-6.2.5-9.2m-11.9 24.4c5.1-5 4.9-6.2-1.6-8.4.3 2.9-1.1 5.6 1.6 8.4m16.3-5.2c.8-2.7.2-4.1-2.8-4.6-.8 2.7-.1 4.1 2.8 4.6" style="fill:#f7f5ef"/>
 <path d="m163 301c-4 .8-5.2-2.5-6.5-5-.9-1.8.5-2.7 2.2-2.9 1.2.1 2.2-.3 2.8-1.5 9.5 10 21.9 9.9 34 9.7.1.7.2 1.5.3 2.2-1 .4-2.3.3-2.8 1.6-4.4.1-8.9.2-13.3.2-3.5-2.2-7.6-1.7-11.3-3-2-.3-2.6-6.4-5.7-1.3" style="fill:#dfc4be"/>
 <path d="m205 316c3-3.7 9.5-3.7 9.6-9.6 4-.9 7.3 2.7 10.7-.9 2.4 5.8 3.4 11 7.1 14.7-1.2 3-2.9 4.6-5.7 4.2 1.5-4-1.9-6.8-2.6-10.3.4-1.4 1-2.8-.8-4.5-2.5.7-5.4 1.2-7 4.2-.4 0-.7.2-1 .4-3.2-.2-6.2 1-9.3 1.8-.4 0-.7.1-1 0" style="fill:#f32403"/>
 <path d="m169 334c-4.4-6.4-4-13.6-3.7-20.8.1-1.6 1.1-2.3 2.5-2.4 5.4 1.6 2.7 6.5 3.8 9.8.1.9.2 1.7.3 2.6-.4 3.7 1 8-2.9 10.8" style="fill:#f2d06e"/>
 <path d="m216 314c.3-.2.6-.3 1-.4 2.6.1 5.2.2 7.8.3.7 3.5 4.1 6.3 2.6 10.3-.5 0-.7.2-.8.7-1.2-.3-2.5-.6-3.7-.8v.1c-.2-.7-.5-1.4-.7-2.2.8-.4 1.6-1.3.8-1.9-1.2-1-1.8.3-2.2 1.2-1.6-.1-3.2-.1-4.9-.2-1.1-2.4-2.5-2.4-4.1-.5-.4.1-.7.1-1.1 0-1.8-.1-3.7-.1-5.5-.2.1-1.3.1-2.6.2-4l.3-.3v-.3c.3 0 .7 0 1-.1 3.4.9 6.8 1.9 9.3-1.7" style="fill:#f7f5ef"/>
 <g style="fill:#f32403">
  <path d="m202 301c5.5-3.3 11-6.6 17.5-7.9 1.3 2.3 2.6 4.7 3.9 7-3.3 2.3-4.6-1.4-6.9-1.4-3.7.1-4.6 4.6-8.1 5.1-2.4-.1-3.8-3-6.4-2.8"/>
  <path d="m205 317c-.1 1.3-.1 2.6-.2 4-.7 4 1.9 2.5 3.8 2.3.1.5.2 1 .3 1.4-1.1 1.9-2.9 2.6-4.9 2.8-5.1-2.4-5.6-7.8-8.1-12 .8-2.2 2.2-3.7 5.2-3.6 1.1 1.8-.8 6.3 3.9 5.1"/>
  <path d="m193 365c-2.4 0-4.8 0-7.2 0-2.4 0-4.4-.6-4.8-3.3-.4-2.8 1.2-5 3.6-5.5 3.8-.8 7.8-.8 9.7 3.8-1.1 1.5-2 3-1.3 5m-6-4.3c-1.1-1-2.1-1.2-2.9-.2-.2.3 0 1.4.3 1.5 1 .6 2 .5 2.6-1.3"/>
 </g>
 <path d="m193 365c-.7-2 .1-3.5 1.3-5 1.7-.2 3.5-.4 5.2-.7 1.9.8 4.4-.4 5.9 1.9 1.1 2.4-1.3 3.4-1.9 5.1-1.8 0-3.6 0-5.3.1-.6-1.2-1.6-1.1-2.6-.9-.9-.2-1.7-.3-2.6-.5" style="fill:#491215"/>
 <path d="m238 303c4.3 5.3 1.3 8.7-1.5 13.3-4.2-5.3-2.6-8.9 1.5-13.3" style="fill:#f32403"/>
 <path d="m209 324c-.1-.5-.2-1-.3-1.4.6-.7 1.2-1.4 1.7-2.1.4.1.7.1 1.1 0 1.2 1.4 2.6 1.3 4.1.5 1.6.1 3.2.1 4.9.2-.1.2-.1.5 0 .7-.1.8-.2 1.5-.3 2.3-1.1-.2-1.8.3-2.1 1.4-1.6.8-3.2 1.6-5.1 1.3-1.4-1.1-2.7-2-4-2.9" style="fill:#491215"/>
 <g style="fill:#f32403">
  <path d="m172 323c-.1-.9-.2-1.7-.3-2.6 1-.6 1.2-1.6 1.6-2.7 1.7-5.1 3.9-5.4 8.3-.4-4.4.3-5 5.8-9.6 5.7"/>
  <path d="m158 370c.7-1.2 1.5-2.5 2.2-3.7 2.7.3 5.6-.6 8.3.7-2.8 5.3-6.1 6.2-10.5 3"/>
  <path d="m166 343c.2-2.4 2.3-3.4 3.5-5.1 3.8 1 4.1 3.7 3.6 7.4-2.7-.3-4.5-2.9-7.1-2.3"/>
 </g>
 <path d="m146 374c1.6.5 3.1.9 4.7 1.4 0 1.5 0 3.1 0 4.6-1.5.3-2.9.7-4.3-.4-1.1-1.8-.7-3.7-.4-5.6" style="fill:#b6416b"/>
 <path d="m188 323c3.6-.8 6.2-1.2 8.9.1-3.2 4.2-3.3 4.2-8.9-.1" style="fill:#f32403"/>
 <path d="m236 275c.4-3.7 1.4-7.2 4.3-9.8.5.7.5 2.2 2.1 1.4v-.1c-2.2 1.7-2.2 4.3-2.6 6.7-1.4.6-2.6 1.2-3.8 1.8" style="fill:#1a0705"/>
 <g style="fill:#f32403">
  <path d="m180 305c4.4-.1 8.9-.2 13.3-.2-4.4 2.1-8.8 5.7-13.3.2"/>
  <path d="m169 355c2.7-1 4.2-.3 4.5 2.2.1.6-.9 1.7-1.5 1.8-2.8.4-3.2-1.4-3-4"/>
  <path d="m195 330c-2.8 2.8-4.4 4.2-7.1 2.4.8-4.2 3.5-2.5 7.1-2.4"/>
  <path d="m183 395c-2.3-2.7-2.5-4.3 0-6 2.5 1.7 2.3 3.3 0 6"/>
  <path d="m213 327c1.9.4 3.5-.4 5.1-1.3.5 1.4 1 2.8 1.4 4.2-2.3-.6-6 1.9-6.5-2.9"/>
  <path d="m236 275c1.2-.6 2.5-1.2 3.7-1.8.1 2.8.3 5.6-3.9 5.3.1-1.2.1-2.4.2-3.5"/>
  <path d="m194 371c-2.6 1.7-4.3 1.8-6.5.1 2-1.7 3.8-1.7 6.5-.1"/>
  <path d="m177 347c.5-4 2.5-3.1 4.9-2.6-1 2.3-2.3 3-4.9 2.6"/>
  <path d="m161 378c-.8 2.7-3.2 2.6-5.2 3 .2-3.5 1.1-6 5.2-3"/>
  <path d="m176 362c1.3 1.7 1 3 0 4.2-1.8 0-2.8-.8-2.6-2.3.1-1.1.9-1.9 2.6-1.9"/>
  <path d="m208 306c.8 1.8.6 2.7-.2 3.6-.6.7-1.3 1.1-2.5.4-.1-1.8.3-3.3 2.7-4"/>
  <path d="m176 335c1.9-.2 3 .5 2.8 2.1-.1 1.1-1.1 1.3-2 1-1.8-.7-1.1-1.9-.8-3.1"/>
  <path d="m184 312c1.4-1.3 2.7-.9 4 0-.2 1.9-1.5 1.7-2.5 1.7-1-.1-1.7-.6-1.5-1.7"/>
  <path d="m163 301c3.1-5.2 3.8 1 5.7 1.3-1.1.1-2.2.1-3.2.2-.5 0-.9.1-1.4.1-.5-.5-.8-1-1.1-1.6"/>
  <path d="m179 327c.9-.9 1.8-1 2.7-.1-1.2 1.5-1.2 1.5-2.7.1"/>
  <path d="m223 324c1.2.3 2.5.6 3.7.8-.3 1.1-.7 2.1-2 2-1.9-.1-1.9-1.4-1.7-2.8"/>
 </g>
 <path d="m196 303c-.1-.7-.2-1.5-.3-2.2 1.3 0 2.6 0 3.9 0-.1 2.5-1.7 2.5-3.6 2.2" style="fill:#b6416b"/>
 <g style="fill:#f32403">
  <path d="m220 330c1 .1 2 .1 3 .2-1.4 2.3-2.5 3-3-.2"/>
  <path d="m196 365c1.1-.2 2.1-.3 2.6.9-1.6 1.9-2.3.8-2.6-.9"/>
 </g>
 <path d="m164 302c.5 0 .9-.1 1.4-.1.1 1.3.1 2.6.2 3.9-1.9-.7-1.6-2.3-1.6-3.8" style="fill:#ede6db"/>
 <path d="m220 324c.1-.8.2-1.5.3-2.3.5 0 .9 0 1.4 0 .2.7.5 1.4.7 2.2-.8 0-1.6.1-2.4.1" style="fill:#f32403"/>
 <path d="m296 495c-.4.4-.9.9-1.3 1.3-1.9 0-3.3.9-4 2.7-.4.4-.9.9-1.3 1.3-2.6.1-3.9 1.4-4 3.9-4.6-.9-4.9 5.8-9.3 5.3-4.8.1-10-1-13.3 4-7.3-.4-14.4.6-21.3 3.3-4.3 1.7-8.9 2.2-13.6 2.1-11.2-.2-22.5-.5-33.7.1-12.4.6-23.8-2.8-35-6.9 2.6-2.1 5.4-1.4 8.1-.4 6.4 2.5 13 3.2 19.9 3.1 7.5 0 15 0 22.5 0 2.7-.2 5.7 1.2 8-1.2 3.1 0 6.2-.1 9.3-.1 6.3.3 12.6 1 17.6-4.4.9-1 3.3-.6 5-.9 14 0 27-2.9 38-12.4 3.9-3.2 8.1-7.2 13.5-8.6-.2 3.7-4.2 4.8-5.3 7.8" style="fill:#3d3b3b"/>
 <path d="m312 480c-1.9 0-3.3 1.1-4.8 2-.8 0-1.7-.1-2.5-.1l-.2-.1c.6-5 4.2-9.4 3-14.7-.1-.4-.3-.9-.4-1.3-.9-2.2-2.7-2.7-4.9-2.6-1.8.1-3-.6-3.1-2.6.6-.2 1.1-.6 1-1.4.3-.2.6-.3.9-.2 11.9 2.8 11.9 2.8 10.2 15.2-.1 1 .4 1.6 1.1 2.2 0 1.2-.1 2.5-.1 3.7h-.2" style="fill:#9c0d04"/>
 <g style="fill:#491215">
  <path d="m249 508c-1.7.3-4.1-.1-5 .9-5 5.4-11.3 4.7-17.6 4.4.5-3.2 3.1-2.6 5.1-2.5 5.5.3 9.1-2 10.4-7.7 3.4.2 6.4.7 7.1 4.9"/>
  <path d="m186 515c-6.8.2-13.5-.6-19.9-3.1-2.7-1-5.5-1.7-8.1.4-1.8-.5-2.5-2-3-3.6 1.4-.1 2.9-.2 4.3-.2 8.6.7 16.7 4.1 25.4 4.5.5 0 .9 1.3 1.3 2"/>
 </g>
 <path d="m305 482c.8 0 1.7.1 2.5.1-1.1 7-4.9 11.5-12 13 1.1-3.1 5.1-4.2 5.3-7.8 2-1.4 3.7-3 4.2-5.4" style="fill:#464646"/>
 <g style="fill:#491215">
  <path d="m308 467c1.2 5.3-2.5 9.7-3 14.7-2.9-.3-3.2-2.4-2.3-4.3 1.6-3.5 2.6-7.4 5.3-10.4"/>
  <path d="m300 460c0 2 1.3 2.7 3.1 2.6 2.2-.1 3.9.4 4.9 2.6-3.9-.5-8.7 1.7-10.7-3.9.9-.4 1.8-.8 2.7-1.3"/>
  <path d="m217 514c-2.4 2.4-5.3 1-8 1.2 2-4.3 5-2.7 8-1.2"/>
  <path d="m385 385c-.2 1.2-.3 2.4-.5 3.7-2-.3-3.6.2-5.5 1-7.6 3-15.4 5.7-23.6 6.4 0-.8 0-1.6.1-2.4 7-4 14.7-6.1 22-9.3 2.7-1.3 5.2-2.5 7.5.6"/>
 </g>
 <path d="m355 396c8.2-.8 16-3.4 23.6-6.4 2-.8 3.6-1.2 5.5-1-1.8 2.8-1.2 7.4-5.9 8.1-3.6-3.5-7 0-10.4.5-5.8.9-10.6 5.7-17 4.3-.2-.4-.3-.8-.3-1.2.9-1.2 1.8-2.3 2.7-3.5.7-.3 1.2-.6 1.8-.8" style="fill:#9c0d04"/>
 <path d="m129 366c7-1.7 15 1.8 15.7 6.9-2.8-.9-4.3 1.8-6.9 2.6-1.7-4.2-8.5-3.6-8.8-9.5" style="fill:#f2d06e"/>
 <path d="m150 389c4.8 1 4.6 3.2 2.2 6.6-3-1.7-1.7-4.1-2.4-5.8-.2-.3-.1-.6.2-.8" style="fill:#010101"/>
 <path d="m300 354c-2.1 2.9-1 7.8-5.5 9.3.7-4.1-3.9-7.7-1.2-12 2.5.2 5.4-.5 6.7 2.7" style="fill:#a1422e"/>
 <path d="m351 402c6.4 1.3 11.2-3.5 17-4.3 3.4-.5 6.8-4 10.4-.5-.6 6.7-4.6 11.9-7.4 17.7-.4.2-1 .3-1.1.6-3.4 7.7-9.7 13.5-12.8 21.3-6.8 6-12.3 13.4-19 19.6-5.3 4.9-10 10.3-16.5 13.8-.6.3-.7 1.5-1 2.4-2.7 1.4-5.3 2.8-8 4.2-.7-.6-1.2-1.2-1.1-2.2 1.7-12.4 1.7-12.4-10.2-15.2.5-.8.9-1.5 1.4-2.3 4.2-2 7.4-5.3 10.6-8.7 4.4-4.7 9.1-9 13.7-13.4 1.4 2.1 3.4 3.3 6.8 4.5-1.7-6.3 3.5-4.7 6.3-6 .4-3.6-3.6-4.7-3.6-7.7 5.8-7.4 8.9-16.3 14.5-23.8" style="fill:#d20e03"/>
 <path d="m327 435c-4.6 4.4-9.4 8.7-13.7 13.4-3.2 3.4-6.4 6.6-10.6 8.7-10.5-7.7-11.7-19.9-3-30.5 1.2-1.5 3-2.6 3.6-4.6 2.2-7.9 7.9-10.8 15.5-10.3 5.3.3 9.5-2.1 13.5-4.7 5.8-3.6 12-5.1 18.6-6 0 .4.1.8.3 1.2-5.5 7.5-8.6 16.4-14.6 23.6-3.7 2.7-7 5.6-9.6 9.2" style="fill:#47ce27"/>
 <g style="fill:#ea2305">
  <path d="m258 266c-.8-1.2-1.6-2.5-2.3-3.6.2-2 2.1-2.1 3.1-3-.1 2.2-.2 4.5.7 6.6-.5-.1-1-.1-1.5 0"/>
  <path d="m226 373c.4.5.8 1.1 1.2 1.6-3.2-.9-7.7 2.8-9.7-2.7 2.8.4 5.7.7 8.5 1.1"/>
 </g>
 <path d="m149 272c-2.1 3-3.5 6.1-.6 9.3-3.4 1.9-4.2-2.3-6.6-1.9 1.4-3.1 2.8-6.1 4.2-9.2 1 .5 1.9.9 2.9 1.4v.4" style="fill:#ede6db"/>
 <path d="m149 271c-1-.5-1.9-.9-2.9-1.4.2-1.3.4-2.6.6-3.9.7 0 1.3 0 2 0 .1 1.8.2 3.6.3 5.3" style="fill:#f7f5ef"/>
 <path d="m129 333c0 .6-.2 1-.9.8-.3-.9.3-.8.9-.8" style="fill:#b8b8a3"/>
 <path d="m254 326c.3.4.3.8.2 1.3-.2-.3-.4-.6-.6-.9 0-.1.3-.3.4-.4" style="fill:#ea2305"/>
 <path d="m417 140c.5-.4.9-.8 1.4-1.2 5.1.2 8.6 4.2 7.5 8.7-.8 3.4-3.2 2.9-5.7 2.1-.9-.9-1.7-1.7-2.6-2.6-1.2-2.3-.8-4.6-.6-7" style="fill:#0d0303"/>
 <path d="m28.4 232c-2.4-1.9-2.3-3.3.9-4 .1.9.3 1.8.4 2.6-.4.5-.9 1-1.3 1.4" style="fill:#9c0d04"/>
 <path d="m299 365c-.8 1.4-1.1 3-2.6 4-3-3.9-.1-3.9 2.6-4" style="fill:#3d3b3b"/>
 <path d="m313 476c2.7-1.4 5.3-2.8 8-4.2.5 3.4-2.4 6.6 0 10.3-3.5-.1-5.9-1-8.1-2.4 0-1.3.1-2.5.1-3.7" style="fill:#595958"/>
 <g style="fill:#464646">
  <path d="m262 514c3.3-5 8.5-3.9 13.3-4-3.9 2.9-8.6 3.2-13.3 4"/>
  <path d="m285 504c.1-2.5 1.5-3.9 4-3.9-.1 2.5-1.4 3.8-4 3.9"/>
  <path d="m290 499c.7-1.8 2.1-2.7 4-2.7-.1 2.8-2 2.7-4 2.7"/>
 </g>
 <path d="m176 290c-1.1 1.6-2.4 2.6-4.4 2-.3-3.7-3-2-4.9-2.2-2.4-2.2-2.6-5.5-3.7-8.3-1.4-3.8-.6-7 4-8.9 7-2.9 12.8-2 15.5 3.3-.2 1.1-.4 2.2-.6 3.3-3.5-.3-7.6-1.3-5.5 4.9-.7 1.9-.6 3.9-.4 5.9" style="fill:#ea2305"/>
 <g style="fill:#b6416b">
  <path d="m230 243c-.1.5-.2 1.1-.4 1.6-7-.6-13-3.8-19-6.6.2-.7.5-1.5.7-2.2 3.3.1 5.6 3.1 9 3.1 2.7 2.6 7.6.4 9.9 4.1"/>
  <path d="m182 280c.2-1.1.4-2.2.6-3.3 5.2 1.9 5 3.8-.7 9.2-.4-.4-.7-.8-1.1-1.2.4-1.5.8-3.1 1.2-4.7"/>
  <path d="m176 290c-.2-2-.3-4 .4-5.9 1.4 0 2.9 0 4.3-.1.4.4.7.8 1.1 1.2-1 2.7-2.7 4.6-5.8 4.8"/>
 </g>
 <path d="m211 236c-.2.7-.5 1.5-.7 2.2-2.3 0-4.4-.8-6.4-1.7.1-.9.2-1.7.2-2.6 2.5.2 4.9.6 6.9 2.1" style="fill:#8e8e8e"/>
 <path d="m167 290c1.9.2 4.6-1.5 4.9 2.2-2.2.6-4.1.4-4.9-2.2" style="fill:#b6416b"/>
 <g style="fill:#ede6db">
  <path d="m161 291c-.6 1.2-1.6 1.6-2.8 1.5 0-1.4.1-2.7.1-4.1 1.4.4 2.4 1.2 2.7 2.6"/>
  <path d="m152 279c-.9-1.2-2.6-2.3-.3-3.8 1.2 1.2.5 2.5.3 3.8"/>
 </g>
 <path d="m242 266c-1.5.8-1.6-.6-2.1-1.4.2-.4.5-.8.7-1.3 1.4.5 1.7 1.4 1.4 2.7" style="fill:#f32403"/>
 <g style="fill:#ede6db">
  <path d="m138 296c-2.7-2.9-1.4-5.6-1.6-8.4 6.6 2.2 6.8 3.4 1.6 8.4"/>
  <path d="m154 291c-3-.5-3.6-1.9-2.8-4.6 3 .5 3.6 1.9 2.8 4.6"/>
 </g>
 <g style="fill:#dfc4be">
  <path d="m225 314c-2.6-.1-5.2-.2-7.8-.3 1.6-2.9 4.5-3.4 7-4.2 1.8 1.7 1.2 3.1.8 4.5"/>
  <path d="m216 314c-2.5 3.6-5.9 2.6-9.3 1.8 3.1-.8 6.1-2 9.3-1.8"/>
  <path d="m211 321c-.6.7-1.2 1.4-1.7 2.1-1.9.3-4.5 1.7-3.8-2.3 1.9.1 3.7.1 5.5.2"/>
  <path d="m216 321c-1.5.8-2.9.9-4.1-.5 1.6-1.9 3-1.9 4.1.5"/>
  <path d="m222 322c-.5 0-.9 0-1.4 0-.2-.2-.2-.4 0-.7.5-1 1-2.3 2.2-1.2.8.7 0 1.5-.8 1.9"/>
 </g>
 <path d="m187 360c-.6 1.8-1.6 1.9-2.6 1.4-.3-.2-.5-1.3-.3-1.5.8-1.1 1.8-.9 2.9.1" style="fill:#491215"/>
 <path d="m327 435c2.6-3.6 5.9-6.5 9.4-9.2 0 3 4 4.1 3.6 7.7-2.7 1.3-7.9-.3-6.3 6-3.3-1.3-5.3-2.4-6.7-4.5" style="fill:#d21104"/>
 <path d="m181 284c-1.4 0-2.9 0-4.3.1-2.1-6.1 2-5.2 5.5-4.9-.4 1.6-.8 3.2-1.2 4.8" style="fill:#491215"/>
</svg>
