<svg xmlns="http://www.w3.org/2000/svg" width="160" height="329" viewBox="0 0 160.2 329.4" style="enable-background:new 0 0 160.2 329.4">
 <g style="fill:#a50101">
  <path d="m54 207c0 17.4 10.9 43.5 1.9 59-1.7 2.9-14.7 21-18.4 21.9-11 2.3-15.3 41-28 41.8-2.5 0-8.3-45-8.3-49.7 0-10.3-3.9-28.4 2.1-37.5 2-3 11.3-10.5 12.4-13.9 1.6-5.2 29-48 35.6-47 6.8 1.3.6 25.7 2.8 25.7"/>
  <path d="m110 42.9c0 3.3 2.4 41.6.9 42-5.1 2.3-18.9 17-19 22.7-.5 9.1-31 34.5-31 28.6.1-24.6-2.1-49.7-2.1-74 0-6.5 14.9-21 18.8-27 3.2-4.9 23.9-34.7 26-34.7 14-.5 2.1 42.8 6.5 42.8"/>
  <path d="m115 131c.6-26.9-1.7-55 22-74 6.8-5.5 10-23 19.8-23.6 7-.5 1.5 34 1.4 39.9-.1 31.4-3.4 45.5-21.4 68.8-4.8 6.3-10.9 12.4-13.5 19.5-5.5 15.2-8.3-28.5-8.3-30.4"/>
  <path d="m110 235c0 26-.9 38-14.6 59.8-1.8 2.8-19.7 36.7-26.7 34.9-3.1-.8-4-23.3-4-24.6-.2-9.5 3.6-18.9 1.9-28.4-2.1-4.2-3.7-8.6-4.8-13 2.1-2.3 3.8-4.9 5.3-7.6.4-6.3 32.4-58 40-58 7.9 0 .1 37 2.8 37"/>
 </g>
</svg>
