<?xml version="1.0" encoding="utf-8"?>
<!-- Generator: Adobe Illustrator 17.0.0, SVG Export Plug-In . SVG Version: 6.00 Build 0)  -->
<!DOCTYPE svg PUBLIC "-//W3C//DTD SVG 1.1//EN" "http://www.w3.org/Graphics/SVG/1.1/DTD/svg11.dtd">
<svg version="1.1" id="Layer_1" xmlns="http://www.w3.org/2000/svg" xmlns:xlink="http://www.w3.org/1999/xlink" x="0px" y="0px"
	 width="160.2px" height="329.4px" viewBox="0 0 160.2 329.4" style="enable-background:new 0 0 160.2 329.4;" xml:space="preserve"
	>
<g id="red.svg">
	<path style="fill:#A50101;" d="M54.1,206.6c0,17.4,10.9,43.5,1.9,59.1c-1.7,2.9-14.7,21.1-18.4,21.9c-11,2.3-15.3,41-28.1,41.8
		C7,329.4,1.2,284,1.2,279.7c0-10.3-3.9-28.4,2.1-37.5c2-3,11.3-10.5,12.4-13.9c1.6-5.2,29.1-48.5,35.6-47.4
		C58.1,182.2,51.9,206.6,54.1,206.6C54.1,211.9,54.1,206.6,54.1,206.6z"/>
	<path style="fill:#A50101;" d="M110.1,42.9c0,3.3,2.4,41.6,0.9,42.2c-5.1,2.3-18.9,17-19.1,22.7c-0.5,9.1-31.1,34.5-31.1,28.6
		c0.1-24.6-2.1-49.7-2.1-74.5c0-6.5,14.9-21.1,18.8-27.1c3.2-4.9,23.9-34.7,26.1-34.7C117.7-0.4,105.7,42.9,110.1,42.9
		C110.1,53.1,110,42.9,110.1,42.9z"/>
	<path style="fill:#A50101;" d="M114.9,131.2c0.6-26.9-1.7-55.1,22-74.2c6.8-5.5,10.1-23,19.8-23.6c7-0.5,1.5,34.1,1.4,39.9
		c-0.1,31.4-3.4,45.5-21.4,68.8c-4.8,6.3-10.9,12.4-13.5,19.5C117.7,176.8,114.9,133.1,114.9,131.2
		C115.1,121.7,114.9,142.6,114.9,131.2z"/>
	<path style="fill:#A50101;" d="M110.2,234.7c0,26.1-0.9,38.4-14.6,59.8c-1.8,2.8-19.7,36.7-26.7,34.9c-3.1-0.8-4-23.3-4-24.6
		c-0.2-9.5,3.6-18.9,1.9-28.4c-2.1-4.2-3.7-8.6-4.8-13.1c2.1-2.3,3.8-4.9,5.3-7.6c0.4-6.3,32.4-58.4,40.1-58.4
		C115.3,197.3,107.5,234.7,110.2,234.7C110.2,245.6,110.2,234.7,110.2,234.7z"/>
</g>
<g>
</g>
<g>
</g>
<g>
</g>
<g>
</g>
<g>
</g>
<g>
</g>
<g>
</g>
<g>
</g>
<g>
</g>
<g>
</g>
<g>
</g>
<g>
</g>
<g>
</g>
<g>
</g>
<g>
</g>
</svg>
