<?xml version="1.0" encoding="utf-8"?>
<!-- Generator: Adobe Illustrator 17.0.0, SVG Export Plug-In . SVG Version: 6.00 Build 0)  -->
<!DOCTYPE svg PUBLIC "-//W3C//DTD SVG 1.1//EN" "http://www.w3.org/Graphics/SVG/1.1/DTD/svg11.dtd">
<svg version="1.1" id="Layer_1" xmlns="http://www.w3.org/2000/svg" xmlns:xlink="http://www.w3.org/1999/xlink" x="0px" y="0px"
	 width="398.5px" height="280.7px" viewBox="0 0 398.5 280.7" style="enable-background:new 0 0 398.5 280.7;" xml:space="preserve"
	>
<g id="white.svg">
	<path style="fill:#F4F4F4;" d="M0,135.1c6.1,1.9,48.3,9.3,48.9,15.2c0.6,6-41.4,49.9-48.9,50.8C0,179.1,0,157.1,0,135.1
		C2.6,135.9,0,157.1,0,135.1z"/>
	<path style="fill:#F4F4F4;" d="M230.4,280.3c-4.4,0-40.2-8.9-40.8-11.4c-1.3-5.9-47.6-9.9-53.8-14.6c-2.9-2.2,37.5-59.6,44.2-58.6
		c0.1,0,6-9.1,7-9.4c5.7-2,34.8,5.1,36.9,7.3c14.2,14.7,59.6-2.2,60.1,23.3c0.2,8.7-14.9,22.9-18.3,29.8
		c-1.7,3.6-11.4,9.5-14.3,13.6C246.9,266.8,242.8,282.9,230.4,280.3C228.3,280.3,234.8,281.2,230.4,280.3z"/>
	<path style="fill:#F4F4F4;" d="M352.2,127c-15.9-5.6-35.6-8.3-52.2-11c-6.6-1.1-33.8-5-36.9-12.4c-3.4-7.9,32.7-40.3,35.4-48.7
		c4.5-14.1,67.4,7.6,78.1,10.5c3.5,1,20.1,0.9,21.6,6c2.7,9.3-11.1,17.3-14.3,22.9C377.8,104.8,365.9,128.4,352.2,127
		C348.3,125.6,357.2,127.5,352.2,127z"/>
	<path style="fill:#F4F4F4;" d="M203.7,101c6.1,4.9,22.9,10,31.3,10.1c9.9,0.2-21.1,34.4-20.9,37.9c0.2,2.7-22.7,19.1-25.5,19.2
		c-4.2,0-46.5-9.8-48.6-13c-1.6-2.5-59.9-6.4-34.9-21.3c5.9-3.5,10.9-12.7,15.8-17.1c5.3-4.7,16.6-24.9,24.5-23.8
		C166.7,95.9,182.7,100.4,203.7,101C205,102,202.2,100.9,203.7,101z"/>
	<path style="fill:#F4F4F4;" d="M125.9,69c-10.8,0-79.4-17.9-77.5-23.7C52,34.5,91.9-5.1,104.5,0.5c9.1,4.1,74.4,9.9,76.5,18.7
		C183.5,30,134.7,69.1,125.9,69C124.1,69,126.6,69,125.9,69z"/>
</g>
<g>
</g>
<g>
</g>
<g>
</g>
<g>
</g>
<g>
</g>
<g>
</g>
<g>
</g>
<g>
</g>
<g>
</g>
<g>
</g>
<g>
</g>
<g>
</g>
<g>
</g>
<g>
</g>
<g>
</g>
</svg>
