<svg xmlns="http://www.w3.org/2000/svg" width="399" height="281" viewBox="0 0 398.5 280.7" style="enable-background:new 0 0 398.5 280.7">
 <g style="fill:#f4f4f4">
  <path d="m0 135c6.1 1.9 48 9.3 48.9 15.2.6 6-41 49.9-48.9 50.8 0-22 0-44 0-66"/>
  <path d="m230 280c-4.4 0-40-8.9-40.8-11.4-1.3-5.9-47.6-9.9-53.8-14.6-2.9-2.2 37.5-60 44-59 .1 0 6-9.1 7-9.4 5.7-2 34.8 5.1 36.9 7.3 14.2 14.7 60-2.2 60 23.3.2 8.7-14.9 22.9-18.3 29.8-1.7 3.6-11.4 9.5-14.3 13.6-4.5 6.5-8.6 22.6-21 20"/>
  <path d="m352 127c-15.9-5.6-35.6-8.3-52-11-6.6-1.1-33.8-5-36.9-12.4-3.4-7.9 32.7-40 35.4-48.7 4.5-14 67 7.6 78 10.5 3.5 1 20 .9 21.6 6 2.7 9.3-11 17.3-14.3 22.9-6.1 10.5-18 34-31.7 32.7"/>
  <path d="m204 101c6.1 4.9 22.9 10 31 10 9.9.2-21 34.4-20.9 37.9.2 2.7-22.7 19-25.5 19-4.2 0-46-9.8-48.6-13-1.6-2.5-59.9-6.4-34.9-21.3 5.9-3.5 10.9-12.7 15.8-17 5.3-4.7 16.6-24.9 24.5-23.8 21.3 2.9 37 7.4 58 8"/>
  <path d="m126 69c-10.8 0-79-17.9-77-23.7 3.6-10.8 43.5-50 56-44.8 9.1 4.1 74 9.9 77 18.7 2.5 10.8-46 49.9-55 49.8"/>
 </g>
</svg>
