<?xml version="1.0" encoding="utf-8"?>
<!-- Generator: Adobe Illustrator 17.0.0, SVG Export Plug-In . SVG Version: 6.00 Build 0)  -->
<!DOCTYPE svg PUBLIC "-//W3C//DTD SVG 1.1//EN" "http://www.w3.org/Graphics/SVG/1.1/DTD/svg11.dtd">
<svg version="1.1" id="Layer_1" xmlns="http://www.w3.org/2000/svg" xmlns:xlink="http://www.w3.org/1999/xlink" x="0px" y="0px"
	 width="351.3px" height="214.1px" viewBox="0 0 351.3 214.1" style="enable-background:new 0 0 351.3 214.1;" xml:space="preserve"
	>
<g id="yellow.svg">
	<path style="fill:#E3B204;" d="M1.3,66c10-6.9,33.9-44.6,51.1-26.4c2.5,2.7,21,7.5,24.9,7.4c3.9-0.1,40.6,6.9,42.3,9.9
		c3.8,6.6-37.8,46.3-43.3,52.4c-13.4,14.9-25.7-1.6-42.4-1.3c-8.2,0.1-9.1-5.4-21.5-5C-5.7,103.6,1.3,77.5,1.3,66
		C2.1,65.5,1.3,77,1.3,66z"/>
	<path style="fill:#E3B204;" d="M123.5,214c-3.9,0.5-46.5-8-47.2-9.6c-4.3-9.6-41.7-4-50.7-13.8C16,180.2,67.9,149.4,69.1,139
		c2.1-18.7,90,3.5,102.5,10.2C180.8,154,131.1,207.8,123.5,214C121,214.4,125.3,212.6,123.5,214z"/>
	<path style="fill:#E3B204;" d="M262.8,89.8c12.6,0,91.2,13.9,88.4,26.4c-2.3,10.6-23.1,19.6-22.9,29.8c0.1,4.2-11.7,18.8-15.6,21.9
		c-3.1,2.5-32.9,5.4-32.2-1.8c0.1-1-45.5-10.7-50.9-12.2c-17.4-4.8-23.2-8.7-12.7-24.3C224.6,118.1,248.7,87.6,262.8,89.8
		C265.7,89.8,256.7,88.8,262.8,89.8z"/>
	<path style="fill:#E3B204;" d="M207.6,0c11.2,0.1,58.6,4.7,64.3,12.8c4.9,7,18.4-5.4,18.4,7.3c0,6.4-21.9,17.7-18.3,24.2
		c0.5,1-13.3,17.1-16,19.8c-9.6,10.1-18.3,3.8-28.9,1c-8.8-2.3-71.1-7.7-73.5-14.8C149.4,38.2,197.5,0,207.6,0
		C213.2,0,206.1,0,207.6,0z"/>
</g>
<g>
</g>
<g>
</g>
<g>
</g>
<g>
</g>
<g>
</g>
<g>
</g>
<g>
</g>
<g>
</g>
<g>
</g>
<g>
</g>
<g>
</g>
<g>
</g>
<g>
</g>
<g>
</g>
<g>
</g>
</svg>
