<svg xmlns="http://www.w3.org/2000/svg" width="351" viewBox="0 0 351.3 214.1" style="enable-background:new 0 0 351.3 214.1">
 <g style="fill:#e3b204">
  <path d="m1.3 66c10-6.9 33.9-44.6 51-26.4 2.5 2.7 21 7.5 24.9 7.4 3.9-.1 40.6 6.9 42 9.9 3.8 6.6-37.8 46-43 52-13.4 14.9-25.7-1.6-42-1.3-8.2.1-9.1-5.4-21.5-5-18 .6-11-25.5-11-37"/>
  <path d="m124 214c-3.9.5-46-8-47-9.6-4.3-9.6-41.7-4-50.7-13.8-9.6-10.4 42-41 43.5-51.6 2.1-18.7 90 3.5 103 10.2 9.2 4.8-40.5 59-48 64.8"/>
  <path d="m263 90c12.6 0 91 13.9 88 26.4-2.3 10.6-23 19.6-22.9 29.8.1 4.2-11.7 18.8-15.6 21.9-3.1 2.5-32.9 5.4-32-1.8.1-1-45.5-10.7-50.9-12.2-17.4-4.8-23-8.7-12.7-24.3 7.7-11.5 31.8-42 45.9-39.8"/>
  <path d="m208 0c11.2.1 59 4.7 64 12.8 4.9 7 18.4-5.4 18.4 7.3 0 6.4-21.9 17.7-18.3 24 .5 1-13.3 17-16 19.8-9.6 10-18.3 3.8-28.9 1-8.8-2.3-71-7.7-73-14.8-4.2-12 43.9-50 54-50"/>
 </g>
</svg>
